<svg version="1.2" xmlns="http://www.w3.org/2000/svg" viewBox="0 0 629 203" width="629" height="203"><style>.a{fill:#c8ff20}.b{fill:#262f3c}.c{fill:#d30a0a}.d{fill:#fff}.e{fill:#272f3c}.f{fill:#5f2ebe}</style><path fill-rule="evenodd" class="a" d="m628.9 13q0 0.1-0.1 0.1 0 0-0.1 0.1 0 0-0.1 0.1-0.1 0-0.1 0.1c-0.2 0-0.4 0.1-0.5-0.4 0-0.3-0.2-0.2-0.3-0.1q-0.1 0.1-0.3 0.2-0.1 0.2-0.2 0.2-0.2 0.1-0.3 0.2-0.2 0-0.4 0 0 0-0.1 0 0-0.1-0.1-0.1 0 0.1-0.1 0.1-0.1 0-0.1 0-0.1 0-0.1 0 0 0.1 0 0.1-0.1 0-0.1 0.1 0 0 0 0-0.1 0.1-0.2 0.1 0 0.1-0.1 0.1-0.1 0.1-0.2 0.1-0.1 0-0.2 0 0 0.1-0.1 0.1-0.1 0.1-0.1 0.2 0 0 0 0.1 0 0.1 0 0.2 0 0 0 0.1 0 0.1 0 0.1 0 0.1-0.1 0.1 0 0.1-0.1 0.1-0.1 0-0.1 0.1-0.1 0-0.2 0.1-0.1 0.1-0.2 0.1 0 0.1-0.1 0.2-0.1 0.2-0.3 0-0.1 0-0.2-0.1-0.1 0-0.1 0-0.1 0-0.2 0-0.1 0-0.2 0 0 0.1 0.1 0.1 0 0.1 0.1 0.1 0.1 0.1 0.1 0.1 0.1 0 0.2 0 0.1 0 0.2 0.1 0.1 0.1 0.2 0.2 0.1 0.1 0.1 0.2 0.1 0.1 0.1 0.2c0.1 0.3-0.1 0.2-0.2 0.3-0.2 0.1-0.2 0.2 0 0.3q0 0.1 0.1 0.1 0 0 0.1 0.1 0 0 0 0.1 0 0.1 0 0.1 0 0.1 0 0.1 0 0.1-0.1 0.1 0 0.1 0 0.1-0.1 0-0.1 0c-0.1 0-0.1 0-0.1 0.1 0.1 0.3 0 0.4-0.2 0.5q0 0 0 0 0 0 0 0-0.1 0-0.1 0 0 0 0 0c-0.2 0-0.3 0.1-0.2 0.4 0.1 0.4 0 0.5-0.2 0.5q0 0-0.1 0 0 0.1-0.1 0.1 0 0 0 0-0.1 0-0.1 0 0 0-0.1 0.1 0 0 0 0-0.1 0.1-0.1 0.1 0 0.1 0.1 0.1c0 0.2 0.1 0.3 0.2 0.3q0 0 0.1-0.1 0 0 0 0 0.1-0.1 0.1-0.1 0 0 0-0.1c0.2-0.1 0.3-0.2 0.3 0.1 0.1 0.2 0.2 0.2 0.3 0.1 0.2-0.1 0.3 0 0.3 0.3q-0.1 0.1-0.1 0.1 0 0.1 0 0.2 0 0 0.1 0.1 0 0.1 0 0.1 0.1 0.1 0.2 0.1 0.1 0.1 0.2 0.1 0.1 0.1 0.2 0.1 0.1 0 0.3 0 0 0 0.1 0 0 0.1 0.1 0.1 0 0.1 0.1 0.1 0 0.1 0 0.2 0 0 0 0.1 0 0.1 0 0.2 0 0.1-0.1 0.1 0 0.1-0.1 0.1 0.1 0.1 0.1 0.1 0.1 0 0.1 0 0.1 0 0.1 0 0.1 0 0.1 0c0.1 0 0.3 0 0.2 0.2q0 0.1 0 0.3 0 0.1 0 0.2 0.1 0.2 0.1 0.3 0.1 0.1 0.2 0.2 0 0.1 0 0.3 0.1 0.1 0.1 0.2 0 0.2 0 0.3-0.1 0.1-0.1 0.2 0 0.2-0.1 0.1-0.1 0-0.2 0-0.1 0-0.2 0 0 0-0.1 0-0.1 0-0.2 0 0 0 0 0.1 0 0 0 0 0 0.1 0 0.1 0 0 0 0.1c0.1 0.3 0 0.4-0.2 0.5q-0.1 0-0.1 0-0.1 0-0.1 0-0.1 0-0.2 0 0 0-0.1 0c0 0.2 0.1 0.1 0.2 0.1q0 0.1 0.1 0.1 0 0.1 0 0.2 0.1 0 0.1 0.1 0 0 0 0.1 0 0.1 0 0.1 0 0.1-0.1 0.1 0 0.1-0.1 0.1 0 0.1-0.1 0.1-0.1 0-0.2 0-0.1 0.1-0.2 0.1-0.1 0-0.3 0-0.1 0-0.2 0 0 0-0.1 0 0 0.1 0 0.1-0.1 0-0.1 0 0 0-0.1 0.1c-0.1 0.1-0.3 0.2-0.4 0 0 0-0.1 0-0.1 0q-0.1 0.1-0.2 0.1-0.1 0.1-0.2 0.1-0.1 0.1-0.2 0.1-0.1 0-0.2 0 0 0-0.1 0 0 0 0 0 0 0.1-0.1 0.1 0 0 0 0-0.1 0-0.1 0.1 0 0.1 0 0.1-0.1 0.1 0 0.2 0 0 0 0.1 0 0 0 0 0 0 0 0 0.1 0 0.1 0 0 0.1 0 0.1 0 0 0 0.1 0 0.1 0.1 0.2 0 0 0 0.1 0.1 0.1 0.1 0.2 0.1 0 0.2 0.1 0 0.1 0.1 0.2 0 0.1 0 0.2 0 0.1 0 0.2 0 0.1-0.1 0.2-0.1 0-0.1 0.1 0 0-0.1 0 0 0-0.1 0.1 0 0 0 0-0.1 0-0.1 0 0 0.1 0 0.1 0 0 0 0 0 0-0.1 0 0 0.1-0.1 0.2 0 0.1 0 0.2 0 0.1 0 0.1 0 0.1 0.1 0.2 0.1 0.1 0.1 0.2 0.1 0.1 0.2 0.2 0.1 0 0.2 0.1 0.1 0 0.2 0 0.1 0 0.1 0.1 0.1 0 0.1 0 0 0 0.1 0.1 0 0 0 0 0.1 0.3 0.2 0.5 0.2 0.3 0.2 0.5 0.1 0.3 0.2 0.6 0.1 0.2 0.1 0.5c0.1 0.2 0 0.4-0.1 0.4-0.2-0.1-0.3 0.2-0.4 0.3q-0.1 0.1-0.2 0.1-0.1 0.1-0.1 0.1-0.1 0.1-0.2 0.2 0 0-0.1 0.1-0.2 0-0.3 0.1-0.2 0.1-0.4 0.1-0.1 0.1-0.3 0.1-0.2 0.1-0.3 0.1-0.1 0-0.1 0-0.1 0.1-0.1 0.1-0.1 0-0.1 0-0.1 0.1-0.1 0.1c-0.1 0.1-0.3 0.1-0.5 0.1q-0.2 0-0.4 0-0.1 0-0.3 0.1-0.2 0.1-0.3 0.2-0.2 0.1-0.3 0.3 0.1 0 0.2 0 0-0.1 0.1-0.1 0.1 0 0.1 0 0.1 0 0.2 0 0 0 0 0 0 0 0 0 0 0 0 0 0 0 0 0 0.1 0.1 0.1 0.1 0 0 0 0 0 0 0 0 0 0 0 0 0.1 0 0.1 0.1 0 0 0 0 0 0 0 0 0 0 0.1 0c0.3 0.1 0.5 0.4 0.9 0.1 0.2-0.3 0.4 0.1 0.6 0.3 0.1 0.2 0.4 0 0.4 0.4q0 0.1 0 0.2 0 0.1 0 0.2 0.1 0 0.1 0.1 0 0.1 0 0.2 0 0.1 0 0.1 0 0.1 0 0.2 0 0 0 0.1-0.1 0-0.1 0-0.1 0.1-0.2 0.1-0.1 0-0.2 0-0.1 0-0.2 0-0.1-0.1-0.2-0.1-0.1 0-0.1 0-0.1 0-0.2 0 0 0-0.1 0-0.1 0-0.1 0.1c-0.4 0-0.7 0.3-1.1 0.4q0 0-0.1 0.1 0 0-0.1 0.1 0 0.1-0.1 0.1 0 0.1-0.1 0.1c-0.1 0.1-0.2 0-0.2-0.2 0-0.3-0.1-0.2-0.2-0.2q0 0.1-0.1 0.1 0 0 0 0-0.1 0-0.1 0 0 0-0.1 0 0 0 0.1 0 0 0 0 0 0 0 0 0 0 0 0 0 0.1 0.1 0.1 0.1 0.1 0 0.1 0.1 0 0 0 0 0 0.1 0 0.1c-0.1 0.4 0.1 0.8 0 1.2-0.1 0.1 0 0.2 0 0.2 0.2 0.1 0.4 0.3 0.6 0.1 0.1-0.1 0.2 0.1 0.3 0.2q0 0.1 0 0.2 0 0 0 0.1 0 0 0 0.1 0 0-0.1 0.1 0.1 0 0.2 0 0 0 0.1 0 0.1 0 0.2 0 0-0.1 0.1-0.1c0.1 0 0.2 0.3 0.2 0.5q-0.1 0-0.1 0.1 0 0.1 0 0.2 0 0.1 0 0.1 0 0.1 0.1 0.2 0 0 0 0.1 0 0.1 0 0.1 0 0.1 0 0.1-0.1 0.1-0.1 0.1-0.1 0.3-0.2 0.1-0.3-0.3-0.4 0.3 0 0-0.1 0.1 0 0 0 0.1 0 0-0.1 0.1 0 0 0 0.1c-0.1 0.1-0.2 0.2-0.4 0-0.1-0.1-0.2 0-0.1 0.2q0 0.1 0 0.2 0 0.1 0 0.3 0 0.1-0.1 0.2 0 0.1 0 0.2 0 0.1 0 0.1 0 0.1 0 0.1 0 0.1 0 0.1 0.1 0.1 0.1 0.1 0 0.1 0.1 0.1 0 0.1 0 0.1 0.1 0 0.1 0.1 0.1 0 0.1 0c0.2 0 0.4-0.1 0.4 0.2q0 0.1 0 0.2 0 0.1-0.1 0.1 0 0.1-0.1 0.1 0 0-0.1 0-0.2 0.1-0.4 0.3-0.1 0.1-0.2 0.3-0.2 0.1-0.2 0.3-0.1 0.2-0.2 0.4 0 0.1 0 0.1-0.1 0.1-0.1 0.2-0.1 0-0.2 0.1 0 0-0.1 0-0.1 0.1-0.3 0.1 0 0 0 0 0 0.1 0 0.1 0 0 0 0 0 0 0 0-0.1 0-0.2 0 0 0-0.1 0-0.1 0-0.1 0-0.1 0-0.1 0.1c0.1-0.1 0.2-0.1 0.3 0.2q0 0.1-0.1 0.2 0 0.1 0 0.2 0 0.1-0.1 0.2-0.1 0.1-0.2 0.1 0 0 0 0-0.1 0-0.1 0 0 0 0 0-0.1 0-0.1 0c-0.3 0-0.4 0.2-0.4 0.7q0 0 0 0.1 0 0.1 0 0.1 0 0.1 0 0.1 0 0.1 0 0.2-0.1 0-0.1 0-0.1 0-0.1 0-0.1 0-0.1 0 0 0-0.1-0.1 0 0-0.1 0-0.1-0.1-0.1-0.1-0.1 0-0.2 0-0.1 0-0.1 0 0 0 0.1 0 0 0 0.1 0 0 0 0.1 0 0 0.1 0.1 0.1 0 0 0.1 0 0 0 0 0.1 0.1 0 0.1 0.1 0 0 0 0.1 0 0 0 0.1 0 0.1 0 0.2 0 0 0 0.1-0.1 0.1-0.1 0.1 0 0 0 0.1-0.1 0-0.1 0 0 0 0 0 0 0.1 0 0.1c0.1 0.1 0.2 0 0.3-0.1 0.1 0 0.2 0 0.2 0.1q0 0 0 0 0 0 0 0.1 0 0 0 0 0 0.1 0 0.1 0 0.1-0.1 0.3 0 0.2-0.1 0.3-0.1 0.2-0.2 0.4 0 0.1-0.1 0.3c-0.2 0.2-0.4 0.6-0.6 0.8q-0.1 0-0.1 0.1 0 0 0 0 0 0-0.1 0 0 0 0 0-0.1 0.1-0.1 0.1-0.1 0.1-0.1 0.1-0.1 0.1-0.1 0.1 0 0.1 0 0.2 0 0.1 0 0.2 0 0.1-0.1 0.1 0 0.1-0.1 0.2-0.1 0-0.2 0c-0.1 0-0.2 0.1-0.3 0.2q-0.1 0-0.1 0.1-0.1 0-0.2 0.1 0 0.1 0 0.2-0.1 0.1 0 0.2 0 0.1-0.1 0.2 0 0.1-0.1 0.2 0 0.1-0.1 0.2-0.1 0-0.3 0 0 0-0.1 0 0 0-0.1 0.1 0 0-0.1 0 0 0 0 0.1 0 0-0.1 0.1 0 0-0.1 0 0 0-0.1 0 0 0-0.1 0 0 0-0.1 0-0.1 0-0.2 0-0.1 0.1-0.1 0.1-0.1 0.1-0.1 0.2-0.1 0-0.1 0.1 0 0-0.1 0.1 0 0-0.1 0-0.1 0-0.1 0-0.1 0-0.1 0.1-0.1 0-0.2 0 0 0.1 0 0.1-0.1 0.1-0.1 0.1-0.1 0.1-0.1 0.2 0 0 0 0.1 0 0.1 0 0.2 0 0 0 0.1 0 0.1 0.1 0.2 0 0.1 0 0.2 0 0 0 0.1 0 0.1 0 0.2c0.1-0.1 0.2-0.2 0.3-0.1q0.1 0.1 0.1 0.2 0 0.1 0 0.2 0.1 0 0.1 0.1 0 0.1-0.1 0.2 0 0 0 0.1 0 0.1 0 0.1 0 0.1 0 0.1-0.1 0.1-0.1 0.2 0 0.1-0.1 0.2-0.1 0.1-0.2 0.2-0.1 0.1-0.2 0.2-0.1 0.1-0.3 0.2 0 0-0.1 0 0 0-0.1 0.1-0.1 0-0.1 0-0.1 0.1-0.2 0.1-0.1 0-0.1 0.1-0.1 0.1-0.2 0.2 0 0.1 0 0.2 0 0.2 0 0.3 0 0.1 0 0.2-0.1 0.1-0.1 0.2 0 0.1 0 0.2-0.1 0.1-0.1 0.2 0 0.1 0 0.1-0.1 0-0.1 0.1 0 0-0.1 0 0 0-0.1 0-0.1 0-0.3 0.1-0.1 0.1-0.2 0.2-0.1 0.2-0.2 0.3 0 0.2 0 0.4 0 0-0.1 0.1 0 0.1 0 0.2-0.1 0.1-0.1 0.1-0.1 0.1-0.1 0.2c0 0.2 0.1 0.1 0.2 0.1q0.1 0.1 0.1 0.2 0 0.1 0.1 0.2 0 0.1-0.1 0.2 0 0.1-0.1 0.2 0 0.1-0.1 0.2-0.1 0.1-0.1 0.2-0.1 0.2-0.2 0.3-0.1 0.1-0.2 0.1-0.1 0.1-0.2 0.1-0.1 0.1-0.3 0.2-0.1 0-0.1 0.1-0.1 0.1-0.2 0.2-0.1 0.1-0.1 0.3-0.1 0.1-0.1 0.2 0 0.1 0 0.2 0.1 0.2 0.1 0.3 0.1 0.1 0.1 0.2 0 0.1 0.1 0.2 0 0.1 0 0.3 0 0.1 0 0.2 0 0 0 0.1 0 0 0 0.1 0 0 0 0-0.1 0-0.1 0.1-0.1 0-0.1 0 0 0-0.1 0 0 0 0 0-0.1 0-0.1 0.1 0 0 0 0 0 0 0 0 0 0-0.1 0 0 0.1 0 0.1 0 0 0 0.1-0.1 0-0.1 0.1 0 0 0 0.1 0.1 0.1 0.1 0.1 0 0.1 0 0.2 0 0.1 0 0.2 0 0.1 0 0.2-0.1 0.1-0.1 0.3 0 0.1 0 0.2 0 0.1 0 0.2 0 0.1 0 0.3 0.1 0.1 0.1 0.2 0.1 0.2 0.2 0.3 0 0.2 0.1 0.4 0 0.2 0.1 0.4 0 0.2 0 0.3c0 0.2 0.2 0.2 0.2 0.4q0 0.1 0 0.1 0 0.1 0 0.2 0 0-0.1 0.1 0 0 0 0.1-0.2 0.1-0.4 0.1-0.1 0.1-0.3 0.2-0.1 0-0.3 0.1-0.2 0-0.3 0.1-0.1 0-0.1 0-0.1 0-0.1 0.1 0 0-0.1 0 0 0 0 0.1-0.1 0.1-0.2 0.1-0.1 0.1-0.2 0-0.1 0-0.2 0-0.1-0.1-0.1-0.2c-0.1-0.1-0.2-0.2-0.3-0.2q0 0 0 0.1 0 0 0 0 0 0 0 0 0 0 0 0 0.1 0 0.2 0.1 0 0 0 0.1 0.1 0.1 0.1 0.1 0 0.1 0 0.2c-0.1 0.2-0.2 0.1-0.4 0.1q0 0-0.1 0 0 0-0.1 0 0 0-0.1 0 0 0-0.1 0.1 0 0-0.1 0-0.1 0.1-0.3 0.1-0.2 0-0.4 0-0.2 0-0.3 0-0.2 0-0.4 0 0 0 0 0-0.1 0-0.1 0 0 0 0 0 0 0 0 0-0.1 0-0.2 0 0 0.1-0.1 0.1-0.1 0-0.1 0-0.1 0.1-0.2 0.1 0 0-0.1 0 0 0-0.1 0 0 0-0.1 0 0 0 0 0-0.1 0-0.2 0-0.1 0-0.2 0-0.1 0-0.2 0.1 0 0-0.1 0.1 0 0.1 0 0.1-0.1 0-0.1 0-0.1 0.1-0.1 0.1 0 0-0.1 0c-0.1-0.1-0.2-0.3-0.4-0.2q0 0 0 0.1-0.1 0-0.1 0-0.1 0-0.1 0 0 0.1-0.1 0.1 0-0.1-0.1-0.1 0-0.1 0-0.1 0-0.1 0-0.1 0-0.1 0-0.2 0 0 0 0 0 0-0.1-0.1 0 0 0 0 0 0-0.1 0 0 0-0.1 0-0.1 0-0.2 0-0.1-0.1-0.1-0.1-0.1 0-0.2 0 0.1 0.1 0.1 0.1 0 0.1 0 0.2 0 0 0 0.1 0 0.1 0 0.1c-0.1 0.2-0.2 0.3-0.3 0.2q-0.1 0-0.1 0-0.1 0-0.1 0-0.1 0-0.1 0-0.1 0.1-0.1 0.1-0.2 0.1-0.3 0.1-0.2 0-0.3 0-0.2 0-0.4 0-0.1 0-0.3-0.1 0 0-0.1-0.1-0.1 0-0.2 0 0 0-0.1 0.1-0.1 0-0.1 0.1 0 0-0.1 0 0 0 0 0-0.1 0-0.1 0 0 0-0.1 0-0.1 0.1-0.3 0.1-0.1 0-0.3-0.1-0.2 0-0.3 0-0.2 0-0.3-0.1-0.1 0-0.2 0 0 0-0.1 0-0.1 0-0.2 0 0 0.1-0.1 0.1-0.2 0.1-0.3 0.1-0.2 0-0.4 0-0.1 0-0.3 0-0.2 0-0.4 0-0.1 0-0.3-0.1-0.2 0-0.3 0-0.2 0-0.4 0.1-0.1 0-0.3 0.1-0.1 0-0.2 0-0.1 0-0.2 0-0.1 0-0.2-0.1-0.1 0-0.2 0 0-0.1-0.1-0.1-0.1-0.1-0.2-0.1-0.1 0-0.2 0-0.1-0.1-0.2-0.1-0.2 0-0.3 0-0.2 0-0.3 0-0.2 0-0.4 0.1-0.1 0-0.3 0-0.1 0-0.3 0-0.1 0-0.2-0.1-0.2 0-0.3 0-0.1-0.1-0.3-0.1-0.2-0.1-0.5-0.1-0.2 0-0.5 0-0.3 0-0.5 0-0.3 0-0.5 0-0.1 0-0.3-0.1-0.1 0-0.2 0-0.1 0-0.2 0-0.1-0.1-0.2-0.1-0.1 0-0.2 0.1-0.1 0-0.2 0-0.1 0-0.1-0.1-0.1 0-0.2 0l-0.9-0.2q-0.2 0-0.4-0.1-0.2 0-0.4 0-0.2 0-0.4 0-0.2-0.1-0.4-0.1-0.2 0.1-0.4 0-0.1 0-0.3 0-0.2 0-0.3-0.1-0.2 0-0.4-0.1-0.2 0-0.4-0.1-0.3 0-0.5-0.1-0.2 0-0.5 0-0.2 0-0.4 0.1-0.1 0-0.3 0-0.1-0.1-0.2-0.1-0.1 0-0.2 0-0.1-0.1-0.2-0.1 0 0 0 0 0 0-0.1-0.1 0 0 0 0 0 0 0 0-0.2 0.1-0.5 0.2-0.2 0-0.4 0-0.2 0-0.5 0-0.2-0.1-0.4-0.2c0 0 0 0 0 0q-0.2 0-0.3-0.1-0.2 0-0.3 0-0.2 0-0.3 0-0.2 0-0.4 0 0 0-0.1 0-0.1 0-0.1 0-0.1 0-0.2 0.1-0.1 0-0.1 0-0.1 0-0.1 0-0.1 0-0.1 0 0 0-0.1 0 0 0-0.1-0.1-0.1 0-0.2-0.1-0.1 0-0.2 0-0.2 0-0.3 0-0.1 0.1-0.2 0.1-0.1 0.1-0.1 0.1 0 0-0.1 0 0 0.1-0.1 0.1 0 0-0.1 0-0.1 0-0.3-0.1-0.1 0-0.3 0-0.2 0-0.3-0.1-0.2 0-0.3 0 0 0 0 0 0 0 0 0 0 0 0 0 0 0-0.1 0c-0.7 0.2-1.3-0.7-2.1-0.6q-0.1 0.1-0.2 0.1-0.2 0-0.3 0-0.2 0-0.3-0.1-0.1 0-0.2-0.1-0.1 0-0.1 0 0 0 0 0-0.1 0-0.1 0 0 0 0 0l-0.1 0.6h-201.6l7.8-72h194.6q0.1 0 0.1 0 0 0 0 0 0 0 0 0 0 0 0 0h1v0.5q0 0 0.1 0 0.1 0 0.3 0 0.1 0 0.3 0.1 0.1 0 0.3 0.1 0.1 0 0.3 0.1c0.1 0.1 0.2 0.1 0.2 0 0.1-0.3 0.3-0.2 0.4-0.1q0.2 0 0.4 0.1 0.1 0.1 0.3 0.1 0.2 0.1 0.3 0.1 0.2 0 0.4 0.1 0 0 0.1 0 0 0 0 0 0-0.1 0.1-0.1 0 0 0 0 0.1 0 0.2-0.1 0.1 0 0.2 0 0.1 0 0.2 0 0.1-0.1 0.2-0.1 0 0 0 0 0.1 0 0.1 0 0 0 0 0 0.1 0.1 0.1 0.1 0 0.2 0.2 0.3 0.1 0.1 0.2 0.2 0.2 0.1 0.3 0.1 0.2 0 0.3 0 0.2 0 0.3 0 0.1 0 0.3 0 0.1 0 0.2 0 0.2 0 0.3 0 0.1 0 0.2 0 0.1-0.1 0.1-0.1 0.1 0 0.2-0.1 0.1 0 0.1-0.1 0.1-0.1 0.2-0.2 0.1-0.1 0.3-0.1 0.1 0 0.2 0 0.2 0 0.3 0.1 0.1 0.1 0.1 0.1 0.1 0 0.2 0.1 0.1 0 0.2 0 0.1 0.1 0.2 0.1 0 0 0.1 0 0.1 0 0.1 0 0.1 0 0.1 0 0.1 0 0.1 0 0.1 0.1 0.2 0.1 0.2 0.1 0.3 0.1 0.1 0 0.2 0 0.2 0 0.3 0 0 0 0.1-0.1 0 0 0 0 0 0 0-0.1 0.1 0 0.1 0 0-0.1 0-0.1 0-0.1 0-0.1 0-0.1 0.1-0.1 0-0.1 0-0.1c0.1-0.2 0.3-0.3 0.3-0.1q0 0.1 0.1 0.2 0 0.1 0 0.2 0.1 0.1 0.1 0.2 0.1 0.1 0.1 0.1 0.1 0 0.1 0 0 0 0 0 0.1 0 0.1 0 0 0 0 0 0.1 0 0.2-0.1 0.1 0 0.1-0.1 0.1 0 0.2-0.1 0 0 0.1-0.1 0.2-0.3 0.2 0.2c0 0.2 0 0.2 0.1 0.2q0.1 0 0.2 0 0 0 0.1 0 0.1 0 0.2 0 0.1 0 0.2 0 0.1 0 0.2 0 0.1 0 0.2 0 0 0 0.1 0 0.1 0 0.2 0.1 0.1 0 0.2 0 0.3 0 0.6 0 0.2 0 0.5 0 0.2 0 0.5 0 0.2 0 0.4 0.1 0.2 0.1 0.4 0.3 0.1 0.1 0.3 0.2 0.2 0.1 0.4 0.2 0.2 0.1 0.4 0.1 0.1 0 0.1 0 0.1 0 0.1 0 0.1 0 0.1 0 0.1 0 0.1 0 0 0 0.1 0 0 0 0-0.1 0 0 0 0 0 0 0.1 0c0-0.1 0-0.5 0.1-0.4q0.1 0 0.2 0 0.1 0 0.2 0 0 0 0.1 0.1 0.1 0 0.2 0.1c0.1 0.1 0.2 0.1 0.4 0q0-0.1 0.1-0.2 0.1 0 0.1-0.1 0.1 0 0.2 0 0.1 0 0.2 0c0.1 0.1 0.2 0.3 0.4 0.4 0.1 0.1 0 0.3-0.1 0.4q0.1 0 0.1 0 0.1 0 0.1-0.1 0.1 0 0.1-0.1 0 0 0.1 0 0-0.1 0.1-0.1 0-0.1 0.1-0.1 0 0 0.1 0 0 0.1 0.1 0.1c0.1 0.1 0.2 0.1 0.3 0 0.6-0.5 0.8-0.5 1.2 0.2 0.2 0.3 0.3 0.3 0.5 0.1q0.1-0.1 0.2-0.2 0.1-0.1 0.2-0.1 0.2-0.1 0.3-0.1 0.1 0 0.2-0.1c0.2 0 0.3 0.1 0.4 0.4q0 0 0 0 0 0 0 0 0 0.1 0 0.1 0 0 0 0 0.1 0.1 0.2 0.1 0.1 0.1 0.2 0.1 0.2 0 0.3 0 0.1-0.1 0.2-0.2c0.1-0.2 0.1-0.2 0.2 0q0 0.1 0.1 0.1 0 0 0 0.1 0.1 0 0.1 0 0.1 0.1 0.1 0.1c0.1 0 0.3 0.1 0.2-0.3q0-0.1 0-0.1 0-0.1 0-0.1 0.1-0.1 0.1-0.1 0-0.1 0.1-0.1 0 0 0 0 0 0 0 0 0 0 0 0 0 0 0.1 0 0 0 0.1 0 0.1 0 0.2 0.1 0.1 0 0.2 0.1 0 0 0.1 0.1c0.1 0.2 0.2 0.2 0.3 0q0.1-0.2 0.2-0.1 0.2 0.1 0.3 0.1 0.1 0 0.3 0 0.1 0 0.2-0.1 0.2 0 0.3-0.1 0 0 0 0 0.1 0 0.1 0 0 0 0.1 0 0 0 0 0 0 0.1 0.1 0.1 0 0 0 0 0 0 0 0 0 0 0 0.1c0.2 0.3 0.2 0.3 0.4-0.2q0.1 0 0.1 0 0.1-0.1 0.2-0.1 0.1 0 0.2-0.1 0 0 0.1 0 0 0 0 0 0 0 0 0 0.1 0 0.1 0 0 0 0 0 0 0 0 0 0.1 0.1 0.1 0.1 0 0 0 0 0 0 0.1 0 0.1 0 0.2 0.1 0.1 0 0.3 0 0.1 0 0.2 0.1 0.2 0 0.3 0 0 0 0 0 0 0 0 0 0 0.1 0 0.1 0 0 0.1 0 0.5 0.2 1.1 0.4 0.1 0 0.2-0.1c0.1-0.3 0.3-0.3 0.4-0.1q0 0 0.1 0 0 0.1 0.1 0.1 0 0 0.1 0 0 0 0.1-0.1 0 0 0.1 0 0 0 0.1 0 0.1 0 0.1 0 0.1 0.1 0.1 0.1 0 0.1 0.1 0.1 0 0 0 0 0.1 0.1 0.1 0.1 0.1 0 0.1 0c0-0.2-0.1-0.2-0.1-0.2-0.1 0-0.2 0-0.2-0.2 0-0.2 0.1-0.2 0.2-0.2h0.2q0 0 0 0 0 0 0 0 0.1 0 0.1 0 0 0 0 0 0 0.1 0.1 0.1 0 0 0 0 0 0 0.1 0 0 0.1 0 0.1 0.1 0 0.1 0 0-0.1 0-0.1 0.1 0 0.1 0 0 0 0.1 0 0 0 0.1 0 0 0 0.1 0 0 0 0.1 0 0 0 0.1 0.1 0 0 0 0 0 0 0 0 0.1 0.1 0.1 0.1 0 0 0 0.1 0 0 0 0 0 0.1-0.1 0.1 0 0 0 0-0.1 0.1-0.1 0.1c0.4-0.2 0.9 0.2 1.3-0.2q0 0 0 0 0.1 0 0.1 0 0 0 0.1 0 0 0 0 0c0.1 0 0.2 0.1 0.3 0.1q0.1-0.1 0.1-0.1 0.1 0 0.1 0 0.1 0 0.1 0 0.1 0 0.1 0 0.1 0 0.1 0 0.1 0 0.1 0.1 0 0 0.1 0 0 0 0.1 0 0 0 0 0 0 0 0 0 0.1 0 0.1 0 0 0.1 0 0.1 0 0 0 0 0.1 0 0.1 0 0 0 0 0 0 0 0 0 0 0 0.1 0 0 0 0 0 0 0 0.1 0 0 0 0 0 0 0 0.1 0 0 0 0 0 0 0 0 0 0 0 0 0 0.1 0.1 0.1 0.2 0.1 0 0.2 0 0 0 0.1 0 0.1 0 0.2 0 0.1-0.1 0.3-0.1 0.2 0 0.4 0.1 0.1 0 0.3 0 0.2 0 0.3 0.1 0.1 0 0.1 0 0 0 0 0 0.1 0 0.1 0.1 0 0 0 0 0.1 0 0.3 0.1 0.1 0 0.2 0 0.1 0 0.3 0 0.1 0 0.2-0.1 0.1 0 0.1 0.1 0.1 0 0.2 0 0.1 0 0.1 0 0.1 0.1 0.1 0.1 0.2 0 0.3 0.1 0.1 0 0.2 0.1 0.1 0 0.2 0.1 0.2 0 0.3 0.1 0 0 0 0 0.1 0 0.1 0 0.1 0 0.1 0 0.1 0 0.1 0 0.2 0 0.3 0 0.2 0 0.4 0 0.1 0.1 0.3 0.1 0.1 0.1 0.3 0.1 0.2 0.1 0.3 0.2 0.2 0.2 0.4 0.3 0.1 0.1 0.3 0.3 0.2 0.1 0.3 0.3 0 0 0.1 0 0 0.1 0 0.1 0.1 0.1 0.1 0.1 0.1 0 0.1 0 0 0 0 0 0 0 0 0.1 0 0 0.1 0 0 0 0 0 0 0 0 0 0 0 0 0 0 0 0 0 0 0.1 0 0.1 0.2 0 0.3 0.1 0.1 0.1 0.2 0.3 0.1 0.1 0.1 0.2 0 0.2 0.1 0.3 0 0.2 0 0.3 0 0.2-0.1 0.4 0 0.1-0.1 0.3-0.1 0.1-0.2 0.2c-0.3 0-0.5 0.3-0.8 0.3q0 0-0.1 0 0 0-0.1 0 0 0-0.1 0 0 0 0 0-0.2-0.1-0.4-0.2-0.2-0.1-0.3-0.1-0.2-0.1-0.4-0.2-0.2 0-0.4-0.1 0 0-0.1 0-0.1 0-0.1-0.1-0.1 0-0.1 0-0.1-0.1-0.1-0.1-0.1 0-0.1 0-0.1 0-0.2 0-0.1 0-0.1 0-0.1 0-0.2 0 0 0-0.1 0-0.1 0-0.1 0-0.1 0-0.2 0 0 0-0.1 0c-0.1 0-0.2 0-0.2 0.2q0 0.1 0 0.2 0 0 0 0.1 0 0.1-0.1 0.1 0 0.1-0.1 0.1 0 0-0.1 0 0 0 0 0 0 0.1-0.1 0.1 0 0 0 0 0 0-0.1 0 0 0-0.1 0 0 0-0.1 0 0 0 0 0 0 0 0.1 0.1 0.1 0 0.2 0.1 0 0 0.1 0.1 0.1 0 0.2 0.1 0.1 0 0.2 0 0.1 0 0.2 0 0.1-0.1 0.2-0.1 0.1-0.1 0.1-0.1 0.2-0.1 0.3-0.1 0.1 0 0.3 0 0.1 0 0.2 0 0.1 0.1 0.3 0.1 0 0 0 0.1 0 0 0 0 0 0 0 0 0 0.1 0.1 0.1c0 0.4 0.2 0.4 0.4 0.3q0 0 0.1 0 0.1 0 0.1 0 0 0.1 0.1 0.1 0 0 0.1 0.1 0 0 0.1 0.1 0.1 0 0.1 0 0.1 0 0.2 0 0.1 0 0.1-0.1 0.1 0 0.2 0 0.1 0 0.1 0 0.1 0 0.2 0 0.1 0 0.1 0.1 0.2 0.1 0.4 0.1 0.1 0.1 0.3 0.2 0.2 0 0.4 0.1 0.2 0 0.3 0 0.3 0.1 0.6 0.1 0.3 0.1 0.5 0.1 0.3 0.1 0.6 0.1 0.3 0.1 0.6 0.1 0.1 0 0.2 0 0.1 0 0.3 0 0.1 0.1 0.2 0.1 0.1 0 0.3 0 0 0 0.1 0 0.1 0 0.2 0 0 0 0.1 0 0.1 0.1 0.1 0.1 0.2 0 0.3 0 0.1 0 0.2 0 0.1 0 0.2 0 0.1 0 0.2 0.1 0 0 0.1 0 0 0 0 0 0 0 0 0 0 0 0 0 0.1 0 0.1 0 0 0 0.1 0 0 0.1 0.1 0.1 0 0 0.1-0.1c0.2 0.1 0.5 0.2 0.8 0.3q0.1 0 0.2 0.1 0.1 0 0.2 0.1 0.1 0 0.2 0.1 0.1 0 0.2 0 0.2 0.1 0.3 0.1 0.2 0 0.3 0.1 0.2 0 0.3 0.1 0.2 0.1 0.3 0.1 0.1 0 0.1 0 0 0 0.1 0 0 0 0 0 0.1 0 0.1 0 0.2 0 0.4 0 0.2 0 0.4 0.1 0.2 0 0.4 0.1 0.1 0.1 0.3 0.2 0 0.1 0.1 0.1 0 0 0.1 0 0 0 0.1 0 0-0.1 0-0.1 0.1 0 0.1-0.1 0.1 0 0.1 0 0.1 0 0.1 0 0.1 0 0.1 0 0.2 0 0.3 0.1 0.1 0 0.2 0 0.2 0.1 0.3 0.2 0.1 0 0.2 0.1 0 0 0.1 0 0 0 0 0.1 0 0 0.1 0 0 0 0 0.1 0 0.1 0.1 0.2 0 0.1 0.1 0.2 0.1 0 0.2 0.1 0.2 0 0.3 0 0 0 0 0 0 0 0.1 0 0 0 0 0.1 0 0 0 0 0.1 0 0.1 0 0 0.1 0 0.1 0 0 0 0.1 0 0-0.1 0z"/><path fill-rule="evenodd" class="a" d="m565.9 128.1q-0.1-0.1-0.2-0.1-0.1-0.1-0.2-0.1-0.1-0.1-0.2-0.1-0.1-0.1-0.2-0.1c-0.3-0.1-0.6-0.1-0.8 0.4-0.1 0.3-0.3 0.2-0.6 0.1q-0.2-0.2-0.4-0.3-0.2-0.1-0.4-0.2-0.3-0.1-0.5-0.1-0.3 0-0.5 0-0.1 0-0.2 0-0.1 0-0.2 0-0.1 0-0.2 0-0.1 0-0.2-0.1-0.1 0-0.1 0-0.1 0-0.1 0-0.1-0.1-0.1-0.1 0 0-0.1-0.1-0.1-0.1-0.2-0.1-0.1-0.1-0.3-0.1-0.1-0.1-0.2-0.1-0.2 0-0.3 0-0.1 0-0.2-0.1-0.1 0-0.2-0.1 0-0.1 0-0.2 0-0.1 0-0.2 0 0 0-0.1 0-0.1 0-0.2-0.1 0-0.1-0.1-0.1 0-0.2 0-0.1 0-0.3-0.1-0.1 0-0.2-0.1-0.2-0.1-0.3-0.2-0.1-0.1-0.2-0.2-0.1 0-0.1 0-0.1-0.1-0.2-0.1-0.1 0-0.2 0 0 0.1-0.1 0.1-0.1 0.1-0.3 0.1-0.1 0.1-0.2 0.1-0.2 0-0.3 0-0.2 0-0.3-0.1 0.1 0 0.2-0.1 0-0.1 0.2-0.1 0.1 0 0.2-0.1 0.1 0 0.2 0 0.2 0 0.3-0.1 0.2 0 0.3-0.1 0.1-0.1 0.2-0.2 0.2-0.1 0.2-0.3c0.1-0.3-0.2-0.2-0.3-0.3-0.3-0.1-0.4-0.2 0-0.4q0 0 0.1 0 0.1 0 0.1-0.1 0.1-0.1 0.1-0.1 0-0.1 0-0.2 0 0 0-0.1 0 0-0.1-0.1 0 0-0.1 0-0.1-0.1-0.1-0.1c-0.1 0-0.1 0-0.1-0.1 0.1-0.3 0-0.4-0.3-0.5q0 0-0.1 0 0 0 0 0-0.1 0-0.1 0 0 0-0.1 0c-0.3 0-0.4-0.1-0.3-0.4q0-0.1 0-0.2 0-0.1 0-0.2-0.1-0.1-0.1-0.1-0.1 0-0.2 0-0.3-0.1-0.5-0.1c-0.2-0.1-0.3-0.1-0.2-0.4q0 0 0-0.1 0.1 0 0.1-0.1 0.1 0 0.1 0 0.1 0 0.2 0 0 0 0.1 0 0 0.1 0.1 0.1 0 0 0.1 0.1 0 0 0.1 0.1c0.2 0.1 0.4 0.2 0.5-0.1 0.1-0.2 0.2-0.2 0.4-0.1 0.3 0.1 0.5 0 0.4-0.4 0-0.2-0.1-0.4 0.2-0.5q0.1 0 0.3-0.1 0.2 0 0.3-0.1 0.2 0 0.4-0.1 0.2 0 0.3 0 0.1 0 0.2 0 0.1 0 0.2-0.1 0.1 0 0.1-0.1 0.1-0.1 0.1-0.1c0.2-0.3-0.1-0.5-0.3-0.6q0.1-0.1 0.2-0.1 0.1 0 0.1 0 0.1 0 0.2 0 0.1 0 0.2 0c0.1 0 0.4 0 0.3-0.2q0-0.2 0-0.3 0-0.2 0.1-0.3 0.1-0.1 0.2-0.3 0.1-0.1 0.2-0.2 0-0.1 0.1-0.2 0-0.2 0-0.3 0-0.1 0-0.3 0-0.1-0.1-0.2 0 0 0-0.1-0.1 0-0.1 0 0 0-0.1 0 0 0 0 0-0.2 0-0.3 0-0.1 0-0.3 0-0.1 0-0.2 0-0.1 0-0.3 0c-0.1-0.1 0-0.2 0-0.2q0-0.1 0-0.2 0-0.1 0-0.2-0.1-0.1-0.2-0.1-0.1-0.1-0.2-0.1-0.1 0-0.2 0-0.1 0-0.2 0-0.1 0-0.2 0-0.1 0-0.2 0c0.1-0.2 0.2-0.1 0.3-0.1q0.1-0.1 0.1-0.1 0.1-0.1 0.2-0.1 0-0.1 0-0.2 0 0 0-0.1 0-0.1 0-0.2 0 0-0.1-0.1 0 0-0.1-0.1-0.1 0-0.1 0-0.2 0-0.4-0.1-0.2 0-0.4 0-0.2 0-0.4-0.1-0.2 0-0.4 0-0.1 0-0.1 0-0.1 0-0.1 0-0.1 0-0.1 0-0.1-0.1-0.1-0.1-0.1-0.1-0.2-0.1-0.1-0.1-0.2-0.1-0.1 0-0.2 0.1-0.1 0-0.2 0c0 0.1-0.1 0.1-0.1 0.1-0.4-0.4-0.9-0.2-1.3-0.3q-0.1 0-0.1 0-0.1-0.1-0.1-0.1-0.1 0-0.1 0-0.1 0-0.1 0c-0.2-0.2-0.3-0.3-0.1-0.5q0 0 0 0 0-0.1 0-0.1 0 0 0.1 0 0 0 0 0 0 0 0 0 0-0.1 0-0.1 0 0 0 0 0 0 0 0 0.1-0.1 0.1-0.2 0.1-0.1 0.2-0.2 0.1-0.1 0.1-0.2 0.1 0 0.2-0.1c0.4-0.2 0.4-0.4 0.1-0.8q-0.1 0-0.2 0 0-0.1-0.1-0.1 0 0-0.1 0-0.1-0.1-0.1-0.1-0.1 0-0.1 0 0 0 0-0.1-0.1 0-0.1 0 0 0-0.1 0c-0.3-0.3-0.3-0.4 0-0.7q0.1-0.1 0.3-0.2 0.1-0.1 0.3-0.2 0.1-0.1 0.3-0.1 0.1 0 0.3 0 0.1 0 0.1 0 0.1-0.1 0.2-0.1 0 0 0.1 0 0-0.1 0.1-0.1c0.3-0.8 1.1-1.2 1.2-2.1 0-0.2 0-0.4-0.2-0.4q-0.1 0-0.2 0-0.1 0-0.2-0.1-0.1 0-0.2-0.1-0.1-0.1-0.2-0.1-0.1-0.1-0.2-0.1-0.1-0.1-0.2-0.2-0.1 0-0.2-0.1-0.2 0-0.3-0.1-0.2-0.1-0.5-0.1-0.3-0.1-0.5-0.2-0.3 0-0.6-0.1-0.3 0-0.5 0-0.1 0-0.2-0.1-0.1 0-0.1 0-0.1 0-0.2-0.1-0.1 0-0.1 0c-0.3-0.1-0.6-0.1-0.8-0.2q-0.3 0.1-0.6 0.1-0.3 0-0.6-0.1-0.2-0.1-0.5-0.2-0.2-0.2-0.4-0.3 0.1 0 0.2 0 0.1 0 0.2 0 0.1 0.1 0.2 0.1 0.1 0 0.2-0.1 0.1 0 0.1 0 0 0 0 0 0 0 0 0 0 0 0.1 0 0.1 0 0.1-0.1 0.1 0 0.1 0 0 0 0 0 0.1 0 0.1 0 0 0 0 0 0.2-0.1 0.4-0.2 0.2 0 0.4-0.1 0.2 0 0.4 0.1 0.1 0 0.3 0.1 0.2 0 0.3 0 0.2 0.1 0.3 0 0.2 0 0.3-0.1 0.1-0.1 0.2-0.2c0.2-0.2 0.6 0 0.7-0.4q0-0.1 0-0.2 0-0.1 0-0.2 0-0.1 0-0.2 0.1-0.1 0.1-0.2 0 0 0-0.1 0-0.1 0-0.1 0-0.1-0.1-0.1 0-0.1-0.1-0.1-0.1 0-0.3 0-0.2 0-0.3 0-0.2 0-0.4 0-0.1 0-0.3 0.1-0.1 0-0.2 0-0.1 0-0.2 0-0.1 0-0.2 0-0.1-0.1-0.2-0.1c-0.6-0.1-1.1-0.4-1.7-0.4q-0.1-0.1-0.2-0.1-0.1-0.1-0.2-0.1 0-0.1-0.1-0.1-0.1-0.1-0.2-0.2 0 0-0.1 0 0 0-0.1 0 0 0.1-0.1 0.1 0 0.1 0 0.1c0 0.3-0.2 0.3-0.4 0.2q0 0-0.1 0 0 0-0.1 0 0 0-0.1-0.1-0.1 0-0.1 0 0.1 0 0.2 0c0.1 0 0.3-0.1 0.2-0.3-0.1-0.3 0.1-0.7 0-1.1q-0.1 0-0.1-0.1 0 0 0.1-0.1 0 0 0 0 0.1-0.1 0.1-0.1 0.1 0 0.2-0.1 0.1 0 0.2 0 0.1 0 0.3 0 0.1 0 0.2 0.1 0 0 0.1 0 0.1 0 0.2 0 0.1-0.1 0.1-0.1 0.1-0.1 0.1-0.2c0.2-0.1 0.1-0.3-0.1-0.4q0.1 0 0.2 0 0.1 0 0.3 0 0.1 0 0.2 0 0.1 0 0.2 0 0.1 0 0.2 0 0.1 0 0.1-0.1 0.1-0.1 0.1-0.1-0.1-0.1-0.1-0.2c-0.1-0.2-0.3-0.4 0-0.6q0-0.1 0.1-0.1 0-0.1 0-0.1 0-0.1-0.1-0.2 0 0-0.1-0.1 0 0 0 0-0.1-0.1-0.1-0.1-0.1 0-0.2 0 0 0-0.1 0.1-0.4 0.3-0.6-0.3 0 0-0.1-0.1 0 0 0-0.1-0.1 0-0.1-0.1-0.1 0-0.1-0.1c-0.2-0.1-0.3-0.2-0.6 0-0.1 0.1-0.3 0-0.2-0.2q0-0.1 0-0.2 0-0.1 0-0.3 0-0.1-0.1-0.2 0-0.1 0-0.2-0.1-0.1-0.1-0.1 0-0.1 0.1-0.2 0 0 0-0.1 0.1 0 0.2 0 0-0.1 0.1-0.1 0-0.1 0.1-0.1 0.1 0 0.2 0 0-0.1 0.1-0.1c0.2 0 0.6 0.2 0.6-0.2 0.1-0.4-0.3-0.4-0.5-0.4q-0.3-0.1-0.5-0.2-0.2-0.1-0.4-0.2-0.2-0.2-0.3-0.4-0.2-0.2-0.3-0.4-0.1-0.1-0.2-0.2 0-0.1-0.1-0.1-0.1-0.1-0.2-0.1-0.1-0.1-0.3-0.1-0.1 0-0.3-0.1 0 0-0.1 0 0 0 0 0 0 0 0 0 0 0-0.1 0-0.1 0-0.2 0-0.1 0-0.2 0-0.1 0-0.2-0.1-0.1 0-0.2 0 0.1 0 0.2 0 0.1 0 0.2 0 0-0.1 0.1-0.1 0-0.1 0-0.2 0-0.1 0-0.2 0-0.1-0.1-0.2-0.1-0.1-0.2-0.2-0.1 0-0.2 0 0 0-0.1 0 0 0-0.1 0 0 0-0.1 0 0 0-0.1 0-0.1 0-0.2 0-0.2-0.1-0.2-0.2-0.1-0.1-0.2-0.2 0-0.1 0.1-0.3 0 0 0-0.1 0-0.1 0-0.1-0.1-0.1-0.1-0.1 0-0.1-0.1-0.1 0-0.1-0.1-0.1-0.1 0-0.1 0-0.1 0-0.2 0 0 0-0.1 0.1-0.1 0-0.2 0-0.1 0.1-0.2 0.1-0.2 0-0.3 0-0.1 0-0.2 0 0.1 0 0.2 0 0 0 0.1 0 0.1 0 0.2 0 0 0 0.1-0.1 0.1 0 0.2 0 0 0 0.1 0 0-0.1 0.1-0.1 0-0.1 0-0.2 0.1 0 0.1-0.1 0-0.1-0.1-0.1 0-0.1 0-0.2-0.1 0-0.1-0.1-0.1 0-0.1 0 0 0 0 0 0-0.1 0-0.1-0.1 0-0.1 0 0.1-0.1 0.2-0.1 0 0 0.1 0 0.1 0 0.1 0.1 0.1 0 0.1 0 0.1 0.1 0.1 0.1 0.1 0 0.1 0 0 0 0.1-0.1 0 0 0 0 0 0 0.1-0.1 0 0 0 0 0-0.1 0-0.1 0 0-0.1 0 0-0.2-0.1-0.4-0.1-0.1-0.2-0.3-0.1-0.1-0.2-0.3-0.1-0.1-0.3-0.3c-0.3-0.2-0.6-0.6-1-0.8q0 0 0 0 0-0.1-0.1-0.1 0 0 0 0-0.1 0-0.1 0-0.1 0-0.2-0.1-0.1 0-0.1 0-0.1-0.1-0.1-0.2-0.1-0.1-0.1-0.2 0-0.1 0-0.2-0.1-0.1-0.2-0.1-0.1-0.1-0.2-0.1-0.1-0.1-0.2-0.1c-0.1 0-0.3-0.1-0.4-0.1q-0.2 0-0.3 0-0.1-0.1-0.2-0.2 0-0.1-0.1-0.2 0-0.1 0-0.2 0-0.1-0.1-0.3-0.1-0.1-0.2-0.2-0.1-0.1-0.2-0.1-0.2 0-0.3 0-0.1 0-0.2 0-0.1 0-0.1 0-0.1 0-0.2-0.1 0 0-0.1-0.1-0.1 0-0.1 0-0.1-0.1-0.2-0.1 0 0-0.1 0-0.1 0-0.1 0-0.2 0.1-0.3 0.1-0.1-0.1-0.2-0.1-0.1 0-0.3-0.1-0.1-0.1-0.1-0.1-0.1-0.1-0.2-0.1 0-0.1-0.1-0.1-0.1 0-0.2 0-0.1-0.1-0.2-0.1 0 0-0.1 0-0.1 0-0.2 0-0.1-0.1-0.1-0.1-0.1-0.1-0.2-0.1 0-0.1-0.1-0.2 0 0 0-0.1-0.1-0.1 0-0.2 0 0 0-0.1 0.1-0.1 0.1-0.2 0 0 0-0.1 0.1-0.1 0.1-0.2 0-0.1 0-0.2 0 0.1 0.1 0.1 0.1 0 0.1 0 0.1 0.1 0.2 0 0 0 0.1 0 0.1-0.1 0.1-0.1 0.1-0.1 0.1-0.2 0-0.1 0-0.2 0 0 0-0.1 0-0.1 0-0.2 0 0-0.1-0.1 0 0 0-0.1 0 0-0.1-0.1-0.1-0.1-0.2-0.2-0.2-0.2-0.3-0.3-0.2-0.1-0.3-0.1-0.2-0.1-0.4-0.2c-0.3 0-0.5-0.1-0.8-0.2q-0.1 0-0.2-0.1-0.1 0-0.2-0.1-0.1-0.1-0.1-0.3-0.1-0.1 0-0.2 0-0.1-0.1-0.2 0-0.1 0-0.2-0.1-0.1-0.1-0.2 0-0.1-0.1-0.2 0-0.1-0.1-0.1 0 0-0.1-0.1 0 0-0.1 0-0.1 0-0.1 0-0.2 0-0.4 0-0.2-0.1-0.4-0.2-0.1-0.2-0.2-0.3-0.1-0.2-0.2-0.4 0-0.1 0-0.2-0.1-0.1-0.1-0.1-0.1-0.1-0.2-0.2 0 0-0.1-0.1 0 0 0 0 0.1-0.1 0.1-0.1 0.1 0 0.1 0 0 0 0.1 0c0.3-0.3 0.4-0.4 0.1-0.8q-0.1-0.1-0.2-0.2-0.1-0.1-0.2-0.2-0.2-0.1-0.3-0.2-0.1-0.1-0.3-0.1-0.1-0.1-0.3-0.1-0.2-0.1-0.3-0.1-0.2-0.1-0.3-0.2-0.2-0.1-0.3-0.2-0.1-0.1-0.2-0.2-0.1-0.1-0.1-0.2 0-0.2 0.1-0.3 0-0.1 0.1-0.2 0.1-0.1 0.1-0.2 0.1-0.1 0.1-0.2 0.1-0.1 0.1-0.2 0-0.1 0-0.2c0.1-0.2 0-0.2-0.2-0.3q0 0-0.1 0 0 0-0.1 0 0 0-0.1 0 0-0.1-0.1-0.1 0 0 0 0 0 0-0.1 0 0 0 0-0.1 0 0 0 0c-0.2-0.1-0.1-0.2-0.1-0.4q0-0.1 0-0.2 0-0.1 0-0.2 0-0.1 0-0.2 0-0.1 0-0.2-0.1-0.1-0.1-0.2 0-0.1 0-0.2 0-0.1 0.1-0.2 0.1-0.2 0.1-0.2 0.2-0.2 0.3-0.3 0.1-0.2 0.2-0.4 0.1-0.1 0.1-0.3 0.1-0.2 0.1-0.4c0.1-0.2 0.3-0.2 0.3-0.3 0.1-0.2 0.1-0.4-0.2-0.5q-0.2 0-0.5-0.1-0.2-0.1-0.5-0.1-0.2-0.1-0.5-0.1-0.2-0.1-0.5-0.1 0 0-0.1 0-0.1-0.1-0.1-0.1-0.1 0-0.1 0-0.1-0.1-0.2-0.1-0.1-0.1-0.2-0.1-0.2-0.1-0.3-0.1-0.2 0-0.3 0.1-0.1 0.1-0.2 0.2-0.1 0-0.1 0-0.1 0.1-0.1 0.1-0.1 0-0.2 0 0 0-0.1 0 0 0 0 0 0 0 0 0 0 0 0 0 0.1-0.1 0.1-0.1c0.2 0 0.5-0.1 0.4-0.4-0.1-0.2-0.4-0.1-0.5-0.1q-0.1 0-0.2 0-0.1 0-0.2 0-0.1 0-0.1 0-0.1 0-0.2-0.1-0.1 0-0.1 0-0.3-0.1-0.6-0.1-0.3 0-0.5 0-0.3 0-0.6 0-0.3 0-0.6 0 0 0.1 0 0.1-0.1 0-0.1 0 0-0.1 0-0.1-0.1 0-0.1 0-0.4-0.1-0.8-0.2-0.3 0-0.6 0-0.1 0.1-0.3 0.1-0.1 0-0.2 0-0.2-0.1-0.3-0.1-0.1-0.1-0.2-0.2-0.1 0-0.1 0-0.1-0.1-0.1-0.1-0.1 0-0.2 0 0 0-0.1 0-0.1 0-0.1 0.1-0.1 0-0.2 0-0.1 0-0.1 0.1-0.1 0-0.2-0.1 0 0-0.1 0-0.1 0-0.1-0.1-0.1 0-0.2 0 0 0-0.1 0-0.1 0-0.1 0-0.1 0.1-0.1 0.1 0 0.1 0 0.2 0 0 0 0.1 0 0 0 0-0.1 0.1-0.1 0.1 0 0-0.1 0 0 0 0 0-0.2 0-0.3 0-0.1 0.1-0.2 0.1-0.2 0-0.3 0-0.1 0-0.2 0c0.1-0.2 0.3-0.3 0.2-0.5q-0.1 0-0.1-0.1-0.1 0-0.2 0 0-0.1-0.1-0.1-0.1 0-0.1 0-0.1 0.1-0.2 0.1-0.1 0-0.2 0 0-0.1-0.1-0.1-0.1 0-0.2 0-0.2-0.1-0.5-0.1-0.2-0.1-0.5-0.1-0.2 0-0.5 0.1-0.2 0-0.5 0.1-0.1 0-0.2 0-0.1 0-0.2 0-0.1 0-0.2 0-0.1 0-0.2-0.1 0 0-0.1 0 0 0-0.1-0.1 0 0-0.1 0 0 0-0.1 0-0.2 0-0.5 0-0.2 0-0.5 0-0.2 0.1-0.5 0.1-0.2 0-0.5 0-0.1 0.1-0.2 0.1-0.1 0-0.2 0-0.1 0-0.3-0.1-0.1 0-0.2 0-0.2-0.1-0.5-0.1-0.3 0-0.5 0-0.3 0-0.6 0-0.2 0-0.5 0-0.3 0-0.5 0.1-0.3 0-0.5 0-0.3-0.1-0.6-0.1-0.2 0-0.5-0.1-0.1 0-0.3 0-0.1 0-0.3 0-0.2 0-0.3 0.1-0.2 0-0.3 0-0.1 0.1-0.3 0.1-0.1 0.1-0.3 0.1-0.1 0-0.3 0-0.1 0-0.3 0-0.2 0-0.5 0-0.2 0-0.5 0-0.2 0-0.5 0-0.2 0-0.5 0-0.2 0-0.4 0-0.2 0-0.5 0-0.2 0.1-0.4 0.1-0.2 0-0.4 0.1-0.4 0-0.8 0-0.4 0.1-0.9 0.1-0.4 0-0.8 0-0.4 0-0.8 0c-0.5-0.1-0.9 0.1-1.4 0.1q-0.1 0-0.3 0-0.1 0-0.2 0-0.2 0-0.3 0-0.1 0-0.2 0.1l-1.5 0.1q-0.3 0-0.6 0.1-0.3 0-0.6 0-0.4 0-0.7 0.1-0.3 0-0.6 0-0.3 0-0.6 0-0.2 0-0.5 0-0.3 0-0.6 0.1-0.2 0-0.5 0.1-0.4 0-0.7 0.1-0.4 0-0.7 0-0.4 0.1-0.8 0-0.4 0-0.7 0-0.2 0-0.4 0-0.1 0-0.3 0.1-0.2 0-0.4 0-0.1 0-0.3 0.1 0 0-0.1 0 0 0 0 0 0 0-0.1 0 0 0 0 0-0.4-0.1-0.7-0.1-0.3-0.1-0.7-0.1-0.3 0-0.7 0.1-0.3 0.1-0.7 0.2 0 0 0 0 0 0 0 0 0 0 0 0 0 0 0 0-0.3 0-0.5 0-0.3 0-0.5 0.1-0.2 0-0.5 0-0.2 0-0.5 0-0.1 0-0.2 0-0.1 0-0.2-0.1-0.1 0-0.2 0-0.2 0-0.3 0 0-0.1-0.1-0.1-0.1 0-0.1 0-0.1 0-0.2 0.1 0 0-0.1 0-0.2 0.1-0.4 0.1-0.2 0.1-0.4 0.1-0.2 0-0.4-0.1-0.1 0-0.3-0.1-0.1 0-0.1 0-0.1-0.1-0.2-0.1 0 0-0.1 0-0.1 0-0.1 0c-0.7 0.1-1.4 0-2 0.2q-0.1 0-0.1 0 0 0 0 0 0 0 0 0 0 0 0 0c-1.2-0.2-2.2 0.6-3.4 0.5q-0.2-0.1-0.4-0.1-0.2 0-0.4 0-0.3 0-0.5 0.1-0.2 0-0.4 0.1 0 0-0.1 0 0 0 0 0-0.1 0-0.1 0-0.1 0-0.1 0v-0.6h-317.3l-21.7 72.2h332.2q0 0 0 0 0.1 0 0.1 0 0 0 0 0 0 0 0 0h1.7v-0.5q0.1 0 0.2 0 0.3 0 0.5-0.1 0.3 0 0.6 0 0.2-0.1 0.5-0.1 0.2-0.1 0.5-0.2 0 0 0.1 0 0-0.1 0.1-0.1 0 0 0.1 0.1 0 0 0.1 0c0.2 0.4 0.4 0.3 0.7 0.2q0.3-0.1 0.6-0.2 0.3 0 0.6-0.1 0.3-0.1 0.6-0.1 0.3 0 0.6-0.1 0 0 0.1 0 0 0 0.1 0.1 0 0 0 0 0.1 0 0.1 0 0 0 0.1 0 0.1 0.1 0.3 0.1 0.1 0 0.3 0 0.2 0.1 0.3 0.1 0.2 0 0.3 0 0.1 0.1 0.1 0.1 0.1 0 0.1-0.1 0.1 0 0.1 0 0 0 0.1-0.1 0.1-0.2 0.4-0.3 0.2-0.1 0.4-0.2 0.3-0.1 0.5-0.1 0.3-0.1 0.6 0 0.2 0 0.4-0.1 0.2 0 0.5 0 0.2 0.1 0.4 0.1 0.2 0 0.5 0 0.1 0 0.2 0 0.2 0 0.3 0.1 0.1 0 0.2 0.1 0.1 0 0.3 0.1 0.1 0.1 0.3 0.2 0.2 0.1 0.4 0.1 0.3 0 0.5 0 0.2 0 0.4-0.1 0.1 0 0.3-0.1 0.2 0 0.3-0.1 0.2 0 0.3 0 0.2-0.1 0.3-0.1c0.3 0 0.5 0 0.8 0q0.2-0.1 0.4-0.2 0.2 0 0.4 0 0.2 0 0.4 0 0.2 0 0.5 0 0 0 0 0 0.1 0 0.1 0.1 0.1 0 0.1 0 0 0.1 0 0.1 0 0.1 0.1 0.1 0 0.1 0 0.2 0 0 0.1 0.1 0 0 0 0.1c0.2 0.1 0.5 0.2 0.5 0q0.1-0.1 0.1-0.2 0.1-0.1 0.2-0.2 0.1-0.1 0.2-0.2 0.1-0.1 0.2-0.2 0 0 0 0 0.1 0 0.1 0 0.1 0.1 0.1 0.1 0.1 0 0.1 0 0.1 0 0.2 0.1 0.2 0 0.3 0.1 0.1 0 0.2 0.1 0.1 0 0.2 0.1c0.3 0.2 0.4 0.2 0.4-0.2q0-0.1 0-0.1 0 0 0-0.1 0 0 0.1 0 0 0 0 0 0.2 0 0.3 0 0.2-0.1 0.3-0.1 0.2 0 0.3 0 0.2 0 0.3 0.1 0.2 0 0.3 0 0.2 0 0.4 0 0.1 0 0.3 0 0.2-0.1 0.3-0.1 0.2 0 0.4 0 0.4 0 0.8 0 0.5 0 0.9 0 0.4 0 0.8-0.1 0.5 0 0.9 0 0.3-0.2 0.6-0.3 0.3-0.2 0.6-0.3 0.4-0.1 0.7-0.2 0.3-0.1 0.7-0.1 0.1 0 0.1 0 0.1-0.1 0.2-0.1 0.1 0 0.2 0.1 0.1 0 0.2 0 0 0 0 0 0.1 0 0.1 0.1 0 0 0 0 0.1 0 0.1 0c0.1 0.2 0 0.5 0.2 0.4q0.2 0.1 0.3 0 0.2 0 0.3 0 0.1 0 0.3-0.1 0.1 0 0.2 0 0.1-0.1 0.2-0.2 0.1 0 0.2 0 0.1 0 0.2 0.1 0.1 0 0.2 0.1 0.1 0 0.2 0.1 0.1 0.1 0.2 0.1 0.1 0 0.3 0.1 0.1 0 0.2 0c0.3-0.1 0.4-0.4 0.7-0.5 0.3-0.1 0.1-0.3 0-0.5q0.1 0.1 0.1 0.1 0.1 0 0.2 0.1 0.1 0 0.1 0 0.1 0.1 0.2 0.1 0 0.1 0.1 0.1 0.1 0.1 0.2 0.1 0.1 0 0.2 0 0.1-0.1 0.1-0.1 0.1 0 0.2-0.1 0 0 0.1 0 0.1 0 0.2 0.1 0 0 0.1 0 0.2 0.2 0.5 0.3 0.3 0.1 0.6 0.1 0.3 0 0.5-0.2 0.3-0.2 0.5-0.4 0-0.1 0.1-0.2 0.2 0 0.3 0 0.1-0.1 0.2 0 0.1 0 0.2 0.1 0.2 0.1 0.4 0.2 0.2 0.1 0.4 0.1 0.2 0.1 0.3 0.1 0.2 0.1 0.4 0.1 0.1 0 0.2 0 0.2 0 0.2-0.1 0.1 0 0.2-0.1 0.1-0.1 0.1-0.2 0 0 0 0 0-0.1 0-0.1 0 0 0 0 0 0 0 0 0.2-0.1 0.4-0.2 0.2 0 0.4 0 0.2 0 0.4 0 0.2 0.1 0.3 0.1c0.2 0.3 0.3 0.2 0.4 0.1q0.1-0.1 0.1-0.1 0.1-0.1 0.2-0.1 0-0.1 0.1-0.1 0.1 0 0.2 0c0.2 0 0.4-0.1 0.3 0.3q0 0.1 0 0.1 0 0.1 0 0.1 0.1 0.1 0.1 0.1 0.1 0.1 0.1 0.1 0 0 0 0 0.1 0 0.1 0 0 0 0 0 0 0.1 0 0.1 0.2 0 0.3-0.1 0.2 0 0.3-0.1 0.2 0 0.3-0.1 0.1 0 0.2-0.1 0.1-0.1 0.1-0.1 0.1-0.1 0.2-0.1 0.1 0 0.1 0.1 0.1 0 0.2 0.1 0 0 0 0.1 0.1 0 0.1 0 0.1 0 0.2 0 0 0 0.1 0 0.2-0.1 0.4-0.1 0.2 0 0.4 0 0.3 0 0.5 0.1 0.2 0 0.4 0.1 0.1 0.1 0.1 0 0.1 0 0.1 0 0.1 0 0.1 0 0.1 0 0.2 0 0-0.1 0-0.1 0 0 0.1 0 0 0 0 0 0 0 0-0.1c0.4-0.3 0.4-0.3 0.7 0.2q0.1 0 0.2 0.1 0.2 0 0.3 0 0.1 0.1 0.2 0.1 0.2 0 0.3 0 0 0 0 0 0 0 0.1 0 0 0 0 0 0 0 0 0 0.1 0 0.1 0 0 0 0.1-0.1 0 0 0.1 0 0 0 0 0c0.6 0.1 1.2-0.3 1.8-0.2q0 0 0 0 0 0 0-0.1 0.1 0 0.1 0 0 0 0 0 1-0.2 2-0.4 0 0 0.1 0 0 0 0.1 0 0 0 0 0 0.1 0.1 0.1 0.1 0 0.1 0.1 0.1 0.1 0.1 0.2 0.1 0.1 0 0.2 0 0.1 0 0.2-0.1 0.1 0 0.1-0.1 0.1 0 0.2 0 0.1 0 0.2 0 0 0 0.1 0 0.1 0.1 0.2 0.1 0.1 0 0.2 0 0.1 0 0.2-0.1 0.1 0 0.1-0.1 0.1 0 0.2 0 0-0.1 0.1-0.1 0.1 0 0.2 0 0 0 0.1 0c0 0.2-0.1 0.1-0.2 0.1-0.2 0.1-0.4 0-0.4 0.3 0 0.2 0.2 0.2 0.4 0.2h0.2q0.1 0 0.1 0 0 0 0.1 0 0 0 0 0 0.1 0 0.1 0 0.1-0.1 0.1-0.1 0 0 0.1 0 0 0 0.1-0.1 0 0 0.1 0c0.1 0 0.2 0.1 0.4 0.1q0 0 0.1 0 0.1 0 0.2 0 0.1 0 0.2 0 0.1 0 0.2-0.1 0 0 0 0 0.1 0 0.1 0 0-0.1 0-0.1 0.1-0.1 0.1-0.1c0-0.2-0.2-0.2-0.3-0.2 0.7 0.1 1.5-0.2 2.2 0.2q0 0 0.1 0 0 0 0.1 0 0 0 0.1 0 0 0 0.1 0 0-0.1 0.1-0.1 0.1 0 0.1 0 0.1 0 0.1 0 0.1 0 0.2 0 0.1 0 0.1 0.1 0.1 0 0.2 0 0.1 0 0.2 0 0.1 0 0.2-0.1c0.2 0 0.4 0 0.5 0q0.2-0.1 0.3-0.1 0 0 0.1 0 0 0 0 0 0 0 0 0 0-0.1 0-0.1 0.1 0 0.1 0 0.1 0 0.1 0 0.1 0 0.2 0 0 0 0.1 0 0 0 0 0 0 0 0 0 0 0 0 0 0.1 0 0.1 0 0.1-0.1 0.2-0.1 0.1-0.1 0.2-0.1 0.2 0 0.3 0 0.1 0 0.2 0.1 0.3 0 0.6 0 0.3 0 0.6 0 0.3 0 0.6-0.1 0.3 0 0.6 0 0 0 0-0.1 0.1 0 0.1 0 0.1 0 0.1 0 0.1-0.1 0.1-0.1 0.2 0 0.4 0 0.2-0.1 0.4-0.1 0.2 0 0.4 0 0.2 0 0.4 0.1 0.2 0 0.3 0 0.1 0 0.2-0.1 0.1 0 0.3 0 0.1-0.1 0.2-0.1 0.2 0 0.4-0.1 0.2 0 0.4-0.1 0.2 0 0.4-0.1 0.2 0 0.3-0.1 0.1 0 0.2 0 0.1-0.1 0.2-0.1 0 0.1 0.1 0.1 0.1 0 0.2 0 0.2 0 0.5 0 0.3 0 0.5-0.1 0.3 0 0.6-0.1 0.2 0 0.5-0.1 0.3-0.1 0.6-0.2 0.3-0.1 0.6-0.3 0.3-0.1 0.5-0.2 0.3-0.2 0.6-0.4 0 0 0.1-0.1 0.1 0 0.1-0.1 0.1 0 0.2 0 0-0.1 0.1-0.1 0 0 0 0 0 0 0.1 0 0 0 0 0 0 0 0 0 0 0 0.1-0.1 0 0 0 0 0 0 0 0 0 0 0 0 0.2-0.1 0.4-0.2 0.2 0 0.3-0.2 0.2-0.1 0.3-0.3 0.1-0.1 0.1-0.3 0.1-0.2 0.1-0.4-0.1-0.2-0.1-0.4-0.1-0.2-0.2-0.3-0.2-0.2-0.4-0.2c-0.4-0.1-0.8-0.3-1.3-0.3q0 0-0.1 0-0.1 0-0.2 0-0.1 0-0.1 0-0.1 0-0.2 0-0.3 0.1-0.6 0.2-0.3 0.1-0.6 0.1-0.3 0.1-0.6 0.2-0.3 0-0.6 0.1-0.1 0-0.2 0-0.1 0-0.2 0.1-0.1 0-0.2 0-0.1 0.1-0.2 0.1-0.1 0.1-0.2 0.1-0.1 0-0.2 0-0.1 0-0.3 0-0.1-0.1-0.2-0.1-0.1 0-0.2 0-0.1 0-0.3 0-0.1 0-0.2 0-0.1 0-0.2 0c-0.2 0.1-0.4 0-0.3-0.2 0-0.4-0.2-0.4-0.4-0.5q0 0-0.1 0 0-0.1 0-0.1-0.1 0-0.1 0-0.1 0-0.1 0-0.1 0-0.2 0 0 0-0.1 0-0.1 0-0.1 0-0.1 0-0.2 0c0.4-0.1 0.7-0.4 1.1-0.4q0.2-0.1 0.3 0 0.2 0 0.3 0 0.2 0 0.4 0.1 0.1 0 0.3 0.1 0.2 0 0.4 0.1 0.2 0 0.4 0 0.2 0 0.5-0.1 0.2 0 0.4-0.1 0 0 0 0 0.1 0 0.1 0 0-0.1 0-0.1 0 0 0 0 0.1-0.2 0.1-0.3 0.1-0.1 0.2-0.1 0.1-0.1 0.3-0.1 0.1 0 0.2 0.1 0.1 0 0.2 0 0.1 0 0.1 0 0.1 0 0.2-0.1 0.1 0 0.1-0.1 0.1 0 0.3-0.1 0.1 0 0.2 0 0.1 0 0.3 0 0.1 0 0.2 0.1 0.1 0 0.3 0 0.1 0.1 0.2 0 0.1 0 0.3 0 0.1 0 0.2-0.1 0.3-0.1 0.6-0.2 0.3 0 0.6-0.1 0.3 0 0.6-0.1 0.3 0 0.6 0c1.2-0.3 2.5-0.3 3.7-0.4q0.3-0.1 0.5-0.1 0.2 0 0.4 0 0.2 0 0.4 0 0.2 0 0.4 0 0.2 0 0.3 0 0.1 0 0.2-0.1 0.2 0 0.3 0 0.1 0 0.2 0c0.5-0.1 1 0 1.5-0.1q0 0 0.1 0 0 0 0 0 0 0 0 0 0.1 0 0.1-0.1 0.1 0 0.1 0 0.1 0 0.2 0 0 0 0.1 0 0.1 0 0.2 0c0.4-0.1 0.9-0.2 1.4-0.3q0.7-0.2 1.4-0.3 0.2-0.1 0.5-0.1 0.3-0.1 0.5-0.1 0.3-0.1 0.5-0.1 0.3-0.1 0.5-0.1 0.1-0.1 0.1-0.1 0.1 0 0.2 0 0 0 0.1 0 0 0.1 0.1 0.1 0.3 0 0.6 0 0.3 0 0.7-0.1 0.3 0 0.6-0.1 0.3-0.1 0.6-0.3 0 0 0.1-0.1 0.1 0 0.2 0 0.1 0 0.1 0.1 0.1 0 0.2 0.1 0 0 0.1 0 0.1 0.1 0.2 0.1 0.1 0 0.2 0 0 0 0.1 0 0.2-0.1 0.4-0.1 0.2 0 0.4-0.1 0.3 0 0.5-0.1 0.1-0.1 0.3-0.2 0.1 0 0.1 0 0.1 0 0.1 0 0.1 0 0.1-0.1 0 0 0.1 0 0-0.2 0.2-0.3 0.1-0.1 0.3-0.2 0.1-0.1 0.3-0.1 0.1 0 0.3 0 0 0 0.1 0 0 0 0 0 0.1 0 0.1-0.1 0 0 0.1 0c0.1-0.1 0.1-0.2 0-0.2z"/><path fill-rule="evenodd" class="b" d="m601.8 34.5l-10.2 0.7q0.1-0.4 0-0.8-0.1-0.4-0.3-0.7-0.1-0.4-0.4-0.7-0.2-0.3-0.5-0.6-0.4-0.2-0.8-0.4-0.4-0.2-0.9-0.3-0.4-0.1-0.9-0.2-0.4 0-0.9 0-0.3 0-0.6 0-0.4 0.1-0.7 0.1-0.4 0.1-0.7 0.1-0.4 0.1-0.7 0.2-0.3 0.1-0.6 0.2-0.3 0.1-0.6 0.3-0.3 0.2-0.5 0.3-0.3 0.2-0.5 0.4-0.3 0.2-0.4 0.4-0.2 0.3-0.3 0.5-0.1 0.3-0.2 0.6-0.1 0.2-0.1 0.5 0 0.3 0 0.5 0.1 0.2 0.2 0.4 0 0.2 0.2 0.4 0.1 0.2 0.3 0.3 0.2 0.3 0.6 0.4 0.3 0.2 0.6 0.4 0.3 0.1 0.7 0.2 0.3 0.1 0.6 0.1l6.9 1.3q0.9 0.1 1.9 0.4 1 0.3 1.9 0.7 0.9 0.4 1.7 0.9 0.9 0.5 1.7 1.2 0.6 0.5 1 1.2 0.5 0.7 0.8 1.5 0.2 0.7 0.4 1.5 0.1 0.8 0 1.6 0 0.8-0.1 1.5-0.1 0.7-0.3 1.4-0.2 0.7-0.5 1.4-0.3 0.6-0.7 1.2-0.3 0.7-0.8 1.2-0.5 0.6-1 1.1-0.5 0.5-1.1 1-0.5 0.5-1.2 0.9-0.6 0.4-1.3 0.8-0.7 0.4-1.5 0.7-0.7 0.3-1.5 0.6-0.8 0.2-1.5 0.4-0.9 0.2-1.7 0.4-0.9 0.2-1.8 0.3-0.8 0.1-1.7 0.1-0.9 0.1-1.8 0.1-1 0-2.1-0.1-1 0-2-0.2-1.1-0.2-2.1-0.5-1-0.2-2-0.6-0.8-0.3-1.5-0.7-0.8-0.4-1.5-0.9-0.7-0.5-1.3-1-0.6-0.6-1.1-1.3-0.5-0.6-0.9-1.4-0.3-0.7-0.6-1.4-0.3-0.8-0.4-1.6-0.1-0.8-0.1-1.6v-0.4l10.7-0.7q0 0.5 0.1 1 0.1 0.4 0.3 0.8 0.2 0.5 0.4 0.8 0.3 0.4 0.6 0.8 0.5 0.3 1 0.5 0.5 0.2 1 0.3 0.5 0.2 1 0.2 0.5 0 1.1 0 0.3 0 0.7 0 0.4 0 0.7-0.1 0.4 0 0.8-0.1 0.3-0.1 0.7-0.2 0.3-0.1 0.6-0.2 0.3-0.1 0.6-0.3 0.3-0.1 0.5-0.3 0.3-0.2 0.6-0.4 0.2-0.1 0.4-0.4 0.1-0.2 0.3-0.4 0.1-0.3 0.2-0.5 0-0.3 0-0.6 0.1-0.2 0-0.5 0-0.2-0.1-0.5-0.1-0.2-0.3-0.4-0.2-0.2-0.4-0.3-0.3-0.2-0.6-0.4-0.3-0.2-0.7-0.3-0.4-0.2-0.7-0.2-0.4-0.1-0.8-0.2l-6.1-1.2q-1-0.1-2-0.4-1-0.3-1.9-0.8-0.9-0.4-1.7-1-0.9-0.6-1.6-1.2-0.6-0.7-1-1.4-0.5-0.7-0.8-1.5-0.3-0.8-0.4-1.7-0.1-0.8-0.1-1.7 0-0.9 0.2-1.8 0.2-0.9 0.5-1.8 0.3-0.8 0.8-1.6 0.4-0.8 1-1.5 0.6-0.8 1.4-1.4 0.7-0.6 1.5-1.1 0.8-0.6 1.6-1 0.9-0.4 1.8-0.7 1.1-0.4 2.1-0.7 1.1-0.2 2.2-0.4 1.1-0.2 2.1-0.3 1.1-0.1 2.2-0.1 6.9 0 10.8 2.8 0.9 0.6 1.7 1.4 0.7 0.9 1.3 1.8 0.5 1 0.8 2 0.3 1.1 0.3 2.2 0 0.2 0.1 0.3 0 0.1 0 0.1 0 0.1 0 0.1 0 0.1-0.1 0.1 0 0.1 0 0.1zm-43.8 20q-0.7 0.8-1.5 1.5-0.7 0.7-1.6 1.3-0.8 0.6-1.7 1.1-0.9 0.6-1.9 1-1 0.5-2.1 0.8-1.1 0.4-2.2 0.6-1.2 0.2-2.3 0.3-1.2 0.1-2.3 0.1-1.1 0-2.3-0.1-1.1-0.1-2.2-0.3-1.1-0.3-2.2-0.6-1-0.4-2-0.9-0.9-0.5-1.7-1-0.8-0.6-1.5-1.3-0.7-0.7-1.3-1.5-0.6-0.7-1.1-1.6-0.5-0.9-0.8-1.9-0.4-1-0.6-2-0.3-1-0.4-2.1-0.1-1-0.1-2.1 0-1.1 0.1-2.1 0.1-1.1 0.3-2.2 0.2-1.1 0.4-2.1 0.3-1 0.7-2.1 0.3-0.9 0.8-1.9 0.4-0.9 0.9-1.8 0.6-0.9 1.2-1.7 0.6-0.9 1.3-1.6 0.7-0.8 1.4-1.5 0.8-0.7 1.6-1.3 0.9-0.6 1.8-1.2 0.9-0.5 1.8-0.9 1.1-0.4 2.2-0.8 1.1-0.3 2.2-0.5 1.1-0.3 2.2-0.4 1.2-0.1 2.3 0 1.1-0.1 2.2 0 1.2 0.1 2.3 0.4 1.1 0.2 2.1 0.6 1.1 0.3 2.1 0.8 0.9 0.5 1.7 1.1 0.8 0.5 1.5 1.2 0.7 0.7 1.3 1.5 0.6 0.7 1 1.6 0.5 0.9 0.9 1.9 0.4 1 0.6 2 0.2 1.1 0.4 2.1 0.1 1.1 0 2.1 0 1.1 0 2.2-0.1 1-0.3 2.1-0.2 1-0.5 2.1-0.2 1-0.6 2-0.3 1-0.8 1.9-0.4 1-0.9 1.9-0.5 0.9-1.1 1.7-0.6 0.8-1.3 1.6zm-6.6-19.2q-0.1-0.3-0.3-0.6-0.2-0.3-0.4-0.6-0.2-0.2-0.5-0.5-0.2-0.2-0.5-0.4-0.3-0.2-0.7-0.3-0.3-0.2-0.7-0.3-0.3-0.1-0.7-0.1-0.3-0.1-0.7 0-0.6-0.1-1.1 0-0.6 0.1-1.1 0.3-0.5 0.1-1 0.4-0.5 0.3-1 0.6-0.4 0.3-0.8 0.7-0.4 0.4-0.8 0.9-0.4 0.4-0.7 0.9-0.3 0.4-0.5 0.9-0.3 0.6-0.6 1.1-0.2 0.5-0.4 1.1-0.2 0.6-0.4 1.1-0.2 0.6-0.3 1.2-0.1 0.5-0.2 1.1-0.1 0.5-0.2 1.1 0 0.5-0.1 1.1 0 0.5 0 1.1 0 0.6 0 1.2 0.1 0.6 0.3 1.2 0.2 0.6 0.4 1.1 0.3 0.6 0.7 1.1 0.3 0.4 0.8 0.7 0.4 0.3 0.9 0.6 0.5 0.2 1 0.3 0.5 0.1 1.1 0.1 0.5 0 1.1-0.1 0.6-0.1 1.1-0.3 0.5-0.1 1-0.4 0.5-0.3 0.9-0.6 0.5-0.3 0.9-0.7 0.4-0.4 0.8-0.9 0.3-0.4 0.6-0.9 0.4-0.5 0.6-1 0.3-0.5 0.5-1 0.3-0.6 0.5-1.2 0.2-0.5 0.3-1.1 0.2-0.6 0.3-1.2 0.2-0.5 0.3-1 0.1-0.6 0.1-1.1 0.1-0.6 0.1-1.1 0.1-0.6 0.1-1.1 0-0.5-0.1-0.9 0-0.4-0.1-0.8-0.1-0.5-0.2-0.9-0.1-0.4-0.3-0.8zm-23 78.2l-6.2-1.2q-1-0.1-1.9-0.4-1-0.3-1.9-0.7-0.9-0.5-1.8-1.1-0.8-0.5-1.5-1.2-0.6-0.6-1.1-1.4-0.4-0.7-0.7-1.5-0.3-0.8-0.4-1.6-0.1-0.9-0.1-1.7 0-1 0.2-1.9 0.1-0.9 0.5-1.7 0.3-0.9 0.7-1.7 0.5-0.8 1.1-1.5 0.6-0.7 1.3-1.4 0.8-0.6 1.6-1.1 0.8-0.5 1.6-1 0.9-0.4 1.8-0.7 1-0.4 2.1-0.6 1.1-0.3 2.1-0.5 1.1-0.2 2.2-0.3 1.1 0 2.2 0 6.9 0 10.8 2.7 0.9 0.7 1.7 1.5 0.7 0.8 1.2 1.7 0.6 1 0.9 2.1 0.3 1 0.3 2.1 0 0.2 0 0.4 0 0 0 0.1 0 0 0 0.1 0 0 0 0.1 0 0 0 0.1l-10.2 0.6q0-0.4-0.1-0.8 0-0.4-0.2-0.7-0.2-0.4-0.4-0.7-0.2-0.3-0.5-0.6-0.4-0.2-0.8-0.4-0.4-0.2-0.9-0.3-0.4-0.1-0.9-0.2-0.4 0-0.9 0-0.3 0-0.7 0.1-0.3 0-0.7 0-0.3 0.1-0.6 0.2-0.4 0-0.7 0.1-0.3 0.1-0.6 0.3-0.3 0.1-0.6 0.2-0.3 0.2-0.5 0.4-0.3 0.1-0.6 0.3-0.2 0.2-0.4 0.5-0.1 0.2-0.2 0.4-0.2 0.3-0.2 0.6-0.1 0.3-0.1 0.5 0 0.3 0 0.5 0.1 0.2 0.1 0.4 0.1 0.2 0.2 0.4 0.2 0.2 0.3 0.4 0.3 0.2 0.6 0.4 0.3 0.1 0.7 0.3 0.3 0.1 0.6 0.2 0.4 0.1 0.7 0.1l6.8 1.3q1 0.2 2 0.4 0.9 0.3 1.9 0.7 0.9 0.4 1.7 0.9 0.9 0.6 1.6 1.2 0.6 0.6 1.1 1.2 0.4 0.7 0.7 1.5 0.3 0.7 0.4 1.5 0.2 0.9 0.1 1.7 0 0.7-0.1 1.4-0.1 0.7-0.3 1.4-0.2 0.7-0.5 1.4-0.3 0.6-0.7 1.3-0.4 0.6-0.8 1.2-0.5 0.5-1 1-0.5 0.6-1.1 1-0.6 0.5-1.2 0.9-0.7 0.4-1.4 0.8-0.7 0.4-1.4 0.7-0.8 0.3-1.5 0.6-0.8 0.2-1.6 0.4-0.8 0.3-1.7 0.4-0.8 0.2-1.7 0.3-0.9 0.1-1.7 0.2-0.9 0-1.8 0-1 0-2.1 0-1-0.1-2.1-0.3-1-0.2-2-0.4-1-0.3-2-0.7-0.8-0.3-1.6-0.6-0.7-0.4-1.4-0.9-0.7-0.5-1.3-1.1-0.6-0.6-1.1-1.3-0.5-0.6-0.9-1.3-0.4-0.7-0.6-1.5-0.3-0.8-0.4-1.6-0.2-0.8-0.2-1.6v-0.4l10.8-0.6q0 0.4 0.1 0.9 0.1 0.4 0.3 0.9 0.2 0.4 0.4 0.8 0.3 0.4 0.6 0.7 0.5 0.3 0.9 0.5 0.5 0.2 1 0.4 0.6 0.1 1.1 0.1 0.5 0.1 1 0 0.4 0 0.8 0 0.3 0 0.7-0.1 0.4 0 0.7-0.1 0.4-0.1 0.7-0.2 0.4 0 0.7-0.2 0.3-0.1 0.5-0.2 0.3-0.2 0.6-0.4 0.3-0.1 0.5-0.3 0.3-0.2 0.4-0.4 0.2-0.2 0.3-0.5 0.2-0.2 0.2-0.5 0.1-0.3 0.1-0.6 0-0.2 0-0.5-0.1-0.2-0.2-0.4-0.1-0.3-0.2-0.4-0.2-0.2-0.4-0.4-0.3-0.2-0.6-0.4-0.4-0.2-0.7-0.3-0.4-0.1-0.7-0.2-0.4-0.1-0.8-0.2zm-10.8-53h-11.5l3.6-21.2q0.5-3.1-0.9-4.6-0.3-0.4-0.8-0.7-0.4-0.3-0.9-0.5-0.5-0.2-1.1-0.3-0.5-0.1-1.1-0.1-0.9 0-1.8 0.2-0.9 0.2-1.7 0.7-0.8 0.4-1.5 1.1-0.6 0.6-1.1 1.4-0.3 0.4-0.5 0.9-0.2 0.5-0.4 0.9-0.2 0.5-0.3 1-0.1 0.5-0.2 1l-3.4 20.2h-11.4l6-36.3h10.9l-1 6.7q0.5-0.7 0.9-1.3 0.5-0.7 1-1.3 0.5-0.6 1.1-1.1 0.6-0.5 1.2-1 0.8-0.7 1.7-1.2 1-0.4 2-0.8 1-0.3 2-0.4 1.1-0.2 2.1-0.2 0.9 0 1.8 0.1 0.8 0.1 1.7 0.3 0.8 0.3 1.6 0.6 0.8 0.4 1.6 0.8 0.6 0.5 1.2 1 0.6 0.6 1.1 1.2 0.5 0.7 0.8 1.4 0.4 0.7 0.6 1.4 0.3 0.9 0.5 1.8 0.2 0.9 0.2 1.9 0 0.9 0 1.8-0.1 1-0.3 1.9zm-45 30.2l-1.7 9.9q-0.2-0.1-0.5-0.1-0.2-0.1-0.5-0.1-0.3-0.1-0.5-0.1-0.3-0.1-0.5-0.1-1.3-0.1-2.4-0.1-1 0-2 0.2-1 0.3-1.9 0.7-0.9 0.5-1.7 1.1-0.7 0.7-1.3 1.5-0.3 0.5-0.6 0.9-0.2 0.5-0.4 1-0.2 0.5-0.4 1-0.1 0.5-0.2 1l-3.2 19.6h-11.5l6.1-36.3h11l-1.1 6.6h0.4q0.3-0.8 0.7-1.5 0.4-0.8 0.9-1.4 0.6-0.7 1.2-1.3 0.6-0.6 1.3-1.1 0.6-0.4 1.2-0.7 0.7-0.4 1.4-0.6 0.7-0.2 1.5-0.3 0.7-0.1 1.5-0.1 0.8 0 1.7 0.1 0.1 0 0.3 0 0.2 0.1 0.4 0.1 0.2 0 0.4 0.1 0.2 0 0.4 0zm-8.1-30.2l1.1-7.4q-0.5 0.8-1 1.5-0.5 0.7-1 1.3-0.6 0.7-1.2 1.3-0.7 0.6-1.3 1.1-0.9 0.7-1.9 1.2-0.9 0.5-2 0.9-1 0.3-2.1 0.5-1.1 0.1-2.2 0.1-0.9 0-1.7 0-0.8-0.1-1.7-0.4-0.8-0.2-1.5-0.5-0.8-0.3-1.5-0.8-0.6-0.4-1.2-0.9-0.6-0.6-1-1.2-0.5-0.6-0.8-1.3-0.4-0.6-0.6-1.4-0.3-0.9-0.4-1.8-0.2-0.9-0.2-1.8 0-0.9 0-1.8 0.1-1 0.3-1.9l3.8-23h11.4l-3.4 20.8q-0.2 0.6-0.2 1.2 0 0.6 0.1 1.3 0.1 0.6 0.3 1.2 0.2 0.6 0.5 1.1 0.4 0.5 0.9 0.8 0.4 0.4 1 0.6 0.5 0.2 1.1 0.3 0.5 0.1 1.1 0 0.9 0.1 1.7-0.1 0.9-0.2 1.7-0.7 0.7-0.4 1.4-1 0.6-0.6 1.1-1.3 0.3-0.4 0.5-0.9 0.2-0.4 0.4-0.9 0.2-0.4 0.3-0.9 0.1-0.5 0.2-1l3.4-20.5h11.4l-6 36.3c0 0-10.8 0-10.8 0zm-25.7 37q0.5 1 0.8 2 0.4 1 0.6 2 0.3 1 0.4 2.1 0.1 1 0.1 2.1 0 1-0.1 2.1-0.1 1.1-0.3 2.1-0.1 1.1-0.4 2.1-0.3 1-0.6 2.1-0.4 0.9-0.8 1.9-0.4 0.9-1 1.8-0.5 0.9-1.1 1.7-0.6 0.9-1.3 1.6-0.7 0.8-1.4 1.5-0.8 0.7-1.6 1.3-0.9 0.7-1.8 1.2-0.9 0.5-1.8 0.9-1.1 0.5-2.2 0.8-1.1 0.4-2.2 0.6-1.1 0.2-2.3 0.3-1.1 0.2-2.3 0.1-1.1 0.1-2.2 0-1.1-0.1-2.3-0.4-1.1-0.2-2.1-0.6-1.1-0.4-2.1-0.9-0.9-0.4-1.7-1-0.8-0.6-1.5-1.2-0.7-0.7-1.3-1.5-0.6-0.8-1-1.7-0.5-0.9-0.9-1.9-0.4-1-0.6-2-0.2-1-0.4-2.1-0.1-1 0-2.1 0-1 0-2.1 0.1-1.1 0.3-2.1 0.2-1.1 0.5-2.2 0.2-1 0.6-2 0.4-1 0.8-1.9 0.4-1 1-1.9 0.5-0.9 1.1-1.7 0.6-0.8 1.3-1.6 0.7-0.8 1.5-1.5 0.7-0.7 1.6-1.3 0.8-0.6 1.7-1.1 0.9-0.5 1.9-0.9 1-0.5 2.1-0.8 1.1-0.4 2.2-0.6 1.1-0.2 2.3-0.3 1.1-0.1 2.2-0.1 1.2 0 2.3 0.1 1.1 0.1 2.2 0.3 1.1 0.2 2.2 0.6 1.1 0.4 2.1 0.9 0.8 0.4 1.6 1 0.8 0.6 1.5 1.2 0.7 0.7 1.3 1.5 0.6 0.8 1.1 1.6zm-10.2 4.5q-0.2-0.4-0.3-0.7-0.2-0.3-0.5-0.5-0.2-0.3-0.4-0.5-0.3-0.3-0.6-0.5-0.3-0.2-0.6-0.3-0.4-0.1-0.7-0.2-0.4-0.1-0.7-0.2-0.4 0-0.8 0-0.5 0-1.1 0.1-0.5 0-1.1 0.2-0.5 0.2-1 0.4-0.5 0.3-0.9 0.6-0.5 0.4-0.9 0.8-0.4 0.4-0.7 0.8-0.4 0.4-0.7 0.9-0.3 0.5-0.6 1-0.3 0.5-0.5 1-0.3 0.6-0.5 1.1-0.2 0.6-0.3 1.2-0.2 0.5-0.3 1.1-0.2 0.6-0.3 1.1-0.1 0.5-0.1 1.1-0.1 0.5-0.1 1.1-0.1 0.6-0.1 1.1 0 0.6 0.1 1.2 0 0.6 0.2 1.2 0.2 0.6 0.5 1.2 0.2 0.5 0.6 1 0.4 0.4 0.8 0.8 0.4 0.3 0.9 0.5 0.5 0.2 1.1 0.3 0.5 0.1 1 0.1 0.6 0 1.1-0.1 0.6-0.1 1.1-0.2 0.6-0.2 1.1-0.5 0.4-0.2 0.9-0.6 0.4-0.3 0.8-0.7 0.5-0.4 0.8-0.8 0.4-0.5 0.7-0.9 0.3-0.5 0.6-1 0.2-0.6 0.5-1.1 0.2-0.6 0.4-1.1 0.2-0.6 0.4-1.2 0.1-0.5 0.3-1.1 0.1-0.6 0.2-1.1 0.1-0.5 0.2-1.1 0-0.5 0.1-1.1 0-0.5 0-1.1 0-0.4 0-0.8-0.1-0.5-0.1-0.9-0.1-0.4-0.2-0.8-0.2-0.4-0.3-0.8zm-7-41.5l8.1-49h11.4l-8.1 49zm-18.5 0l0.9-5.8h-0.3q-0.3 0.4-0.6 0.9-0.3 0.4-0.6 0.8-0.3 0.4-0.7 0.8-0.4 0.3-0.8 0.7-0.9 0.8-1.9 1.4-1 0.6-2.1 1-1.1 0.4-2.3 0.6-1.1 0.2-2.3 0.2-1 0-1.9-0.1-1-0.2-1.9-0.4-0.9-0.3-1.7-0.7-0.9-0.4-1.7-1-0.8-0.6-1.4-1.3-0.7-0.7-1.3-1.5-0.5-0.8-0.9-1.7-0.4-0.9-0.7-1.8-0.3-1.3-0.5-2.5-0.1-1.3-0.2-2.6 0-1.3 0.1-2.6 0.1-1.3 0.4-2.5 0.2-1.4 0.5-2.8 0.4-1.3 0.8-2.6 0.5-1.3 1.1-2.6 0.6-1.2 1.3-2.4 0.6-1 1.3-1.9 0.8-0.8 1.6-1.6 0.8-0.8 1.7-1.5 0.9-0.7 1.8-1.2 0.9-0.6 1.8-0.9 1-0.4 1.9-0.7 1-0.3 2-0.4 1-0.1 2-0.1 0.6-0.1 1.2 0 0.6 0 1.2 0.2 0.6 0.1 1.2 0.2 0.5 0.2 1.1 0.5 0.4 0.2 0.8 0.4 0.4 0.3 0.8 0.6 0.4 0.3 0.7 0.6 0.4 0.4 0.7 0.7 0.2 0.4 0.5 0.8 0.2 0.3 0.4 0.7 0.2 0.4 0.4 0.9 0.2 0.4 0.3 0.8h0.2l1-5.9h11.3l-6 36.3c0 0-11.2 0-11.2 0zm3.2-23.3q-0.1-0.5-0.3-1-0.2-0.4-0.4-0.9-0.2-0.4-0.5-0.8-0.3-0.3-0.7-0.7-0.4-0.3-0.8-0.5-0.4-0.2-0.9-0.4-0.4-0.2-0.9-0.2-0.5-0.1-0.9-0.1-0.6 0-1.1 0.1-0.5 0.1-1 0.2-0.5 0.2-1 0.4-0.4 0.2-0.8 0.5-0.5 0.4-0.9 0.7-0.4 0.4-0.8 0.9-0.4 0.4-0.7 0.8-0.3 0.5-0.5 1-0.3 0.6-0.6 1.2-0.3 0.7-0.5 1.3-0.2 0.6-0.3 1.3-0.2 0.7-0.3 1.3-0.1 0.7-0.2 1.3 0 0.7 0 1.3 0 0.7 0 1.3 0.1 0.6 0.2 1.3 0 0.5 0.2 0.9 0.1 0.5 0.4 0.9 0.2 0.5 0.5 0.9 0.3 0.3 0.6 0.7 0.4 0.3 0.8 0.5 0.4 0.3 0.9 0.4 0.4 0.2 0.9 0.3 0.5 0 1 0 0.5 0 1-0.1 0.5 0 1-0.2 0.5-0.2 1-0.4 0.5-0.2 0.9-0.5 0.5-0.3 0.9-0.7 0.4-0.4 0.8-0.8 0.3-0.5 0.7-0.9 0.3-0.5 0.5-1 0.4-0.6 0.6-1.2 0.3-0.7 0.5-1.3 0.2-0.7 0.4-1.3 0.1-0.7 0.2-1.4 0.2-0.6 0.2-1.2 0.1-0.7 0.1-1.3 0-0.7-0.1-1.3 0-0.7-0.1-1.3zm-29.9 81.6q0.4 0.3 0.9 0.5 0.5 0.2 1 0.4 0.5 0.1 1.1 0.1 0.5 0.1 1 0 0.4 0 0.8 0 0.3 0 0.7-0.1 0.3 0 0.7-0.1 0.4-0.1 0.7-0.2 0.3 0 0.6-0.2 0.3-0.1 0.6-0.2 0.3-0.2 0.6-0.3 0.3-0.2 0.5-0.4 0.2-0.2 0.4-0.4 0.2-0.2 0.3-0.5 0.1-0.2 0.2-0.5 0.1-0.3 0.1-0.5 0-0.3 0-0.5-0.1-0.3-0.2-0.5-0.1-0.2-0.3-0.4-0.1-0.2-0.3-0.4-0.3-0.2-0.7-0.4-0.3-0.1-0.6-0.3-0.4-0.1-0.8-0.2-0.3-0.1-0.7-0.1l-6.2-1.3q-1-0.1-2-0.4-0.9-0.3-1.8-0.7-0.9-0.5-1.8-1-0.8-0.6-1.5-1.3-0.6-0.6-1.1-1.3-0.4-0.8-0.7-1.6-0.3-0.8-0.4-1.6-0.2-0.9-0.1-1.7 0-0.9 0.2-1.9 0.1-0.9 0.4-1.7 0.3-0.9 0.8-1.7 0.5-0.8 1.1-1.5 0.6-0.7 1.3-1.3 0.7-0.7 1.5-1.2 0.8-0.5 1.7-1 0.9-0.4 1.8-0.7 1-0.4 2.1-0.6 1-0.3 2.1-0.5 1.1-0.2 2.2-0.2 1.1-0.1 2.2-0.1 6.9 0 10.8 2.8 0.9 0.6 1.6 1.4 0.8 0.8 1.3 1.8 0.6 0.9 0.9 2 0.3 1 0.3 2.1 0 0.2 0 0.4 0 0 0 0.1 0 0 0 0.1 0 0 0 0.1 0 0 0 0.1l-10.2 0.6q0-0.4-0.1-0.8-0.1-0.3-0.2-0.7-0.2-0.4-0.4-0.7-0.3-0.3-0.6-0.6-0.3-0.2-0.8-0.4-0.4-0.2-0.8-0.3-0.5-0.1-0.9-0.1-0.5-0.1-0.9-0.1-0.4 0-0.7 0.1-0.3 0-0.7 0-0.3 0.1-0.7 0.2-0.3 0.1-0.6 0.2-0.3 0-0.6 0.2-0.3 0.1-0.6 0.2-0.3 0.2-0.6 0.4-0.2 0.1-0.5 0.4-0.2 0.1-0.4 0.4-0.2 0.2-0.3 0.5-0.1 0.2-0.2 0.5 0 0.3 0 0.6 0 0.2 0 0.4 0 0.2 0.1 0.4 0.1 0.3 0.2 0.4 0.2 0.2 0.3 0.4 0.3 0.2 0.6 0.4 0.3 0.2 0.6 0.3 0.4 0.1 0.7 0.2 0.3 0.1 0.7 0.2l6.8 1.2q1 0.2 2 0.4 0.9 0.3 1.8 0.7 1 0.4 1.8 0.9 0.9 0.6 1.6 1.2 0.6 0.6 1.1 1.3 0.4 0.6 0.7 1.4 0.3 0.8 0.4 1.6 0.1 0.8 0.1 1.6 0 0.7-0.1 1.4-0.1 0.7-0.3 1.4-0.2 0.7-0.5 1.4-0.3 0.7-0.7 1.3-0.4 0.6-0.9 1.2-0.4 0.5-0.9 1.1-0.5 0.5-1.1 0.9-0.6 0.5-1.2 0.9-0.7 0.4-1.4 0.8-0.7 0.4-1.4 0.7-0.8 0.3-1.5 0.6-0.8 0.3-1.6 0.5-0.8 0.2-1.7 0.3-0.8 0.2-1.7 0.3-0.9 0.1-1.8 0.2-0.8 0-1.7 0-1.1 0.1-2.1 0-1-0.1-2.1-0.3-1-0.1-2-0.4-1.1-0.3-2-0.6-0.8-0.3-1.6-0.7-0.7-0.4-1.4-0.9-0.7-0.5-1.3-1.1-0.6-0.6-1.2-1.3-0.4-0.6-0.8-1.3-0.4-0.7-0.7-1.5-0.2-0.8-0.3-1.5-0.2-0.8-0.2-1.6v-0.4l10.8-0.7q0 0.4 0.1 0.9 0.1 0.4 0.2 0.9 0.2 0.4 0.5 0.8 0.3 0.4 0.6 0.7zm-24.9-17q0-0.4-0.1-0.8-0.1-0.3-0.3-0.7-0.1-0.4-0.4-0.7-0.2-0.3-0.5-0.6-0.4-0.2-0.8-0.4-0.4-0.2-0.9-0.3-0.4-0.1-0.8-0.1-0.5-0.1-0.9-0.1-0.4 0-0.7 0.1-0.4 0-0.7 0.1-0.4 0-0.7 0.1-0.3 0.1-0.7 0.2-0.3 0-0.6 0.2-0.3 0.1-0.6 0.2-0.2 0.2-0.5 0.4-0.3 0.2-0.5 0.4-0.2 0.1-0.4 0.4-0.2 0.2-0.3 0.5-0.1 0.2-0.2 0.5-0.1 0.3-0.1 0.6 0 0.2 0.1 0.4 0 0.2 0.1 0.4 0.1 0.3 0.2 0.4 0.1 0.2 0.3 0.4 0.3 0.2 0.6 0.4 0.3 0.2 0.6 0.3 0.3 0.1 0.7 0.2 0.3 0.1 0.7 0.2l6.8 1.2q1 0.2 1.9 0.4 1 0.3 1.9 0.7 0.9 0.4 1.8 0.9 0.8 0.6 1.6 1.2 0.6 0.6 1 1.3 0.5 0.6 0.8 1.4 0.3 0.8 0.4 1.6 0.1 0.8 0 1.6 0 0.7-0.1 1.4-0.1 0.7-0.3 1.4-0.2 0.7-0.5 1.4-0.3 0.7-0.6 1.3-0.4 0.6-0.9 1.2-0.4 0.5-1 1.1-0.5 0.5-1 0.9-0.6 0.5-1.2 0.9-0.7 0.4-1.4 0.8-0.7 0.4-1.5 0.7-0.7 0.3-1.5 0.6-0.7 0.3-1.5 0.5-0.9 0.2-1.7 0.3-0.9 0.2-1.8 0.3-0.8 0.1-1.7 0.2-0.9 0-1.7 0-1.1 0.1-2.1 0-1.1-0.1-2.1-0.3-1.1-0.1-2.1-0.4-1-0.3-2-0.6-0.8-0.3-1.5-0.7-0.8-0.4-1.5-0.9-0.6-0.5-1.3-1.1-0.6-0.6-1.1-1.3-0.5-0.6-0.9-1.3-0.3-0.7-0.6-1.5-0.2-0.7-0.4-1.5-0.1-0.8-0.1-1.6v-0.4l10.7-0.7q0 0.4 0.1 0.9 0.1 0.4 0.3 0.9 0.2 0.4 0.5 0.8 0.2 0.4 0.6 0.7 0.4 0.3 0.9 0.5 0.5 0.2 1 0.4 0.5 0.1 1 0.1 0.6 0.1 1.1 0 0.4 0 0.7 0 0.4 0 0.7 0 0.4-0.1 0.8-0.2 0.3 0 0.7-0.1 0.3-0.1 0.6-0.2 0.3-0.2 0.6-0.3 0.3-0.2 0.6-0.3 0.2-0.2 0.5-0.4 0.2-0.2 0.4-0.4 0.2-0.2 0.3-0.5 0.1-0.2 0.2-0.5 0.1-0.3 0.1-0.5 0-0.3-0.1-0.5 0-0.3-0.1-0.5-0.1-0.2-0.3-0.4-0.1-0.2-0.3-0.4-0.4-0.2-0.7-0.4-0.3-0.1-0.7-0.3-0.3-0.1-0.7-0.2-0.4-0.1-0.7-0.1l-6.2-1.3q-1-0.1-2-0.4-1-0.3-1.9-0.7-0.9-0.5-1.7-1-0.8-0.6-1.6-1.3-0.6-0.6-1-1.3-0.5-0.8-0.8-1.6-0.3-0.8-0.4-1.6-0.1-0.9 0-1.7 0-0.9 0.1-1.8 0.2-1 0.5-1.8 0.3-0.9 0.8-1.7 0.4-0.8 1-1.5 0.7-0.7 1.4-1.3 0.7-0.7 1.5-1.2 0.8-0.5 1.7-0.9 0.8-0.5 1.7-0.8 1.1-0.3 2.1-0.6 1.1-0.3 2.2-0.5 1.1-0.2 2.2-0.2 1.1-0.1 2.2-0.1 6.9 0 10.7 2.8 1 0.6 1.7 1.4 0.8 0.8 1.3 1.8 0.5 0.9 0.8 2 0.3 1 0.4 2.1 0 0.2 0 0.4 0 0 0 0.1 0 0 0 0.1 0 0 0 0.1 0 0 0 0.1zm-2.2-43.1q-0.9 0.6-1.8 1.1-0.9 0.4-1.9 0.8-1 0.3-2.1 0.4-1 0.2-2 0.2-1.1 0-2.1-0.2-1-0.1-2-0.5-1-0.3-2-0.7-0.9-0.5-1.7-1.1-0.9-0.7-1.7-1.4-0.8-0.8-1.5-1.6-0.7-0.9-1.3-1.8-0.5-0.9-1-1.9-0.5-1.2-0.9-2.3-0.4-1.2-0.6-2.4-0.3-1.2-0.4-2.5-0.1-1.2-0.1-2.5 0-1.2 0.1-2.4 0.1-1.3 0.4-2.5 0.2-1.2 0.6-2.4 0.4-1.1 0.9-2.3 0.5-1 1-1.9 0.6-0.9 1.3-1.8 0.7-0.8 1.5-1.6 0.8-0.7 1.7-1.3 1.7-1.2 3.7-1.9 2-0.6 4.1-0.6 2 0 4 0.6 2 0.7 3.8 1.9 0.8 0.6 1.6 1.4 0.8 0.7 1.5 1.6 0.7 0.8 1.3 1.7 0.5 1 1 2 0.5 1.1 0.9 2.3 0.3 1.1 0.6 2.3 0.3 1.3 0.4 2.5 0.1 1.2 0.1 2.4 0 1.3-0.1 2.5-0.1 1.3-0.4 2.5-0.2 1.2-0.6 2.4-0.4 1.1-0.9 2.3-0.5 1-1 1.9-0.6 0.9-1.3 1.8-0.7 0.8-1.5 1.6-0.8 0.7-1.6 1.4zm4.1-25.2q-0.4-0.9-1-1.7-0.5-0.9-1.1-1.7-0.6-0.7-1.3-1.4-0.7-0.7-1.5-1.3-1.6-1.1-3.4-1.7-1.7-0.6-3.6-0.6-1.9 0-3.7 0.6-1.8 0.6-3.3 1.7-0.8 0.6-1.6 1.3-0.7 0.7-1.3 1.4-0.6 0.8-1.1 1.7-0.6 0.8-1 1.7-0.4 1.1-0.8 2.2-0.3 1-0.5 2.1-0.3 1.2-0.4 2.3-0.1 1.1-0.1 2.2 0 1.2 0.1 2.3 0.1 1.2 0.3 2.3 0.3 1.1 0.6 2.2 0.4 1.1 0.8 2.1 0.4 0.9 0.9 1.8 0.6 0.8 1.2 1.6 0.6 0.8 1.3 1.5 0.7 0.7 1.5 1.3 0.8 0.5 1.6 1 0.9 0.4 1.8 0.7 0.9 0.3 1.8 0.4 0.9 0.2 1.9 0.1 0.9 0.1 1.8-0.1 1-0.1 1.9-0.4 0.9-0.3 1.7-0.7 0.8-0.5 1.6-1 0.8-0.6 1.5-1.3 0.7-0.7 1.3-1.5 0.6-0.8 1.1-1.6 0.6-0.9 1-1.8 0.4-1 0.8-2.1 0.3-1.1 0.5-2.2 0.3-1.1 0.4-2.3 0.1-1.1 0.1-2.3 0-1.1-0.1-2.2-0.1-1.1-0.4-2.3-0.2-1.1-0.5-2.2-0.4-1-0.8-2.1zm-37.1 57.9q0.8 0.3 1.5 0.7 0.7 0.4 1.3 0.9 0.7 0.4 1.3 1 0.6 0.5 1.1 1.2 0.5 0.6 0.8 1.3 0.4 0.7 0.6 1.5 0.3 0.8 0.4 1.6 0.1 0.7 0.1 1.5 0 0.9-0.1 1.6-0.1 0.8-0.4 1.6-0.3 0.8-0.7 1.4-0.4 0.7-1 1.3-0.7 0.6-1.4 1.2-0.7 0.5-1.5 0.9-0.8 0.4-1.7 0.8-0.8 0.3-1.7 0.5-1.2 0.3-2.5 0.6-1.2 0.2-2.5 0.4-1.3 0.2-2.5 0.3-1.3 0.2-2.6 0.2-2.9 0.2-6.2 0.3 0 0.2 0 0.4 0 0.4 0 0.9 0 0.4 0.1 0.9 0 0.4 0.1 0.9 0.1 0.4 0.2 0.9 0.1 0.3 0.3 0.7 0.2 0.3 0.4 0.7 0.2 0.3 0.5 0.6 0.3 0.2 0.6 0.5 0.5 0.2 0.9 0.4 0.5 0.2 1 0.3 0.5 0.1 1 0.1 0.5 0.1 1 0.1 0.6 0 1.1-0.1 0.6 0 1.2-0.2 0.6-0.1 1.1-0.3 0.5-0.2 1.1-0.5 0.4-0.2 0.8-0.5 0.4-0.3 0.7-0.7 0.3-0.4 0.6-0.8 0.3-0.4 0.4-0.9l10.3 0.8q-0.4 1.3-1 2.5-0.7 1.1-1.5 2.2-0.8 1.1-1.8 2-1 0.9-2.2 1.6-1.3 0.8-2.7 1.4-1.4 0.6-2.9 1-1.5 0.4-3 0.6-1.6 0.2-3.1 0.1-1.2 0.1-2.3 0-1.1-0.1-2.2-0.4-1.2-0.2-2.2-0.6-1.1-0.3-2.2-0.8-0.8-0.4-1.7-1-0.8-0.5-1.5-1.2-0.7-0.7-1.3-1.5-0.6-0.7-1.1-1.6-0.5-1-0.9-2-0.3-1-0.6-2.1-0.2-1-0.2-2.1-0.1-1.1-0.1-2.2 0.1-1.1 0.2-2.2 0.1-1.1 0.3-2.2 0.2-1 0.5-2.1 0.3-1.1 0.7-2.1 0.4-0.9 0.9-1.9 0.5-0.9 1-1.8 0.6-0.9 1.2-1.7 0.6-0.8 1.4-1.6 0.7-0.8 1.4-1.5 0.8-0.6 1.7-1.2 0.8-0.6 1.7-1.2 0.9-0.5 1.9-0.9 1-0.4 2.1-0.8 1-0.3 2.1-0.5 1.1-0.2 2.2-0.3 1.1-0.2 2.2-0.1 0.9 0 1.9 0 0.9 0.1 1.8 0.3 0.9 0.1 1.8 0.4 0.9 0.2 1.8 0.5zm-4.7 7.9q-0.5-0.2-0.9-0.4-0.5-0.2-0.9-0.3-0.5-0.1-1-0.1-0.5-0.1-1 0-0.6-0.1-1.2 0-0.7 0.1-1.3 0.3-0.6 0.2-1.2 0.4-0.5 0.3-1.1 0.7-0.4 0.4-0.8 0.8-0.4 0.4-0.8 0.9-0.3 0.5-0.6 1-0.3 0.5-0.5 1-0.1 0.3-0.2 0.5-0.1 0.3-0.2 0.5-0.1 0.3-0.2 0.5 0 0.3-0.1 0.5c1.2 0 2.4-0.1 3.4-0.1q0.7 0 1.5-0.1 0.8 0 1.6-0.1 0.7-0.1 1.5-0.2 0.8-0.1 1.5-0.2 0.4-0.1 0.8-0.2 0.4-0.1 0.8-0.2 0.4-0.2 0.7-0.4 0.4-0.2 0.7-0.4 0.2-0.2 0.3-0.4 0.2-0.2 0.3-0.5 0.1-0.2 0.1-0.5 0.1-0.3 0.1-0.5 0-0.4-0.1-0.8-0.1-0.3-0.2-0.6-0.2-0.4-0.5-0.6-0.2-0.3-0.5-0.5zm3.2-48.1h-0.1q-0.2 0.7-0.5 1.4-0.3 0.7-0.6 1.4-0.4 0.6-0.8 1.3-0.4 0.6-0.8 1.1-0.5 0.6-1 1.1-0.5 0.5-1 0.9-0.6 0.5-1.2 0.8-0.6 0.4-1.2 0.7-0.7 0.3-1.4 0.6-0.6 0.2-1.3 0.4-0.7 0.1-1.5 0.2-0.7 0.1-1.4 0.1-1 0-2-0.2-1-0.1-2-0.4-0.9-0.3-1.8-0.8-0.9-0.5-1.8-1.1-0.8-0.6-1.5-1.4-0.8-0.7-1.4-1.6-0.7-0.8-1.2-1.8-0.5-0.9-0.9-1.9-0.4-1.1-0.8-2.3-0.3-1.2-0.6-2.4-0.2-1.2-0.3-2.5-0.1-1.2-0.1-2.5 0-1.2 0.1-2.4 0.1-1.2 0.3-2.5 0.3-1.2 0.6-2.4 0.4-1.1 0.8-2.3 0.4-1 1-1.9 0.5-0.9 1.1-1.8 0.7-0.8 1.4-1.6 0.7-0.7 1.6-1.4 0.8-0.6 1.7-1 0.9-0.5 1.8-0.8 1-0.3 2-0.5 1-0.1 2-0.1 0.7 0 1.4 0.1 0.7 0 1.5 0.2 0.7 0.2 1.3 0.4 0.7 0.2 1.4 0.5 0.6 0.3 1.2 0.7 0.6 0.4 1.2 0.8 0.5 0.5 1 1 0.5 0.5 1 1 0.4 0.6 0.8 1.2 0.5 0.6 0.8 1.3 0.3 0.6 0.6 1.3 0.3 0.7 0.5 1.4h0.1v-22.1h1.6v49h-1.6c0 0 0-9.2 0-9.2zm-1.5-17.7q-0.4-0.9-0.8-1.8-0.5-0.8-1.1-1.6-0.5-0.8-1.2-1.5-0.7-0.6-1.4-1.2-1.5-1.1-3.2-1.7-1.8-0.6-3.6-0.6-1.8 0-3.6 0.6-1.7 0.6-3.2 1.7-0.7 0.6-1.4 1.2-0.7 0.7-1.2 1.5-0.6 0.8-1.1 1.6-0.4 0.9-0.8 1.8-0.4 1-0.7 2.1-0.3 1.1-0.5 2.2-0.2 1.2-0.3 2.3-0.1 1.1-0.1 2.2 0 1.2 0.1 2.3 0.1 1.2 0.3 2.3 0.2 1.1 0.5 2.2 0.3 1.1 0.7 2.1 0.4 0.9 0.8 1.8 0.5 0.8 1.1 1.6 0.5 0.8 1.2 1.5 0.7 0.7 1.4 1.3 1.5 1.1 3.2 1.7 1.8 0.5 3.6 0.5 1.9 0 3.6-0.5 1.7-0.6 3.2-1.7 0.8-0.6 1.4-1.3 0.7-0.7 1.3-1.5 0.5-0.8 1-1.6 0.4-0.9 0.8-1.8 0.4-1 0.7-2.1 0.3-1.1 0.5-2.2 0.2-1.2 0.3-2.3 0.1-1.1 0.1-2.3 0-1.1-0.1-2.2-0.1-1.1-0.3-2.3-0.2-1.1-0.5-2.2-0.3-1.1-0.7-2.1zm-28.5 42.8q1.8 0 3.3 0.1 0.4 0.1 0.8 0.1 0.3 0 0.7 0.1 0.4 0 0.7 0.1 0.4 0.1 0.7 0.2l-2.5 8.5q-0.2-0.1-0.4-0.1-0.2 0-0.4-0.1-0.2 0-0.4 0-0.2 0-0.4 0-0.8-0.1-2-0.1-0.4 0-0.8 0.1-0.4 0-0.8 0.1-0.4 0.2-0.7 0.4-0.4 0.2-0.7 0.4-0.3 0.3-0.6 0.7-0.2 0.4-0.4 0.7-0.2 0.4-0.3 0.9-0.1 0.4-0.2 0.8l-0.2 1.6h7.6l-1.4 8.5h-7.6l-4.8 28.8q-0.1 1-0.4 2-0.2 0.9-0.6 1.9-0.3 0.9-0.8 1.8-0.4 0.9-0.9 1.8-0.5 0.7-1.1 1.4-0.6 0.6-1.2 1.2-0.7 0.6-1.4 1.1-0.8 0.5-1.6 0.9-0.8 0.4-1.8 0.7-0.9 0.3-1.9 0.5-0.9 0.2-1.9 0.3-1 0-2 0-1 0-2.1 0-1 0-2-0.1-0.9-0.1-1.7-0.2l2.1-8.7q0.6 0 1.4 0.1 0.2 0.1 0.4 0.1 0.2 0 0.4 0 0.2 0 0.4 0 0.1 0 0.3 0 0.5 0 0.9 0 0.5-0.1 0.9-0.2 0.4-0.2 0.8-0.4 0.4-0.2 0.7-0.5 0.4-0.4 0.7-0.8 0.2-0.4 0.4-0.8 0.2-0.5 0.4-1 0.1-0.4 0.1-0.9l4.8-29h-6.5l1.5-8.5h6.4l0.2-0.8q0.1-1 0.4-2 0.2-1 0.6-1.9 0.3-1 0.8-1.9 0.4-0.9 1-1.7 0.5-0.8 1.1-1.4 0.6-0.7 1.3-1.3 0.6-0.6 1.4-1.1 0.7-0.4 1.6-0.8 0.9-0.4 1.8-0.7 1-0.3 2-0.5 0.9-0.2 1.9-0.3 1-0.1 2-0.1zm-8.6-40.1q0.1-1.1-0.1-2.2-0.2-1.1-0.6-2.1-0.4-1.1-1-2-0.6-0.9-1.4-1.7-0.8-0.8-1.8-1.4-0.9-0.6-2-1-1-0.4-2.1-0.5-1.1-0.2-2.3-0.2-0.8 0-1.5 0.1-0.8 0.1-1.6 0.3-0.8 0.1-1.5 0.4-0.8 0.3-1.5 0.7-0.6 0.3-1.3 0.7-0.6 0.4-1.1 0.9-0.5 0.5-1 1.1-0.5 0.6-0.9 1.2-0.4 0.6-0.7 1.3-0.3 0.7-0.5 1.5-0.2 0.7-0.2 1.4-0.1 0.8-0.1 1.5v24.2h-1.5v-36.3h1.5v6.8q0.3-0.8 0.7-1.6 0.4-0.7 1-1.4 0.5-0.6 1.2-1.2 0.6-0.5 1.4-1 0.8-0.5 1.8-0.9 0.9-0.4 1.9-0.7 0.9-0.2 1.9-0.4 1-0.1 2-0.1 0.9 0 1.8 0.1 0.8 0.1 1.7 0.3 0.8 0.2 1.6 0.5 0.8 0.3 1.6 0.7 0.7 0.4 1.3 0.9 0.7 0.5 1.3 1 0.5 0.6 1 1.2 0.5 0.6 0.9 1.3 0.4 0.8 0.8 1.6 0.3 0.8 0.5 1.6 0.2 0.9 0.3 1.7 0.1 0.9 0.1 1.7v24.2h-1.6c0 0 0-24.2 0-24.2zm-27 55.9q0.9 0.5 1.7 1 0.8 0.6 1.5 1.3 0.7 0.7 1.2 1.4 0.6 0.8 1.1 1.7 0.5 0.9 0.9 1.9 0.3 1 0.6 2 0.2 1.1 0.3 2.1 0.1 1.1 0.1 2.1 0 1.1-0.1 2.2-0.1 1-0.2 2.1-0.2 1-0.5 2.1-0.2 1-0.6 2-0.3 1-0.8 1.9-0.4 1-0.9 1.8-0.6 0.9-1.2 1.8-0.6 0.8-1.2 1.6-0.7 0.8-1.5 1.5-0.8 0.7-1.6 1.3-0.9 0.6-1.8 1.1-0.9 0.6-1.8 1-1.1 0.4-2.2 0.8-1 0.3-2.2 0.6-1.1 0.2-2.2 0.3-1.2 0.1-2.3 0.1-1.2 0-2.3-0.1-1.1-0.1-2.2-0.3-1.1-0.3-2.2-0.7-1.1-0.3-2.1-0.8-0.8-0.5-1.6-1-0.8-0.6-1.5-1.3-0.7-0.7-1.3-1.5-0.6-0.7-1.1-1.6-0.5-0.9-0.9-1.9-0.3-1-0.6-2-0.2-1.1-0.3-2.1-0.1-1.1-0.1-2.1 0-1.1 0.1-2.2 0.1-1 0.2-2.1 0.2-1.1 0.5-2.1 0.3-1.1 0.6-2.1 0.4-0.9 0.8-1.9 0.5-0.9 1-1.8 0.5-0.9 1.1-1.7 0.6-0.9 1.3-1.7 0.7-0.7 1.5-1.4 0.8-0.7 1.6-1.3 0.9-0.6 1.8-1.2 0.9-0.5 1.8-0.9 1.1-0.5 2.1-0.8 1.1-0.3 2.2-0.6 1.2-0.2 2.3-0.3 1.1-0.1 2.3-0.1 1.1 0 2.2 0.1 1.1 0.1 2.2 0.3 1.1 0.3 2.2 0.7 1.1 0.3 2.1 0.8zm-13.4 8.3q-0.5 0.3-0.9 0.7-0.4 0.4-0.7 0.8-0.4 0.5-0.7 0.9-0.3 0.5-0.6 1-0.2 0.5-0.5 1.1-0.2 0.5-0.4 1.1-0.2 0.5-0.4 1.1-0.2 0.6-0.3 1.2-0.1 0.5-0.2 1-0.1 0.6-0.2 1.1-0.1 0.6-0.1 1.1 0 0.6 0 1.2-0.1 0.6 0 1.2 0.1 0.6 0.2 1.2 0.2 0.6 0.5 1.1 0.3 0.6 0.6 1.1 0.4 0.4 0.8 0.7 0.5 0.3 1 0.5 0.5 0.3 1 0.4 0.5 0.1 1.1 0 0.5 0 1.1 0 0.5-0.1 1.1-0.3 0.5-0.2 1-0.4 0.5-0.3 0.9-0.6 0.5-0.4 0.9-0.8 0.4-0.4 0.7-0.8 0.4-0.4 0.7-0.9 0.3-0.5 0.6-1 0.3-0.5 0.5-1.1 0.2-0.5 0.4-1.1 0.2-0.5 0.4-1.1 0.2-0.6 0.3-1.2 0.1-0.5 0.2-1.1 0.1-0.5 0.2-1 0.1-0.6 0.1-1.1 0-0.6 0-1.1 0-0.5 0-0.9 0-0.4-0.1-0.9-0.1-0.4-0.2-0.8-0.1-0.4-0.3-0.8-0.1-0.3-0.3-0.6-0.2-0.3-0.4-0.6-0.3-0.3-0.5-0.5-0.3-0.2-0.6-0.4-0.3-0.2-0.6-0.4-0.3-0.1-0.7-0.2-0.3-0.1-0.7-0.1-0.4-0.1-0.7-0.1-0.6 0-1.1 0.1-0.6 0.1-1.1 0.3-0.6 0.1-1.1 0.4-0.5 0.2-0.9 0.6zm2-47.3h-0.1q-0.5 1.2-1.3 2.2-0.7 1.1-1.6 2-1 0.9-2.1 1.6-1 0.7-2.2 1.2-1.3 0.6-2.7 0.8-1.4 0.3-2.8 0.3-1.4-0.1-2.7-0.4-1.4-0.3-2.7-0.8-1.3-0.6-2.4-1.6-1.1-1-1.9-2.2-0.7-1.2-1.1-2.7-0.4-1.4-0.3-2.8 0-0.5 0-0.9 0.1-0.5 0.1-0.9 0.1-0.5 0.2-0.9 0.2-0.5 0.3-0.9 0.2-0.4 0.4-0.8 0.3-0.4 0.5-0.8 0.3-0.4 0.6-0.7 0.3-0.3 0.7-0.6 0.5-0.4 1-0.7 0.5-0.3 1-0.6 0.6-0.3 1.1-0.5 0.6-0.2 1.2-0.4 0.8-0.3 1.7-0.5 0.8-0.2 1.7-0.4 0.9-0.2 1.7-0.3 0.9-0.2 1.8-0.3 2.6-0.3 4.9-0.7 0.5-0.1 1-0.2 0.4-0.1 0.9-0.2 0.5-0.2 0.9-0.4 0.5-0.2 0.9-0.4 0.3-0.1 0.5-0.4 0.3-0.2 0.5-0.5 0.2-0.3 0.3-0.6 0.1-0.4 0-0.7v-1.9q0.1-0.6 0-1.3-0.1-0.6-0.3-1.2-0.1-0.7-0.4-1.3-0.2-0.6-0.6-1.1-0.3-0.5-0.7-1-0.4-0.5-0.9-0.9-0.5-0.4-1-0.8-0.5-0.3-1.1-0.6-0.6-0.3-1.3-0.5-0.7-0.3-1.4-0.4-0.7-0.2-1.4-0.2-0.7-0.1-1.4-0.1-0.6 0-1.3 0.1-0.6 0-1.2 0.1-0.7 0.1-1.3 0.3-0.6 0.2-1.2 0.4-0.5 0.2-1 0.5-0.5 0.2-1 0.5-0.5 0.3-0.9 0.7-0.5 0.4-0.9 0.8-0.4 0.4-0.7 0.8-0.3 0.4-0.6 0.9-0.3 0.5-0.5 1-0.2 0.5-0.3 1.1l-1.5-0.5q0.2-0.6 0.4-1.2 0.2-0.6 0.6-1.1 0.3-0.6 0.6-1.1 0.4-0.5 0.9-0.9 0.4-0.5 0.9-0.9 0.5-0.4 1.1-0.8 0.5-0.3 1.1-0.6 0.6-0.3 1.2-0.6 0.7-0.2 1.4-0.4 0.7-0.2 1.4-0.3 0.7-0.2 1.4-0.2 0.7-0.1 1.4-0.1 0.6 0 1.3 0.1 0.6 0 1.2 0.1 0.7 0.1 1.3 0.3 0.6 0.1 1.2 0.3 0.5 0.2 1 0.5 0.5 0.2 1 0.5 0.5 0.3 0.9 0.6 0.5 0.4 0.9 0.7 0.4 0.4 0.7 0.8 0.4 0.4 0.7 0.8 0.3 0.5 0.6 0.9 0.2 0.5 0.4 1 0.2 0.5 0.4 1 0.2 0.6 0.3 1.1 0.1 0.6 0.1 1.1 0.1 0.6 0.1 1.1v25.9h-1.6c0 0 0-7.3 0-7.3zm0-13.7q-0.1 0.1-0.3 0.3-0.2 0.1-0.4 0.2-0.2 0.1-0.5 0.2-0.2 0.1-0.4 0.2-0.2 0.1-0.5 0.2-0.3 0.1-0.5 0.2-0.3 0.1-0.5 0.2-0.3 0.1-0.6 0.1-1.2 0.3-2.6 0.6-1.5 0.2-3.2 0.4-0.9 0.1-1.9 0.2-1 0.2-2 0.4-0.9 0.2-1.9 0.5-0.9 0.3-1.9 0.6-0.6 0.2-1.1 0.5-0.6 0.3-1.1 0.7-0.5 0.3-1 0.8-0.4 0.4-0.8 0.9-0.3 0.4-0.5 0.9-0.3 0.5-0.4 1-0.2 0.6-0.3 1.1 0 0.5 0 1.1 0 0.6 0.1 1.2 0 0.6 0.2 1.2 0.2 0.7 0.4 1.2 0.3 0.6 0.6 1.1 0.3 0.5 0.7 1 0.4 0.4 0.9 0.8 0.4 0.4 0.9 0.8 0.5 0.3 1.1 0.5 0.5 0.3 1.2 0.5 0.6 0.2 1.2 0.4 0.6 0.1 1.3 0.2 0.6 0.1 1.3 0 0.8 0.1 1.6-0.1 0.9-0.1 1.7-0.3 0.8-0.2 1.5-0.6 0.8-0.3 1.5-0.8 0.7-0.4 1.4-1 0.7-0.5 1.2-1.2 0.6-0.6 1.1-1.4 0.5-0.7 0.9-1.5 0.4-0.8 0.7-1.8 0.4-0.9 0.6-1.9 0.2-1 0.3-2 0.1-1 0.1-2c0 0 0-5.6-0.1-5.6zm-30.2 57.9h0.3q0.3-0.8 0.7-1.5 0.4-0.7 0.9-1.4 0.6-0.7 1.2-1.3 0.6-0.5 1.3-1 0.6-0.5 1.3-0.8 0.6-0.3 1.3-0.5 0.8-0.2 1.5-0.3 0.7-0.1 1.5-0.1 0.8 0 1.7 0 0.2 0.1 0.3 0.1 0.2 0 0.4 0 0.2 0.1 0.4 0.1 0.2 0 0.4 0.1l-1.7 9.8q-0.2 0-0.5-0.1-0.2-0.1-0.5-0.1-0.2 0-0.5-0.1-0.3 0-0.5 0-1.3-0.1-2.4-0.1-1 0-2 0.2-1 0.2-1.9 0.7-0.9 0.4-1.6 1.1-0.8 0.6-1.4 1.5-0.3 0.4-0.6 0.9-0.2 0.4-0.4 0.9-0.2 0.5-0.4 1-0.1 0.6-0.2 1.1l-3.2 19.6h-11.5l6.1-36.3h11zm-4.9-39.2q0.4 0.3 0.9 0.6 0.5 0.3 1.1 0.4 0.6 0.1 1.2 0.1 0.5 0 1.1-0.2l0.7-0.1q0.4-0.1 0.7-0.1l0.3 1.5q-0.3 0-0.7 0.1-0.4 0-0.8 0.1-3.6 0.7-5.6-1.3-0.5-0.6-0.9-1.3-0.4-0.7-0.7-1.4-0.2-0.7-0.3-1.5-0.1-0.8-0.1-1.5v-27.9h-5.4v-1.5h5.4v-9h1.5v9h7.6v1.5h-7.6v27.8q0 0.7 0 1.3 0.1 0.6 0.3 1.2 0.2 0.6 0.5 1.2 0.4 0.5 0.8 1zm-32.1-0.9q0.7 0.5 1.6 0.9 0.8 0.4 1.7 0.7 0.9 0.3 1.8 0.4 0.9 0.2 1.9 0.2 0.6 0 1.2-0.1 0.6 0 1.2-0.1 0.6-0.2 1.1-0.3 0.6-0.2 1.2-0.5 0.4-0.2 0.9-0.4 0.5-0.2 0.9-0.5 0.4-0.3 0.8-0.6 0.5-0.3 0.8-0.7 0.4-0.3 0.7-0.6 0.3-0.3 0.6-0.6 0.2-0.3 0.5-0.7 0.3-0.3 0.5-0.7 0.2-0.2 0.3-0.5 0.1-0.2 0.3-0.4 0.1-0.3 0.2-0.5 0.1-0.3 0.2-0.6l1.4 0.6q-0.1 0.3-0.2 0.6-0.2 0.3-0.3 0.5-0.1 0.3-0.3 0.6-0.2 0.2-0.3 0.5-0.3 0.4-0.6 0.8-0.3 0.4-0.6 0.7-0.3 0.4-0.7 0.7-0.3 0.4-0.7 0.7-0.4 0.4-0.9 0.8-0.4 0.3-0.9 0.6-0.5 0.4-1 0.6-0.5 0.3-1.1 0.5-0.6 0.3-1.2 0.5-0.7 0.2-1.3 0.3-0.7 0.2-1.4 0.2-0.6 0.1-1.3 0.1-1.1 0-2.1-0.2-1-0.1-2-0.4-1-0.3-2-0.8-0.9-0.4-1.7-1.1-0.9-0.6-1.7-1.3-0.8-0.8-1.5-1.6-0.7-0.9-1.3-1.8-0.5-0.9-1-1.9-0.5-1.1-0.9-2.3-0.4-1.2-0.6-2.4-0.3-1.2-0.4-2.4-0.1-1.3-0.1-2.5 0-1.2 0.1-2.5 0.1-1.2 0.4-2.4 0.2-1.2 0.6-2.4 0.4-1.2 0.9-2.3 0.5-1 1-1.9 0.6-0.9 1.3-1.8 0.7-0.8 1.5-1.6 0.8-0.7 1.7-1.3 0.8-0.6 1.7-1.1 1-0.5 2-0.8 1-0.3 2-0.4 1-0.2 2.1-0.2 0.6 0 1.3 0.1 0.7 0 1.3 0.2 0.7 0.1 1.3 0.3 0.7 0.2 1.3 0.5 0.5 0.2 1 0.5 0.6 0.2 1 0.6 0.5 0.3 1 0.6 0.4 0.4 0.9 0.8 0.3 0.3 0.7 0.6 0.3 0.4 0.6 0.7 0.3 0.4 0.6 0.8 0.3 0.4 0.5 0.8 0.2 0.2 0.4 0.5 0.1 0.3 0.3 0.5 0.1 0.3 0.2 0.6 0.2 0.3 0.3 0.6l-1.4 0.5q-0.1-0.2-0.2-0.5-0.1-0.2-0.3-0.5-0.1-0.2-0.2-0.5-0.2-0.2-0.3-0.4-0.3-0.4-0.5-0.7-0.3-0.4-0.5-0.7-0.3-0.3-0.6-0.6-0.3-0.3-0.7-0.6-0.3-0.4-0.7-0.7-0.4-0.3-0.9-0.6-0.4-0.3-0.9-0.5-0.4-0.2-0.9-0.5-0.5-0.2-1.1-0.4-0.6-0.1-1.2-0.3-0.5-0.1-1.1-0.1-0.6-0.1-1.2-0.1-1 0-1.9 0.2-0.9 0.1-1.8 0.4-0.9 0.3-1.7 0.7-0.9 0.4-1.6 1-0.8 0.5-1.6 1.2-0.7 0.7-1.3 1.5-0.6 0.8-1.1 1.6-0.6 0.8-1 1.7-0.4 1.1-0.8 2.2-0.3 1.1-0.6 2.2-0.2 1.1-0.3 2.2-0.1 1.2-0.1 2.3 0 1.1 0.1 2.3 0.1 1.1 0.3 2.2 0.3 1.2 0.6 2.3 0.4 1 0.8 2.1 0.4 0.9 1 1.7 0.5 0.9 1.1 1.6 0.6 0.8 1.3 1.5 0.8 0.7 1.6 1.3zm5.5 20.8q1.2-0.1 2.4 0.1 1.2 0.1 2.4 0.3 1.2 0.3 2.3 0.7 1.1 0.4 2.2 1 0.8 0.5 1.6 1.1 0.8 0.6 1.5 1.4 0.7 0.8 1.2 1.6 0.5 0.9 0.9 1.8 0.4 1 0.7 2.1 0.2 1.1 0.3 2.3 0.1 1.1 0 2.2 0 1.1-0.3 2.3-0.1 1.1-0.5 2.3-0.3 1.2-0.8 2.3-0.4 1.1-1 2.1-0.6 1.1-1.3 2-0.7 1-1.6 1.8-0.8 0.9-1.7 1.6-0.9 0.8-1.9 1.4-1 0.6-2.1 1.1-1.2 0.5-2.4 0.9-1.3 0.4-2.5 0.7-1.3 0.2-2.6 0.4-1.3 0.1-2.6 0.1h-8.1l-2.6 15.4h-11.6l8.1-49c0 0 20 0 20 0zm-6.1 24.3q0.6 0 1.2-0.1 0.6 0 1.2-0.2 0.6-0.1 1.2-0.3 0.5-0.1 1.1-0.4 0.4-0.2 0.9-0.5 0.4-0.3 0.8-0.6 0.4-0.3 0.8-0.7 0.3-0.4 0.7-0.8 0.3-0.4 0.5-0.9 0.3-0.4 0.5-0.9 0.2-0.5 0.3-1 0.1-0.6 0.2-1.1 0.1-0.5 0.1-1 0.1-0.4 0-0.9 0-0.5-0.1-1-0.1-0.5-0.3-1-0.1-0.4-0.4-0.7-0.2-0.4-0.5-0.7-0.3-0.4-0.7-0.6-0.3-0.3-0.7-0.5-0.5-0.3-1-0.4-0.6-0.2-1.1-0.3-0.6-0.1-1.1-0.2-0.6 0-1.1 0h-6.3l-2.5 14.8c0 0 6.3 0 6.3 0zm-42.1-51.4q0.4 0.9 0.9 1.8 0.5 0.9 1.2 1.7 0.6 0.8 1.3 1.5 0.7 0.7 1.5 1.3 1.5 1 3.2 1.6 1.6 0.6 3.4 0.7 1.7 0.2 3.5-0.1 1.7-0.3 3.3-1 0.6-0.3 1.1-0.6 0.5-0.3 1-0.7 0.5-0.3 0.9-0.7 0.5-0.4 0.9-0.9 0.3-0.3 0.7-0.7 0.3-0.4 0.5-0.8 0.3-0.4 0.6-0.8 0.2-0.4 0.4-0.9l1.3 0.7q-0.2 0.5-0.5 1-0.3 0.5-0.6 0.9-0.3 0.5-0.7 0.9-0.3 0.5-0.7 0.9-0.5 0.5-1 0.9-0.5 0.5-1.1 0.8-0.5 0.4-1.1 0.8-0.6 0.3-1.2 0.6-1.7 0.8-3.6 1.1-1.9 0.3-3.8 0.1-1.9-0.1-3.7-0.7-1.8-0.7-3.4-1.7-0.9-0.6-1.7-1.4-0.8-0.7-1.5-1.6-0.7-0.8-1.3-1.8-0.6-0.9-1-1.9-0.5-1.1-0.9-2.3-0.4-1.2-0.6-2.4-0.3-1.2-0.4-2.5-0.1-1.2-0.1-2.4 0-1.3 0.1-2.5 0.1-1.2 0.4-2.4 0.2-1.2 0.6-2.4 0.4-1.2 0.9-2.3 0.4-1 1-1.9 0.6-1 1.3-1.8 0.7-0.9 1.5-1.6 0.8-0.8 1.6-1.4 0.9-0.6 1.8-1.1 1-0.5 2-0.8 1-0.3 2-0.4 1-0.2 2.1-0.2 0.7 0 1.5 0.1 0.8 0.1 1.5 0.3 0.8 0.1 1.5 0.4 0.8 0.2 1.4 0.6 0.7 0.3 1.4 0.7 0.6 0.4 1.2 0.9 0.6 0.5 1.2 1 0.5 0.6 1 1.1 0.5 0.7 1 1.3 0.4 0.7 0.8 1.4 0.4 0.7 0.8 1.5 0.3 0.7 0.5 1.5 0.3 0.9 0.5 1.7 0.3 0.9 0.4 1.8 0.1 0.9 0.2 1.8 0.1 0.9 0.1 1.8v0.8h-28.8q0 1.2 0.1 2.3 0.1 1.1 0.3 2.2 0.3 1 0.6 2.1 0.3 1.1 0.7 2.1zm25.5-10.2q0-1-0.1-2-0.1-0.9-0.3-1.9-0.3-1-0.6-1.9-0.3-1-0.7-1.9-0.4-0.8-0.9-1.6-0.5-0.9-1.1-1.6-0.6-0.7-1.3-1.4-0.7-0.6-1.5-1.2-1.5-1.1-3.3-1.6-1.8-0.6-3.7-0.6-1.8 0.1-3.6 0.6-1.8 0.6-3.3 1.7-0.8 0.5-1.5 1.2-0.7 0.7-1.4 1.5-0.6 0.7-1.1 1.6-0.5 0.8-1 1.7-0.4 0.9-0.7 1.8-0.3 0.9-0.5 1.8-0.3 1-0.4 1.9-0.1 1-0.2 1.9c0 0 27.2 0 27.2 0zm-40.1-4.5q0.1-1.2-0.1-2.3-0.2-1.1-0.6-2.1-0.4-1-1-2-0.6-0.9-1.4-1.7-0.8-0.8-1.8-1.4-0.9-0.6-2-0.9-1-0.4-2.1-0.6-1.2-0.2-2.3-0.2-0.8 0-1.6 0.1-0.8 0.1-1.5 0.3-0.8 0.2-1.6 0.4-0.7 0.3-1.4 0.7-0.7 0.3-1.3 0.7-0.6 0.5-1.1 1-0.6 0.5-1 1-0.5 0.6-0.9 1.2-0.4 0.7-0.7 1.4-0.3 0.7-0.5 1.4-0.2 0.7-0.3 1.5-0.1 0.7 0 1.5v24.2h-1.6v-36.3h1.6v6.7q0.3-0.8 0.7-1.6 0.4-0.7 1-1.4 0.5-0.6 1.2-1.2 0.6-0.5 1.3-1 0.9-0.5 1.8-0.9 1-0.4 1.9-0.6 1-0.3 2-0.4 1-0.2 2-0.2 0.9 0 1.8 0.1 0.8 0.1 1.7 0.3 0.8 0.2 1.6 0.5 0.8 0.3 1.6 0.7 0.7 0.4 1.3 0.9 0.7 0.5 1.2 1 0.6 0.6 1.1 1.2 0.5 0.7 0.9 1.4 0.4 0.7 0.7 1.5 0.4 0.8 0.6 1.6 0.2 0.9 0.3 1.7 0.1 0.9 0 1.8v24.2h-1.5c0 0 0-24.2 0-24.2zm-42 22.4q-0.9 0.6-1.8 1.1-0.9 0.5-1.9 0.8-1 0.3-2 0.4-1.1 0.2-2.1 0.2-1.1 0-2.1-0.2-1-0.1-2-0.4-1-0.3-1.9-0.8-1-0.5-1.8-1.1-0.9-0.6-1.7-1.4-0.8-0.7-1.5-1.6-0.7-0.8-1.3-1.8-0.5-0.9-1-1.9-0.5-1.1-0.9-2.3-0.3-1.2-0.6-2.4-0.2-1.2-0.4-2.5-0.1-1.2-0.1-2.4 0-1.3 0.1-2.5 0.2-1.2 0.4-2.4 0.3-1.3 0.6-2.4 0.4-1.2 0.9-2.3 0.5-1 1-2 0.6-0.9 1.3-1.7 0.7-0.9 1.5-1.6 0.8-0.8 1.7-1.4 1.7-1.2 3.7-1.8 2-0.7 4.1-0.7 2.1 0 4.1 0.7 2 0.6 3.7 1.8 0.9 0.6 1.6 1.4 0.8 0.7 1.5 1.6 0.7 0.8 1.3 1.8 0.5 0.9 1 1.9 0.5 1.1 0.9 2.3 0.4 1.2 0.6 2.4 0.3 1.2 0.4 2.4 0.1 1.2 0.1 2.5 0 1.2-0.1 2.4-0.1 1.3-0.4 2.5-0.2 1.2-0.6 2.4-0.4 1.2-0.9 2.3-0.5 1-1 1.9-0.6 0.9-1.3 1.8-0.7 0.8-1.4 1.6-0.8 0.8-1.7 1.4zm4.1-25.2q-0.4-0.9-0.9-1.7-0.5-0.9-1.2-1.6-0.6-0.8-1.3-1.5-0.7-0.7-1.5-1.3-1.5-1.1-3.3-1.7-1.8-0.6-3.7-0.6-1.9 0-3.7 0.6-1.8 0.6-3.3 1.7-0.8 0.6-1.5 1.3-0.8 0.7-1.4 1.5-0.6 0.7-1.1 1.6-0.5 0.8-0.9 1.8-0.5 1-0.9 2.1-0.3 1.1-0.5 2.2-0.3 1.1-0.4 2.2-0.1 1.1 0 2.3-0.1 1.1 0 2.2 0.1 1.2 0.4 2.3 0.2 1.1 0.5 2.2 0.4 1.1 0.8 2.1 0.4 1 1 1.8 0.5 0.9 1.1 1.7 0.6 0.7 1.3 1.4 0.7 0.7 1.5 1.3 0.8 0.6 1.6 1 0.9 0.4 1.8 0.7 0.9 0.3 1.8 0.4 1 0.2 1.9 0.2 0.9 0 1.9-0.2 0.9-0.1 1.8-0.4 0.9-0.3 1.7-0.7 0.8-0.4 1.6-1 0.8-0.6 1.5-1.3 0.7-0.7 1.3-1.5 0.7-0.7 1.2-1.6 0.5-0.8 0.9-1.8 0.4-1 0.8-2.1 0.3-1.1 0.6-2.2 0.2-1.1 0.3-2.3 0.1-1.1 0.1-2.2 0-1.2-0.1-2.3-0.1-1.1-0.3-2.2-0.3-1.2-0.6-2.2-0.4-1.1-0.8-2.2zm30.7 56.8q0.7-0.1 1.3 0 0.7 0 1.3 0.1 0.6 0.1 1.2 0.3 0.6 0.2 1.2 0.4 0.6 0.2 1.1 0.4 0.5 0.2 1 0.5 0.5 0.3 0.9 0.7 0.4 0.3 0.9 0.7 0.4 0.3 0.7 0.7 0.3 0.4 0.7 0.9 0.3 0.4 0.5 0.9 0.3 0.5 0.5 0.9 0.2 0.6 0.4 1.1 0.1 0.5 0.2 1.1 0.1 0.5 0.2 1.1 0 0.5 0 1.1v25.9h-1.5v-7.4h-0.2q-0.2 0.6-0.5 1.2-0.4 0.5-0.7 1.1-0.4 0.5-0.8 1-0.4 0.5-0.9 0.9-0.5 0.5-1 0.9-0.5 0.4-1 0.8-0.5 0.3-1.1 0.6-0.6 0.3-1.2 0.6-1.3 0.5-2.6 0.8-1.4 0.2-2.8 0.2-1.4 0-2.8-0.3-1.3-0.3-2.6-0.9-1.3-0.6-2.4-1.6-1.1-0.9-1.9-2.2-0.8-1.2-1.2-2.6-0.3-1.4-0.3-2.9 0-0.4 0.1-0.9 0-0.5 0.1-0.9 0.1-0.4 0.2-0.9 0.1-0.4 0.3-0.8 0.2-0.5 0.4-0.9 0.2-0.4 0.5-0.7 0.3-0.4 0.6-0.7 0.3-0.4 0.7-0.7 0.4-0.3 1-0.7 0.5-0.3 1-0.6 0.5-0.2 1.1-0.5 0.6-0.2 1.1-0.4 0.9-0.3 1.7-0.5 0.9-0.2 1.8-0.4 0.8-0.2 1.7-0.3 0.9-0.1 1.7-0.2 2.7-0.3 5-0.8 0.5 0 0.9-0.1 0.5-0.2 1-0.3 0.4-0.1 0.9-0.3 0.4-0.2 0.8-0.4 0.3-0.2 0.6-0.4 0.3-0.3 0.4-0.6 0.2-0.2 0.3-0.6 0.1-0.3 0.1-0.7v-1.8q0-0.7-0.1-1.3 0-0.7-0.2-1.3-0.2-0.6-0.4-1.2-0.3-0.6-0.6-1.2-0.3-0.5-0.8-1-0.4-0.5-0.8-0.9-0.5-0.4-1-0.7-0.5-0.4-1.1-0.7-0.7-0.3-1.3-0.5-0.7-0.2-1.4-0.4-0.7-0.1-1.4-0.2-0.7-0.1-1.5 0-0.6 0-1.2 0-0.7 0.1-1.3 0.2-0.6 0.1-1.2 0.2-0.6 0.2-1.2 0.4-0.6 0.2-1.1 0.5-0.5 0.2-1 0.6-0.4 0.3-0.9 0.6-0.4 0.4-0.8 0.8-0.4 0.4-0.7 0.8-0.4 0.5-0.6 1-0.3 0.4-0.5 1-0.2 0.5-0.4 1l-1.4-0.5q0.1-0.6 0.4-1.1 0.2-0.6 0.5-1.2 0.3-0.5 0.7-1 0.4-0.5 0.8-1 0.5-0.4 1-0.9 0.5-0.4 1-0.7 0.6-0.4 1.2-0.7 0.6-0.3 1.2-0.5 0.6-0.3 1.3-0.5 0.7-0.2 1.4-0.3 0.7-0.1 1.4-0.2 0.7-0.1 1.4 0zm9 16.7q-0.3 0.1-0.5 0.2-0.3 0.1-0.6 0.2-0.2 0.1-0.5 0.1-0.3 0.1-0.5 0.2-1.2 0.3-2.7 0.5-1.4 0.2-3.1 0.4-1 0.1-2 0.3-0.9 0.1-1.9 0.4-1 0.2-1.9 0.5-1 0.2-1.9 0.6-0.6 0.2-1.2 0.5-0.5 0.3-1 0.6-0.5 0.4-1 0.8-0.5 0.4-0.8 0.9-0.4 0.5-0.6 1-0.2 0.5-0.4 1-0.1 0.5-0.2 1-0.1 0.6 0 1.1-0.1 0.6 0 1.3 0.1 0.6 0.3 1.2 0.1 0.6 0.4 1.2 0.2 0.5 0.6 1.1 0.3 0.5 0.7 0.9 0.4 0.5 0.8 0.9 0.5 0.4 1 0.7 0.5 0.3 1 0.6 0.6 0.3 1.2 0.5 0.6 0.2 1.3 0.3 0.6 0.2 1.2 0.2 0.7 0.1 1.3 0.1 0.9 0 1.7-0.1 0.8-0.1 1.6-0.4 0.8-0.2 1.6-0.5 0.8-0.4 1.5-0.8 0.7-0.5 1.4-1 0.6-0.6 1.2-1.2 0.6-0.7 1.1-1.4 0.4-0.7 0.8-1.5 0.5-0.9 0.8-1.9 0.3-0.9 0.5-1.9 0.2-1 0.3-2 0.1-0.9 0.1-2v-5.6q-0.2 0.2-0.4 0.3-0.2 0.1-0.4 0.2-0.2 0.2-0.4 0.3-0.2 0.1-0.4 0.2zm-103-50.1q1 0.6 2.2 1.1 1.1 0.5 2.3 0.9 1.1 0.3 2.4 0.5 1.2 0.2 2.4 0.2 0.9 0 1.7-0.1 0.9-0.1 1.8-0.2 0.8-0.2 1.7-0.5 0.8-0.2 1.6-0.5 0.7-0.3 1.4-0.7 0.7-0.4 1.3-0.8 0.7-0.4 1.3-0.9 0.6-0.5 1.1-1.1 1-0.9 1.9-2.1 0.8-1.1 1.5-2.3 0.6-1.3 1.1-2.6 0.5-1.3 0.8-2.7h1.5q-0.1 0.7-0.3 1.4-0.1 0.7-0.4 1.4-0.2 0.7-0.5 1.3-0.3 0.7-0.6 1.3-0.3 0.7-0.7 1.4-0.4 0.7-0.9 1.4-0.5 0.6-1 1.2-0.5 0.6-1.1 1.2-1.2 1.3-2.8 2.3-1.5 1.1-3.2 1.8-1.7 0.7-3.5 1-1.8 0.3-3.7 0.3-1.4 0-2.8-0.2-1.4-0.2-2.7-0.6-1.4-0.4-2.7-1-1.2-0.6-2.4-1.4-1.2-0.8-2.2-1.8-1.1-1-2-2.1-0.9-1.1-1.6-2.3-0.8-1.2-1.3-2.6-0.7-1.5-1.2-3.1-0.5-1.6-0.8-3.3-0.4-1.7-0.5-3.3-0.1-1.7-0.1-3.4 0-1.7 0.1-3.4 0.1-1.7 0.5-3.3 0.3-1.7 0.8-3.3 0.5-1.6 1.2-3.2 0.5-1.3 1.3-2.5 0.7-1.3 1.6-2.4 0.9-1.1 2-2.1 1-1 2.2-1.8 1.2-0.8 2.4-1.4 1.3-0.6 2.7-1 1.3-0.4 2.7-0.6 1.4-0.2 2.8-0.2 1 0 2 0.1 0.9 0.1 1.9 0.3 1 0.2 1.9 0.5 0.9 0.2 1.8 0.6 0.8 0.4 1.6 0.8 0.7 0.4 1.4 0.9 0.7 0.5 1.4 1 0.6 0.6 1.2 1.2 0.6 0.6 1.1 1.2 0.5 0.6 1 1.2 0.5 0.7 0.9 1.4 0.4 0.6 0.7 1.4 0.3 0.6 0.6 1.3 0.3 0.6 0.5 1.3 0.3 0.7 0.4 1.4 0.2 0.7 0.4 1.4h-1.6q-0.1-0.7-0.3-1.3-0.2-0.7-0.4-1.3-0.2-0.7-0.5-1.3-0.3-0.6-0.6-1.2-0.3-0.6-0.7-1.3-0.4-0.6-0.8-1.2-0.5-0.5-1-1.1-0.4-0.5-1-1c-1.4-1.4-3-2.4-4.7-3.2-1.8-0.8-3.6-1.3-5.5-1.5-2-0.2-3.9 0-5.7 0.4-1.9 0.5-3.7 1.3-5.3 2.3q-1.1 0.7-2.1 1.6-1 0.9-1.9 1.9-0.9 1-1.6 2.1-0.7 1.2-1.3 2.4-0.7 1.5-1.2 3.1-0.5 1.6-0.8 3.2-0.4 1.6-0.5 3.3-0.1 1.6-0.1 3.3 0 1.7 0.1 3.3 0.1 1.7 0.5 3.3 0.3 1.7 0.8 3.2 0.5 1.6 1.2 3.1 0.6 1.3 1.3 2.4 0.7 1.1 1.6 2.1 0.9 1 1.9 1.9 1 0.9 2.1 1.6zm460.8 46.8q0.4-0.9 0.8-1.9 0.5-0.9 1.1-1.8 0.5-0.9 1.1-1.7 0.7-0.8 1.4-1.6 0.7-0.7 1.5-1.4 0.8-0.7 1.6-1.3 0.9-0.6 1.8-1.1 0.9-0.6 1.8-1 1-0.4 2.1-0.7 1-0.4 2.1-0.6 1.1-0.2 2.2-0.3 1.1-0.1 2.2-0.1 1 0 1.9 0 0.9 0.1 1.9 0.3 0.9 0.1 1.8 0.4 0.9 0.2 1.7 0.6 0.8 0.2 1.5 0.6 0.7 0.4 1.4 0.9 0.6 0.5 1.2 1 0.6 0.6 1.1 1.2 0.5 0.6 0.9 1.3 0.3 0.8 0.6 1.5 0.2 0.8 0.3 1.6 0.1 0.8 0.1 1.6 0 0.8-0.1 1.6-0.1 0.8-0.4 1.5-0.3 0.8-0.7 1.5-0.4 0.6-1 1.2-0.6 0.7-1.4 1.2-0.7 0.5-1.5 0.9-0.8 0.5-1.6 0.8-0.9 0.3-1.8 0.5-1.2 0.3-2.5 0.6-1.2 0.2-2.5 0.4-1.2 0.2-2.5 0.4-1.3 0.1-2.5 0.2-3 0.2-6.3 0.2 0 0.2 0 0.4 0 0.4 0 0.9 0 0.4 0.1 0.9 0 0.4 0.1 0.9 0.1 0.4 0.2 0.9 0.1 0.4 0.3 0.7 0.2 0.4 0.4 0.7 0.3 0.3 0.5 0.6 0.3 0.3 0.7 0.5 0.4 0.2 0.9 0.4 0.4 0.2 0.9 0.3 0.5 0.1 1 0.2 0.5 0 1 0 0.6 0 1.2-0.1 0.6 0 1.1-0.2 0.6-0.1 1.1-0.3 0.6-0.2 1.1-0.5 0.4-0.2 0.8-0.5 0.4-0.3 0.7-0.7 0.4-0.4 0.6-0.8 0.3-0.4 0.5-0.9l10.3 0.8q-0.5 1.3-1.1 2.5-0.6 1.2-1.5 2.2-0.8 1.1-1.8 2-1 0.9-2.1 1.6-1.4 0.8-2.8 1.4-1.4 0.7-2.9 1.1-1.5 0.4-3 0.5-1.5 0.2-3.1 0.2-1.1 0-2.3-0.1-1.1-0.1-2.2-0.3-1.1-0.3-2.2-0.6-1.1-0.4-2.1-0.9-0.9-0.4-1.7-0.9-0.8-0.6-1.6-1.3-0.7-0.6-1.3-1.4-0.6-0.8-1.1-1.7-0.5-0.9-0.8-2-0.4-1-0.6-2.1-0.2-1-0.3-2.1-0.1-1.1 0-2.2 0-1.1 0.1-2.2 0.1-1.1 0.3-2.1 0.2-1.1 0.6-2.2 0.3-1 0.7-2.1zm13.7 1.8q0.8 0 1.5 0 0.8-0.1 1.6-0.2 0.8-0.1 1.5-0.2 0.8-0.1 1.6-0.2 0.4-0.1 0.8-0.2 0.3-0.1 0.7-0.2 0.4-0.2 0.7-0.4 0.4-0.2 0.7-0.4 0.2-0.2 0.4-0.4 0.1-0.2 0.2-0.5 0.1-0.2 0.2-0.5 0-0.2 0-0.5 0-0.4-0.1-0.7 0-0.4-0.2-0.7-0.2-0.3-0.4-0.6-0.3-0.3-0.6-0.5-0.4-0.2-0.9-0.4-0.4-0.2-0.9-0.3-0.5-0.1-1-0.1-0.5-0.1-0.9 0-0.7-0.1-1.3 0-0.6 0.1-1.3 0.3-0.6 0.2-1.1 0.5-0.6 0.3-1.1 0.6-0.5 0.4-0.9 0.8-0.4 0.4-0.7 0.9-0.4 0.5-0.7 1-0.3 0.5-0.5 1.1-0.1 0.2-0.2 0.4-0.1 0.3-0.2 0.5 0 0.3-0.1 0.5-0.1 0.3-0.2 0.5c1.3 0 2.4 0 3.4-0.1z"/><path fill-rule="evenodd" class="c" d="m337.6 172.1q-0.2-0.8-0.6-1.5-0.4-0.8-1-1.4-0.6-0.6-1.3-1-0.8-0.4-1.6-0.6c-3.9-1.1-19.8-1.1-19.8-1.1 0 0-15.9 0-19.8 1.1q-0.8 0.2-1.6 0.6-0.7 0.4-1.3 1-0.6 0.6-1 1.4-0.4 0.7-0.6 1.5c-1.1 3.9-1.1 12.2-1.1 12.2 0 0 0 8.3 1.1 12.3q0.2 0.8 0.6 1.5 0.4 0.7 1 1.3 0.6 0.6 1.3 1 0.8 0.4 1.6 0.7c3.9 1 19.8 1 19.8 1 0 0 15.9 0 19.8-1q0.8-0.3 1.6-0.7 0.7-0.4 1.3-1 0.6-0.6 1-1.3 0.4-0.7 0.6-1.5c1.1-4 1.1-12.3 1.1-12.3 0 0 0-8.3-1.1-12.2z"/><path fill-rule="evenodd" class="d" d="m308.3 192l13.3-7.7-13.3-7.7z"/><path fill-rule="evenodd" class="e" d="m303.1 185h-24.4q-0.3 0-0.5-0.2-0.1-0.2-0.1-0.5 0-0.3 0.1-0.5 0.2-0.1 0.5-0.2h24.3q0.3 0 0.5 0.2 0.2 0.2 0.2 0.5 0 0.3-0.2 0.5-0.2 0.2-0.4 0.2zm0-5.7h-18.7q-0.3 0-0.5-0.2-0.2-0.2-0.2-0.5 0-0.3 0.2-0.5 0.2-0.2 0.5-0.2h18.7q0.2 0 0.4 0.2 0.2 0.2 0.2 0.5 0 0.3-0.2 0.5-0.2 0.2-0.4 0.2zm0 11.4h-18.7q-0.3 0-0.5-0.2-0.2-0.2-0.2-0.5 0-0.2 0.2-0.5 0.2-0.1 0.5-0.2h18.7q0.2 0.1 0.4 0.3 0.2 0.2 0.2 0.4 0 0.3-0.2 0.5-0.2 0.2-0.4 0.2zm10.4 12.3c-0.7 0-16.2 0-20.3-1.1q-0.9-0.2-1.7-0.7-0.8-0.5-1.5-1.1-0.6-0.7-1.1-1.5-0.5-0.8-0.7-1.7-0.1-0.3 0.1-0.6 0.1-0.2 0.4-0.3 0.3 0 0.5 0.1 0.2 0.1 0.3 0.4 0.2 0.7 0.6 1.4 0.4 0.7 0.9 1.2 0.5 0.5 1.2 0.9 0.6 0.4 1.4 0.6c3.8 1 19.7 1 19.9 1 0.1 0 16 0 19.8-1q0.8-0.2 1.4-0.6 0.7-0.4 1.2-0.9 0.5-0.5 0.9-1.2 0.4-0.7 0.6-1.4c1-3.9 1-12.1 1-12.2 0-0.1 0-8.3-1-12.2q-0.2-0.7-0.6-1.4-0.4-0.6-0.9-1.1-0.5-0.6-1.2-1-0.6-0.3-1.4-0.5c-3.8-1.1-19.7-1.1-19.8-1.1-0.2 0-16 0-19.9 1.1q-0.8 0.2-1.4 0.5-0.7 0.4-1.2 1-0.5 0.5-0.9 1.1-0.4 0.7-0.6 1.4-0.1 0.3-0.3 0.5-0.2 0.1-0.5 0-0.3-0.1-0.4-0.3-0.2-0.3-0.1-0.5 0.2-0.9 0.7-1.7 0.5-0.9 1.1-1.5 0.7-0.7 1.5-1.1 0.8-0.5 1.7-0.8c4.1-1 19.6-1.1 20.3-1.1 0.6 0 16.1 0.1 20.2 1.1q0.9 0.3 1.7 0.8 0.8 0.4 1.5 1.1 0.6 0.6 1.1 1.5 0.5 0.8 0.7 1.7c1.1 4 1.1 12.2 1.1 12.5 0 0.4 0 8.5-1.1 12.6q-0.2 0.9-0.7 1.7-0.5 0.8-1.1 1.5-0.7 0.6-1.5 1.1-0.8 0.5-1.7 0.7c-4.1 1.1-19.6 1.1-20.2 1.1zm-5.2-10.3q-0.1 0-0.2 0-0.2-0.1-0.3-0.2-0.1-0.1-0.1-0.2-0.1-0.1-0.1-0.3v-15.4q0-0.2 0.1-0.3 0.1-0.2 0.3-0.3 0.1-0.1 0.3-0.1 0.2 0 0.4 0.1l13.3 7.7q0.2 0.1 0.2 0.3 0.1 0.1 0.1 0.3 0 0.2-0.1 0.4 0 0.1-0.2 0.2l-13.3 7.7q-0.1 0-0.1 0.1-0.1 0-0.1 0 0 0-0.1 0 0 0-0.1 0zm0.7-14.9v13l11.3-6.5z"/><path fill-rule="evenodd" class="a" d="m209.4 187.8h4v4h3l4 5 5-5h2v-4h5v-4l-2-2h-5l-3 1h-3l-4-2-4 1-2 2z"/><path fill-rule="evenodd" class="f" d="m250.4 166.8v35h-7v-35z"/><path fill-rule="evenodd" class="e" d="m248.5 202.8h-48.3q-0.5 0-0.9-0.1-0.4-0.2-0.7-0.5-0.3-0.3-0.4-0.7-0.2-0.4-0.2-0.8v-32.7q0-0.4 0.2-0.8 0.1-0.4 0.4-0.7 0.3-0.3 0.7-0.5 0.4-0.1 0.9-0.1h8.2q0.2 0 0.4 0.1 0.2 0.2 0.2 0.4 0 0.3-0.2 0.5-0.2 0.1-0.4 0.1h-8.2q-0.2 0-0.4 0.1-0.2 0.1-0.3 0.2-0.2 0.2-0.3 0.3 0 0.2 0 0.4v32.7q0 0.2 0 0.4 0.1 0.1 0.3 0.3 0.1 0.1 0.3 0.2 0.2 0.1 0.4 0.1h43.1v-34.7h-9.2q-0.3 0-0.5-0.1-0.1-0.2-0.1-0.5 0-0.2 0.1-0.4 0.2-0.1 0.5-0.1h14.4q0.4 0 0.8 0.1 0.4 0.2 0.7 0.5 0.3 0.3 0.5 0.7 0.2 0.4 0.2 0.8v32.7q0 0.4-0.2 0.8-0.2 0.4-0.5 0.7-0.3 0.3-0.7 0.5-0.4 0.1-0.8 0.1zm1-34.8q0-0.2-0.1-0.4-0.1-0.1-0.2-0.3-0.1-0.1-0.3-0.2-0.2-0.1-0.4-0.1h-4v34.7h4q0.2 0 0.4-0.1 0.2-0.1 0.3-0.2 0.1-0.2 0.2-0.3 0.1-0.2 0.1-0.4zm-2.7 17.6c-0.6 0-1-0.3-1.2-0.8-0.3-0.5-0.1-1 0.2-1.4 0.4-0.4 1-0.5 1.5-0.3 0.5 0.2 0.8 0.7 0.8 1.2q0 0.3-0.1 0.5-0.1 0.3-0.3 0.5-0.2 0.1-0.4 0.2-0.3 0.1-0.5 0.1zm-15.1 7.6h-6.7l-3.8 3.8q0 0-0.2 0.1-0.1 0-0.2 0-0.1 0-0.2 0-0.1-0.1-0.2-0.1l-3.7-3.8h-6.8q-0.3 0-0.6-0.1-0.3-0.1-0.6-0.3-0.2-0.3-0.3-0.5-0.2-0.3-0.2-0.7v-6.9q0.1-0.7 0.3-1.4 0.3-0.6 0.8-1.2 0.4-0.5 1-0.8 0.7-0.4 1.4-0.4l3.2-0.6q0.3 0 0.6-0.2 0.4-0.1 0.6-0.4 0.2-0.2 0.3-0.6 0.2-0.3 0.2-0.6v-0.6q-0.4-0.3-0.7-0.7-0.3-0.4-0.5-0.8-0.3-0.4-0.5-0.9-0.2-0.4-0.4-0.8h-1.6q-0.3 0-0.5-0.2-0.3-0.1-0.5-0.3-0.1-0.1-0.2-0.4-0.2-0.2-0.2-0.5v-3.3q0-0.3 0.2-0.5 0.1-0.3 0.2-0.5 0.2-0.2 0.5-0.3 0.2-0.1 0.5-0.1h0.9l-0.1-0.3q0 0 0-0.1-0.1 0-0.1 0 0-0.1 0-0.1 0-0.1 0-0.1-0.8-4 1.2-6.4 0.6-0.6 1.3-1.1 0.7-0.5 1.5-0.8 0.8-0.4 1.6-0.5 0.9-0.1 1.7-0.1 3.9 0 5.8 2.2c1.4 1.5 1.8 4 1.4 7.1q0 0 0 0.1 0 0 0 0 0 0 0 0.1-0.1 0-0.1 0h0.7q0.3 0 0.6 0.1 0.2 0.1 0.4 0.3 0.2 0.2 0.3 0.5 0.1 0.2 0.1 0.5v3.3q0 0.3-0.1 0.5-0.1 0.3-0.3 0.4-0.2 0.2-0.4 0.3-0.3 0.1-0.6 0.2h-0.5q-0.1 0.5-0.3 0.9-0.3 0.5-0.6 0.9-0.4 0.3-0.8 0.6-0.5 0.2-1 0.3-0.2 0.2-0.4 0.4 0 0-0.1 0.1l0.1 0.6q0 0.3 0.1 0.6 0.1 0.3 0.4 0.6 0.2 0.2 0.5 0.4 0.3 0.2 0.6 0.2l3.3 0.5q0.7 0.1 1.3 0.5 0.6 0.3 1.1 0.8 0.5 0.6 0.7 1.2 0.3 0.7 0.3 1.4v6.9q0 0.4-0.1 0.7-0.2 0.2-0.4 0.5-0.2 0.2-0.5 0.3-0.3 0.1-0.7 0.1zm-17.6-20.6l-0.3-2.8h-0.9q0 0-0.1 0 0 0 0 0-0.1 0.1-0.1 0.1 0 0 0 0.1v3.3q0 0 0 0.1 0 0 0.1 0 0 0.1 0 0.1 0.1 0 0.1 0h1.3q0-0.1-0.1-0.2 0-0.2 0-0.3 0-0.1 0-0.2 0-0.1 0-0.2zm-4.7 19q0 0.1 0.1 0.2 0 0.1 0.1 0.1 0 0.1 0.1 0.1 0.1 0.1 0.2 0h3.3c0-0.4 0-1.1 0-2.3q-0.1-0.1-0.1-0.2 0-0.1 0-0.2-0.1-0.1-0.2-0.2 0-0.1-0.1-0.2-0.1-0.1-0.2-0.2-0.1-0.1-0.3-0.1-0.1-0.1-0.2-0.1-0.2 0-0.3 0h-2.4zm11.5-31.4q-0.7 0-1.4 0.1-0.8 0.1-1.4 0.4-0.7 0.2-1.3 0.6-0.6 0.4-1.1 1-0.4 0.5-0.7 1.1-0.3 0.6-0.4 1.3-0.1 0.6-0.1 1.3 0 0.6 0.1 1.3c5 0.3 8.7-1.5 10.7-5.2q0.1-0.2 0.2-0.5-0.5-0.3-1-0.6-0.6-0.3-1.2-0.5-0.5-0.2-1.2-0.3-0.6 0-1.2 0zm7.8 13.2q0.1 0 0.1 0 0 0 0.1 0 0-0.1 0-0.1 0 0 0-0.1v-3.3q0 0 0-0.1 0 0 0 0-0.1 0-0.1-0.1 0 0-0.1 0h-0.9l-0.2 2.8q0 0.1 0 0.2 0 0.2-0.1 0.3 0 0.1 0 0.2 0 0.1 0 0.2c0 0 1.2 0 1.2 0zm-1.7-6.2q0.1-0.6 0.1-1.2 0-0.6-0.1-1.1-0.1-0.6-0.3-1.1-0.1-0.6-0.4-1.1c-1 2.4-0.4 3.5 0.7 4.5zm-1.8 8.7q0.2-0.4 0.4-0.8 0.3-0.4 0.4-0.8 0.2-0.5 0.3-0.9 0.1-0.5 0.1-1l0.3-4q-0.4-0.3-0.8-0.7-0.3-0.3-0.6-0.8-0.3-0.4-0.4-0.9-0.2-0.5-0.3-1c-2.3 2.5-5.6 3.6-9.7 3.5l0.3 3.9q0.1 1.1 0.5 2 0.3 1 1 1.8 0.6 0.8 1.4 1.4 0.9 0.6 1.8 1 0.2 0 0.5 0.1 0.2 0 0.4 0 0.2 0 0.5 0 0.2-0.1 0.4-0.1 0.3-0.1 0.5-0.3 0.3-0.1 0.6-0.2 0.2-0.2 0.4-0.3 0.3-0.2 0.5-0.4l-0.3 0.3c0 0 1.5-1.4 1.5-1.4q0.1-0.2 0.3-0.4zm-1.3 2.8q-0.2 0.2-0.4 0.3-0.2 0.1-0.5 0.2-0.2 0.2-0.4 0.3-0.2 0.1-0.5 0.2-0.3 0.1-0.6 0.1-0.3 0.1-0.7 0.1-0.3 0-0.6-0.1-0.4 0-0.7-0.1-0.2-0.1-0.4-0.2-0.3-0.1-0.5-0.2-0.2-0.2-0.4-0.3-0.3-0.1-0.5-0.3 0 0.3-0.1 0.6-0.1 0.3-0.3 0.6-0.1 0.2-0.3 0.5-0.2 0.2-0.5 0.4c2.9 2.5 5.7 2.5 8.6 0q-0.3-0.2-0.5-0.4-0.2-0.3-0.3-0.5-0.2-0.3-0.3-0.6-0.1-0.3-0.1-0.6zm8.3 5.9q0-0.5-0.2-0.9-0.2-0.5-0.5-0.9-0.3-0.3-0.8-0.6-0.4-0.2-0.9-0.3l-3.3-0.5q-0.1 0-0.3-0.1c-0.6 0.8-1.5 1.4-2.4 1.9-0.9 0.4-1.9 0.6-3 0.6-1 0-2-0.2-3-0.6-0.9-0.5-1.7-1.1-2.4-1.9q-0.1 0.1-0.3 0.1l-3.2 0.5q-0.5 0.1-1 0.3-0.4 0.3-0.7 0.6-0.4 0.4-0.6 0.9-0.2 0.4-0.2 0.9v2.6h2.4q0.2 0 0.5 0.1 0.2 0 0.5 0.1 0.2 0.1 0.4 0.3 0.3 0.1 0.4 0.3 0.2 0.2 0.3 0.4 0.2 0.1 0.2 0.4 0.1 0.2 0.2 0.4 0 0.2 0 0.4c0 1.3 0 2 0 2.4h2.5q0.1 0 0.2 0 0 0 0.1 0 0.1 0 0.1 0.1 0.1 0 0.1 0l3.5 3.6 3.5-3.6q0.1 0 0.1 0 0.1-0.1 0.2-0.1 0 0 0.1 0 0.1 0 0.1 0h2.5q0-0.7 0-2.4 0-0.2 0-0.4 0.1-0.2 0.2-0.4 0.1-0.3 0.2-0.4 0.1-0.2 0.3-0.4 0.2-0.2 0.4-0.3 0.2-0.2 0.4-0.3 0.3-0.1 0.5-0.1 0.3-0.1 0.5-0.1h2.4v-2.6zm0 3.8h-2.4q-0.1 0-0.2 0-0.2 0.1-0.3 0.1-0.1 0.1-0.3 0.2-0.1 0-0.2 0.1-0.1 0.1-0.1 0.2-0.1 0.1-0.1 0.2-0.1 0.1-0.1 0.2 0 0.1 0 0.2c0 1.3 0 2 0 2.4h3.2q0.1 0 0.2 0 0.1-0.1 0.2-0.1 0-0.1 0.1-0.2 0 0 0-0.1c0 0 0-3.2 0-3.2zm-7.9-17.6q-0.1 0-0.1 0 0 0-0.1 0 0 0 0 0-0.1 0-0.1 0-0.2-0.2-0.4-0.2-0.3-0.1-0.5-0.1-0.3 0-0.5 0.1-0.2 0-0.4 0.2-0.2 0.1-0.5 0-0.2-0.1-0.3-0.3-0.1-0.2-0.1-0.4 0.1-0.3 0.3-0.4 0.4-0.2 0.7-0.3 0.4-0.1 0.8-0.1 0.4 0 0.7 0.1 0.4 0.1 0.7 0.3 0.2 0.1 0.3 0.3 0.1 0.2 0 0.4 0 0.2-0.2 0.3-0.1 0.1-0.3 0.1zm-2.2 3.6q0.2-0.2 0.4-0.2 0.3 0 0.4 0.2 0.2 0.2 0.2 0.4 0 0.2-0.2 0.4-0.4 0.5-0.9 0.7-0.6 0.3-1.2 0.3-0.6 0-1.1-0.3-0.6-0.2-1-0.7-0.1-0.2-0.1-0.4 0-0.2 0.1-0.4 0.2-0.2 0.4-0.2 0.3 0 0.4 0.2 0.3 0.3 0.6 0.4 0.3 0.2 0.7 0.2 0.4 0 0.8-0.2 0.3-0.1 0.5-0.4zm-2.3-3.6q-0.1 0-0.1 0 0 0-0.1 0 0 0 0 0-0.1 0-0.1 0-0.2-0.2-0.5-0.2-0.2-0.1-0.4-0.1-0.3 0-0.5 0.1-0.2 0-0.4 0.2-0.3 0.1-0.5 0-0.2-0.1-0.3-0.3-0.2-0.2-0.1-0.4 0.1-0.3 0.3-0.4 0.4-0.2 0.7-0.3 0.4-0.1 0.8-0.1 0.4 0 0.7 0.1 0.4 0.1 0.7 0.3 0.2 0.1 0.3 0.3 0.1 0.2 0 0.4 0 0.2-0.2 0.3-0.1 0.1-0.3 0.1z"/><path fill-rule="evenodd" class="f" d="m427.4 196.8v4h-37v-4z"/><path fill-rule="evenodd" class="a" d="m423.1 176.5q0.3-0.3 0.3-0.7 0-0.4-0.3-0.7-0.3-0.3-0.7-0.3h-12q-0.4 0-0.7 0.3-0.3 0.3-0.3 0.7 0 0.4 0.3 0.7 0.3 0.3 0.7 0.3h12q0.4 0 0.7-0.3zm0-4q0.3-0.3 0.3-0.7 0-0.4-0.3-0.7-0.3-0.3-0.7-0.3h-12q-0.4 0-0.7 0.3-0.3 0.3-0.3 0.7 0 0.4 0.3 0.7 0.3 0.3 0.7 0.3h12q0.4 0 0.7-0.3zm-13.4 6.6q-0.3 0.3-0.3 0.7 0 0.4 0.3 0.7 0.3 0.3 0.7 0.3h12q0.4 0 0.7-0.3 0.3-0.3 0.3-0.7 0-0.4-0.3-0.7-0.3-0.3-0.7-0.3h-12q-0.4 0-0.7 0.3z"/><path fill-rule="evenodd" class="e" d="m424.6 202.1h-30.8q-0.9 0-1.7-0.3-0.8-0.4-1.4-1-0.7-0.6-1-1.4-0.4-0.9-0.4-1.7 0.1-0.3 0.3-0.5 0.2-0.2 0.4-0.2 0.3 0 0.5 0.2 0.2 0.2 0.2 0.5 0 0.6 0.3 1.1 0.2 0.6 0.6 1 0.5 0.5 1 0.7 0.6 0.2 1.2 0.2h30.8q0.6 0 1.2-0.2 0.5-0.2 1-0.7 0.4-0.4 0.6-1 0.3-0.5 0.3-1.1v-27.8q0-0.6-0.3-1.2-0.2-0.5-0.6-1-0.5-0.4-1-0.6-0.6-0.3-1.2-0.3h-30.8q-0.6 0-1.2 0.3-0.5 0.2-1 0.6-0.4 0.5-0.6 1-0.3 0.6-0.3 1.2v15.1q0 0.3-0.2 0.5-0.2 0.1-0.5 0.1-0.2 0-0.4-0.1-0.2-0.2-0.3-0.5v-15.1q0-0.9 0.4-1.7 0.3-0.8 1-1.5 0.6-0.6 1.4-0.9 0.8-0.4 1.7-0.4h30.8q0.9 0 1.7 0.4 0.8 0.3 1.4 0.9 0.7 0.7 1 1.5 0.3 0.8 0.3 1.7v27.8q0 0.8-0.3 1.7-0.3 0.8-1 1.4-0.6 0.6-1.4 1-0.8 0.3-1.7 0.3zm-16.4-20.1q0.1 0.2 0 0.3 0 0.2-0.1 0.3-0.1 0.1-0.2 0.1l-5.6 3.3q0.1 0.4 0.1 0.7 0 0.4-0.2 0.8-0.1 0.3-0.3 0.6-0.2 0.3-0.5 0.5l-1.7 1.1q0 0 0 0.1 0 0 0 0 0 0 0 0 0 0 0 0 0 0 0 0l-8.5 5.4q-0.1 0-0.1 0-0.1 0.1-0.2 0.1 0 0-0.1 0-0.1 0-0.1 0l-4-1 0.1 7.8q0 0.2-0.1 0.3 0 0.1-0.1 0.2-0.1 0.1-0.3 0.2-0.1 0-0.2 0h-19q-0.1 0-0.2 0-0.2-0.1-0.3-0.2-0.1-0.1-0.1-0.2-0.1-0.1-0.1-0.3v-13.2q0-0.7 0.3-1.3 0.2-0.7 0.7-1.2 0.4-0.5 1-0.8 0.6-0.3 1.3-0.4l0.4-0.1v-11.7c0.1-2.1 0.9-4.1 2.4-5.6 1.5-1.5 3.5-2.3 5.6-2.3 2.1 0 4.1 0.8 5.5 2.3 1.5 1.5 2.4 3.5 2.4 5.6v12q0.7 0.3 1.3 0.6 0.7 0.3 1.3 0.7 0.6 0.4 1.2 0.8 0.6 0.4 1.2 0.9l6-3 1.8-1q0.3-0.2 0.7-0.2 0.3-0.1 0.7 0 0.4 0 0.7 0.2 0.4 0.2 0.6 0.4l5.7-3.3q0.1 0 0.3 0 0.1-0.1 0.2 0 0.2 0 0.3 0.1 0.1 0.1 0.2 0.2 0 0.1 0 0.2zm-36.7 2.9l1.1-0.2q0.3 0 0.6-0.1 0.2-0.2 0.4-0.4 0.2-0.2 0.3-0.4 0.1-0.3 0.1-0.6v-0.7q-0.5-0.6-0.8-1.2-0.4-0.6-0.7-1.3-0.3-0.7-0.4-1.4-0.2-0.8-0.2-1.5v-3.7q0-0.2 0.1-0.3 0-0.1 0.1-0.2 0.1-0.1 0.3-0.2 0.1 0 0.2 0 0.9 0 1.8 0 0.9-0.1 1.7-0.3 0.9-0.1 1.7-0.4 0.9-0.2 1.7-0.6 0 0 0.1-0.1 0.1 0 0.2 0 0.1 0.1 0.2 0.1 0.1 0 0.2 0.1 0.3 0.3 0.7 0.5 0.4 0.3 0.8 0.4 0.5 0.2 0.9 0.2 0.5 0.1 0.9 0.1 0.1 0 0.3 0 0.1 0.1 0.2 0.2 0.1 0.1 0.1 0.2 0.1 0.1 0.1 0.3v3.7q0 0.8-0.2 1.5-0.1 0.7-0.4 1.4-0.3 0.7-0.7 1.4-0.4 0.6-0.9 1.2v0.6q0.1 0.3 0.2 0.6 0.1 0.2 0.3 0.4 0.2 0.2 0.4 0.4 0.3 0.1 0.5 0.1 0.6 0.1 1.2 0.3v-11.6c0-1.8-0.7-3.4-1.9-4.7-1.2-1.2-2.9-1.9-4.6-1.9-1.8 0-3.4 0.7-4.7 1.9-1.2 1.3-1.9 2.9-1.9 4.7 0 0 0 11.5 0 11.5zm10.2-4.2q0.3-0.5 0.6-1.1 0.2-0.6 0.4-1.2 0.1-0.6 0.1-1.3v-3.1q-0.4 0-0.8-0.1-0.5-0.1-0.9-0.2-0.4-0.2-0.7-0.4-0.4-0.2-0.7-0.5-0.8 0.4-1.6 0.6-0.7 0.2-1.5 0.4-0.8 0.1-1.7 0.2-0.8 0.1-1.6 0.1v3c0 2.8 2.1 5.9 4.8 5.9q0.3 0 0.7-0.1 0.4 0 0.8-0.2 0.3-0.2 0.6-0.4 0.3-0.2 0.6-0.5 0 0 0 0 0 0 0 0 0 0 0.1 0 0 0 0 0 0.4-0.5 0.8-1.1zm-6.5 3.6q-0.1 0.3-0.3 0.6-0.2 0.3-0.5 0.5-0.3 0.2-0.6 0.4l4.2 6.5 4.3-6.5q-0.3-0.2-0.6-0.4-0.3-0.2-0.5-0.5-0.2-0.3-0.3-0.6-0.1-0.3-0.2-0.6-0.6 0.3-1.3 0.5-0.7 0.2-1.4 0.2-0.7 0-1.4-0.2-0.6-0.2-1.2-0.6-0.1 0.4-0.2 0.7zm23.2 4.7l-1.2-2-0.1-0.1-5.9 2.9q-0.1 0.1-0.2 0.1-0.1 0-0.2 0-0.1 0-0.2 0-0.1-0.1-0.2-0.2-0.7-0.6-1.5-1.2-0.8-0.5-1.6-1-0.9-0.4-1.8-0.8-0.9-0.3-1.9-0.5l-5 7.7q-0.1 0.2-0.2 0.3-0.2 0-0.4 0-0.1 0-0.3 0-0.2-0.1-0.2-0.3l-5.1-7.7-2.5 0.4q-0.4 0-0.8 0.2-0.4 0.2-0.7 0.5-0.2 0.4-0.4 0.7-0.2 0.4-0.2 0.9v12.5h4.2v-5.1q0.1-0.3 0.3-0.4 0.2-0.2 0.4-0.2 0.3 0 0.5 0.2 0.2 0.1 0.2 0.4v5.1h12l-0.1-8q0-0.1 0-0.3 0.1-0.1 0.2-0.2 0.1-0.1 0.3-0.1 0.2-0.1 0.3 0l4.6 1zm2.4-1.7q0.1-0.2 0.2-0.4 0-0.2 0-0.3-0.1-0.2-0.2-0.4l-0.1-0.2q-0.1-0.1-0.3-0.2-0.1-0.1-0.3-0.2-0.2 0-0.3 0-0.2 0-0.4 0.1l-1.1 0.6 0.1 0.1 1.1 1.9 1.1-0.8q0.1-0.1 0.2-0.2z"/></svg>
