<svg xmlns="http://www.w3.org/2000/svg" width="629" height="203" version="1.2"><style>.a{fill:#c8ff20}.e{fill:#272f3c}.f{fill:#5f2ebe}</style><path fill-rule="evenodd" d="M628.9 13q0 .1-.1.1l-.1.1-.1.1q-.1 0-.1.1c-.2 0-.4.1-.5-.4 0-.3-.2-.2-.3-.1q-.1.1-.3.2-.1.2-.2.2-.2.1-.3.2h-.5q0-.1-.1-.1 0 .1-.1.1h-.2v.1q-.1 0-.1.1-.1.1-.2.1 0 .1-.1.1-.1.1-.2.1h-.2q0 .1-.1.1-.1.1-.1.2v.5q0 .1-.1.1 0 .1-.1.1t-.1.1q-.1 0-.2.1t-.2.1q0 .1-.1.2-.1.2-.3 0-.1 0-.2-.1h-.5q0 .1.1.1 0 .1.1.1l.1.1h.2q.1 0 .2.1l.2.2q.1.1.1.2.1.1.1.2c.1.3-.1.2-.2.3-.2.1-.2.2 0 .3q0 .1.1.1l.1.1V17.5q0 .1-.1.1v.1h-.1c-.1 0-.1 0-.1.1.1.3 0 .4-.2.5h-.1c-.2 0-.3.1-.2.4.1.4 0 .5-.2.5h-.1q0 .1-.1.1h-.1l-.1.1-.1.1q0 .1.1.1c0 .2.1.3.2.3l.1-.1.1-.1v-.1c.2-.1.3-.2.3.1.1.2.2.2.3.1.2-.1.3 0 .3.3l-.1.1v.2l.1.1v.1q.1.1.2.1.1.1.2.1.1.1.2.1h.4q0 .1.1.1 0 .1.1.1v.5q0 .1-.1.1 0 .1-.1.1l.1.1H625.6c.1 0 .3 0 .2.2v.5q.1.2.1.3l.2.2v.3q.1.1.1.2v.3q-.1.1-.1.2 0 .2-.1.1h-.7V24.5c.1.3 0 .4-.2.5h-.5c0 .2.1.1.2.1q0 .1.1.1v.2q.1 0 .1.1v.2q0 .1-.1.1 0 .1-.1.1 0 .1-.1.1h-.2q-.1.1-.2.1h-.6v.1h-.1l-.1.1c-.1.1-.3.2-.4 0h-.1q-.1.1-.2.1-.1.1-.2.1-.1.1-.2.1H622.1q0 .1-.1.1t-.1.1v.1q-.1.1 0 .2v.1h.1v.2q0 .1.1.2v.1q.1.1.1.2.1 0 .2.1 0 .1.1.2v.4q0 .1-.1.2-.1 0-.1.1h-.1l-.1.1h-.1v.1h-.1q0 .1-.1.2V29.6q0 .1.1.2t.1.2l.2.2q.1 0 .2.1h.2q.1 0 .1.1h.1l.1.1q.1.3.2.5.2.3.2.5l.2.6q.1.2.1.5c.1.2 0 .4-.1.4-.2-.1-.3.2-.4.3q-.1.1-.2.1l-.1.1-.2.2-.1.1q-.2 0-.3.1-.2.1-.4.1-.1.1-.3.1-.2.1-.3.1h-.1l-.1.1h-.1l-.1.1c-.1.1-.3.1-.5.1h-.4q-.1 0-.3.1-.2.1-.3.2-.2.1-.3.3h.2q0-.1.1-.1H619.6l.1.1q.1 0 .1.1h.1c.3.1.5.4.9.1.2-.3.4.1.6.3.1.2.4 0 .4.4v.4q.1 0 .1.1v.6h-.1q-.1.1-.2.1h-.4q-.1-.1-.2-.1h-.4q-.1 0-.1.1c-.4 0-.7.3-1.1.4l-.1.1-.1.1q0 .1-.1.1 0 .1-.1.1c-.1.1-.2 0-.2-.2 0-.3-.1-.2-.2-.2q0 .1-.1.1h-.2.1l.1.1q.1 0 .1.1v.1c-.1.4.1.8 0 1.2-.1.1 0 .2 0 .2.2.1.4.3.6.1.1-.1.2.1.3.2v.4l-.1.1h.5q0-.1.1-.1c.1 0 .2.3.2.5q-.1 0-.1.1V41q0 .1.1.2V41.5l-.1.1q-.1.3-.2.1-.3-.3-.4.3l-.1.1v.1l-.1.1v.1c-.1.1-.2.2-.4 0-.1-.1-.2 0-.1.2v.5q0 .1-.1.2v.5l.1.1q0 .1.1.1v.1q.1 0 .1.1h.1c.2 0 .4-.1.4.2v.2q0 .1-.1.1 0 .1-.1.1h-.1q-.2.1-.4.3-.1.1-.2.3-.2.1-.2.3l-.2.4v.1q-.1.1-.1.2-.1 0-.2.1h-.1q-.1.1-.3.1v.1h-.4q-.1 0-.1.1c.1-.1.2-.1.3.2q0 .1-.1.2v.2q0 .1-.1.2t-.2.1h-.2c-.3 0-.4.2-.4.7v.5H616l-.1-.1h-.1l-.1-.1H615.4 615.7q0 .1.1.1h.1v.1q.1 0 .1.1v.5l-.1.1v.1h-.1v.1c.1.1.2 0 .3-.1.1 0 .2 0 .2.1v.2q0 .1-.1.3 0 .2-.1.3l-.2.4q0 .1-.1.3c-.2.2-.4.6-.6.8q-.1 0-.1.1h-.1l-.1.1-.1.1-.1.1v.4q0 .1-.1.1 0 .1-.1.2h-.2c-.1 0-.2.1-.3.2q-.1 0-.1.1-.1 0-.2.1v.2q-.1.1 0 .2 0 .1-.1.2 0 .1-.1.2 0 .1-.1.2h-.4l-.1.1h-.1v.1l-.1.1H612.1l-.1.1q-.1.1-.1.2-.1 0-.1.1l-.1.1h-.2q-.1 0-.1.1h-.2v.1l-.1.1q-.1.1-.1.2v.4q0 .1.1.2v.5c.1-.1.2-.2.3-.1q.1.1.1.2v.2q.1 0 .1.1t-.1.2V57.9q-.1.1-.1.2t-.1.2l-.2.2-.2.2q-.1.1-.3.2h-.1l-.1.1h-.1q-.1.1-.2.1t-.1.1l-.2.2v.7q-.1.1-.1.2v.2q-.1.1-.1.2v.1q-.1 0-.1.1h-.2q-.1 0-.3.1l-.2.2q-.1.2-.2.3v.4l-.1.1v.2l-.1.1q-.1.1-.1.2c0 .2.1.1.2.1q.1.1.1.2t.1.2q0 .1-.1.2 0 .1-.1.2 0 .1-.1.2t-.1.2q-.1.2-.2.3-.1.1-.2.1-.1.1-.2.1-.1.1-.3.2-.1 0-.1.1l-.2.2q-.1.1-.1.3-.1.1-.1.2v.2q.1.2.1.3.1.1.1.2t.1.2v.7q-.1 0-.1.1h-.2q-.1 0-.1.1h-.1v.2q-.1 0-.1.1v.1l.1.1V68.2q-.1.1-.1.3v.7q.1.1.1.2.1.2.2.3 0 .2.1.4 0 .2.1.4v.3c0 .2.2.2.2.4V71.5l-.1.1v.1q-.2.1-.4.1-.1.1-.3.2-.1 0-.3.1-.2 0-.3.1h-.1q-.1 0-.1.1h-.1v.1q-.1.1-.2.1-.1.1-.2 0h-.2q-.1-.1-.1-.2c-.1-.1-.2-.2-.3-.2v.1q.1 0 .2.1v.1l.1.1v.2c-.1.2-.2.1-.4.1H604.2l-.1.1h-.1q-.1.1-.3.1H602.3q0 .1-.1.1h-.1q-.1.1-.2.1h-.7q-.1 0-.2.1l-.1.1v.1h-.1l-.1.1h-.1c-.1-.1-.2-.3-.4-.2v.1h-.2q0 .1-.1.1 0-.1-.1-.1v-.4l-.1-.1h-.4l-.1-.1h-.2l.1.1v.4c-.1.2-.2.3-.3.2H598.5l-.1.1q-.2.1-.3.1h-.7q-.1 0-.3-.1l-.1-.1h-.2l-.1.1q-.1 0-.1.1H596.3q-.1.1-.3.1-.1 0-.3-.1h-.3q-.2 0-.3-.1h-.5q0 .1-.1.1-.2.1-.3.1h-1.1q-.1 0-.3-.1h-.3q-.2 0-.4.1-.1 0-.3.1h-.4q-.1 0-.2-.1h-.2q0-.1-.1-.1-.1-.1-.2-.1h-.2q-.1-.1-.2-.1h-.6q-.2 0-.4.1h-.6q-.1 0-.2-.1h-.3q-.1-.1-.3-.1-.2-.1-.5-.1h-1.5q-.1 0-.3-.1h-.4q-.1-.1-.2-.1t-.2.1h-.2q-.1 0-.1-.1h-.2l-.9-.2q-.2 0-.4-.1h-.8q-.2-.1-.4-.1-.2.1-.4 0h-.3q-.2 0-.3-.1-.2 0-.4-.1-.2 0-.4-.1-.3 0-.5-.1h-.5q-.2 0-.4.1h-.3q-.1-.1-.2-.1h-.2q-.1-.1-.2-.1l-.1-.1q-.2.1-.5.2h-.9l-.4-.2q-.2 0-.3-.1H574.3q-.1 0-.2.1h-.4l-.1-.1q-.1 0-.2-.1h-.5q-.1.1-.2.1l-.1.1h-.1q0 .1-.1.1h-.1q-.1 0-.3-.1h-.3q-.2 0-.3-.1h-.4c-.7.2-1.3-.7-2.1-.6q-.1.1-.2.1h-.3q-.2 0-.3-.1-.1 0-.2-.1h-.2l-.1.6H366l7.8-72h195.7v.5h.4q.1 0 .3.1.1 0 .3.1.1 0 .3.1c.1.1.2.1.2 0 .1-.3.3-.2.4-.1q.2 0 .4.1.1.1.3.1.2.1.3.1.2 0 .4.1h.1q0-.1.1-.1t.2-.1h.4q.1-.1.2-.1h.1l.1.1q0 .2.2.3l.2.2q.2.1.3.1H576.3l.1-.1q.1 0 .2-.1.1 0 .1-.1l.2-.2q.1-.1.3-.1h.2q.2 0 .3.1l.1.1q.1 0 .2.1h.2q.1.1.2.1h.4q.1.1.2.1.2.1.3.1h.5l.1-.1v-.1h.1v-.2q0-.1.1-.1V.9c.1-.2.3-.3.3-.1q0 .1.1.2v.2q.1.1.1.2l.1.1h.2q.1 0 .2-.1.1 0 .1-.1.1 0 .2-.1l.1-.1q.2-.3.2.2c0 .2 0 .2.1.2h1.2q.1 0 .2.1h1.8q.2 0 .4.1t.4.3q.1.1.3.2l.4.2q.2.1.4.1h.5v-.1h.1c0-.1 0-.5.1-.4h.4l.1.1q.1 0 .2.1c.1.1.2.1.4 0q0-.1.1-.2.1 0 .1-.1h.4c.1.1.2.3.4.4.1.1 0 .3-.1.4h.1q.1 0 .1-.1.1 0 .1-.1h.1q0-.1.1-.1 0-.1.1-.1h.1q0 .1.1.1c.1.1.2.1.3 0 .6-.5.8-.5 1.2.2.2.3.3.3.5.1l.2-.2q.1-.1.2-.1.2-.1.3-.1.1 0 .2-.1c.2 0 .3.1.4.4v.1q.1.1.2.1.1.1.2.1h.3l.2-.2c.1-.2.1-.2.2 0q0 .1.1.1v.1h.1l.1.1c.1 0 .3.1.2-.3v-.2l.1-.1q0-.1.1-.1h.2q.1 0 .2.1.1 0 .2.1l.1.1c.1.2.2.2.3 0q.1-.2.2-.1.2.1.3.1h.3q.1 0 .2-.1.2 0 .3-.1h.2q0 .1.1.1v.1c.2.3.2.3.4-.2h.1q.1-.1.2-.1t.2-.1h.2l.1.1h.1q.1 0 .2.1h.3q.1 0 .2.1h.3v.1h.1q.5.2 1.1.4.1 0 .2-.1c.1-.3.3-.3.4-.1h.1q0 .1.1.1h.1l.1-.1H602.9l.1.1q0 .1.1.1l.1.1h.1c0-.2-.1-.2-.1-.2-.1 0-.2 0-.2-.2s.1-.2.2-.2H603.5q0 .1.1.1h.1v.1h.1v-.1h.5l.1.1.1.1v.1q0 .1-.1.1l-.1.1c.4-.2.9.2 1.3-.2h.2c.1 0 .2.1.3.1l.1-.1h.4q.1 0 .1.1H607v.1h.4q.1.1.1.2h.5q.1-.1.3-.1.2 0 .4.1h.3q.2 0 .3.1h.1q.1 0 .1.1.1 0 .3.1h.5q.1 0 .2-.1.1 0 .1.1H610.9l.1.1q.2 0 .3.1.1 0 .2.1.1 0 .2.1.2 0 .3.1h1q.1.1.3.1.1.1.3.1.2.1.3.2.2.2.4.3l.3.3q.2.1.3.3h.1v.1l.1.1h.1v.1h.1v.1q.2 0 .3.1.1.1.2.3.1.1.1.2 0 .2.1.3V7q0 .2-.1.4 0 .1-.1.3l-.2.2c-.3 0-.5.3-.8.3H614.5l-.4-.2q-.2-.1-.3-.1l-.4-.2q-.2 0-.4-.1h-.1q-.1 0-.1-.1h-.1l-.1-.1h-1.1c-.1 0-.2 0-.2.2V7.9q0 .1-.1.1 0 .1-.1.1h-.1q0 .1-.1.1H610.6l.1.1q.1 0 .2.1l.1.1q.1 0 .2.1h.4q.1-.1.2-.1l.1-.1q.2-.1.3-.1h.5q.1.1.3.1v.1q0 .1.1.1c0 .4.2.4.4.3h.2q0 .1.1.1l.1.1.1.1H614.3q.1 0 .1-.1h.5q.1 0 .1.1.2.1.4.1.1.1.3.2.2 0 .4.1h.3q.3.1.6.1.3.1.5.1.3.1.6.1.3.1.6.1h.5q.1.1.2.1H620.1l.1.1h.7q.1 0 .2.1H621.4q0 .1.1.1l.1-.1c.2.1.5.2.8.3q.1 0 .2.1.1 0 .2.1.1 0 .2.1h.2q.2.1.3.1.2 0 .3.1.2 0 .3.1.2.1.3.1H625.1q.2 0 .4.1.2 0 .4.1.1.1.3.2 0 .1.1.1h.2v-.1q.1 0 .1-.1H626.9q.2 0 .3.1h.2q.2.1.3.2.1 0 .2.1h.1v.1h.1v.1q0 .1.1.2 0 .1.1.2.1 0 .2.1h.4v.1h.1v.2h-.1z" class="a"/><path fill-rule="evenodd" d="M565.9 128.1q-.1-.1-.2-.1-.1-.1-.2-.1-.1-.1-.2-.1-.1-.1-.2-.1c-.3-.1-.6-.1-.8.4-.1.3-.3.2-.6.1q-.2-.2-.4-.3l-.4-.2q-.3-.1-.5-.1H561.3q-.1 0-.2-.1h-.2l-.1-.1-.1-.1q-.1-.1-.2-.1-.1-.1-.3-.1-.1-.1-.2-.1h-.3q-.1 0-.2-.1-.1 0-.2-.1v-.7q-.1 0-.1-.1h-.2q-.1 0-.3-.1-.1 0-.2-.1-.2-.1-.3-.2l-.2-.2h-.1q-.1-.1-.2-.1h-.2q0 .1-.1.1-.1.1-.3.1-.1.1-.2.1h-.3q-.2 0-.3-.1.1 0 .2-.1 0-.1.2-.1.1 0 .2-.1h.2q.2 0 .3-.1.2 0 .3-.1l.2-.2q.2-.1.2-.3c.1-.3-.2-.2-.3-.3-.3-.1-.4-.2 0-.4h.1q.1 0 .1-.1l.1-.1V123.3l-.1-.1h-.1l-.1-.1c-.1 0-.1 0-.1-.1.1-.3 0-.4-.3-.5H557.1c-.3 0-.4-.1-.3-.4v-.4l-.1-.1h-.2q-.3-.1-.5-.1c-.2-.1-.3-.1-.2-.4v-.1q.1 0 .1-.1h.4q0 .1.1.1l.1.1.1.1c.2.1.4.2.5-.1.1-.2.2-.2.4-.1.3.1.5 0 .4-.4 0-.2-.1-.4.2-.5q.1 0 .3-.1.2 0 .3-.1.2 0 .4-.1h.5q.1 0 .2-.1.1 0 .1-.1l.1-.1c.2-.3-.1-.5-.3-.6q.1-.1.2-.1h.5c.1 0 .4 0 .3-.2v-.3q0-.2.1-.3.1-.1.2-.3l.2-.2q0-.1.1-.2v-.6q0-.1-.1-.2v-.1h-1.3c-.1-.1 0-.2 0-.2v-.4q-.1-.1-.2-.1-.1-.1-.2-.1h-.8c.1-.2.2-.1.3-.1l.1-.1q.1-.1.2-.1v-.5l-.1-.1-.1-.1h-.1q-.2 0-.4-.1h-.4q-.2 0-.4-.1h-.7l-.1-.1q-.1-.1-.2-.1-.1-.1-.2-.1t-.2.1h-.2c0 .1-.1.1-.1.1-.4-.4-.9-.2-1.3-.3h-.1l-.1-.1h-.2c-.2-.2-.3-.3-.1-.5v-.1h.1v-.1q.1-.1.1-.2l.2-.2q.1-.1.1-.2.1 0 .2-.1c.4-.2.4-.4.1-.8h-.2q0-.1-.1-.1h-.1l-.1-.1h-.1v-.1h-.2c-.3-.3-.3-.4 0-.7q.1-.1.3-.2.1-.1.3-.2.1-.1.3-.1h.4q.1-.1.2-.1h.1q0-.1.1-.1c.3-.8 1.1-1.2 1.2-2.1 0-.2 0-.4-.2-.4h-.2q-.1 0-.2-.1-.1 0-.2-.1t-.2-.1-.2-.1l-.2-.2q-.1 0-.2-.1-.2 0-.3-.1-.2-.1-.5-.1-.3-.1-.5-.2-.3 0-.6-.1h-.5q-.1 0-.2-.1h-.1q-.1 0-.2-.1h-.1c-.3-.1-.6-.1-.8-.2q-.3.1-.6.1t-.6-.1q-.2-.1-.5-.2-.2-.2-.4-.3h.4q.1.1.2.1t.2-.1h.2q.1 0 .1-.1h.2l.4-.2q.2 0 .4-.1.2 0 .4.1.1 0 .3.1h.3q.2.1.3 0 .2 0 .3-.1l.2-.2c.2-.2.6 0 .7-.4V103.9q.1-.1.1-.2v-.2q0-.1-.1-.1 0-.1-.1-.1h-1q-.1 0-.3.1H552.3q-.1-.1-.2-.1c-.6-.1-1.1-.4-1.7-.4q-.1-.1-.2-.1-.1-.1-.2-.1 0-.1-.1-.1l-.2-.2h-.2q0 .1-.1.1v.1c0 .3-.2.3-.4.2h-.2l-.1-.1h-.1.2c.1 0 .3-.1.2-.3-.1-.3.1-.7 0-1.1q-.1 0-.1-.1l.1-.1.1-.1q.1 0 .2-.1h.5q.1 0 .2.1H550.3l.1-.1q.1-.1.1-.2c.2-.1.1-.3-.1-.4H551.5q.1 0 .1-.1l.1-.1q-.1-.1-.1-.2c-.1-.2-.3-.4 0-.6q0-.1.1-.1v-.1q0-.1-.1-.2l-.1-.1-.1-.1h-.2l-.1.1q-.4.3-.6-.3l-.1-.1v-.1q-.1 0-.1-.1-.1 0-.1-.1c-.2-.1-.3-.2-.6 0-.1.1-.3 0-.2-.2v-.5q0-.1-.1-.2V97l-.1-.1q0-.1.1-.2v-.1h.2q0-.1.1-.1 0-.1.1-.1h.2q0-.1.1-.1c.2 0 .6.2.6-.2.1-.4-.3-.4-.5-.4q-.3-.1-.5-.2l-.4-.2q-.2-.2-.3-.4-.2-.2-.3-.4l-.2-.2q0-.1-.1-.1-.1-.1-.2-.1-.1-.1-.3-.1-.1 0-.3-.1H546.9q-.1 0-.2-.1h-.2.4q0-.1.1-.1v-.4q0-.1-.1-.2l-.2-.2h-.8q-.2-.1-.2-.2l-.2-.2q0-.1.1-.3V92l-.1-.1q0-.1-.1-.1 0-.1-.1-.1H545l-.1.1h-.2q-.1.1-.2.1h-.5.5l.1-.1H544.9q0-.1.1-.1v-.2q.1 0 .1-.1t-.1-.1v-.2q-.1 0-.1-.1h-.1v-.1h-.1q.1-.1.2-.1h.1q.1 0 .1.1h.1l.1.1h.1l.1-.1.1-.1v-.1h-.1q0-.2-.1-.4-.1-.1-.2-.3-.1-.1-.2-.3l-.3-.3c-.3-.2-.6-.6-1-.8q0-.1-.1-.1h-.1q-.1 0-.2-.1h-.1q-.1-.1-.1-.2-.1-.1-.1-.2v-.2q-.1-.1-.2-.1-.1-.1-.2-.1-.1-.1-.2-.1c-.1 0-.3-.1-.4-.1h-.3l-.2-.2q0-.1-.1-.2v-.2q0-.1-.1-.3l-.2-.2q-.1-.1-.2-.1h-.6q-.1 0-.2-.1l-.1-.1h-.1q-.1-.1-.2-.1h-.2q-.2.1-.3.1-.1-.1-.2-.1t-.3-.1l-.1-.1q-.1-.1-.2-.1 0-.1-.1-.1h-.2q-.1-.1-.2-.1H537.6l-.1-.1q-.1-.1-.2-.1 0-.1-.1-.2v-.1q-.1-.1 0-.2v-.1q.1-.1.1-.2v-.1q.1-.1.1-.2v-.2q0 .1.1.1h.1q.1.1.2 0h.1l.1-.1q.1-.1.1-.2v-.5l-.1-.1V83l-.1-.1-.2-.2-.3-.3q-.2-.1-.3-.1l-.4-.2c-.3 0-.5-.1-.8-.2q-.1 0-.2-.1-.1 0-.2-.1t-.1-.3q-.1-.1 0-.2 0-.1-.1-.2v-.2q-.1-.1-.1-.2t-.1-.2q0-.1-.1-.1l-.1-.1H534.3l-.4-.2q-.1-.2-.2-.3l-.2-.4v-.2l-.1-.1-.2-.2-.1-.1.1-.1h.2c.3-.3.4-.4.1-.8l-.2-.2-.2-.2q-.2-.1-.3-.2-.1-.1-.3-.1-.1-.1-.3-.1-.2-.1-.3-.1-.2-.1-.3-.2-.2-.1-.3-.2l-.2-.2q-.1-.1-.1-.2 0-.2.1-.3 0-.1.1-.2t.1-.2.1-.2.1-.2v-.2c.1-.2 0-.2-.2-.3H531q0-.1-.1-.1h-.1v-.1c-.2-.1-.1-.2-.1-.4v-.8q-.1-.1-.1-.2v-.2q0-.1.1-.2l.1-.2.3-.3.2-.4q.1-.1.1-.3.1-.2.1-.4c.1-.2.3-.2.3-.3.1-.2.1-.4-.2-.5q-.2 0-.5-.1-.2-.1-.5-.1-.2-.1-.5-.1-.2-.1-.5-.1h-.1l-.1-.1h-.1q-.1-.1-.2-.1-.1-.1-.2-.1-.2-.1-.3-.1-.2 0-.3.1l-.2.2h-.1l-.1.1H527.6l.1-.1c.2 0 .5-.1.4-.4-.1-.2-.4-.1-.5-.1h-.5q-.1 0-.2-.1h-.1q-.3-.1-.6-.1H524.5v.1h-.1v-.1h-.1l-.8-.2h-.6q-.1.1-.3.1h-.2q-.2-.1-.3-.1l-.2-.2h-.1l-.1-.1H521.4q-.1 0-.1.1h-.2q-.1 0-.1.1-.1 0-.2-.1h-.1q-.1 0-.1-.1h-.4l-.1.1V68.8l-.1.1h-.4q-.1.1-.2.1h-.5c.1-.2.3-.3.2-.5q-.1 0-.1-.1h-.2q0-.1-.1-.1h-.1q-.1.1-.2.1h-.2q0-.1-.1-.1h-.2q-.2-.1-.5-.1-.2-.1-.5-.1-.2 0-.5.1-.2 0-.5.1H515.3q-.1 0-.2-.1h-.1l-.1-.1h-1.2q-.2.1-.5.1h-.5q-.1.1-.2.1h-.2q-.1 0-.3-.1h-.2q-.2-.1-.5-.1h-1.6q-.3 0-.5.1h-.5q-.3-.1-.6-.1-.2 0-.5-.1h-.6q-.2 0-.3.1h-.3q-.1.1-.3.1-.1.1-.3.1h-3.5q-.2.1-.4.1t-.4.1h-.8q-.4.1-.9.1h-1.6c-.5-.1-.9.1-1.4.1h-.8q-.1 0-.2.1l-1.5.1q-.3 0-.6.1h-.6q-.4 0-.7.1h-1.7q-.3 0-.6.1-.2 0-.5.1-.4 0-.7.1h-.7q-.4.1-.8 0h-1.1q-.1 0-.3.1h-.4q-.1 0-.3.1h-.2q-.4-.1-.7-.1-.3-.1-.7-.1-.3 0-.7.1-.3.1-.7.2h-.5q-.3 0-.5.1h-1.2q-.1 0-.2-.1h-.5q0-.1-.1-.1h-.1q-.1 0-.2.1h-.1q-.2.1-.4.1-.2.1-.4.1t-.4-.1q-.1 0-.3-.1h-.1q-.1-.1-.2-.1h-.2c-.7.1-1.4 0-2 .2h-.1c-1.2-.2-2.2.6-3.4.5q-.2-.1-.4-.1h-.4q-.3 0-.5.1-.2 0-.4.1H469.4v-.6H152.1L130.4 142h334v-.5h.2q.3 0 .5-.1h.6q.2-.1.5-.1.2-.1.5-.2h.1q0-.1.1-.1l.1.1h.1c.2.4.4.3.7.2l.6-.2q.3 0 .6-.1t.6-.1.6-.1h.1l.1.1h.2q.1.1.3.1h.3q.2.1.3.1h.3l.1.1q.1 0 .1-.1h.1l.1-.1q.1-.2.4-.3l.4-.2q.3-.1.5-.1.3-.1.6 0 .2 0 .4-.1h.5q.2.1.4.1h.7q.2 0 .3.1.1 0 .2.1.1 0 .3.1.1.1.3.2.2.1.4.1h.5q.2 0 .4-.1.1 0 .3-.1.2 0 .3-.1h.3q.2-.1.3-.1h.8l.4-.2h1.3q.1 0 .1.1h.1v.1q0 .1.1.1v.2l.1.1v.1c.2.1.5.2.5 0q.1-.1.1-.2l.2-.2.2-.2.2-.2h.1l.1.1h.1q.1 0 .2.1.2 0 .3.1.1 0 .2.1.1 0 .2.1c.3.2.4.2.4-.2v-.2h.4q.2-.1.3-.1h.3q.2 0 .3.1h1q.2-.1.3-.1h2.1q.4 0 .8-.1h.9q.3-.2.6-.3.3-.2.6-.3.4-.1.7-.2.3-.1.7-.1h.1q.1-.1.2-.1t.2.1h.2q.1 0 .1.1h.1c.1.2 0 .5.2.4q.2.1.3 0h.3q.1 0 .3-.1h.2l.2-.2h.2q.1 0 .2.1.1 0 .2.1.1 0 .2.1t.2.1q.1 0 .3.1h.2c.3-.1.4-.4.7-.5.3-.1.1-.3 0-.5l.1.1q.1 0 .2.1h.1q.1.1.2.1 0 .1.1.1.1.1.2.1h.2l.1-.1q.1 0 .2-.1h.1q.1 0 .2.1h.1q.2.2.5.3.3.1.6.1t.5-.2q.3-.2.5-.4 0-.1.1-.2h.3q.1-.1.2 0 .1 0 .2.1l.4.2q.2.1.4.1.2.1.3.1.2.1.4.1h.2q.2 0 .2-.1.1 0 .2-.1t.1-.2v-.1l.4-.2h.8q.2.1.3.1c.2.3.3.2.4.1l.1-.1q.1-.1.2-.1 0-.1.1-.1h.2c.2 0 .4-.1.3.3v.2l.1.1.1.1h.1v.1q.2 0 .3-.1.2 0 .3-.1.2 0 .3-.1.1 0 .2-.1l.1-.1q.1-.1.2-.1t.1.1q.1 0 .2.1v.1h.4q.2-.1.4-.1h.4q.3 0 .5.1.2 0 .4.1.1.1.1 0h.4v-.1h.1v-.1c.4-.3.4-.3.7.2q.1 0 .2.1h.3q.1.1.2.1h.5l.1-.1h.1c.6.1 1.2-.3 1.8-.2v-.1h.1l2-.4h.2l.1.1q0 .1.1.1.1.1.2.1h.2q.1 0 .2-.1.1 0 .1-.1h.5q.1.1.2.1h.2q.1 0 .2-.1.1 0 .1-.1h.2q0-.1.1-.1H522.3c0 .2-.1.1-.2.1-.2.1-.4 0-.4.3 0 .2.2.2.4.2h.5l.1-.1h.1l.1-.1h.1c.1 0 .2.1.4.1h.5q.1 0 .2-.1h.1v-.1l.1-.1c0-.2-.2-.2-.3-.2.7.1 1.5-.2 2.2.2h.4q0-.1.1-.1h.4q.1 0 .1.1h.4q.1 0 .2-.1h.5q.2-.1.3-.1h.1v-.1h.6q.1-.1.2-.1.1-.1.2-.1h.3q.1 0 .2.1h1.2q.3 0 .6-.1h.6v-.1h.2l.1-.1h.4q.2-.1.4-.1h.4q.2 0 .4.1h.3q.1 0 .2-.1h.3q.1-.1.2-.1.2 0 .4-.1.2 0 .4-.1.2 0 .4-.1.2 0 .3-.1h.2q.1-.1.2-.1 0 .1.1.1h.7q.3 0 .5-.1.3 0 .6-.1.2 0 .5-.1l.6-.2q.3-.1.6-.3.3-.1.5-.2l.6-.4.1-.1q.1 0 .1-.1h.2q0-.1.1-.1h.1l.1-.1.4-.2q.2 0 .3-.2.2-.1.3-.3.1-.1.1-.3.1-.2.1-.4-.1-.2-.1-.4-.1-.2-.2-.3-.2-.2-.4-.2c-.4-.1-.8-.3-1.3-.3H541.4l-.6.2q-.3.1-.6.1l-.6.2q-.3 0-.6.1h-.2q-.1 0-.2.1h-.2q-.1.1-.2.1-.1.1-.2.1h-.5q-.1-.1-.2-.1H536.4c-.2.1-.4 0-.3-.2 0-.4-.2-.4-.4-.5h-.1v-.1h-.8c.4-.1.7-.4 1.1-.4q.2-.1.3 0h.3q.2 0 .4.1.1 0 .3.1.2 0 .4.1h.4q.2 0 .5-.1.2 0 .4-.1h.1v-.1q.1-.2.1-.3.1-.1.2-.1.1-.1.3-.1.1 0 .2.1H540.1q.1 0 .2-.1.1 0 .1-.1.1 0 .3-.1h.5q.1 0 .2.1h.3q.1.1.2 0h.3q.1 0 .2-.1l.6-.2q.3 0 .6-.1.3 0 .6-.1h.6c1.2-.3 2.5-.3 3.7-.4q.3-.1.5-.1H550.5q.1 0 .2-.1h.5c.5-.1 1 0 1.5-.1h.1q.1 0 .1-.1H553.5c.4-.1.9-.2 1.4-.3q.7-.2 1.4-.3.2-.1.5-.1.3-.1.5-.1.3-.1.5-.1.3-.1.5-.1l.1-.1H558.7q0 .1.1.1h.6q.3 0 .7-.1.3 0 .6-.1t.6-.3l.1-.1h.2q.1 0 .1.1.1 0 .2.1h.1q.1.1.2.1H562.5q.2-.1.4-.1t.4-.1q.3 0 .5-.1.1-.1.3-.2h.2q.1 0 .1-.1h.1q0-.2.2-.3.1-.1.3-.2.1-.1.3-.1h.4q.1 0 .1-.1h.1c.1-.1.1-.2 0-.2z" class="a"/><path fill-rule="evenodd" d="m601.8 34.5-10.2.7q.1-.4 0-.8t-.3-.7q-.1-.4-.4-.7-.2-.3-.5-.6l-.8-.4q-.4-.2-.9-.3-.4-.1-.9-.2h-1.5q-.4.1-.7.1-.4.1-.7.1-.4.1-.7.2l-.6.2q-.3.1-.6.3-.3.2-.5.3-.3.2-.5.4-.3.2-.4.4-.2.3-.3.5l-.2.6q-.1.2-.1.5v.5l.2.4q0 .2.2.4.1.2.3.3.2.3.6.4l.6.4q.3.1.7.2.3.1.6.1l6.9 1.3q.9.1 1.9.4 1 .3 1.9.7.9.4 1.7.9.9.5 1.7 1.2.6.5 1 1.2.5.7.8 1.5.2.7.4 1.5.1.8 0 1.6 0 .8-.1 1.5t-.3 1.4q-.2.7-.5 1.4-.3.6-.7 1.2-.3.7-.8 1.2-.5.6-1 1.1-.5.5-1.1 1-.5.5-1.2.9-.6.4-1.3.8-.7.4-1.5.7-.7.3-1.5.6-.8.2-1.5.4-.9.2-1.7.4-.9.2-1.8.3-.8.1-1.7.1-.9.1-1.8.1-1 0-2.1-.1-1 0-2-.2-1.1-.2-2.1-.5-1-.2-2-.6-.8-.3-1.5-.7-.8-.4-1.5-.9t-1.3-1q-.6-.6-1.1-1.3-.5-.6-.9-1.4l-.6-1.4q-.3-.8-.4-1.6-.1-.8-.1-1.6v-.4l10.7-.7q0 .5.1 1 .1.4.3.8.2.5.4.8l.6.8q.5.3 1 .5t1 .3q.5.2 1 .2h1.8q.4 0 .7-.1.4 0 .8-.1.3-.1.7-.2l.6-.2q.3-.1.6-.3.3-.1.5-.3l.6-.4q.2-.1.4-.4.1-.2.3-.4.1-.3.2-.5v-.6q.1-.2 0-.5 0-.2-.1-.5-.1-.2-.3-.4-.2-.2-.4-.3l-.6-.4q-.3-.2-.7-.3-.4-.2-.7-.2l-.8-.2-6.1-1.2q-1-.1-2-.4-1-.3-1.9-.8-.9-.4-1.7-1-.9-.6-1.6-1.2-.6-.7-1-1.4-.5-.7-.8-1.5-.3-.8-.4-1.7-.1-.8-.1-1.7 0-.9.2-1.8t.5-1.8q.3-.8.8-1.6.4-.8 1-1.5.6-.8 1.4-1.4.7-.6 1.5-1.1.8-.6 1.6-1 .9-.4 1.8-.7 1.1-.4 2.1-.7l2.2-.4q1.1-.2 2.1-.3 1.1-.1 2.2-.1 6.9 0 10.8 2.8.9.6 1.7 1.4.7.9 1.3 1.8.5 1 .8 2 .3 1.1.3 2.2 0 .2.1.3v.2q0 .1-.1.1v.1zm-43.8 20q-.7.8-1.5 1.5-.7.7-1.6 1.3-.8.6-1.7 1.1-.9.6-1.9 1-1 .5-2.1.8-1.1.4-2.2.6-1.2.2-2.3.3-1.2.1-2.3.1-1.1 0-2.3-.1-1.1-.1-2.2-.3l-2.2-.6q-1-.4-2-.9-.9-.5-1.7-1-.8-.6-1.5-1.3-.7-.7-1.3-1.5-.6-.7-1.1-1.6-.5-.9-.8-1.9-.4-1-.6-2-.3-1-.4-2.1-.1-1-.1-2.1t.1-2.1q.1-1.1.3-2.2l.4-2.1q.3-1 .7-2.1.3-.9.8-1.9.4-.9.9-1.8.6-.9 1.2-1.7.6-.9 1.3-1.6.7-.8 1.4-1.5.8-.7 1.6-1.3l1.8-1.2q.9-.5 1.8-.9l2.2-.8q1.1-.3 2.2-.5 1.1-.3 2.2-.4 1.2-.1 2.3 0 1.1-.1 2.2 0 1.2.1 2.3.4 1.1.2 2.1.6 1.1.3 2.1.8.9.5 1.7 1.1.8.5 1.5 1.2t1.3 1.5q.6.7 1 1.6.5.9.9 1.9.4 1 .6 2l.4 2.1q.1 1.1 0 2.1v2.2q-.1 1-.3 2.1-.2 1-.5 2.1-.2 1-.6 2-.3 1-.8 1.9-.4 1-.9 1.9-.5.9-1.1 1.7-.6.8-1.3 1.6zm-6.6-19.2q-.1-.3-.3-.6l-.4-.6-.5-.5q-.2-.2-.5-.4t-.7-.3-.7-.3q-.3-.1-.7-.1-.3-.1-.7 0-.6-.1-1.1 0-.6.1-1.1.3-.5.1-1 .4l-1 .6q-.4.3-.8.7-.4.4-.8.9-.4.4-.7.9-.3.4-.5.9-.3.6-.6 1.1-.2.5-.4 1.1-.2.6-.4 1.1-.2.6-.3 1.2l-.2 1.1-.2 1.1q0 .5-.1 1.1v2.3q.1.6.3 1.2.2.6.4 1.1.3.6.7 1.1.3.4.8.7.4.3.9.6.5.2 1 .3.5.1 1.1.1.5 0 1.1-.1.6-.1 1.1-.3.5-.1 1-.4.5-.3.9-.6.5-.3.9-.7.4-.4.8-.9.3-.4.6-.9.4-.5.6-1 .3-.5.5-1 .3-.6.5-1.2.2-.5.3-1.1.2-.6.3-1.2.2-.5.3-1 .1-.6.1-1.1.1-.6.1-1.1.1-.6.1-1.1 0-.5-.1-.9 0-.4-.1-.8-.1-.5-.2-.9t-.3-.8zm-23 78.2-6.2-1.2q-1-.1-1.9-.4-1-.3-1.9-.7-.9-.5-1.8-1.1-.8-.5-1.5-1.2-.6-.6-1.1-1.4-.4-.7-.7-1.5-.3-.8-.4-1.6-.1-.9-.1-1.7 0-1 .2-1.9.1-.9.5-1.7.3-.9.7-1.7.5-.8 1.1-1.5.6-.7 1.3-1.4.8-.6 1.6-1.1l1.6-1q.9-.4 1.8-.7 1-.4 2.1-.6 1.1-.3 2.1-.5 1.1-.2 2.2-.3h2.2q6.9 0 10.8 2.7.9.7 1.7 1.5.7.8 1.2 1.7.6 1 .9 2.1.3 1 .3 2.1V101.2l-10.2.6q0-.4-.1-.8 0-.4-.2-.7-.2-.4-.4-.7-.2-.3-.5-.6l-.8-.4q-.4-.2-.9-.3-.4-.1-.9-.2h-.9q-.3 0-.7.1h-.7l-.6.2q-.4 0-.7.1-.3.1-.6.3l-.6.2q-.3.2-.5.4-.3.1-.6.3-.2.2-.4.5l-.2.4q-.2.3-.2.6-.1.3-.1.5v.5q.1.2.1.4l.2.4q.2.2.3.4l.6.4q.3.1.7.3l.6.2q.4.1.7.1l6.8 1.3 2 .4q.9.3 1.9.7.9.4 1.7.9.9.6 1.6 1.2.6.6 1.1 1.2.4.7.7 1.5.3.7.4 1.5.2.9.1 1.7 0 .7-.1 1.4t-.3 1.4q-.2.7-.5 1.4-.3.6-.7 1.3l-.8 1.2-1 1q-.5.6-1.1 1-.6.5-1.2.9l-1.4.8q-.7.4-1.4.7-.8.3-1.5.6l-1.6.4q-.8.3-1.7.4-.8.2-1.7.3l-1.7.2H523.2q-1-.1-2.1-.3l-2-.4q-1-.3-2-.7l-1.6-.6q-.7-.4-1.4-.9t-1.3-1.1q-.6-.6-1.1-1.3-.5-.6-.9-1.3-.4-.7-.6-1.5-.3-.8-.4-1.6-.2-.8-.2-1.6v-.4l10.8-.6q0 .4.1.9.1.4.3.9l.4.8q.3.4.6.7.5.3.9.5l1 .4q.6.1 1.1.1.5.1 1 0h.8q.3 0 .7-.1.4 0 .7-.1.4-.1.7-.2.4 0 .7-.2.3-.1.5-.2l.6-.4q.3-.1.5-.3.3-.2.4-.4.2-.2.3-.5.2-.2.2-.5.1-.3.1-.6v-.5l-.2-.4q-.1-.3-.2-.4l-.4-.4-.6-.4q-.4-.2-.7-.3-.4-.1-.7-.2l-.8-.2zm-10.8-53h-11.5l3.6-21.2q.5-3.1-.9-4.6-.3-.4-.8-.7-.4-.3-.9-.5t-1.1-.3q-.5-.1-1.1-.1-.9 0-1.8.2t-1.7.7q-.8.4-1.5 1.1-.6.6-1.1 1.4-.3.4-.5.9t-.4.9q-.2.5-.3 1l-.2 1-3.4 20.2h-11.4l6-36.3h10.9l-1 6.7q.5-.7.9-1.3.5-.7 1-1.3.5-.6 1.1-1.1l1.2-1q.8-.7 1.7-1.2l2-.8q1-.3 2-.4 1.1-.2 2.1-.2.9 0 1.8.1.8.1 1.7.3l1.6.6 1.6.8 1.2 1q.6.6 1.1 1.2.5.7.8 1.4.4.7.6 1.4.3.9.5 1.8t.2 1.9v1.8q-.1 1-.3 1.9zm-45 30.2-1.7 9.9q-.2-.1-.5-.1-.2-.1-.5-.1-.3-.1-.5-.1-.3-.1-.5-.1-1.3-.1-2.4-.1-1 0-2 .2-1 .3-1.9.7-.9.5-1.7 1.1-.7.7-1.3 1.5-.3.5-.6.9l-.4 1-.4 1-.2 1-3.2 19.6h-11.5l6.1-36.3h11l-1.1 6.6h.4q.3-.8.7-1.5.4-.8.9-1.4.6-.7 1.2-1.3.6-.6 1.3-1.1.6-.4 1.2-.7.7-.4 1.4-.6.7-.2 1.5-.3.7-.1 1.5-.1t1.7.1h.3q.2.1.4.1t.4.1h.4zm-8.1-30.2 1.1-7.4q-.5.8-1 1.5t-1 1.3q-.6.7-1.2 1.3l-1.3 1.1q-.9.7-1.9 1.2-.9.5-2 .9-1 .3-2.1.5-1.1.1-2.2.1h-1.7q-.8-.1-1.7-.4-.8-.2-1.5-.5-.8-.3-1.5-.8-.6-.4-1.2-.9-.6-.6-1-1.2-.5-.6-.8-1.3-.4-.6-.6-1.4-.3-.9-.4-1.8-.2-.9-.2-1.8v-1.8q.1-1 .3-1.9l3.8-23h11.4L454.4 45q-.2.6-.2 1.2t.1 1.3q.1.6.3 1.2.2.6.5 1.1.4.5.9.8.4.4 1 .6.5.2 1.1.3.5.1 1.1 0 .9.1 1.7-.1.9-.2 1.7-.7.7-.4 1.4-1 .6-.6 1.1-1.3.3-.4.5-.9.2-.4.4-.9.2-.4.3-.9l.2-1 3.4-20.5h11.4l-6 36.3h-10.8zm-25.7 37q.5 1 .8 2 .4 1 .6 2 .3 1 .4 2.1.1 1 .1 2.1 0 1-.1 2.1t-.3 2.1q-.1 1.1-.4 2.1-.3 1-.6 2.1-.4.9-.8 1.9-.4.9-1 1.8-.5.9-1.1 1.7-.6.9-1.3 1.6-.7.8-1.4 1.5-.8.7-1.6 1.3-.9.7-1.8 1.2t-1.8.9q-1.1.5-2.2.8-1.1.4-2.2.6-1.1.2-2.3.3-1.1.2-2.3.1-1.1.1-2.2 0t-2.3-.4q-1.1-.2-2.1-.6-1.1-.4-2.1-.9-.9-.4-1.7-1-.8-.6-1.5-1.2-.7-.7-1.3-1.5-.6-.8-1-1.7-.5-.9-.9-1.9-.4-1-.6-2l-.4-2.1q-.1-1 0-2.1v-2.1q.1-1.1.3-2.1.2-1.1.5-2.2.2-1 .6-2 .4-1 .8-1.9.4-1 1-1.9.5-.9 1.1-1.7.6-.8 1.3-1.6.7-.8 1.5-1.5.7-.7 1.6-1.3.8-.6 1.7-1.1.9-.5 1.9-.9 1-.5 2.1-.8 1.1-.4 2.2-.6 1.1-.2 2.3-.3 1.1-.1 2.2-.1 1.2 0 2.3.1 1.1.1 2.2.3 1.1.2 2.2.6 1.1.4 2.1.9.8.4 1.6 1t1.5 1.2q.7.7 1.3 1.5.6.8 1.1 1.6zm-10.2 4.5q-.2-.4-.3-.7-.2-.3-.5-.5-.2-.3-.4-.5-.3-.3-.6-.5t-.6-.3q-.4-.1-.7-.2-.4-.1-.7-.2h-.8q-.5 0-1.1.1-.5 0-1.1.2l-1 .4q-.5.3-.9.6-.5.4-.9.8t-.7.8q-.4.4-.7.9l-.6 1q-.3.5-.5 1-.3.6-.5 1.1-.2.6-.3 1.2-.2.5-.3 1.1-.2.6-.3 1.1-.1.5-.1 1.1-.1.5-.1 1.1-.1.6-.1 1.1 0 .6.1 1.2 0 .6.2 1.2t.5 1.2q.2.5.6 1l.8.8q.4.3.9.5t1.1.3q.5.1 1 .1.6 0 1.1-.1l1.1-.2q.6-.2 1.1-.5.4-.2.9-.6.4-.3.8-.7.5-.4.8-.8l.7-.9.6-1q.2-.6.5-1.1.2-.6.4-1.1l.4-1.2q.1-.5.3-1.1l.2-1.1.2-1.1q0-.5.1-1.1V104.5q-.1-.5-.1-.9l-.2-.8q-.2-.4-.3-.8zm-7-41.5 8.1-49h11.4l-8.1 49zm-18.5 0 .9-5.8h-.3q-.3.4-.6.9l-.6.8q-.3.4-.7.8-.4.3-.8.7-.9.8-1.9 1.4-1 .6-2.1 1t-2.3.6q-1.1.2-2.3.2-1 0-1.9-.1-1-.2-1.9-.4-.9-.3-1.7-.7-.9-.4-1.7-1-.8-.6-1.4-1.3-.7-.7-1.3-1.5-.5-.8-.9-1.7-.4-.9-.7-1.8-.3-1.3-.5-2.5l-.2-2.6q0-1.3.1-2.6t.4-2.5q.2-1.4.5-2.8l.8-2.6q.5-1.3 1.1-2.6.6-1.2 1.3-2.4.6-1 1.3-1.9l1.6-1.6q.8-.8 1.7-1.5.9-.7 1.8-1.2.9-.6 1.8-.9 1-.4 1.9-.7 1-.3 2-.4 1-.1 2-.1.6-.1 1.2 0 .6 0 1.2.2l1.2.2q.5.2 1.1.5l.8.4.8.6q.4.3.7.6l.7.7q.2.4.5.8.2.3.4.7.2.4.4.9.2.4.3.8h.2l1-5.9h11.3l-6 36.3h-11.2zm3.2-23.3q-.1-.5-.3-1-.2-.4-.4-.9-.2-.4-.5-.8l-.7-.7q-.4-.3-.8-.5t-.9-.4q-.4-.2-.9-.2-.5-.1-.9-.1-.6 0-1.1.1l-1 .2-1 .4q-.4.2-.8.5l-.9.7q-.4.4-.8.9-.4.4-.7.8-.3.5-.5 1l-.6 1.2q-.3.7-.5 1.3-.2.6-.3 1.3-.2.7-.3 1.3l-.2 1.3v2.6l.2 1.3q0 .5.2.9.1.5.4.9.2.5.5.9.3.3.6.7.4.3.8.5.4.3.9.4.4.2.9.3h1q.5 0 1-.1.5 0 1-.2l1-.4q.5-.2.9-.5.5-.3.9-.7l.8-.8q.3-.5.7-.9.3-.5.5-1 .4-.6.6-1.2.3-.7.5-1.3.2-.7.4-1.3l.2-1.4q.2-.6.2-1.2.1-.7.1-1.3 0-.7-.1-1.3 0-.7-.1-1.3zm-29.9 81.6q.4.3.9.5l1 .4q.5.1 1.1.1.5.1 1 0h.8q.3 0 .7-.1.3 0 .7-.1.4-.1.7-.2.3 0 .6-.2l.6-.2q.3-.2.6-.3.3-.2.5-.4l.4-.4q.2-.2.3-.5.1-.2.2-.5t.1-.5v-.5q-.1-.3-.2-.5t-.3-.4-.3-.4q-.3-.2-.7-.4-.3-.1-.6-.3l-.8-.2q-.3-.1-.7-.1l-6.2-1.3q-1-.1-2-.4-.9-.3-1.8-.7l-1.8-1q-.8-.6-1.5-1.3-.6-.6-1.1-1.3-.4-.8-.7-1.6-.3-.8-.4-1.6-.2-.9-.1-1.7 0-.9.2-1.9.1-.9.4-1.7.3-.9.8-1.7.5-.8 1.1-1.5.6-.7 1.3-1.3.7-.7 1.5-1.2t1.7-1q.9-.4 1.8-.7 1-.4 2.1-.6 1-.3 2.1-.5t2.2-.2q1.1-.1 2.2-.1 6.9 0 10.8 2.8.9.6 1.6 1.4.8.8 1.3 1.8.6.9.9 2 .3 1 .3 2.1V101.2l-10.2.6q0-.4-.1-.8-.1-.3-.2-.7-.2-.4-.4-.7l-.6-.6q-.3-.2-.8-.4-.4-.2-.8-.3-.5-.1-.9-.1-.5-.1-.9-.1t-.7.1h-.7q-.3.1-.7.2l-.6.2q-.3 0-.6.2l-.6.2-.6.4q-.2.1-.5.4-.2.1-.4.4-.2.2-.3.5-.1.2-.2.5v1q0 .2.1.4.1.3.2.4.2.2.3.4l.6.4q.3.2.6.3.4.1.7.2.3.1.7.2l6.8 1.2 2 .4q.9.3 1.8.7 1 .4 1.8.9.9.6 1.6 1.2.6.6 1.1 1.3.4.6.7 1.4.3.8.4 1.6.1.8.1 1.6 0 .7-.1 1.4t-.3 1.4q-.2.7-.5 1.4t-.7 1.3q-.4.6-.9 1.2l-.9 1.1q-.5.5-1.1.9-.6.5-1.2.9l-1.4.8q-.7.4-1.4.7-.8.3-1.5.6-.8.3-1.6.5t-1.7.3-1.7.3l-1.8.2h-1.7q-1.1.1-2.1 0t-2.1-.3q-1-.1-2-.4-1.1-.3-2-.6-.8-.3-1.6-.7-.7-.4-1.4-.9t-1.3-1.1q-.6-.6-1.2-1.3-.4-.6-.8-1.3-.4-.7-.7-1.5-.2-.8-.3-1.5-.2-.8-.2-1.6v-.4l10.8-.7q0 .4.1.9.1.4.2.9.2.4.5.8t.6.7zm-24.9-17q0-.4-.1-.8-.1-.3-.3-.7-.1-.4-.4-.7-.2-.3-.5-.6l-.8-.4q-.4-.2-.9-.3-.4-.1-.8-.1-.5-.1-.9-.1t-.7.1-.7.1-.7.1q-.3.1-.7.2-.3 0-.6.2l-.6.2q-.2.2-.5.4t-.5.4q-.2.1-.4.4-.2.2-.3.5-.1.2-.2.5t-.1.6q0 .2.1.4 0 .2.1.4.1.3.2.4.1.2.3.4l.6.4q.3.2.6.3.3.1.7.2.3.1.7.2l6.8 1.2q1 .2 1.9.4 1 .3 1.9.7.9.4 1.8.9l1.6 1.2q.6.6 1 1.3.5.6.8 1.4.3.8.4 1.6.1.8 0 1.6 0 .7-.1 1.4t-.3 1.4q-.2.7-.5 1.4t-.6 1.3q-.4.6-.9 1.2-.4.5-1 1.1-.5.5-1 .9-.6.5-1.2.9l-1.4.8q-.7.4-1.5.7-.7.3-1.5.6-.7.3-1.5.5-.9.2-1.7.3-.9.2-1.8.3l-1.7.2h-1.7q-1.1.1-2.1 0-1.1-.1-2.1-.3-1.1-.1-2.1-.4l-2-.6q-.8-.3-1.5-.7-.8-.4-1.5-.9l-1.3-1.1q-.6-.6-1.1-1.3-.5-.6-.9-1.3-.3-.7-.6-1.5-.2-.7-.4-1.5-.1-.8-.1-1.6v-.4l10.7-.7q0 .4.1.9.1.4.3.9.2.4.5.8.2.4.6.7.4.3.9.5l1 .4q.5.1 1 .1.6.1 1.1 0h1.4l.8-.2q.3 0 .7-.1l.6-.2q.3-.2.6-.3.3-.2.6-.3.2-.2.5-.4l.4-.4q.2-.2.3-.5.1-.2.2-.5t.1-.5q0-.3-.1-.5 0-.3-.1-.5t-.3-.4-.3-.4q-.4-.2-.7-.4-.3-.1-.7-.3-.3-.1-.7-.2-.4-.1-.7-.1l-6.2-1.3q-1-.1-2-.4-1-.3-1.9-.7-.9-.5-1.7-1-.8-.6-1.6-1.3-.6-.6-1-1.3-.5-.8-.8-1.6-.3-.8-.4-1.6-.1-.9 0-1.7 0-.9.1-1.8.2-1 .5-1.8.3-.9.8-1.7.4-.8 1-1.5.7-.7 1.4-1.3.7-.7 1.5-1.2t1.7-.9q.8-.5 1.7-.8 1.1-.3 2.1-.6 1.1-.3 2.2-.5t2.2-.2q1.1-.1 2.2-.1 6.9 0 10.7 2.8 1 .6 1.7 1.4.8.8 1.3 1.8.5.9.8 2 .3 1 .4 2.1V101.2zm-2.2-43.1q-.9.6-1.8 1.1-.9.4-1.9.8-1 .3-2.1.4-1 .2-2 .2-1.1 0-2.1-.2-1-.1-2-.5-1-.3-2-.7-.9-.5-1.7-1.1-.9-.7-1.7-1.4-.8-.8-1.5-1.6-.7-.9-1.3-1.8-.5-.9-1-1.9-.5-1.2-.9-2.3-.4-1.2-.6-2.4-.3-1.2-.4-2.5-.1-1.2-.1-2.5 0-1.2.1-2.4.1-1.3.4-2.5.2-1.2.6-2.4.4-1.1.9-2.3.5-1 1-1.9.6-.9 1.3-1.8.7-.8 1.5-1.6.8-.7 1.7-1.3 1.7-1.2 3.7-1.9 2-.6 4.1-.6 2 0 4 .6 2 .7 3.8 1.9.8.6 1.6 1.4.8.7 1.5 1.6.7.8 1.3 1.7l1 2q.5 1.1.9 2.3.3 1.1.6 2.3.3 1.3.4 2.5.1 1.2.1 2.4 0 1.3-.1 2.5-.1 1.3-.4 2.5-.2 1.2-.6 2.4-.4 1.1-.9 2.3-.5 1-1 1.9-.6.9-1.3 1.8-.7.8-1.5 1.6l-1.6 1.4zm4.1-25.2q-.4-.9-1-1.7-.5-.9-1.1-1.7-.6-.7-1.3-1.4-.7-.7-1.5-1.3-1.6-1.1-3.4-1.7-1.7-.6-3.6-.6-1.9 0-3.7.6-1.8.6-3.3 1.7-.8.6-1.6 1.3-.7.7-1.3 1.4-.6.8-1.1 1.7-.6.8-1 1.7l-.8 2.2q-.3 1-.5 2.1-.3 1.2-.4 2.3-.1 1.1-.1 2.2 0 1.2.1 2.3.1 1.2.3 2.3l.6 2.2q.4 1.1.8 2.1.4.9.9 1.8l1.2 1.6q.6.8 1.3 1.5.7.7 1.5 1.3l1.6 1q.9.4 1.8.7.9.3 1.8.4.9.2 1.9.1.9.1 1.8-.1 1-.1 1.9-.4.9-.3 1.7-.7l1.6-1q.8-.6 1.5-1.3.7-.7 1.3-1.5.6-.8 1.1-1.6.6-.9 1-1.8.4-1 .8-2.1.3-1.1.5-2.2.3-1.1.4-2.3.1-1.1.1-2.3 0-1.1-.1-2.2t-.4-2.3q-.2-1.1-.5-2.2-.4-1-.8-2.1zm-37.1 57.9q.8.3 1.5.7.7.4 1.3.9.7.4 1.3 1 .6.5 1.1 1.2.5.6.8 1.3.4.7.6 1.5.3.8.4 1.6.1.7.1 1.5 0 .9-.1 1.6-.1.8-.4 1.6-.3.8-.7 1.4-.4.7-1 1.3l-1.4 1.2q-.7.5-1.5.9t-1.7.8q-.8.3-1.7.5-1.2.3-2.5.6l-2.5.4q-1.3.2-2.5.3-1.3.2-2.6.2-2.9.2-6.2.3v1.3q0 .4.1.9 0 .4.1.9.1.4.2.9.1.3.3.7.2.3.4.7.2.3.5.6.3.2.6.5.5.2.9.4.5.2 1 .3.5.1 1 .1.5.1 1 .1.6 0 1.1-.1.6 0 1.2-.2.6-.1 1.1-.3.5-.2 1.1-.5.4-.2.8-.5t.7-.7l.6-.8q.3-.4.4-.9l10.3.8q-.4 1.3-1 2.5-.7 1.1-1.5 2.2t-1.8 2q-1 .9-2.2 1.6-1.3.8-2.7 1.4-1.4.6-2.9 1t-3 .6q-1.6.2-3.1.1-1.2.1-2.3 0-1.1-.1-2.2-.4-1.2-.2-2.2-.6-1.1-.3-2.2-.8-.8-.4-1.7-1-.8-.5-1.5-1.2t-1.3-1.5q-.6-.7-1.1-1.6-.5-1-.9-2-.3-1-.6-2.1-.2-1-.2-2.1-.1-1.1-.1-2.2l.2-2.2q.1-1.1.3-2.2.2-1 .5-2.1t.7-2.1q.4-.9.9-1.9l1-1.8q.6-.9 1.2-1.7.6-.8 1.4-1.6.7-.8 1.4-1.5.8-.6 1.7-1.2.8-.6 1.7-1.2.9-.5 1.9-.9 1-.4 2.1-.8 1-.3 2.1-.5t2.2-.3q1.1-.2 2.2-.1h1.9q.9.1 1.8.3.9.1 1.8.4.9.2 1.8.5zm-4.7 7.9q-.5-.2-.9-.4-.5-.2-.9-.3-.5-.1-1-.1-.5-.1-1 0-.6-.1-1.2 0-.7.1-1.3.3l-1.2.4q-.5.3-1.1.7l-.8.8q-.4.4-.8.9l-.6 1q-.3.5-.5 1-.1.3-.2.5-.1.3-.2.5-.1.3-.2.5 0 .3-.1.5c1.2 0 2.4-.1 3.4-.1q.7 0 1.5-.1.8 0 1.6-.1l1.5-.2 1.5-.2.8-.2.8-.2q.4-.2.7-.4.4-.2.7-.4.2-.2.3-.4.2-.2.3-.5.1-.2.1-.5.1-.3.1-.5 0-.4-.1-.8l-.2-.6q-.2-.4-.5-.6-.2-.3-.5-.5zm3.2-48.1h-.1q-.2.7-.5 1.4l-.6 1.4q-.4.6-.8 1.3-.4.6-.8 1.1-.5.6-1 1.1-.5.5-1 .9-.6.5-1.2.8-.6.4-1.2.7l-1.4.6q-.6.2-1.3.4l-1.5.2q-.7.1-1.4.1-1 0-2-.2-1-.1-2-.4-.9-.3-1.8-.8t-1.8-1.1q-.8-.6-1.5-1.4-.8-.7-1.4-1.6-.7-.8-1.2-1.8-.5-.9-.9-1.9-.4-1.1-.8-2.3l-.6-2.4q-.2-1.2-.3-2.5-.1-1.2-.1-2.5 0-1.2.1-2.4t.3-2.5l.6-2.4q.4-1.1.8-2.3.4-1 1-1.9.5-.9 1.1-1.8l1.4-1.6q.7-.7 1.6-1.4.8-.6 1.7-1 .9-.5 1.8-.8 1-.3 2-.5 1-.1 2-.1.7 0 1.4.1.7 0 1.5.2.7.2 1.3.4.7.2 1.4.5.6.3 1.2.7l1.2.8 1 1 1 1 .8 1.2q.5.6.8 1.3.3.6.6 1.3.3.7.5 1.4h.1V11.4h1.6v49h-1.6v-9.2zm-1.5-17.7-.8-1.8q-.5-.8-1.1-1.6-.5-.8-1.2-1.5l-1.4-1.2q-1.5-1.1-3.2-1.7-1.8-.6-3.6-.6t-3.6.6q-1.7.6-3.2 1.7l-1.4 1.2q-.7.7-1.2 1.5-.6.8-1.1 1.6l-.8 1.8q-.4 1-.7 2.1-.3 1.1-.5 2.2-.2 1.2-.3 2.3-.1 1.1-.1 2.2 0 1.2.1 2.3.1 1.2.3 2.3.2 1.1.5 2.2t.7 2.1l.8 1.8q.5.8 1.1 1.6.5.8 1.2 1.5t1.4 1.3q1.5 1.1 3.2 1.7 1.8.5 3.6.5 1.9 0 3.6-.5 1.7-.6 3.2-1.7.8-.6 1.4-1.3.7-.7 1.3-1.5l1-1.6.8-1.8q.4-1 .7-2.1.3-1.1.5-2.2.2-1.2.3-2.3.1-1.1.1-2.3 0-1.1-.1-2.2t-.3-2.3q-.2-1.1-.5-2.2t-.7-2.1zm-28.5 42.8q1.8 0 3.3.1.4.1.8.1.3 0 .7.1.4 0 .7.1.4.1.7.2l-2.5 8.5q-.2-.1-.4-.1t-.4-.1h-.8q-.8-.1-2-.1-.4 0-.8.1-.4 0-.8.1-.4.2-.7.4-.4.2-.7.4-.3.3-.6.7-.2.4-.4.7-.2.4-.3.9l-.2.8-.2 1.6h7.6l-1.4 8.5h-7.6l-4.8 28.8q-.1 1-.4 2-.2.9-.6 1.9-.3.9-.8 1.8-.4.9-.9 1.8-.5.7-1.1 1.4l-1.2 1.2q-.7.6-1.4 1.1-.8.5-1.6.9t-1.8.7q-.9.3-1.9.5-.9.2-1.9.3h-4.1q-1 0-2-.1l-1.7-.2 2.1-8.7q.6 0 1.4.1.2.1.4.1h2q.5-.1.9-.2l.8-.4q.4-.2.7-.5.4-.4.7-.8l.4-.8.4-1q.1-.4.1-.9l4.8-29h-6.5l1.5-8.5h6.4l.2-.8q.1-1 .4-2 .2-1 .6-1.9.3-1 .8-1.9.4-.9 1-1.7.5-.8 1.1-1.4.6-.7 1.3-1.3.6-.6 1.4-1.1.7-.4 1.6-.8.9-.4 1.8-.7 1-.3 2-.5.9-.2 1.9-.3 1-.1 2-.1zm-8.6-40.1q.1-1.1-.1-2.2t-.6-2.1q-.4-1.1-1-2-.6-.9-1.4-1.7-.8-.8-1.8-1.4-.9-.6-2-1-1-.4-2.1-.5-1.1-.2-2.3-.2-.8 0-1.5.1-.8.1-1.6.3-.8.1-1.5.4-.8.3-1.5.7-.6.3-1.3.7-.6.4-1.1.9-.5.5-1 1.1-.5.6-.9 1.2t-.7 1.3q-.3.7-.5 1.5-.2.7-.2 1.4-.1.8-.1 1.5v24.2h-1.5V24.1h1.5v6.8q.3-.8.7-1.6.4-.7 1-1.4.5-.6 1.2-1.2.6-.5 1.4-1 .8-.5 1.8-.9.9-.4 1.9-.7.9-.2 1.9-.4 1-.1 2-.1.9 0 1.8.1.8.1 1.7.3.8.2 1.6.5t1.6.7q.7.4 1.3.9.7.5 1.3 1l1 1.2q.5.6.9 1.3l.8 1.6q.3.8.5 1.6.2.9.3 1.7.1.9.1 1.7v24.2h-1.6V36.2zm-27 55.9q.9.5 1.7 1 .8.6 1.5 1.3.7.7 1.2 1.4.6.8 1.1 1.7.5.9.9 1.9l.6 2q.2 1.1.3 2.1.1 1.1.1 2.1 0 1.1-.1 2.2l-.2 2.1q-.2 1-.5 2.1-.2 1-.6 2-.3 1-.8 1.9-.4 1-.9 1.8l-1.2 1.8-1.2 1.6q-.7.8-1.5 1.5t-1.6 1.3q-.9.6-1.8 1.1-.9.6-1.8 1l-2.2.8q-1 .3-2.2.6-1.1.2-2.2.3-1.2.1-2.3.1-1.2 0-2.3-.1-1.1-.1-2.2-.3-1.1-.3-2.2-.7-1.1-.3-2.1-.8l-1.6-1q-.8-.6-1.5-1.3-.7-.7-1.3-1.5-.6-.7-1.1-1.6-.5-.9-.9-1.9l-.6-2q-.2-1.1-.3-2.1-.1-1.1-.1-2.1 0-1.1.1-2.2l.2-2.1q.2-1.1.5-2.1.3-1.1.6-2.1.4-.9.8-1.9l1-1.8q.5-.9 1.1-1.7.6-.9 1.3-1.7.7-.7 1.5-1.4t1.6-1.3l1.8-1.2q.9-.5 1.8-.9 1.1-.5 2.1-.8l2.2-.6q1.2-.2 2.3-.3 1.1-.1 2.3-.1 1.1 0 2.2.1t2.2.3q1.1.3 2.2.7 1.1.3 2.1.8zm-13.4 8.3q-.5.3-.9.7-.4.4-.7.8l-.7.9-.6 1q-.2.5-.5 1.1-.2.5-.4 1.1-.2.5-.4 1.1-.2.6-.3 1.2l-.2 1-.2 1.1q-.1.6-.1 1.1v1.2q-.1.6 0 1.2l.2 1.2q.2.6.5 1.1.3.6.6 1.1.4.4.8.7.5.3 1 .5.5.3 1 .4.5.1 1.1 0h1.1q.5-.1 1.1-.3l1-.4q.5-.3.9-.6.5-.4.9-.8t.7-.8q.4-.4.7-.9l.6-1q.3-.5.5-1.1.2-.5.4-1.1.2-.5.4-1.1.2-.6.3-1.2l.2-1.1.2-1q.1-.6.1-1.1v-2q0-.4-.1-.9l-.2-.8q-.1-.4-.3-.8-.1-.3-.3-.6l-.4-.6-.5-.5-.6-.4-.6-.4q-.3-.1-.7-.2-.3-.1-.7-.1-.4-.1-.7-.1-.6 0-1.1.1-.6.1-1.1.3-.6.1-1.1.4-.5.2-.9.6zm2-47.3h-.1q-.5 1.2-1.3 2.2-.7 1.1-1.6 2-1 .9-2.1 1.6-1 .7-2.2 1.2-1.3.6-2.7.8-1.4.3-2.8.3-1.4-.1-2.7-.4-1.4-.3-2.7-.8-1.3-.6-2.4-1.6-1.1-1-1.9-2.2-.7-1.2-1.1-2.7-.4-1.4-.3-2.8v-.9q.1-.5.1-.9.1-.5.2-.9.2-.5.3-.9l.4-.8q.3-.4.5-.8.3-.4.6-.7.3-.3.7-.6.5-.4 1-.7l1-.6q.6-.3 1.1-.5l1.2-.4q.8-.3 1.7-.5.8-.2 1.7-.4.9-.2 1.7-.3.9-.2 1.8-.3 2.6-.3 4.9-.7l1-.2q.4-.1.9-.2.5-.2.9-.4.5-.2.9-.4.3-.1.5-.4.3-.2.5-.5t.3-.6q.1-.4 0-.7v-1.9q.1-.6 0-1.3-.1-.6-.3-1.2-.1-.7-.4-1.3-.2-.6-.6-1.1-.3-.5-.7-1-.4-.5-.9-.9l-1-.8q-.5-.3-1.1-.6-.6-.3-1.3-.5-.7-.3-1.4-.4-.7-.2-1.4-.2-.7-.1-1.4-.1-.6 0-1.3.1-.6 0-1.2.1-.7.1-1.3.3l-1.2.4q-.5.2-1 .5-.5.2-1 .5t-.9.7q-.5.4-.9.8t-.7.8q-.3.4-.6.9t-.5 1q-.2.5-.3 1.1l-1.5-.5.4-1.2q.2-.6.6-1.1.3-.6.6-1.1.4-.5.9-.9.4-.5.9-.9t1.1-.8q.5-.3 1.1-.6l1.2-.6 1.4-.4q.7-.2 1.4-.3.7-.2 1.4-.2.7-.1 1.4-.1.6 0 1.3.1.6 0 1.2.1.7.1 1.3.3.6.1 1.2.3.5.2 1 .5.5.2 1 .5t.9.6l.9.7q.4.4.7.8.4.4.7.8.3.5.6.9l.4 1 .4 1q.2.6.3 1.1.1.6.1 1.1.1.6.1 1.1v25.9h-1.6v-7.3zm0-13.7-.3.3-.4.2q-.2.1-.5.2l-.4.2q-.2.1-.5.2t-.5.2-.5.2q-.3.1-.6.1-1.2.3-2.6.6-1.5.2-3.2.4l-1.9.2-2 .4q-.9.2-1.9.5-.9.3-1.9.6-.6.2-1.1.5-.6.3-1.1.7-.5.3-1 .8-.4.4-.8.9-.3.4-.5.9-.3.5-.4 1-.2.6-.3 1.1v1.1q0 .6.1 1.2 0 .6.2 1.2.2.7.4 1.2.3.6.6 1.1.3.5.7 1 .4.4.9.8.4.4.9.8.5.3 1.1.5.5.3 1.2.5l1.2.4 1.3.2q.6.1 1.3 0 .8.1 1.6-.1.9-.1 1.7-.3.8-.2 1.5-.6.8-.3 1.5-.8.7-.4 1.4-1 .7-.5 1.2-1.2.6-.6 1.1-1.4.5-.7.9-1.5t.7-1.8q.4-.9.6-1.9.2-1 .3-2 .1-1 .1-2s0-5.6-.1-5.6zm-30.2 57.9h.3q.3-.8.7-1.5.4-.7.9-1.4.6-.7 1.2-1.3.6-.5 1.3-1 .6-.5 1.3-.8.6-.3 1.3-.5.8-.2 1.5-.3.7-.1 1.5-.1h1.7q.2.1.3.1h.4q.2.1.4.1t.4.1l-1.7 9.8q-.2 0-.5-.1-.2-.1-.5-.1-.2 0-.5-.1h-.5q-1.3-.1-2.4-.1-1 0-2 .2t-1.9.7q-.9.4-1.6 1.1-.8.6-1.4 1.5-.3.4-.6.9-.2.4-.4.9l-.4 1-.2 1.1-3.2 19.6h-11.5l6.1-36.3h11zm-4.9-39.2q.4.3.9.6t1.1.4q.6.1 1.2.1.5 0 1.1-.2l.7-.1q.4-.1.7-.1l.3 1.5q-.3 0-.7.1-.4 0-.8.1-3.6.7-5.6-1.3-.5-.6-.9-1.3-.4-.7-.7-1.4-.2-.7-.3-1.5-.1-.8-.1-1.5V25.6h-5.4v-1.5h5.4v-9h1.5v9h7.6v1.5h-7.6v29.1q.1.6.3 1.2.2.6.5 1.2l.8 1zm-32.1-.9q.7.5 1.6.9.8.4 1.7.7.9.3 1.8.4.9.2 1.9.2.6 0 1.2-.1.6 0 1.2-.1.6-.2 1.1-.3.6-.2 1.2-.5.4-.2.9-.4t.9-.5l.8-.6q.5-.3.8-.7.4-.3.7-.6l.6-.6q.2-.3.5-.7.3-.3.5-.7.2-.2.3-.5.1-.2.3-.4.1-.3.2-.5l.2-.6 1.4.6-.2.6q-.2.3-.3.5-.1.3-.3.6-.2.2-.3.5l-.6.8q-.3.4-.6.7-.3.4-.7.7-.3.4-.7.7-.4.4-.9.8-.4.3-.9.6-.5.4-1 .6-.5.3-1.1.5-.6.3-1.2.5-.7.2-1.3.3-.7.2-1.4.2-.6.1-1.3.1-1.1 0-2.1-.2-1-.1-2-.4-1-.3-2-.8-.9-.4-1.7-1.1-.9-.6-1.7-1.3-.8-.8-1.5-1.6-.7-.9-1.3-1.8-.5-.9-1-1.9-.5-1.1-.9-2.3-.4-1.2-.6-2.4-.3-1.2-.4-2.4-.1-1.3-.1-2.5t.1-2.5q.1-1.2.4-2.4.2-1.2.6-2.4.4-1.2.9-2.3.5-1 1-1.9.6-.9 1.3-1.8.7-.8 1.5-1.6.8-.7 1.7-1.3.8-.6 1.7-1.1 1-.5 2-.8 1-.3 2-.4 1-.2 2.1-.2.6 0 1.3.1.7 0 1.3.2.7.1 1.3.3.7.2 1.3.5.5.2 1 .5.6.2 1 .6l1 .6q.4.4.9.8.3.3.7.6.3.4.6.7l.6.8q.3.4.5.8.2.2.4.5.1.3.3.5l.2.6q.2.3.3.6l-1.4.5q-.1-.2-.2-.5-.1-.2-.3-.5-.1-.2-.2-.5-.2-.2-.3-.4-.3-.4-.5-.7-.3-.4-.5-.7l-.6-.6q-.3-.3-.7-.6-.3-.4-.7-.7-.4-.3-.9-.6-.4-.3-.9-.5-.4-.2-.9-.5-.5-.2-1.1-.4-.6-.1-1.2-.3-.5-.1-1.1-.1-.6-.1-1.2-.1-1 0-1.9.2-.9.1-1.8.4-.9.3-1.7.7-.9.4-1.6 1-.8.5-1.6 1.2-.7.7-1.3 1.5-.6.8-1.1 1.6-.6.8-1 1.7l-.8 2.2-.6 2.2q-.2 1.1-.3 2.2-.1 1.2-.1 2.3 0 1.1.1 2.3.1 1.1.3 2.2.3 1.2.6 2.3.4 1 .8 2.1.4.9 1 1.7.5.9 1.1 1.6.6.8 1.3 1.5.8.7 1.6 1.3zm5.5 20.8q1.2-.1 2.4.1 1.2.1 2.4.3 1.2.3 2.3.7 1.1.4 2.2 1 .8.5 1.6 1.1.8.6 1.5 1.4.7.8 1.2 1.6.5.9.9 1.8.4 1 .7 2.1.2 1.1.3 2.3.1 1.1 0 2.2 0 1.1-.3 2.3-.1 1.1-.5 2.3-.3 1.2-.8 2.3-.4 1.1-1 2.1-.6 1.1-1.3 2-.7 1-1.6 1.8-.8.9-1.7 1.6-.9.8-1.9 1.4-1 .6-2.1 1.1-1.2.5-2.4.9-1.3.4-2.5.7l-2.6.4q-1.3.1-2.6.1h-8.1l-2.6 15.4H148l8.1-49h20zm-6.1 24.3q.6 0 1.2-.1.6 0 1.2-.2.6-.1 1.2-.3.5-.1 1.1-.4.4-.2.9-.5l.8-.6q.4-.3.8-.7.3-.4.7-.8.3-.4.5-.9.3-.4.5-.9t.3-1l.2-1.1q.1-.5.1-1 .1-.4 0-.9 0-.5-.1-1t-.3-1q-.1-.4-.4-.7-.2-.4-.5-.7-.3-.4-.7-.6-.3-.3-.7-.5-.5-.3-1-.4-.6-.2-1.1-.3l-1.1-.2h-7.4l-2.5 14.8h6.3zm-42.1-51.4q.4.9.9 1.8t1.2 1.7q.6.8 1.3 1.5.7.7 1.5 1.3 1.5 1 3.2 1.6 1.6.6 3.4.7 1.7.2 3.5-.1 1.7-.3 3.3-1 .6-.3 1.1-.6.5-.3 1-.7.5-.3.9-.7.5-.4.9-.9l.7-.7q.3-.4.5-.8l.6-.8q.2-.4.4-.9l1.3.7q-.2.5-.5 1t-.6.9q-.3.5-.7.9-.3.5-.7.9-.5.5-1 .9-.5.5-1.1.8-.5.4-1.1.8l-1.2.6q-1.7.8-3.6 1.1-1.9.3-3.8.1-1.9-.1-3.7-.7-1.8-.7-3.4-1.7-.9-.6-1.7-1.4-.8-.7-1.5-1.6-.7-.8-1.3-1.8-.6-.9-1-1.9-.5-1.1-.9-2.3-.4-1.2-.6-2.4-.3-1.2-.4-2.5-.1-1.2-.1-2.4 0-1.3.1-2.5t.4-2.4q.2-1.2.6-2.4.4-1.2.9-2.3.4-1 1-1.9.6-1 1.3-1.8.7-.9 1.5-1.6.8-.8 1.6-1.4.9-.6 1.8-1.1 1-.5 2-.8 1-.3 2-.4 1-.2 2.1-.2.7 0 1.5.1t1.5.3q.8.1 1.5.4.8.2 1.4.6.7.3 1.4.7.6.4 1.2.9l1.2 1q.5.6 1 1.1.5.7 1 1.3l.8 1.4q.4.7.8 1.5.3.7.5 1.5.3.9.5 1.7.3.9.4 1.8l.2 1.8q.1.9.1 1.8v.8h-28.8q0 1.2.1 2.3.1 1.1.3 2.2.3 1 .6 2.1t.7 2.1zm25.5-10.2q0-1-.1-2-.1-.9-.3-1.9-.3-1-.6-1.9-.3-1-.7-1.9-.4-.8-.9-1.6-.5-.9-1.1-1.6-.6-.7-1.3-1.4-.7-.6-1.5-1.2-1.5-1.1-3.3-1.6-1.8-.6-3.7-.6-1.8.1-3.6.6-1.8.6-3.3 1.7-.8.5-1.5 1.2t-1.4 1.5q-.6.7-1.1 1.6-.5.8-1 1.7-.4.9-.7 1.8-.3.9-.5 1.8-.3 1-.4 1.9l-.2 1.9h27.2zm-40.1-4.5q.1-1.2-.1-2.3-.2-1.1-.6-2.1-.4-1-1-2-.6-.9-1.4-1.7-.8-.8-1.8-1.4-.9-.6-2-.9-1-.4-2.1-.6-1.2-.2-2.3-.2-.8 0-1.6.1t-1.5.3l-1.6.4q-.7.3-1.4.7-.7.3-1.3.7-.6.5-1.1 1-.6.5-1 1-.5.6-.9 1.2-.4.7-.7 1.4-.3.7-.5 1.4t-.3 1.5q-.1.7 0 1.5v24.2h-1.6V24.1h1.6v6.7q.3-.8.7-1.6.4-.7 1-1.4.5-.6 1.2-1.2.6-.5 1.3-1 .9-.5 1.8-.9 1-.4 1.9-.6 1-.3 2-.4 1-.2 2-.2.9 0 1.8.1.8.1 1.7.3.8.2 1.6.5t1.6.7q.7.4 1.3.9.7.5 1.2 1 .6.6 1.1 1.2.5.7.9 1.4t.7 1.5q.4.8.6 1.6.2.9.3 1.7.1.9 0 1.8v24.2h-1.5V36.2zm-42 22.4q-.9.6-1.8 1.1-.9.5-1.9.8-1 .3-2 .4-1.1.2-2.1.2-1.1 0-2.1-.2-1-.1-2-.4-1-.3-1.9-.8-1-.5-1.8-1.1-.9-.6-1.7-1.4-.8-.7-1.5-1.6-.7-.8-1.3-1.8-.5-.9-1-1.9-.5-1.1-.9-2.3l-.6-2.4-.4-2.5q-.1-1.2-.1-2.4 0-1.3.1-2.5l.4-2.4q.3-1.3.6-2.4.4-1.2.9-2.3l1-2q.6-.9 1.3-1.7.7-.9 1.5-1.6.8-.8 1.7-1.4 1.7-1.2 3.7-1.8 2-.7 4.1-.7 2.1 0 4.1.7 2 .6 3.7 1.8.9.6 1.6 1.4.8.7 1.5 1.6.7.8 1.3 1.8.5.9 1 1.9.5 1.1.9 2.3.4 1.2.6 2.4.3 1.2.4 2.4.1 1.2.1 2.5 0 1.2-.1 2.4-.1 1.3-.4 2.5-.2 1.2-.6 2.4-.4 1.2-.9 2.3-.5 1-1 1.9-.6.9-1.3 1.8L73 57.2q-.8.8-1.7 1.4zm4.1-25.2q-.4-.9-.9-1.7-.5-.9-1.2-1.6-.6-.8-1.3-1.5-.7-.7-1.5-1.3-1.5-1.1-3.3-1.7-1.8-.6-3.7-.6-1.9 0-3.7.6-1.8.6-3.3 1.7-.8.6-1.5 1.3-.8.7-1.4 1.5-.6.7-1.1 1.6-.5.8-.9 1.8-.5 1-.9 2.1-.3 1.1-.5 2.2-.3 1.1-.4 2.2-.1 1.1 0 2.3-.1 1.1 0 2.2.1 1.2.4 2.3.2 1.1.5 2.2.4 1.1.8 2.1t1 1.8q.5.9 1.1 1.7.6.7 1.3 1.4.7.7 1.5 1.3.8.6 1.6 1 .9.4 1.8.7.9.3 1.8.4 1 .2 1.9.2.9 0 1.9-.2.9-.1 1.8-.4.9-.3 1.7-.7.8-.4 1.6-1T72 56q.7-.7 1.3-1.5.7-.7 1.2-1.6.5-.8.9-1.8t.8-2.1l.6-2.2q.2-1.1.3-2.3.1-1.1.1-2.2 0-1.2-.1-2.3-.1-1.1-.3-2.2-.3-1.2-.6-2.2l-.8-2.2zm30.7 56.8q.7-.1 1.3 0 .7 0 1.3.1.6.1 1.2.3l1.2.4q.6.2 1.1.4.5.2 1 .5t.9.7l.9.7q.4.3.7.7l.7.9q.3.4.5.9.3.5.5.9.2.6.4 1.1l.2 1.1.2 1.1v27h-1.5v-7.4h-.2q-.2.6-.5 1.2-.4.5-.7 1.1l-.8 1q-.4.5-.9.9-.5.5-1 .9l-1 .8q-.5.3-1.1.6l-1.2.6q-1.3.5-2.6.8-1.4.2-2.8.2t-2.8-.3q-1.3-.3-2.6-.9-1.3-.6-2.4-1.6-1.1-.9-1.9-2.2-.8-1.2-1.2-2.6-.3-1.4-.3-2.9 0-.4.1-.9 0-.5.1-.9t.2-.9q.1-.4.3-.8.2-.5.4-.9t.5-.7q.3-.4.6-.7.3-.4.7-.7.4-.3 1-.7l1-.6q.5-.2 1.1-.5.6-.2 1.1-.4.9-.3 1.7-.5l1.8-.4q.8-.2 1.7-.3l1.7-.2q2.7-.3 5-.8.5 0 .9-.1.5-.2 1-.3.4-.1.9-.3l.8-.4.6-.4q.3-.3.4-.6.2-.2.3-.6.1-.3.1-.7v-1.8q0-.7-.1-1.3 0-.7-.2-1.3l-.4-1.2-.6-1.2q-.3-.5-.8-1-.4-.5-.8-.9-.5-.4-1-.7-.5-.4-1.1-.7-.7-.3-1.3-.5l-1.4-.4-1.4-.2q-.7-.1-1.5 0h-1.2l-1.3.2-1.2.2-1.2.4q-.6.2-1.1.5-.5.2-1 .6-.4.3-.9.6l-.8.8q-.4.4-.7.8-.4.5-.6 1-.3.4-.5 1l-.4 1-1.4-.5q.1-.6.4-1.1.2-.6.5-1.2.3-.5.7-1l.8-1q.5-.4 1-.9.5-.4 1-.7.6-.4 1.2-.7.6-.3 1.2-.5.6-.3 1.3-.5.7-.2 1.4-.3l1.4-.2q.7-.1 1.4 0zm9 16.7q-.3.1-.5.2l-.6.2q-.2.1-.5.1-.3.1-.5.2-1.2.3-2.7.5-1.4.2-3.1.4-1 .1-2 .3-.9.1-1.9.4-1 .2-1.9.5-1 .2-1.9.6-.6.2-1.2.5l-1 .6-1 .8q-.5.4-.8.9-.4.5-.6 1l-.4 1-.2 1q-.1.6 0 1.1-.1.6 0 1.3.1.6.3 1.2.1.6.4 1.2.2.5.6 1.1.3.5.7.9.4.5.8.9.5.4 1 .7l1 .6q.6.3 1.2.5t1.3.3q.6.2 1.2.2.7.1 1.3.1.9 0 1.7-.1.8-.1 1.6-.4.8-.2 1.6-.5.8-.4 1.5-.8l1.4-1 1.2-1.2q.6-.7 1.1-1.4.4-.7.8-1.5.5-.9.8-1.9.3-.9.5-1.9.2-1 .3-2 .1-.9.1-2v-5.6q-.2.2-.4.3l-.4.2q-.2.2-.4.3l-.4.2zm-103-50.1q1 .6 2.2 1.1 1.1.5 2.3.9 1.1.3 2.4.5 1.2.2 2.4.2.9 0 1.7-.1l1.8-.2q.8-.2 1.7-.5.8-.2 1.6-.5.7-.3 1.4-.7.7-.4 1.3-.8.7-.4 1.3-.9.6-.5 1.1-1.1 1-.9 1.9-2.1.8-1.1 1.5-2.3.6-1.3 1.1-2.6.5-1.3.8-2.7h1.5q-.1.7-.3 1.4-.1.7-.4 1.4-.2.7-.5 1.3-.3.7-.6 1.3-.3.7-.7 1.4-.4.7-.9 1.4l-1 1.2q-.5.6-1.1 1.2-1.2 1.3-2.8 2.3-1.5 1.1-3.2 1.8-1.7.7-3.5 1-1.8.3-3.7.3-1.4 0-2.8-.2t-2.7-.6q-1.4-.4-2.7-1-1.2-.6-2.4-1.4Q9.6 57 8.6 56q-1.1-1-2-2.1-.9-1.1-1.6-2.3-.8-1.2-1.3-2.6-.7-1.5-1.2-3.1t-.8-3.3q-.4-1.7-.5-3.3-.1-1.7-.1-3.4t.1-3.4q.1-1.7.5-3.3.3-1.7.8-3.3.5-1.6 1.2-3.2.5-1.3 1.3-2.5.7-1.3 1.6-2.4.9-1.1 2-2.1 1-1 2.2-1.8 1.2-.8 2.4-1.4 1.3-.6 2.7-1 1.3-.4 2.7-.6 1.4-.2 2.8-.2 1 0 2 .1.9.1 1.9.3 1 .2 1.9.5.9.2 1.8.6l1.6.8q.7.4 1.4.9l1.4 1 1.2 1.2q.6.6 1.1 1.2l1 1.2q.5.7.9 1.4.4.6.7 1.4.3.6.6 1.3.3.6.5 1.3.3.7.4 1.4l.4 1.4h-1.6q-.1-.7-.3-1.3-.2-.7-.4-1.3-.2-.7-.5-1.3l-.6-1.2q-.3-.6-.7-1.3l-.8-1.2q-.5-.5-1-1.1-.4-.5-1-1c-1.4-1.4-3-2.4-4.7-3.2-1.8-.8-3.6-1.3-5.5-1.5-2-.2-3.9 0-5.7.4-1.9.5-3.7 1.3-5.3 2.3q-1.1.7-2.1 1.6-1 .9-1.9 1.9-.9 1-1.6 2.1-.7 1.2-1.3 2.4-.7 1.5-1.2 3.1t-.8 3.2q-.4 1.6-.5 3.3-.1 1.6-.1 3.3 0 1.7.1 3.3.1 1.7.5 3.3.3 1.7.8 3.2.5 1.6 1.2 3.1.6 1.3 1.3 2.4.7 1.1 1.6 2.1.9 1 1.9 1.9 1 .9 2.1 1.6zm460.8 46.8q.4-.9.8-1.9.5-.9 1.1-1.8.5-.9 1.1-1.7l1.4-1.6q.7-.7 1.5-1.4t1.6-1.3q.9-.6 1.8-1.1.9-.6 1.8-1 1-.4 2.1-.7 1-.4 2.1-.6 1.1-.2 2.2-.3 1.1-.1 2.2-.1h1.9q.9.1 1.9.3.9.1 1.8.4.9.2 1.7.6.8.2 1.5.6.7.4 1.4.9l1.2 1q.6.6 1.1 1.2.5.6.9 1.3.3.8.6 1.5.2.8.3 1.6.1.8.1 1.6t-.1 1.6q-.1.8-.4 1.5-.3.8-.7 1.5-.4.6-1 1.2-.6.7-1.4 1.2-.7.5-1.5.9-.8.5-1.6.8-.9.3-1.8.5-1.2.3-2.5.6l-2.5.4-2.5.4-2.5.2q-3 .2-6.3.2v1.3q0 .4.1.9 0 .4.1.9.1.4.2.9.1.4.3.7.2.4.4.7.3.3.5.6.3.3.7.5.4.2.9.4.4.2.9.3l1 .2h1q.6 0 1.2-.1.6 0 1.1-.2.6-.1 1.1-.3.6-.2 1.1-.5.4-.2.8-.5t.7-.7q.4-.4.6-.8.3-.4.5-.9l10.3.8q-.5 1.3-1.1 2.5-.6 1.2-1.5 2.2-.8 1.1-1.8 2-1 .9-2.1 1.6-1.4.8-2.8 1.4-1.4.7-2.9 1.1-1.5.4-3 .5-1.5.2-3.1.2-1.1 0-2.3-.1-1.1-.1-2.2-.3l-2.2-.6q-1.1-.4-2.1-.9-.9-.4-1.7-.9-.8-.6-1.6-1.3-.7-.6-1.3-1.4-.6-.8-1.1-1.7-.5-.9-.8-2-.4-1-.6-2.1-.2-1-.3-2.1-.1-1.1 0-2.2 0-1.1.1-2.2t.3-2.1q.2-1.1.6-2.2.3-1 .7-2.1zm13.7 1.8h1.5l1.6-.2 1.5-.2 1.6-.2.8-.2q.3-.1.7-.2.4-.2.7-.4.4-.2.7-.4l.4-.4q.1-.2.2-.5.1-.2.2-.5v-.5q0-.4-.1-.7 0-.4-.2-.7l-.4-.6q-.3-.3-.6-.5-.4-.2-.9-.4-.4-.2-.9-.3-.5-.1-1-.1-.5-.1-.9 0-.7-.1-1.3 0-.6.1-1.3.3-.6.2-1.1.5-.6.3-1.1.6-.5.4-.9.8t-.7.9q-.4.5-.7 1-.3.5-.5 1.1l-.2.4q-.1.3-.2.5 0 .3-.1.5-.1.3-.2.5c1.3 0 2.4 0 3.4-.1z" style="fill:#262f3c"/><path fill-rule="evenodd" d="M337.6 172.1q-.2-.8-.6-1.5-.4-.8-1-1.4-.6-.6-1.3-1-.8-.4-1.6-.6c-3.9-1.1-19.8-1.1-19.8-1.1s-15.9 0-19.8 1.1q-.8.2-1.6.6-.7.4-1.3 1-.6.6-1 1.4-.4.7-.6 1.5c-1.1 3.9-1.1 12.2-1.1 12.2s0 8.3 1.1 12.3q.2.8.6 1.5.4.7 1 1.3.6.6 1.3 1 .8.4 1.6.7c3.9 1 19.8 1 19.8 1s15.9 0 19.8-1q.8-.3 1.6-.7.7-.4 1.3-1 .6-.6 1-1.3.4-.7.6-1.5c1.1-4 1.1-12.3 1.1-12.3s0-8.3-1.1-12.2z" style="fill:#d30a0a"/><path fill-rule="evenodd" d="m308.3 192 13.3-7.7-13.3-7.7z" style="fill:#fff"/><path fill-rule="evenodd" d="M303.1 185h-24.4q-.3 0-.5-.2-.1-.2-.1-.5t.1-.5q.2-.1.5-.2H303q.3 0 .5.2t.2.5q0 .3-.2.5t-.4.2zm0-5.7h-18.7q-.3 0-.5-.2t-.2-.5q0-.3.2-.5t.5-.2h18.7q.2 0 .4.2t.2.5q0 .3-.2.5t-.4.2zm0 11.4h-18.7q-.3 0-.5-.2t-.2-.5q0-.2.2-.5.2-.1.5-.2h18.7q.2.1.4.3.2.2.2.4 0 .3-.2.5t-.4.2zm10.4 12.3c-.7 0-16.2 0-20.3-1.1q-.9-.2-1.7-.7-.8-.5-1.5-1.1-.6-.7-1.1-1.5-.5-.8-.7-1.7-.1-.3.1-.6.1-.2.4-.3.3 0 .5.1t.3.4q.2.7.6 1.4.4.7.9 1.2t1.2.9q.6.4 1.4.6c3.8 1 19.7 1 19.9 1 .1 0 16 0 19.8-1q.8-.2 1.4-.6.7-.4 1.2-.9t.9-1.2q.4-.7.6-1.4c1-3.9 1-12.1 1-12.2 0-.1 0-8.3-1-12.2q-.2-.7-.6-1.4-.4-.6-.9-1.1-.5-.6-1.2-1-.6-.3-1.4-.5c-3.8-1.1-19.7-1.1-19.8-1.1-.2 0-16 0-19.9 1.1q-.8.2-1.4.5-.7.4-1.2 1-.5.5-.9 1.1-.4.7-.6 1.4-.1.3-.3.5-.2.1-.5 0t-.4-.3q-.2-.3-.1-.5.2-.9.7-1.7.5-.9 1.1-1.5.7-.7 1.5-1.1.8-.5 1.7-.8c4.1-1 19.6-1.1 20.3-1.1.6 0 16.1.1 20.2 1.1q.9.3 1.7.8.8.4 1.5 1.1.6.6 1.1 1.5.5.8.7 1.7c1.1 4 1.1 12.2 1.1 12.5 0 .4 0 8.5-1.1 12.6q-.2.9-.7 1.7-.5.8-1.1 1.5-.7.6-1.5 1.1-.8.5-1.7.7c-4.1 1.1-19.6 1.1-20.2 1.1zm-5.2-10.3h-.2q-.2-.1-.3-.2-.1-.1-.1-.2-.1-.1-.1-.3v-15.4q0-.2.1-.3.1-.2.3-.3.1-.1.3-.1.2 0 .4.1l13.3 7.7q.2.1.2.3.1.1.1.3 0 .2-.1.4 0 .1-.2.2l-13.3 7.7q-.1 0-.1.1H308.3zm.7-14.9v13l11.3-6.5z" class="e"/><path fill-rule="evenodd" d="M209.4 187.8h4v4h3l4 5 5-5h2v-4h5v-4l-2-2h-5l-3 1h-3l-4-2-4 1-2 2z" class="a"/><path fill-rule="evenodd" d="M250.4 166.8v35h-7v-35z" class="f"/><path fill-rule="evenodd" d="M248.5 202.8h-48.3q-.5 0-.9-.1-.4-.2-.7-.5-.3-.3-.4-.7-.2-.4-.2-.8V168q0-.4.2-.8.1-.4.4-.7.3-.3.7-.5.4-.1.9-.1h8.2q.2 0 .4.1.2.2.2.4 0 .3-.2.5-.2.1-.4.1h-8.2q-.2 0-.4.1t-.3.2l-.3.3v33.5l.3.3q.1.1.3.2.2.1.4.1h43.1V167h-9.2q-.3 0-.5-.1-.1-.2-.1-.5 0-.2.1-.4.2-.1.5-.1h14.4q.4 0 .8.1.4.2.7.5.3.3.5.7.2.4.2.8v32.7q0 .4-.2.8t-.5.7q-.3.3-.7.5-.4.1-.8.1zm1-34.8q0-.2-.1-.4-.1-.1-.2-.3-.1-.1-.3-.2-.2-.1-.4-.1h-4v34.7h4q.2 0 .4-.1t.3-.2q.1-.2.2-.3.1-.2.1-.4zm-2.7 17.6c-.6 0-1-.3-1.2-.8-.3-.5-.1-1 .2-1.4.4-.4 1-.5 1.5-.3s.8.7.8 1.2q0 .3-.1.5-.1.3-.3.5l-.4.2q-.3.1-.5.1zm-15.1 7.6H225l-3.8 3.8-.2.1h-.4q-.1-.1-.2-.1l-3.7-3.8h-6.8q-.3 0-.6-.1t-.6-.3q-.2-.3-.3-.5-.2-.3-.2-.7v-6.9q.1-.7.3-1.4.3-.6.8-1.2.4-.5 1-.8.7-.4 1.4-.4l3.2-.6q.3 0 .6-.2.4-.1.6-.4.2-.2.3-.6.2-.3.2-.6v-.6q-.4-.3-.7-.7-.3-.4-.5-.8-.3-.4-.5-.9l-.4-.8h-1.6q-.3 0-.5-.2-.3-.1-.5-.3-.1-.1-.2-.4-.2-.2-.2-.5V170q0-.3.2-.5.1-.3.2-.5.2-.2.5-.3.2-.1.5-.1h.9l-.1-.3v-.1h-.1v-.2q-.8-4 1.2-6.4.6-.6 1.3-1.1.7-.5 1.5-.8.8-.4 1.6-.5.9-.1 1.7-.1 3.9 0 5.8 2.2c1.4 1.5 1.8 4 1.4 7.1v.2h-.1.7q.3 0 .6.1.2.1.4.3.2.2.3.5.1.2.1.5v3.3q0 .3-.1.5-.1.3-.3.4-.2.2-.4.3l-.6.2h-.5q-.1.5-.3.9-.3.5-.6.9l-.8.6q-.5.2-1 .3l-.4.4-.1.1.1.6q0 .3.1.6t.4.6q.2.2.5.4t.6.2l3.3.5q.7.1 1.3.5.6.3 1.1.8.5.6.7 1.2.3.7.3 1.4v6.9q0 .4-.1.7-.2.2-.4.5-.2.2-.5.3-.3.1-.7.1zm-17.6-20.6-.3-2.8h-1l-.1.1v3.5h.1v.1H214.2q0-.1-.1-.2v-.7zm-4.7 19q0 .1.1.2 0 .1.1.1 0 .1.1.1.1.1.2 0h3.3v-2.3q-.1-.1-.1-.2v-.2l-.2-.2q0-.1-.1-.2l-.2-.2q-.1-.1-.3-.1-.1-.1-.2-.1H209.4zm11.5-31.4q-.7 0-1.4.1-.8.1-1.4.4-.7.2-1.3.6-.6.4-1.1 1-.4.5-.7 1.1-.3.6-.4 1.3-.1.6-.1 1.3 0 .6.1 1.3c5 .3 8.7-1.5 10.7-5.2q.1-.2.2-.5l-1-.6q-.6-.3-1.2-.5-.5-.2-1.2-.3h-1.2zm7.8 13.2h.2v-3.6q-.1 0-.1-.1h-1l-.2 2.8v.2q0 .2-.1.3v.4h1.2zm-1.7-6.2q.1-.6.1-1.2t-.1-1.1q-.1-.6-.3-1.1-.1-.6-.4-1.1c-1 2.4-.4 3.5.7 4.5zm-1.8 8.7.4-.8q.3-.4.4-.8.2-.5.3-.9.1-.5.1-1l.3-4q-.4-.3-.8-.7-.3-.3-.6-.8-.3-.4-.4-.9-.2-.5-.3-1c-2.3 2.5-5.6 3.6-9.7 3.5l.3 3.9q.1 1.1.5 2 .3 1 1 1.8.6.8 1.4 1.4.9.6 1.8 1 .2 0 .5.1h.9q.2-.1.4-.1.3-.1.5-.3l.6-.2q.2-.2.4-.3.3-.2.5-.4l-.3.3 1.5-1.4q.1-.2.3-.4zm-1.3 2.8q-.2.2-.4.3-.2.1-.5.2-.2.2-.4.3-.2.1-.5.2t-.6.1q-.3.1-.7.1-.3 0-.6-.1-.4 0-.7-.1l-.4-.2q-.3-.1-.5-.2-.2-.2-.4-.3-.3-.1-.5-.3 0 .3-.1.6t-.3.6q-.1.2-.3.5-.2.2-.5.4c2.9 2.5 5.7 2.5 8.6 0q-.3-.2-.5-.4-.2-.3-.3-.5-.2-.3-.3-.6-.1-.3-.1-.6zm8.3 5.9q0-.5-.2-.9-.2-.5-.5-.9-.3-.3-.8-.6-.4-.2-.9-.3l-3.3-.5q-.1 0-.3-.1c-.6.8-1.5 1.4-2.4 1.9-.9.4-1.9.6-3 .6-1 0-2-.2-3-.6-.9-.5-1.7-1.1-2.4-1.9q-.1.1-.3.1l-3.2.5q-.5.1-1 .3-.4.3-.7.6-.4.4-.6.9-.2.4-.2.9v2.6h2.4q.2 0 .5.1.2 0 .5.1.2.1.4.3.3.1.4.3.2.2.3.4.2.1.2.4l.2.4v2.8H217.1q.1 0 .1.1h.1l3.5 3.6 3.5-3.6h.1q.1-.1.2-.1h2.7v-2.8l.2-.4q.1-.3.2-.4.1-.2.3-.4.2-.2.4-.3.2-.2.4-.3.3-.1.5-.1.3-.1.5-.1h2.4v-2.6zm0 3.8h-2.6q-.2.1-.3.1-.1.1-.3.2-.1 0-.2.1t-.1.2-.1.2-.1.2v2.6H231.9q.1-.1.2-.1 0-.1.1-.2V188.4zm-7.9-17.6H224q-.2-.2-.4-.2-.3-.1-.5-.1-.3 0-.5.1-.2 0-.4.2-.2.1-.5 0-.2-.1-.3-.3-.1-.2-.1-.4.1-.3.3-.4.4-.2.7-.3.4-.1.8-.1t.7.1q.4.1.7.3.2.1.3.3.1.2 0 .4 0 .2-.2.3-.1.1-.3.1zm-2.2 3.6q.2-.2.4-.2.3 0 .4.2.2.2.2.4t-.2.4q-.4.5-.9.7-.6.3-1.2.3t-1.1-.3q-.6-.2-1-.7-.1-.2-.1-.4t.1-.4q.2-.2.4-.2.3 0 .4.2.3.3.6.4.3.2.7.2.4 0 .8-.2.3-.1.5-.4zm-2.3-3.6H219.5q-.2-.2-.5-.2-.2-.1-.4-.1-.3 0-.5.1-.2 0-.4.2-.3.1-.5 0t-.3-.3q-.2-.2-.1-.4.1-.3.3-.4.4-.2.7-.3.4-.1.8-.1t.7.1q.4.1.7.3.2.1.3.3.1.2 0 .4 0 .2-.2.3-.1.1-.3.1z" class="e"/><path fill-rule="evenodd" d="M427.4 196.8v4h-37v-4z" class="f"/><path fill-rule="evenodd" d="M423.1 176.5q.3-.3.3-.7 0-.4-.3-.7-.3-.3-.7-.3h-12q-.4 0-.7.3-.3.3-.3.7 0 .4.3.7.3.3.7.3h12q.4 0 .7-.3zm0-4q.3-.3.3-.7 0-.4-.3-.7-.3-.3-.7-.3h-12q-.4 0-.7.3-.3.3-.3.7 0 .4.3.7.3.3.7.3h12q.4 0 .7-.3zm-13.4 6.6q-.3.3-.3.7 0 .4.3.7.3.3.7.3h12q.4 0 .7-.3.3-.3.3-.7 0-.4-.3-.7-.3-.3-.7-.3h-12q-.4 0-.7.3z" class="a"/><path fill-rule="evenodd" d="M424.6 202.1h-30.8q-.9 0-1.7-.3-.8-.4-1.4-1-.7-.6-1-1.4-.4-.9-.4-1.7.1-.3.3-.5.2-.2.4-.2.3 0 .5.2t.2.5q0 .6.3 1.1.2.6.6 1 .5.5 1 .7.6.2 1.2.2h30.8q.6 0 1.2-.2.5-.2 1-.7.4-.4.6-1 .3-.5.3-1.1v-27.8q0-.6-.3-1.2-.2-.5-.6-1-.5-.4-1-.6-.6-.3-1.2-.3h-30.8q-.6 0-1.2.3-.5.2-1 .6-.4.5-.6 1-.3.6-.3 1.2V185q0 .3-.2.5-.2.1-.5.1-.2 0-.4-.1-.2-.2-.3-.5v-15.1q0-.9.4-1.7.3-.8 1-1.5.6-.6 1.4-.9.8-.4 1.7-.4h30.8q.9 0 1.7.4.8.3 1.4.9.7.7 1 1.5.3.8.3 1.7v27.8q0 .8-.3 1.7-.3.8-1 1.4-.6.6-1.4 1-.8.3-1.7.3zM408.2 182q.1.2 0 .3 0 .2-.1.3-.1.1-.2.1l-5.6 3.3q.1.4.1.7 0 .4-.2.8-.1.3-.3.6-.2.3-.5.5l-1.7 1.1v.1l-8.5 5.4h-.1q-.1.1-.2.1h-.2l-4-1 .1 7.8q0 .2-.1.3 0 .1-.1.2t-.3.2h-19.4q-.2-.1-.3-.2-.1-.1-.1-.2-.1-.1-.1-.3v-13.2q0-.7.3-1.3.2-.7.7-1.2.4-.5 1-.8.6-.3 1.3-.4l.4-.1v-11.7c.1-2.1.9-4.1 2.4-5.6s3.5-2.3 5.6-2.3c2.1 0 4.1.8 5.5 2.3 1.5 1.5 2.4 3.5 2.4 5.6v12q.7.3 1.3.6.7.3 1.3.7l1.2.8q.6.4 1.2.9l6-3 1.8-1q.3-.2.7-.2.3-.1.7 0 .4 0 .7.2.4.2.6.4l5.7-3.3h.3q.1-.1.2 0 .2 0 .3.1l.2.2v.2zm-36.7 2.9 1.1-.2q.3 0 .6-.1l.4-.4q.2-.2.3-.4.1-.3.1-.6v-.7q-.5-.6-.8-1.2-.4-.6-.7-1.3-.3-.7-.4-1.4-.2-.8-.2-1.5v-3.7q0-.2.1-.3 0-.1.1-.2t.3-.2h2q.9-.1 1.7-.3.9-.1 1.7-.4.9-.2 1.7-.6l.1-.1h.2q.1.1.2.1t.2.1q.3.3.7.5.4.3.8.4.5.2.9.2.5.1.9.1h.3l.2.2q.1.1.1.2.1.1.1.3v3.7q0 .8-.2 1.5-.1.7-.4 1.4-.3.7-.7 1.4-.4.6-.9 1.2v.6l.2.6q.1.2.3.4l.4.4q.3.1.5.1.6.1 1.2.3v-11.6c0-1.8-.7-3.4-1.9-4.7a6.6 6.6 0 0 0-4.6-1.9c-1.8 0-3.4.7-4.7 1.9a6.83 6.83 0 0 0-1.9 4.7v11.5zm10.2-4.2q.3-.5.6-1.1l.4-1.2q.1-.6.1-1.3V174q-.4 0-.8-.1-.5-.1-.9-.2-.4-.2-.7-.4-.4-.2-.7-.5-.8.4-1.6.6-.7.2-1.5.4l-1.7.2q-.8.1-1.6.1v3c0 2.8 2.1 5.9 4.8 5.9q.3 0 .7-.1.4 0 .8-.2l.6-.4q.3-.2.6-.5h.1q.4-.5.8-1.1zm-6.5 3.6q-.1.3-.3.6-.2.3-.5.5l-.6.4 4.2 6.5 4.3-6.5-.6-.4q-.3-.2-.5-.5t-.3-.6l-.2-.6q-.6.3-1.3.5-.7.2-1.4.2t-1.4-.2q-.6-.2-1.2-.6-.1.4-.2.7zm23.2 4.7-1.2-2-.1-.1-5.9 2.9q-.1.1-.2.1h-.4l-.2-.2q-.7-.6-1.5-1.2l-1.6-1-1.8-.8q-.9-.3-1.9-.5l-5 7.7q-.1.2-.2.3h-.7q-.2-.1-.2-.3l-5.1-7.7-2.5.4q-.4 0-.8.2t-.7.5q-.2.4-.4.7-.2.4-.2.9v12.5h4.2v-5.1q.1-.3.3-.4.2-.2.4-.2.3 0 .5.2.2.1.2.4v5.1h12l-.1-8v-.3l.2-.2q.1-.1.3-.1.2-.1.3 0l4.6 1zm2.4-1.7.2-.4v-.3l-.2-.4-.1-.2q-.1-.1-.3-.2-.1-.1-.3-.2h-.3q-.2 0-.4.1l-1.1.6.1.1 1.1 1.9 1.1-.8.2-.2z" class="e"/></svg>