<svg id="Agrupar_1_copiar" data-name="Agrupar 1 copiar" xmlns="http://www.w3.org/2000/svg" width="629" height="203" viewBox="0 0 629 203">
  <defs>
    <style>
      .cls-1 {
        fill: #c8ff20;
      }

      .cls-1, .cls-2, .cls-3, .cls-4, .cls-5, .cls-7 {
        fill-rule: evenodd;
      }

      .cls-2 {
        fill: #262f3c;
      }

      .cls-3 {
        fill: #d30a0a;
      }

      .cls-4 {
        fill: #fff;
      }

      .cls-5 {
        fill: #272f3c;
      }

      .cls-6, .cls-7 {
        fill: #5f2ebe;
      }
    </style>
  </defs>
  <g id="text">
    <path id="Forma_1" data-name="Forma 1" class="cls-1" d="M628.928,13.005a2.79,2.79,0,0,1-.442.354c-0.2.081-.39,0.136-0.468-0.34-0.06-.362-0.2-0.264-0.364-0.124a1.257,1.257,0,0,1-1.115.586,0.6,0.6,0,0,0-.453.025,0.5,0.5,0,0,0-.234.217,1.025,1.025,0,0,1-.61.323,0.393,0.393,0,0,0-.233.522,0.325,0.325,0,0,1-.164.422,1.3,1.3,0,0,0-.628.518c-0.1.15-.2,0.16-0.34,0.031a0.647,0.647,0,0,0-.675-0.117,0.456,0.456,0,0,0,.485.271,1.189,1.189,0,0,1,.626.684c0.045,0.352-.144.212-0.233,0.283-0.177.118-.216,0.233-0.006,0.375a0.386,0.386,0,0,1,.227.394,0.244,0.244,0,0,1-.22.274c-0.064.011-.058,0.025-0.034,0.128,0.069,0.3-.042.415-0.2,0.458a0.886,0.886,0,0,1-.164.017c-0.171.015-.259,0.13-0.194,0.441s-0.026.43-.19,0.472a2.23,2.23,0,0,0-.3.1,0.228,0.228,0,0,0-.134.314c0.038,0.174.107,0.287,0.228,0.245a0.768,0.768,0,0,0,.256-0.259c0.107-.128.221-0.2,0.3,0.056,0.069,0.229.149,0.2,0.267,0.112,0.188-.132.28,0,0.236,0.337a0.425,0.425,0,0,0,.079.488,1.92,1.92,0,0,0,.825.309,0.374,0.374,0,0,1,.358.337,0.6,0.6,0,0,1-.2.581,0.74,0.74,0,0,0,.4.028c0.089,0.026.238,0.046,0.2,0.221a1.356,1.356,0,0,0,.285,1.037,2.494,2.494,0,0,1,.025,1.013c-0.044.1-.1,0.145-0.169,0.108a2.783,2.783,0,0,0-.617-0.047,0.292,0.292,0,0,0-.012.263c0.049,0.324-.049.463-0.223,0.5a1.768,1.768,0,0,0-.5.063c0.043,0.161.119,0.1,0.175,0.123a0.456,0.456,0,0,1,.181.458,0.325,0.325,0,0,1-.209.366,2.85,2.85,0,0,1-.953.171,0.28,0.28,0,0,0-.254.127c-0.144.156-.3,0.249-0.46,0.062-0.023-.026-0.053-0.081-0.071-0.05a0.951,0.951,0,0,1-.81.28,1.579,1.579,0,0,1-.227.142,0.35,0.35,0,0,0-.059.473,0.474,0.474,0,0,1,.051.093c0.013,0.035.024,0.073,0.035,0.112a1.292,1.292,0,0,0,.35.627,0.588,0.588,0,0,1,.03.806,2.07,2.07,0,0,0-.317.2,1.149,1.149,0,0,1-.132.127,0.421,0.421,0,0,0-.019.653,0.944,0.944,0,0,0,.715.546,0.263,0.263,0,0,1,.268.2,6.927,6.927,0,0,1,.743,2.04c0.01,0.2.006,0.417-.108,0.377-0.227-.081-0.328.2-0.473,0.355a3.834,3.834,0,0,0-.564.465,6.907,6.907,0,0,1-1.315.423,0.666,0.666,0,0,0-.367.215c-0.163.062-.332,0.044-0.5,0.105a1.232,1.232,0,0,0-1.29.577,0.976,0.976,0,0,1,.539-0.075,0.23,0.23,0,0,1,.076.026,1.131,1.131,0,0,1,.1.082,0.486,0.486,0,0,0,.129.071c0.3,0.123.57,0.423,0.9,0.074,0.249-.266.456,0.083,0.66,0.289,0.091,0.243.338,0.019,0.395,0.4a4.806,4.806,0,0,0,.082.772,0.339,0.339,0,0,1-.111.4,1,1,0,0,1-.813-0.034,0.663,0.663,0,0,0-.513.055c-0.347.082-.668,0.367-1.024,0.429a1.788,1.788,0,0,0-.41.456c-0.111.054-.2-0.022-0.2-0.2-0.006-.317-0.11-0.274-0.222-0.2a0.663,0.663,0,0,1-.275.09,0.952,0.952,0,0,1,.106.014,0.255,0.255,0,0,1,.174.294c-0.113.378,0.04,0.773-.059,1.132-0.047.17,0,.244,0.079,0.272,0.173,0.06.333,0.261,0.529,0.066,0.14-.139.243,0.067,0.327,0.228a0.355,0.355,0,0,1-.081.447A2.609,2.609,0,0,0,620,40.124c0.136-.063.238,0.232,0.157,0.443a0.53,0.53,0,0,0,0,.611,0.517,0.517,0,0,1-.045.465c-0.065.145-.154,0.18-0.245,0.082-0.2-.214-0.32-0.127-0.4.245a1.145,1.145,0,0,1-.2.391c-0.1.156-.2,0.281-0.334,0.071-0.116-.177-0.2-0.058-0.178.172a2.25,2.25,0,0,1-.065.91,0.352,0.352,0,0,0,.108.413,0.4,0.4,0,0,0,.34.248c0.141,0.043.36-.113,0.381,0.263a0.327,0.327,0,0,1-.34.4,1.758,1.758,0,0,0-.932,1.249,0.9,0.9,0,0,1-.47.453c-0.077.036-.158,0.055-0.234,0.1a0.371,0.371,0,0,1-.078.028,1.171,1.171,0,0,0-.5.091c0.109-.019.258-0.068,0.29,0.289a0.729,0.729,0,0,1-.315.683,0.871,0.871,0,0,1-.247-0.016c-0.271,0-.38.194-0.356,0.656a0.988,0.988,0,0,1-.074.486,0.241,0.241,0,0,1-.344-0.015,0.594,0.594,0,0,0-.549-0.1,0.745,0.745,0,0,1,.385.03,0.357,0.357,0,0,1,.253.308,0.654,0.654,0,0,1-.119.535,0.352,0.352,0,0,0-.085.17c0.118,0.112.22,0,.323-0.074,0.065-.05.125-0.058,0.172,0.051a0.276,0.276,0,0,1,.008.22,5.355,5.355,0,0,1-.528,1.281c-0.223.249-.4,0.618-0.626,0.86a0.467,0.467,0,0,1-.145.124,0.414,0.414,0,0,0-.311.446,0.522,0.522,0,0,1-.376.538c-0.1.015-.194,0.118-0.294,0.137a0.539,0.539,0,0,0-.374.618,0.575,0.575,0,0,1-.51.642,0.364,0.364,0,0,0-.365.162,0.282,0.282,0,0,1-.344.127,0.462,0.462,0,0,0-.563.277,0.471,0.471,0,0,1-.386.227,0.525,0.525,0,0,0-.4.3,0.671,0.671,0,0,0-.072.593,1.731,1.731,0,0,1,.08.693c0.115-.1.216-0.228,0.338-0.06a0.9,0.9,0,0,1,.112.641,1.741,1.741,0,0,1-.124.475,1.623,1.623,0,0,1-.775.815,4.877,4.877,0,0,0-.507.206,0.76,0.76,0,0,0-.359.792,3.27,3.27,0,0,1-.179.84,0.215,0.215,0,0,1-.268.183,0.98,0.98,0,0,0-.76.961,1.132,1.132,0,0,1-.284.621c0.032,0.171.126,0.114,0.187,0.169a0.567,0.567,0,0,1,.073.757,4.029,4.029,0,0,1-.638.843,1.512,1.512,0,0,0-.818.585,0.855,0.855,0,0,0-.054.939,3.27,3.27,0,0,1,.176.931,0.209,0.209,0,0,1-.129.253,0.471,0.471,0,0,0-.267.111,0.62,0.62,0,0,1-.1.1,0.463,0.463,0,0,0-.039.435,3.663,3.663,0,0,1-.056.85,1.321,1.321,0,0,0,.089.928,4.467,4.467,0,0,1,.4,1.466c0.02,0.171.151,0.182,0.174,0.35a0.386,0.386,0,0,1-.133.481,5.286,5.286,0,0,1-1.283.5,0.564,0.564,0,0,0-.311.2,0.39,0.39,0,0,1-.684-0.079c-0.079-.114-0.157-0.226-0.271-0.161a0.056,0.056,0,0,0,.023.07,0.389,0.389,0,0,1,.257.459c-0.047.262-.226,0.142-0.345,0.1a0.565,0.565,0,0,0-.411.088c-0.027.019-.053,0.039-0.08,0.061a2.615,2.615,0,0,1-1.446.047,0.122,0.122,0,0,0-.131.035l-0.011-.01a4.8,4.8,0,0,0-.541.213,2.324,2.324,0,0,1-.364.012,0.47,0.47,0,0,0-.636.2,0.3,0.3,0,0,1-.312.138c-0.129-.019-0.219-0.3-0.373-0.149a0.746,0.746,0,0,1-.326.165,0.331,0.331,0,0,1-.107-0.424,0.2,0.2,0,0,0-.166-0.151,2.471,2.471,0,0,0-.621-0.046,0.463,0.463,0,0,1,.1.466c-0.079.178-.2,0.28-0.318,0.21a0.364,0.364,0,0,0-.4.087,1.573,1.573,0,0,1-1.266-.015,0.445,0.445,0,0,0-.543.064,0.3,0.3,0,0,1-.243.083,3.437,3.437,0,0,1-1.272-.119,0.7,0.7,0,0,0-.573.076,2.839,2.839,0,0,1-1.35.092,2.326,2.326,0,0,0-1.333.074,1.011,1.011,0,0,1-.768-0.11,1.3,1.3,0,0,0-.738-0.209,6.015,6.015,0,0,0-1.28.042,2.735,2.735,0,0,1-1.1-.2,8.832,8.832,0,0,0-2.064-.12,7.374,7.374,0,0,1-.9-0.143,0.94,0.94,0,0,1-.658-0.048l-0.909-.156a8.159,8.159,0,0,0-1.6-.174,3.462,3.462,0,0,1-1.377-.218,3.678,3.678,0,0,0-1.851-.145,2.4,2.4,0,0,1-.87-0.2,0.188,0.188,0,0,0-.133-0.044,1.829,1.829,0,0,1-1.746-.039c-0.037-.01.009,0-0.028,0a4.493,4.493,0,0,0-1.253-.1,0.993,0.993,0,0,0-.555.109,0.284,0.284,0,0,1-.346-0.064,0.779,0.779,0,0,0-.968,0,0.444,0.444,0,0,1-.323.139,10.646,10.646,0,0,1-1.272-.218,0.056,0.056,0,0,0-.027-0.012c-0.751.21-1.379-.7-2.128-0.535a1.119,1.119,0,0,1-1.068-.111,0.177,0.177,0,0,0-.2,0l-0.016.61H366.009L373.824,0H568.447a0.137,0.137,0,0,1,.056,0h0.959l-0.012.464c0.04,0.009.081,0.02,0.121,0.028a2.47,2.47,0,0,1,1.2.33c0.079,0.061.18,0.1,0.226-.021,0.129-.336.272-0.218,0.432-0.13a4.481,4.481,0,0,0,1.375.393,0.142,0.142,0,0,0,.178-0.09l0.053,0a4,4,0,0,0,.739-0.182,0.152,0.152,0,0,1,.195.114,1.073,1.073,0,0,0,1.075.6,3.78,3.78,0,0,0,1.068-.036,0.772,0.772,0,0,0,.593-0.277,0.7,0.7,0,0,1,.964-0.173,4.118,4.118,0,0,0,.724.27,3.437,3.437,0,0,1,.419.042,1.383,1.383,0,0,0,.982.142,0.208,0.208,0,0,0,.166-0.191,2.488,2.488,0,0,1,.152-0.432c0.084-.155.261-0.21,0.271-0.055a3.717,3.717,0,0,0,.351.75,0.52,0.52,0,0,0,.212-0.054A1.426,1.426,0,0,0,581.47,1.1c0.19-.2.251-0.134,0.233,0.219-0.007.137,0.034,0.166,0.088,0.161a1.744,1.744,0,0,0,.67.035,1.211,1.211,0,0,1,.772.055c0.072,0,.144,0,0.217,0a7.541,7.541,0,0,1,2,.129,3.454,3.454,0,0,0,1.469.808,0.583,0.583,0,0,0,.409,0,0.531,0.531,0,0,0,.134-0.149c0.077-.1.019-0.41,0.157-0.369a1.045,1.045,0,0,1,.65.178c0.16,0.179.263,0.172,0.433-.007a0.628,0.628,0,0,1,.559-0.279c0.151,0.088.237,0.327,0.4,0.427,0.135,0.085.04,0.3-.043,0.432a1.106,1.106,0,0,0,.368-0.274,0.239,0.239,0,0,1,.384-0.064c0.119,0.112.218,0.059,0.331-.041,0.553-.489.793-0.46,1.212,0.235,0.171,0.285.308,0.263,0.5,0.078a1.818,1.818,0,0,1,.912-0.431c0.173-.043.3,0.036,0.354,0.344a0.457,0.457,0,0,0,.032.123,0.654,0.654,0,0,0,.885.023c0.091-.2.151-0.191,0.228-0.025a0.408,0.408,0,0,0,.3.258c0.12,0.025.27,0.128,0.2-.273a0.413,0.413,0,0,1,.154-0.39,0.25,0.25,0,0,1,.073-0.043,0.805,0.805,0,0,1,.624.365c0.111,0.127.211,0.169,0.311-.023,0.069-.131.157-0.186,0.245-0.118a0.879,0.879,0,0,0,1.025-.126,0.361,0.361,0,0,1,.264.084,0.454,0.454,0,0,1,.109.115c0.209,0.308.217,0.305,0.375-.123a1.37,1.37,0,0,1,.606-0.212,0.128,0.128,0,0,1,.082-0.016,0.5,0.5,0,0,0,.175.108,7.6,7.6,0,0,1,1.012.208,0.332,0.332,0,0,1,.073.049c0.384,0.126.766,0.274,1.15,0.408,0.079,0.027.131,0,.186-0.111,0.115-.243.29-0.261,0.414-0.107a0.242,0.242,0,0,0,.369.073,0.341,0.341,0,0,1,.418.084,0.345,0.345,0,0,0,.327.14c0.005-.173-0.068-0.129-0.112-0.134-0.1-.011-0.228.021-0.23-0.2,0-.249.136-0.182,0.228-0.2h0.157a0.43,0.43,0,0,1,.156.019,0.436,0.436,0,0,0,.208.125,1.7,1.7,0,0,0,.228-0.06,1.15,1.15,0,0,1,.4.043,0.23,0.23,0,0,1,.119.219,0.157,0.157,0,0,1-.157.187c0.42-.13.854,0.2,1.267-0.161a0.71,0.71,0,0,1,.245,0c0.1,0.025.184,0.153,0.29,0.065a0.422,0.422,0,0,1,.431-0.026,2.823,2.823,0,0,1,.31.043,1.732,1.732,0,0,1,.176.091,0.728,0.728,0,0,1,.066.037,0.287,0.287,0,0,0,.239.014,0.129,0.129,0,0,1,.072.024,0.418,0.418,0,0,0,.567.115,4.368,4.368,0,0,1,1.358.109,0.393,0.393,0,0,1,.193.13,1.91,1.91,0,0,0,.971.046,0.993,0.993,0,0,1,.55.167,2.41,2.41,0,0,1,.91.376,0.374,0.374,0,0,0,.369-0.027,4.344,4.344,0,0,1,1.254.265,5.5,5.5,0,0,1,1.32,1.03,0.652,0.652,0,0,0,.3.276,0.351,0.351,0,0,1,.074.056,0.249,0.249,0,0,0,.067.075,1.132,1.132,0,0,1,.609.953,1.262,1.262,0,0,1-.35,1.215c-0.267.014-.5,0.23-0.768,0.243a0.919,0.919,0,0,1-.379,0,5.563,5.563,0,0,0-1.426-.545,0.721,0.721,0,0,1-.431-0.242,0.774,0.774,0,0,0-.551.04,2.293,2.293,0,0,1-.564-0.024c-0.09-.043-0.21,0-0.182.211a0.362,0.362,0,0,1-.212.466,0.9,0.9,0,0,1-.195.108,0.921,0.921,0,0,1-.339-0.025,5.893,5.893,0,0,0,.633.416,1.009,1.009,0,0,0,.755-0.189,1.085,1.085,0,0,1,1.011.036,0.3,0.3,0,0,1,.1.15c0.074,0.385.228,0.447,0.444,0.348a0.379,0.379,0,0,1,.364.145,0.458,0.458,0,0,0,.58.075,0.474,0.474,0,0,1,.586.046,3.761,3.761,0,0,0,1.409.429,17.408,17.408,0,0,0,2.216.365,5.937,5.937,0,0,0,1,.084,2.583,2.583,0,0,1,.592.118,7.231,7.231,0,0,1,.887.078,0.344,0.344,0,0,1,.089.024,0.6,0.6,0,0,0,.348.061c0.279,0.045.551,0.17,0.83,0.223a7.658,7.658,0,0,0,.833.366,5.911,5.911,0,0,1,1.214.385,0.286,0.286,0,0,0,.267-0.029,1.8,1.8,0,0,1,1.475.448,0.215,0.215,0,0,0,.356-0.042,0.376,0.376,0,0,1,.39-0.094,1.986,1.986,0,0,1,.963.394,0.311,0.311,0,0,1,.191.158,0.66,0.66,0,0,0,.684.545,0.33,0.33,0,0,1,.156.081A0.143,0.143,0,0,1,628.928,13.005Z"/>
    <path id="Forma_1_copiar" data-name="Forma 1 copiar" class="cls-1" d="M565.879,128.075a4.959,4.959,0,0,0-.742-0.374c-0.335-.085-0.656-0.143-0.789.359-0.1.382-.337,0.278-0.612,0.13a2.646,2.646,0,0,0-1.872-.617,1.585,1.585,0,0,1-.76-0.026,0.807,0.807,0,0,1-.392-0.228,2.194,2.194,0,0,0-1.023-.34,0.4,0.4,0,0,1-.388-0.549,0.315,0.315,0,0,0-.272-0.444,2.265,2.265,0,0,1-1.049-.544,0.418,0.418,0,0,0-.568-0.032,1.62,1.62,0,0,1-1.134.123,0.948,0.948,0,0,1,.816-0.284,1.76,1.76,0,0,0,1.055-.716c0.079-.368-0.238-0.222-0.386-0.3-0.3-.123-0.361-0.243-0.007-0.391a0.439,0.439,0,0,0,.383-0.412,0.329,0.329,0,0,0-.365-0.286c-0.108-.012-0.1-0.026-0.056-0.134,0.119-.31-0.066-0.432-0.325-0.477a2.1,2.1,0,0,0-.273-0.017c-0.286-.016-0.432-0.136-0.321-0.459a0.33,0.33,0,0,0-.312-0.491c-0.166-.026-0.329-0.06-0.492-0.1s-0.3-.112-0.219-0.326a0.318,0.318,0,0,1,.384-0.254,1.143,1.143,0,0,1,.423.269c0.179,0.133.368,0.2,0.5-.058,0.116-.237.25-0.2,0.446-0.116,0.313,0.138.467,0,.4-0.35-0.041-.2-0.148-0.4.135-0.506a4.614,4.614,0,0,1,1.379-.32,0.6,0.6,0,0,0,.6-0.348c0.114-.3-0.121-0.42-0.332-0.6a1.968,1.968,0,0,1,.661-0.029c0.148-.027.395-0.048,0.333-0.228a1.075,1.075,0,0,1,.48-1.07,1.632,1.632,0,0,0,.047-1.042,0.241,0.241,0,0,0-.28-0.112,7.3,7.3,0,0,1-1.025.049c-0.118-.1-0.038-0.187-0.017-0.27a0.37,0.37,0,0,0-.367-0.514,4.636,4.636,0,0,1-.822-0.065c0.072-.165.2-0.1,0.291-0.125a0.424,0.424,0,0,0,.3-0.47,0.36,0.36,0,0,0-.345-0.374,7.348,7.348,0,0,0-1.576-.176,0.585,0.585,0,0,1-.419-0.13,0.62,0.62,0,0,0-.762-0.063c-0.038.026-.088,0.083-0.118,0.051-0.383-.414-0.9-0.155-1.338-0.287a2.939,2.939,0,0,0-.374-0.144c-0.2-.121-0.287-0.275-0.091-0.484a0.478,0.478,0,0,0,.085-0.095,0.951,0.951,0,0,0,.06-0.114,1.37,1.37,0,0,1,.587-0.639c0.372-.249.382-0.474,0.059-0.82a4.068,4.068,0,0,1-.52-0.2,1.7,1.7,0,0,0-.217-0.129c-0.353-.288-0.353-0.394-0.022-0.663a1.712,1.712,0,0,1,1.186-.554,0.478,0.478,0,0,0,.444-0.2c0.367-.719,1.164-1.154,1.245-2.061,0.018-.2.013-0.421-0.174-0.381a0.918,0.918,0,0,1-.773-0.358,6.539,6.539,0,0,1-.922-0.467,16.778,16.778,0,0,0-2.152-.426,1.347,1.347,0,0,1-.6-0.216c-0.267-.062-0.544-0.043-0.811-0.105a2.664,2.664,0,0,1-2.106-.579,2.551,2.551,0,0,0,.882.075,0.488,0.488,0,0,0,.125-0.026c0.059-.023.115-0.053,0.172-0.082a1.087,1.087,0,0,1,.213-0.071,1.612,1.612,0,0,1,1.471-.074,0.978,0.978,0,0,0,1.087-.289c0.151-.244.554-0.019,0.653-0.4a3.048,3.048,0,0,1,.143-0.772,0.272,0.272,0,0,0-.176-0.4,2.618,2.618,0,0,0-1.33.034,1.7,1.7,0,0,1-.838-0.055c-0.567-.081-1.087-0.366-1.669-0.428a2.472,2.472,0,0,1-.661-0.454,0.231,0.231,0,0,0-.334.2c-0.016.316-.184,0.273-0.366,0.2a1.6,1.6,0,0,0-.448-0.09c0.055,0,.114-0.007.174-0.014,0.168-.019.349-0.169,0.29-0.293-0.177-.376.079-0.769-0.076-1.126a0.169,0.169,0,0,1,.134-0.27,1.036,1.036,0,0,1,.865-0.066,0.426,0.426,0,0,0,.538-0.226c0.158-.182.059-0.329-0.125-0.443a7,7,0,0,1,.957.043,0.28,0.28,0,0,0,.262-0.439c-0.134-.219-0.277-0.374.009-0.6a0.344,0.344,0,0,0-.066-0.459,0.27,0.27,0,0,0-.4-0.081c-0.326.211-.523,0.125-0.644-0.242a1.041,1.041,0,0,0-.314-0.386c-0.16-.153-0.311-0.277-0.54-0.07-0.194.174-.333,0.057-0.287-0.169a1.385,1.385,0,0,0-.089-0.9,0.282,0.282,0,0,1,.182-0.406,0.752,0.752,0,0,1,.558-0.244c0.229-.042.581,0.111,0.622-0.259,0.039-.352-0.311-0.376-0.545-0.4a2.121,2.121,0,0,1-1.486-1.224,1.363,1.363,0,0,0-.751-0.442c-0.125-.035-0.255-0.053-0.378-0.1a0.832,0.832,0,0,0-.126-0.028,3,3,0,0,1-.805-0.089,0.34,0.34,0,0,0,.476-0.282,0.659,0.659,0,0,0-.5-0.666,2.332,2.332,0,0,0-.4.015,0.486,0.486,0,0,1-.559-0.638,0.624,0.624,0,0,0-.11-0.473,0.583,0.583,0,0,0-.555.014,1.5,1.5,0,0,1-.889.1,1.972,1.972,0,0,0,.622-0.029,0.487,0.487,0,0,0,.416-0.3,0.451,0.451,0,0,0-.18-0.52,0.321,0.321,0,0,1-.132-0.165,0.523,0.523,0,0,1,.518.072,0.2,0.2,0,0,0,.279-0.049,0.175,0.175,0,0,0,.018-0.213,4.266,4.266,0,0,0-.82-1.24c-0.355-.24-0.623-0.6-0.988-0.83a0.763,0.763,0,0,0-.229-0.12,0.482,0.482,0,0,1-.49-0.431,0.6,0.6,0,0,0-.589-0.518c-0.165-.015-0.31-0.114-0.47-0.132a0.577,0.577,0,0,1-.584-0.594,0.716,0.716,0,0,0-.8-0.617A0.777,0.777,0,0,1,540,86.047a0.618,0.618,0,0,0-.548-0.121,0.928,0.928,0,0,1-.894-0.266,0.915,0.915,0,0,0-.612-0.217,0.891,0.891,0,0,1-.627-0.291,0.425,0.425,0,0,1-.1-0.567,1.066,1.066,0,0,0,.149-0.662,0.432,0.432,0,0,0,.54.058,0.6,0.6,0,0,0,.2-0.612,1.1,1.1,0,0,0-.184-0.453,2.24,2.24,0,0,0-1.211-.775c-0.264-.076-0.544-0.1-0.8-0.2a0.667,0.667,0,0,1-.546-0.752,2.033,2.033,0,0,0-.257-0.8,0.368,0.368,0,0,0-.421-0.173,1.2,1.2,0,0,1-1.177-.909,0.93,0.93,0,0,0-.428-0.587,0.355,0.355,0,0,1,.3-0.159c0.358-.26.4-0.392,0.142-0.713a4.584,4.584,0,0,0-.982-0.793,2.656,2.656,0,0,1-1.276-.549,0.546,0.546,0,0,1-.05-0.88,2.08,2.08,0,0,0,.314-0.871c0.054-.138-0.074-0.2-0.195-0.237a1.041,1.041,0,0,1-.417-0.1,0.916,0.916,0,0,0-.155-0.092c-0.211-.107-0.062-0.266-0.046-0.406a2.018,2.018,0,0,0-.055-0.792,0.8,0.8,0,0,1,.176-0.864,3.1,3.1,0,0,0,.685-1.36c0.037-.158.245-0.168,0.288-0.324,0.074-.212.061-0.375-0.192-0.444a12.04,12.04,0,0,0-2-.462,1.029,1.029,0,0,1-.481-0.188,0.862,0.862,0,0,0-1.08.073,0.438,0.438,0,0,1-.433.149,0.047,0.047,0,0,1,.039-0.065c0.228-.059.489-0.173,0.424-0.423s-0.35-.131-0.538-0.089a1.4,1.4,0,0,1-.644-0.082c-0.042-.018-0.082-0.036-0.123-0.056a6.891,6.891,0,0,0-2.27-.043,0.286,0.286,0,0,1-.206-0.033l-0.017.009c-0.283-.057-0.565-0.117-0.841-0.2-0.19-.02-0.381-0.008-0.571-0.011a1.027,1.027,0,0,1-.99-0.184,0.617,0.617,0,0,0-.484-0.127,0.8,0.8,0,0,1-.594.137,1.524,1.524,0,0,0-.5-0.152,0.258,0.258,0,0,0-.189.391,0.335,0.335,0,0,1-.268.139,6.639,6.639,0,0,1-.98.043c0.161-.145.289-0.269,0.176-0.429a0.429,0.429,0,0,0-.491-0.193,0.865,0.865,0,0,1-.625-0.081,4.1,4.1,0,0,0-1.989.014,1.082,1.082,0,0,1-.849-0.059,0.669,0.669,0,0,0-.378-0.077,9.176,9.176,0,0,0-2,.109,1.772,1.772,0,0,1-.9-0.07A7.44,7.44,0,0,0,509.7,68.1a6.089,6.089,0,0,1-2.089-.068,2.644,2.644,0,0,0-1.214.1,3.281,3.281,0,0,1-1.172.192,16,16,0,0,1-2.008-.038,7.222,7.222,0,0,0-1.747.188,23.744,23.744,0,0,1-3.252.111c-0.484-.044-0.948.142-1.425,0.132a2.482,2.482,0,0,0-1.038.044l-1.441.144a21.91,21.91,0,0,1-2.524.161,9.215,9.215,0,0,0-2.183.2,9.821,9.821,0,0,1-2.923.134,6.3,6.3,0,0,0-1.387.187,0.471,0.471,0,0,1-.213.041,4.727,4.727,0,0,0-2.751.036,0.111,0.111,0,0,1-.044,0,12.083,12.083,0,0,1-1.981.094,2.451,2.451,0,0,1-.864-0.1,0.7,0.7,0,0,0-.549.059,1.942,1.942,0,0,1-1.524,0,0.922,0.922,0,0,0-.494-0.128c-0.674.116-1.353,0.038-2.024,0.2a0.124,0.124,0,0,1-.043.011c-1.161-.194-2.24.643-3.4,0.495a2.907,2.907,0,0,0-1.693.1,0.45,0.45,0,0,1-.321,0l0.04-.564H152.119L130.355,142H462.622a0.385,0.385,0,0,0,.1,0h1.636l0.036-.5c0.07-.011.14-0.022,0.21-0.03a6.532,6.532,0,0,0,2.091-.359,0.28,0.28,0,0,1,.383.023c0.182,0.365.438,0.236,0.721,0.141a11.839,11.839,0,0,1,2.39-.427,0.274,0.274,0,0,1,.294.1c0.03,0,.059,0,0.09,0a9.667,9.667,0,0,1,1.24.2,0.327,0.327,0,0,0,.345-0.123,2.408,2.408,0,0,1,1.9-.654,10.009,10.009,0,0,1,1.816.039,1.583,1.583,0,0,1,.982.3,1.626,1.626,0,0,0,1.626.188,10.4,10.4,0,0,1,1.262-.293c0.24-.027.479,0,0.719-0.046a3.664,3.664,0,0,1,1.687-.154,0.27,0.27,0,0,1,.263.207,2.006,2.006,0,0,0,.217.469c0.129,0.168.426,0.228,0.457,0.06a4.19,4.19,0,0,1,.672-0.814,1.294,1.294,0,0,1,.356.059,2.431,2.431,0,0,1,.851.421c0.305,0.212.415,0.145,0.418-.238a0.143,0.143,0,0,1,.165-0.174,4.681,4.681,0,0,1,1.146-.038,3.206,3.206,0,0,0,1.32-.059c0.123,0,.245,0,0.369,0a20.331,20.331,0,0,0,3.414-.14,7.911,7.911,0,0,1,2.571-.874,1.543,1.543,0,0,1,.7,0,0.7,0.7,0,0,1,.216.162c0.123,0.107,0,.443.238,0.4a2.692,2.692,0,0,0,1.122-.193,0.539,0.539,0,0,1,.736.008,1.274,1.274,0,0,0,.929.3c0.264-.1.43-0.354,0.708-0.462,0.237-.092.092-0.323-0.038-0.467a1.89,1.89,0,0,1,.6.3,0.541,0.541,0,0,0,.649.069,0.5,0.5,0,0,1,.561.044,1.377,1.377,0,0,0,2.079-.253,0.583,0.583,0,0,1,.856-0.085,3.853,3.853,0,0,0,1.521.466,0.5,0.5,0,0,0,.627-0.372,0.4,0.4,0,0,1,.064-0.133,1.621,1.621,0,0,1,1.507-.025c0.141,0.221.244,0.207,0.386,0.027a0.757,0.757,0,0,1,.533-0.279c0.207-.027.469-0.138,0.32,0.295a0.368,0.368,0,0,0,.236.422,0.5,0.5,0,0,0,.122.046,1.754,1.754,0,0,0,1.087-.395,0.334,0.334,0,0,1,.528.025,0.321,0.321,0,0,0,.41.128,2.168,2.168,0,0,1,1.736.137,0.889,0.889,0,0,0,.454-0.091,0.726,0.726,0,0,0,.193-0.125c0.374-.332.388-0.329,0.631,0.133a3.152,3.152,0,0,0,1.019.229,0.321,0.321,0,0,0,.138.018,1.082,1.082,0,0,1,.305-0.117c0.592,0.08,1.148-.253,1.735-0.224a0.6,0.6,0,0,0,.126-0.053c0.662-.136,1.32-0.3,1.981-0.44a0.258,0.258,0,0,1,.31.121,0.471,0.471,0,0,0,.7.115,0.568,0.568,0,0,1,.631-0.079,0.844,0.844,0,0,0,.716-0.091,0.8,0.8,0,0,1,.564-0.152c0,0.187-.122.14-0.2,0.145-0.168.013-.387-0.023-0.4,0.221-0.017.268,0.221,0.2,0.377,0.216h0.267a1.189,1.189,0,0,0,.266-0.021,0.94,0.94,0,0,1,.361-0.136c0.134-.008.254,0.061,0.386,0.065a3.061,3.061,0,0,0,.689-0.046,0.271,0.271,0,0,0,.214-0.237c0-.183-0.137-0.178-0.259-0.2,0.708,0.14,1.462-.212,2.148.173a1.876,1.876,0,0,0,.417,0,0.708,0.708,0,0,1,.5-0.07,1.074,1.074,0,0,0,.731.028c0.176-.024.354-0.01,0.529-0.047,0.1-.024.2-0.065,0.3-0.1a1.2,1.2,0,0,0,.115-0.04,0.751,0.751,0,0,1,.407-0.014,0.322,0.322,0,0,0,.122-0.026,1.011,1.011,0,0,1,.97-0.124,11.652,11.652,0,0,0,2.314-.117,0.811,0.811,0,0,0,.333-0.14,5.066,5.066,0,0,1,1.652-.05,2.482,2.482,0,0,0,.942-0.181,5.726,5.726,0,0,0,1.559-.405,0.955,0.955,0,0,1,.626.029,11.27,11.27,0,0,0,2.139-.285,10.36,10.36,0,0,0,2.272-1.107,1.114,1.114,0,0,1,.518-0.3,0.691,0.691,0,0,0,.126-0.06,0.413,0.413,0,0,1,.115-0.081,1.4,1.4,0,0,0,1.058-1.021,1.06,1.06,0,0,0-.561-1.3c-0.45-.016-0.845-0.246-1.291-0.26a2.456,2.456,0,0,0-.641,0,13.486,13.486,0,0,1-2.429.582,1.559,1.559,0,0,0-.738.258,2.011,2.011,0,0,1-.93-0.042,6.027,6.027,0,0,0-.955.026c-0.155.046-.357,0-0.3-0.226,0.088-.353-0.118-0.418-0.342-0.5a1.814,1.814,0,0,0-.327-0.115,2.4,2.4,0,0,0-.573.026c0.381-.1.707-0.385,1.084-0.444a2.477,2.477,0,0,1,1.27.2,2.807,2.807,0,0,0,1.71-.039,0.368,0.368,0,0,0,.172-0.16,0.531,0.531,0,0,1,.762-0.37,0.878,0.878,0,0,0,.619-0.154,1.138,1.138,0,0,1,.982-0.081,1.19,1.19,0,0,0,.992-0.048,9.359,9.359,0,0,1,2.389-.456c1.239-.269,2.5-0.223,3.749-0.388a15.732,15.732,0,0,1,1.689-.089,6.762,6.762,0,0,0,1-.125c0.491-.086,1,0.042,1.5-0.083a0.873,0.873,0,0,0,.15-0.026,1.54,1.54,0,0,1,.588-0.064c0.472-.048.932-0.18,1.4-0.237,0.464-.152.934-0.273,1.409-0.387a14.551,14.551,0,0,0,2.05-.408,0.73,0.73,0,0,1,.45.031,4.373,4.373,0,0,0,2.486-.474,0.5,0.5,0,0,1,.6.044,0.913,0.913,0,0,0,.655.1,4.605,4.605,0,0,0,1.622-.417,0.538,0.538,0,0,0,.323-0.167,1.156,1.156,0,0,1,1.152-.575,0.717,0.717,0,0,0,.261-0.086C566,128.241,566.016,128.135,565.879,128.075Z"/>
    <path id="Conectando_alunos_aos_Professores" data-name="Conectando alunos aos Professores" class="cls-2" d="M601.836,34.531l-10.192.657a3.548,3.548,0,0,0-1.266-2.778,5.538,5.538,0,0,0-3.435-.9,9.311,9.311,0,0,0-2.729.411,6.064,6.064,0,0,0-2.252,1.2,2.646,2.646,0,0,0-.937,2.005,1.971,1.971,0,0,0,.641,1.611,5.342,5.342,0,0,0,2.581,1.085l6.805,1.282a14.213,14.213,0,0,1,7.216,3.173,7.312,7.312,0,0,1,2.252,5.868,10.636,10.636,0,0,1-1.578,5.49,13.341,13.341,0,0,1-4.093,4.126,19.86,19.86,0,0,1-5.884,2.564,27.053,27.053,0,0,1-6.921.871,22.386,22.386,0,0,1-8.235-1.381,12.25,12.25,0,0,1-5.425-3.912,10.108,10.108,0,0,1-2.022-5.983V49.523l10.751-.69a4.7,4.7,0,0,0,1.43,3.321A6.177,6.177,0,0,0,582.57,53.2a10.478,10.478,0,0,0,2.893-.395,6.159,6.159,0,0,0,2.3-1.167,2.621,2.621,0,0,0,.986-1.923,2.075,2.075,0,0,0-.806-1.742,6.314,6.314,0,0,0-2.811-1.052l-6.18-1.216a13.18,13.18,0,0,1-7.151-3.452,8.2,8.2,0,0,1-2.252-6.214,10.464,10.464,0,0,1,2.466-6.772,14.714,14.714,0,0,1,6.3-4.192,25.053,25.053,0,0,1,8.63-1.43q6.9,0,10.783,2.778a9.266,9.266,0,0,1,4.11,7.381c0,0.11,0,.225.016,0.345A1.52,1.52,0,0,1,601.836,34.531ZM557.979,54.5a19.522,19.522,0,0,1-6.658,4.9,21.284,21.284,0,0,1-8.925,1.792,18.538,18.538,0,0,1-8.745-1.907,13.127,13.127,0,0,1-5.524-5.375,16.559,16.559,0,0,1-1.906-8.1,24.655,24.655,0,0,1,1.446-8.465,21.665,21.665,0,0,1,4.192-7.085,19.412,19.412,0,0,1,6.674-4.849,21.458,21.458,0,0,1,8.86-1.759,18.574,18.574,0,0,1,8.728,1.89,13.06,13.06,0,0,1,5.507,5.359,16.633,16.633,0,0,1,1.907,8.137,24.857,24.857,0,0,1-1.414,8.383A21.572,21.572,0,0,1,557.979,54.5ZM551.437,35.32a4.8,4.8,0,0,0-1.776-2.12,5,5,0,0,0-2.761-.74,6.676,6.676,0,0,0-4.176,1.331,10.368,10.368,0,0,0-2.86,3.436,17.707,17.707,0,0,0-1.644,4.455,20.147,20.147,0,0,0-.526,4.389,7.021,7.021,0,0,0,1.381,4.619,4.692,4.692,0,0,0,3.814,1.66A6.641,6.641,0,0,0,547.048,51a10.252,10.252,0,0,0,2.86-3.469,18.33,18.33,0,0,0,1.627-4.487,20.3,20.3,0,0,0,.526-4.373A8.113,8.113,0,0,0,551.437,35.32Zm-23.028,78.227-6.18-1.217a13.173,13.173,0,0,1-7.151-3.452,8.2,8.2,0,0,1-2.252-6.213,10.465,10.465,0,0,1,2.466-6.773,14.714,14.714,0,0,1,6.3-4.192,25.048,25.048,0,0,1,8.629-1.43q6.9,0,10.784,2.778a9.262,9.262,0,0,1,4.109,7.38c0,0.11,0,.225.017,0.345a1.483,1.483,0,0,1-.017.379l-10.191.657a3.548,3.548,0,0,0-1.266-2.778,5.539,5.539,0,0,0-3.436-.9,9.309,9.309,0,0,0-2.728.411,6.055,6.055,0,0,0-2.252,1.2,2.643,2.643,0,0,0-.937,2.005,1.968,1.968,0,0,0,.641,1.611,5.341,5.341,0,0,0,2.581,1.085l6.8,1.282a14.214,14.214,0,0,1,7.216,3.173,7.31,7.31,0,0,1,2.252,5.868,10.637,10.637,0,0,1-1.578,5.491,13.335,13.335,0,0,1-4.093,4.125,19.859,19.859,0,0,1-5.885,2.565,27.062,27.062,0,0,1-6.92.871,22.375,22.375,0,0,1-8.235-1.381,12.245,12.245,0,0,1-5.425-3.912,10.106,10.106,0,0,1-2.022-5.983v-0.395l10.751-.69a4.7,4.7,0,0,0,1.43,3.32,6.175,6.175,0,0,0,4.027,1.052,10.478,10.478,0,0,0,2.893-.394,6.15,6.15,0,0,0,2.3-1.167,2.62,2.62,0,0,0,.987-1.924,2.074,2.074,0,0,0-.806-1.742A6.321,6.321,0,0,0,528.409,113.547ZM517.574,60.47H506.133L509.651,39.3q0.525-3.09-.805-4.635a4.863,4.863,0,0,0-3.9-1.545,7.105,7.105,0,0,0-6.181,3.386,10.112,10.112,0,0,0-1.381,3.814L494.035,60.47H482.594l6.049-36.3h10.849l-0.949,6.693a17.888,17.888,0,0,1,4.122-4.7,12.311,12.311,0,0,1,7.841-2.515,11.7,11.7,0,0,1,6.674,1.792,9.6,9.6,0,0,1,3.764,4.981,14.705,14.705,0,0,1,.378,7.364ZM472.52,90.731l-1.644,9.83a10.591,10.591,0,0,0-2.055-.345q-1.3-.115-2.383-0.116a8.372,8.372,0,0,0-6.888,3.5,9.331,9.331,0,0,0-1.594,3.928l-3.222,19.562H443.293l6.016-36.3h11.08L459.3,97.372h0.329a11.979,11.979,0,0,1,4.076-5.277,9.8,9.8,0,0,1,5.622-1.693q0.855,0,1.677.082A11.553,11.553,0,0,1,472.52,90.731Zm-8.106-30.26,1.1-7.366a19.394,19.394,0,0,1-4.484,5.213A12.748,12.748,0,0,1,452.808,61a11.248,11.248,0,0,1-6.361-1.693,8.975,8.975,0,0,1-3.584-4.8,15.138,15.138,0,0,1-.345-7.282l3.814-23.046h11.441l-3.452,20.778a6.319,6.319,0,0,0,.772,4.833,4.677,4.677,0,0,0,4.06,1.742,6.9,6.9,0,0,0,5.9-3.14,9.227,9.227,0,0,0,1.4-3.7l3.386-20.515h11.441L475.3,60.47H464.414ZM438.723,97.52a16.634,16.634,0,0,1,1.907,8.137,24.856,24.856,0,0,1-1.413,8.383,21.591,21.591,0,0,1-4.143,7.085,19.506,19.506,0,0,1-6.657,4.9,21.281,21.281,0,0,1-8.926,1.792,18.543,18.543,0,0,1-8.745-1.907,13.129,13.129,0,0,1-5.523-5.375,16.55,16.55,0,0,1-1.907-8.1,24.684,24.684,0,0,1,1.446-8.466,21.681,21.681,0,0,1,4.192-7.084,19.421,19.421,0,0,1,6.674-4.849,21.462,21.462,0,0,1,8.86-1.759,18.577,18.577,0,0,1,8.729,1.89A13.058,13.058,0,0,1,438.723,97.52Zm-10.191,4.422a4.8,4.8,0,0,0-1.776-2.121,5,5,0,0,0-2.761-.74,6.673,6.673,0,0,0-4.175,1.332,10.366,10.366,0,0,0-2.861,3.435,17.666,17.666,0,0,0-1.643,4.455,20.143,20.143,0,0,0-.526,4.389,7.019,7.019,0,0,0,1.38,4.619,4.692,4.692,0,0,0,3.814,1.66,6.638,6.638,0,0,0,4.159-1.348,10.243,10.243,0,0,0,2.86-3.468,18.3,18.3,0,0,0,1.627-4.488,20.232,20.232,0,0,0,.526-4.372A8.11,8.11,0,0,0,428.532,101.942ZM421.543,60.47l8.121-48.985H441.1l-8.12,48.985H421.543Zm-18.575,0,0.954-5.786h-0.3a13.831,13.831,0,0,1-2.68,3.189,12.646,12.646,0,0,1-8.63,3.189,12.012,12.012,0,0,1-7.183-2.153,11.612,11.612,0,0,1-4.274-6.329,22.573,22.573,0,0,1-.247-10.224,27.172,27.172,0,0,1,3.748-10.389,18.6,18.6,0,0,1,6.395-6.23,15.411,15.411,0,0,1,7.676-2.088,10.718,10.718,0,0,1,4.669.9,8.129,8.129,0,0,1,2.991,2.367,9.545,9.545,0,0,1,1.611,3.173h0.23l0.987-5.918h11.342l-6.016,36.3H402.968Zm3.206-23.309a5.984,5.984,0,0,0-1.841-3.353,5.251,5.251,0,0,0-3.568-1.184,6.662,6.662,0,0,0-3.895,1.2,9.447,9.447,0,0,0-2.893,3.37,16.484,16.484,0,0,0-1.661,5.129,15.016,15.016,0,0,0-.033,5.145,6.016,6.016,0,0,0,1.759,3.4,5.037,5.037,0,0,0,3.534,1.216,6.749,6.749,0,0,0,3.929-1.216,9.726,9.726,0,0,0,2.959-3.4,16.152,16.152,0,0,0,1.693-5.145A13.82,13.82,0,0,0,406.174,37.161Zm-29.866,81.613a6.175,6.175,0,0,0,4.027,1.052,10.491,10.491,0,0,0,2.894-.394,6.165,6.165,0,0,0,2.3-1.167,2.622,2.622,0,0,0,.986-1.924,2.071,2.071,0,0,0-.805-1.742,6.321,6.321,0,0,0-2.811-1.052l-6.181-1.217a13.17,13.17,0,0,1-7.15-3.452,8.2,8.2,0,0,1-2.252-6.213,10.458,10.458,0,0,1,2.465-6.773,14.72,14.72,0,0,1,6.3-4.192,25.054,25.054,0,0,1,8.63-1.43q6.9,0,10.783,2.778a9.266,9.266,0,0,1,4.11,7.38c0,0.11,0,.225.016,0.345a1.527,1.527,0,0,1-.016.379l-10.192.657a3.548,3.548,0,0,0-1.265-2.778,5.543,5.543,0,0,0-3.436-.9,9.316,9.316,0,0,0-2.729.411,6.063,6.063,0,0,0-2.252,1.2,2.647,2.647,0,0,0-.937,2.005,1.971,1.971,0,0,0,.641,1.611,5.345,5.345,0,0,0,2.581,1.085l6.806,1.282a14.222,14.222,0,0,1,7.216,3.173,7.313,7.313,0,0,1,2.252,5.868,10.637,10.637,0,0,1-1.578,5.491,13.356,13.356,0,0,1-4.093,4.125,19.859,19.859,0,0,1-5.885,2.565,27.076,27.076,0,0,1-6.921.871,22.375,22.375,0,0,1-8.235-1.381,12.256,12.256,0,0,1-5.425-3.912,10.1,10.1,0,0,1-2.021-5.983v-0.395l10.75-.69A4.7,4.7,0,0,0,376.308,118.774ZM351.372,101.81a3.548,3.548,0,0,0-1.266-2.778,5.539,5.539,0,0,0-3.436-.9,9.309,9.309,0,0,0-2.728.411,6.055,6.055,0,0,0-2.252,1.2,2.643,2.643,0,0,0-.937,2.005,1.968,1.968,0,0,0,.641,1.611,5.341,5.341,0,0,0,2.581,1.085l6.8,1.282A14.214,14.214,0,0,1,358,108.9a7.31,7.31,0,0,1,2.252,5.868,10.637,10.637,0,0,1-1.578,5.491,13.345,13.345,0,0,1-4.093,4.125,19.859,19.859,0,0,1-5.885,2.565,27.062,27.062,0,0,1-6.92.871,22.384,22.384,0,0,1-8.236-1.381,12.248,12.248,0,0,1-5.424-3.912,10.106,10.106,0,0,1-2.022-5.983v-0.395l10.75-.69a4.7,4.7,0,0,0,1.431,3.32,6.174,6.174,0,0,0,4.027,1.052,10.483,10.483,0,0,0,2.893-.394,6.165,6.165,0,0,0,2.3-1.167,2.623,2.623,0,0,0,.987-1.924,2.074,2.074,0,0,0-.806-1.742,6.321,6.321,0,0,0-2.811-1.052l-6.181-1.217a13.173,13.173,0,0,1-7.15-3.452,8.2,8.2,0,0,1-2.252-6.213,10.465,10.465,0,0,1,2.466-6.773,14.717,14.717,0,0,1,6.3-4.192,25.058,25.058,0,0,1,8.63-1.43q6.9,0,10.784,2.778a9.262,9.262,0,0,1,4.109,7.38c0,0.11,0,.225.017,0.345a1.529,1.529,0,0,1-.017.379Zm-2.189-43.082a12.988,12.988,0,0,1-7.792,2.466,13.129,13.129,0,0,1-7.824-2.466A16.781,16.781,0,0,1,328.126,52a22.44,22.44,0,0,1-1.989-9.616,22.332,22.332,0,0,1,1.989-9.6,16.68,16.68,0,0,1,5.441-6.69,13.643,13.643,0,0,1,15.6,0,16.724,16.724,0,0,1,5.425,6.707,22.376,22.376,0,0,1,1.989,9.583A22.455,22.455,0,0,1,354.591,52,16.9,16.9,0,0,1,349.183,58.728Zm4.093-25.167a15.36,15.36,0,0,0-4.882-6.148,12,12,0,0,0-14.022.016,15.574,15.574,0,0,0-4.915,6.148,20.629,20.629,0,0,0-1.808,8.811,21.08,21.08,0,0,0,1.792,8.877,15.265,15.265,0,0,0,4.9,6.164,11.715,11.715,0,0,0,7.052,2.252,11.594,11.594,0,0,0,7-2.252,15.333,15.333,0,0,0,4.882-6.164,21.1,21.1,0,0,0,1.792-8.877A20.9,20.9,0,0,0,353.276,33.561ZM316.227,91.487a11.9,11.9,0,0,1,5.162,3.731,9.42,9.42,0,0,1,1.906,5.967,8.037,8.037,0,0,1-2.169,5.869,13.82,13.82,0,0,1-6.313,3.37,50.724,50.724,0,0,1-10.06,1.545q-2.926.2-6.233,0.293c0,0.109-.011.225-0.013,0.331a11.241,11.241,0,0,0,.411,3.6,4.441,4.441,0,0,0,1.825,2.5,6.877,6.877,0,0,0,3.846.9,8.969,8.969,0,0,0,4.488-1.052,5.643,5.643,0,0,0,2.58-2.893l10.291,0.789a15.881,15.881,0,0,1-6.51,8.285,20.8,20.8,0,0,1-11.737,3.156,19.856,19.856,0,0,1-8.843-1.825,12.612,12.612,0,0,1-5.639-5.309,16.042,16.042,0,0,1-1.758-8.417,24.286,24.286,0,0,1,1.693-8.564,22.431,22.431,0,0,1,4.422-7.035,20.494,20.494,0,0,1,6.723-4.784,20.905,20.905,0,0,1,8.63-1.742A19.769,19.769,0,0,1,316.227,91.487Zm-4.75,7.874a6.791,6.791,0,0,0-3.732-.871,7.417,7.417,0,0,0-4.783,1.463,9.206,9.206,0,0,0-2.762,3.716,19.657,19.657,0,0,0-.686,1.981c1.22-.029,2.367-0.062,3.365-0.108a41.832,41.832,0,0,0,6.165-.624,6.319,6.319,0,0,0,2.959-1.2,2.507,2.507,0,0,0,.805-1.907A2.767,2.767,0,0,0,311.477,99.361Zm3.285-48.1H314.6a14.681,14.681,0,0,1-2.728,5.227,12.974,12.974,0,0,1-4.373,3.468,12.6,12.6,0,0,1-5.589,1.233,12.213,12.213,0,0,1-7.545-2.433,15.8,15.8,0,0,1-5.03-6.69,24.749,24.749,0,0,1-1.792-9.682,24.361,24.361,0,0,1,1.808-9.633,15.955,15.955,0,0,1,5.047-6.674,12.164,12.164,0,0,1,7.512-2.433,12.628,12.628,0,0,1,5.573,1.233,13.092,13.092,0,0,1,4.4,3.468,14.166,14.166,0,0,1,2.712,5.227h0.165V11.485h1.512V60.47h-1.512V51.265Zm-1.578-17.737a14.347,14.347,0,0,0-4.472-6.131,11.4,11.4,0,0,0-13.561,0,14.4,14.4,0,0,0-4.5,6.131,23.223,23.223,0,0,0-1.594,8.86,23.314,23.314,0,0,0,1.594,8.893,14.584,14.584,0,0,0,4.488,6.148,11.383,11.383,0,0,0,13.594,0,14.524,14.524,0,0,0,4.455-6.148,23.53,23.53,0,0,0,1.578-8.893A23.438,23.438,0,0,0,313.184,33.528ZM284.765,76.364q1.774,0,3.287.115a21.68,21.68,0,0,1,2.893.411L288.414,85.4a12.088,12.088,0,0,0-1.562-.181q-0.871-.049-1.989-0.049a4.372,4.372,0,0,0-3.074.986,5.305,5.305,0,0,0-1.43,3.09L280.1,90.8h7.621l-1.414,8.515h-7.619l-4.775,28.8a18.892,18.892,0,0,1-2.729,7.5,12.957,12.957,0,0,1-5.227,4.586,17.246,17.246,0,0,1-7.595,1.561q-1.052,0-2.12-.032t-2.022-.115q-0.954-.083-1.743-0.214l2.137-8.712c0.417,0.065.894,0.126,1.43,0.18a14.775,14.775,0,0,0,1.5.083,4.648,4.648,0,0,0,3.321-1.118,6.059,6.059,0,0,0,1.578-3.518l4.8-29h-6.481l1.447-8.515h6.444l0.131-.789a18.747,18.747,0,0,1,2.811-7.5,13.14,13.14,0,0,1,5.375-4.586A18.146,18.146,0,0,1,284.765,76.364Zm-8.6-40.091a10.705,10.705,0,0,0-3.156-8.055,11.228,11.228,0,0,0-8.153-3.057,12.947,12.947,0,0,0-6.132,1.43,10.909,10.909,0,0,0-4.273,3.945,10.643,10.643,0,0,0-1.562,5.737v24.2h-1.512v-36.3h1.512V30.9a10.089,10.089,0,0,1,4.29-5.146,14.63,14.63,0,0,1,7.677-2.1,13.508,13.508,0,0,1,6.657,1.595,11.7,11.7,0,0,1,4.521,4.422,12.921,12.921,0,0,1,1.643,6.608v24.2h-1.512v-24.2ZM249.111,92.161a13.058,13.058,0,0,1,5.506,5.359,16.634,16.634,0,0,1,1.907,8.137,24.856,24.856,0,0,1-1.413,8.383,21.591,21.591,0,0,1-4.143,7.085,19.506,19.506,0,0,1-6.657,4.9,21.281,21.281,0,0,1-8.926,1.792,18.543,18.543,0,0,1-8.745-1.907,13.129,13.129,0,0,1-5.523-5.375,16.55,16.55,0,0,1-1.907-8.1,24.684,24.684,0,0,1,1.446-8.466,21.681,21.681,0,0,1,4.192-7.084,19.421,19.421,0,0,1,6.674-4.849,21.462,21.462,0,0,1,8.86-1.759A18.577,18.577,0,0,1,249.111,92.161Zm-13.4,8.252a10.366,10.366,0,0,0-2.861,3.435,17.666,17.666,0,0,0-1.643,4.455,20.143,20.143,0,0,0-.526,4.389,7.019,7.019,0,0,0,1.38,4.619,4.692,4.692,0,0,0,3.814,1.66,6.638,6.638,0,0,0,4.159-1.348,10.243,10.243,0,0,0,2.86-3.468,18.3,18.3,0,0,0,1.627-4.488,20.232,20.232,0,0,0,.526-4.372,8.11,8.11,0,0,0-.624-3.353,4.8,4.8,0,0,0-1.776-2.121,5,5,0,0,0-2.761-.74A6.673,6.673,0,0,0,235.714,100.413Zm2.052-47.307H237.6a13.627,13.627,0,0,1-7.217,7.068,13.8,13.8,0,0,1-10.832-.181,9.707,9.707,0,0,1-5.754-9.288,9.7,9.7,0,0,1,.641-3.551,7.2,7.2,0,0,1,2.187-2.926A13.6,13.6,0,0,1,220.9,42.01a33.929,33.929,0,0,1,6.9-1.43q2.664-.328,4.948-0.74a11.685,11.685,0,0,0,3.65-1.184,2.427,2.427,0,0,0,1.364-2.219V34.564a9.117,9.117,0,0,0-1.315-4.931,8.936,8.936,0,0,0-3.7-3.288,12.3,12.3,0,0,0-5.539-1.183,13.746,13.746,0,0,0-4.965.871,10.434,10.434,0,0,0-3.813,2.466,8.538,8.538,0,0,0-2.137,3.8l-1.48-.46a10.009,10.009,0,0,1,2.466-4.307,12.165,12.165,0,0,1,4.356-2.86,15.044,15.044,0,0,1,5.573-1.019,14.407,14.407,0,0,1,5,.822,11.1,11.1,0,0,1,3.813,2.3,10.064,10.064,0,0,1,2.417,3.468,11.017,11.017,0,0,1,.838,4.323V60.47h-1.512V53.106Zm0-13.676a7.923,7.923,0,0,1-1.627.937,13.506,13.506,0,0,1-2.105.707q-1.167.3-2.63,0.526t-3.139.427a31.022,31.022,0,0,0-7.726,1.742,8.814,8.814,0,0,0-4.027,2.86,6.907,6.907,0,0,0-1.2,4.077,8.493,8.493,0,0,0,1.315,4.767,8.8,8.8,0,0,0,3.55,3.107,11.148,11.148,0,0,0,5,1.1,11.707,11.707,0,0,0,6.345-1.792,12.661,12.661,0,0,0,4.554-5.1,16.772,16.772,0,0,0,1.693-7.742V39.43ZM207.473,97.372H207.8a11.986,11.986,0,0,1,4.076-5.277A9.8,9.8,0,0,1,217.5,90.4q0.855,0,1.677.082a11.525,11.525,0,0,1,1.512.247l-1.644,9.83a10.593,10.593,0,0,0-2.054-.345q-1.3-.115-2.384-0.116a8.369,8.369,0,0,0-6.887,3.5,9.319,9.319,0,0,0-1.595,3.928L202.9,127.092H191.462l6.017-36.3h11.079Zm-4.967-39.186a4.58,4.58,0,0,0,4.324.937l0.739-.131q0.378-.066.707-0.1l0.3,1.479q-0.362.033-.756,0.1t-0.756.131q-3.585.69-5.606-1.331a7.713,7.713,0,0,1-2.022-5.7V25.687h-5.391V24.175h5.391V15.266h1.513v8.909h7.627v1.512h-7.627V53.566A6.129,6.129,0,0,0,202.506,58.185Zm-32.12-.9a11.843,11.843,0,0,0,7.019,2.2,11.344,11.344,0,0,0,4.685-.921,12.851,12.851,0,0,0,3.485-2.236,13.466,13.466,0,0,0,2.252-2.6,8.422,8.422,0,0,0,1.019-1.973l1.381,0.559a9.586,9.586,0,0,1-1.134,2.2,15.4,15.4,0,0,1-2.515,2.91,14.345,14.345,0,0,1-3.912,2.532A12.7,12.7,0,0,1,177.405,61a13.249,13.249,0,0,1-7.824-2.433,16.581,16.581,0,0,1-5.441-6.657,22.235,22.235,0,0,1-1.989-9.583,22.209,22.209,0,0,1,1.989-9.6,16.607,16.607,0,0,1,5.441-6.641,13.252,13.252,0,0,1,7.824-2.433,12.649,12.649,0,0,1,5.228,1.019,13.955,13.955,0,0,1,3.863,2.515,15.149,15.149,0,0,1,2.482,2.91,9.807,9.807,0,0,1,1.118,2.2l-1.381.559a8.7,8.7,0,0,0-1-1.973,12.986,12.986,0,0,0-2.236-2.6,12.8,12.8,0,0,0-3.435-2.219,11.181,11.181,0,0,0-4.636-.9,11.784,11.784,0,0,0-7.019,2.219,15.214,15.214,0,0,0-4.915,6.082,20.682,20.682,0,0,0-1.808,8.86,20.789,20.789,0,0,0,1.808,8.877A15.061,15.061,0,0,0,170.386,57.281Zm5.592,20.825a18.324,18.324,0,0,1,9.222,2.1,11.942,11.942,0,0,1,5.243,5.9,15.9,15.9,0,0,1,.724,8.86,19.593,19.593,0,0,1-3.666,8.794,19.068,19.068,0,0,1-7.282,5.836,23.614,23.614,0,0,1-10.093,2.071H162l-2.555,15.419H147.8l8.12-48.986h20.055Zm-6.115,24.263a10.7,10.7,0,0,0,4.635-.937,8.276,8.276,0,0,0,3.189-2.6,8.6,8.6,0,0,0,1.546-3.9,6.938,6.938,0,0,0-.28-3.879,5.021,5.021,0,0,0-2.334-2.548,9.014,9.014,0,0,0-4.323-.9h-6.313l-2.445,14.761h6.325Zm-42.1-51.351a15,15,0,0,0,4.915,6.312A13.932,13.932,0,0,0,146.042,58.5a13,13,0,0,0,3.9-2.877,13.254,13.254,0,0,0,2.22-3.173l1.315,0.657a14.049,14.049,0,0,1-2.565,3.682,14.433,14.433,0,0,1-4.372,3.14,15.418,15.418,0,0,1-14.482-1.2A16.291,16.291,0,0,1,126.513,52a22.615,22.615,0,0,1-1.972-9.616,22.361,22.361,0,0,1,1.989-9.583,16.659,16.659,0,0,1,5.441-6.707,13.191,13.191,0,0,1,7.824-2.449A13.329,13.329,0,0,1,145.779,25a14.554,14.554,0,0,1,4.75,3.764,17.688,17.688,0,0,1,3.14,5.671,21.633,21.633,0,0,1,1.118,7.068v0.855h-28.73A21.849,21.849,0,0,0,127.763,51.018Zm25.484-10.175a18.736,18.736,0,0,0-1.731-7.693,14.8,14.8,0,0,0-4.8-5.835,12.126,12.126,0,0,0-13.891.066,15.342,15.342,0,0,0-4.947,6.033,19.243,19.243,0,0,0-1.8,7.43h27.164Zm-40.081-4.57a10.7,10.7,0,0,0-3.157-8.055,11.228,11.228,0,0,0-8.153-3.057,12.943,12.943,0,0,0-6.131,1.43,10.916,10.916,0,0,0-4.274,3.945,10.649,10.649,0,0,0-1.562,5.737v24.2H88.377v-36.3h1.512V30.9a10.087,10.087,0,0,1,4.29-5.146,14.63,14.63,0,0,1,7.676-2.1,13.515,13.515,0,0,1,6.658,1.595,11.694,11.694,0,0,1,4.52,4.422,12.912,12.912,0,0,1,1.644,6.608v24.2h-1.512v-24.2ZM71.117,58.728a12.987,12.987,0,0,1-7.792,2.466A13.131,13.131,0,0,1,55.5,58.728,16.786,16.786,0,0,1,50.06,52a22.45,22.45,0,0,1-1.989-9.616,22.343,22.343,0,0,1,1.989-9.6A16.685,16.685,0,0,1,55.5,26.1a13.644,13.644,0,0,1,15.6,0,16.726,16.726,0,0,1,5.425,6.707,22.379,22.379,0,0,1,1.989,9.583A22.458,22.458,0,0,1,76.525,52,16.907,16.907,0,0,1,71.117,58.728ZM75.21,33.561a15.359,15.359,0,0,0-4.882-6.148,12,12,0,0,0-14.022.016,15.573,15.573,0,0,0-4.915,6.148,20.62,20.62,0,0,0-1.808,8.811,21.083,21.083,0,0,0,1.792,8.877,15.267,15.267,0,0,0,4.9,6.164,11.713,11.713,0,0,0,7.052,2.252,11.592,11.592,0,0,0,7-2.252,15.332,15.332,0,0,0,4.882-6.164A21.089,21.089,0,0,0,77,42.388,20.9,20.9,0,0,0,75.21,33.561Zm30.77,56.709a14.415,14.415,0,0,1,5,.822,11.1,11.1,0,0,1,3.813,2.3,10.064,10.064,0,0,1,2.417,3.468,11.034,11.034,0,0,1,.838,4.323v25.907h-1.512v-7.364h-0.165a13.573,13.573,0,0,1-2.942,4.241,13.714,13.714,0,0,1-4.274,2.827,13.8,13.8,0,0,1-10.833-.181,9.709,9.709,0,0,1-5.753-9.287,9.69,9.69,0,0,1,.641-3.551,7.2,7.2,0,0,1,2.186-2.926,13.581,13.581,0,0,1,4.274-2.219,33.842,33.842,0,0,1,6.9-1.43q2.662-.328,4.948-0.74a11.662,11.662,0,0,0,3.649-1.184,2.427,2.427,0,0,0,1.365-2.219v-1.874a9.117,9.117,0,0,0-1.315-4.931,8.936,8.936,0,0,0-3.7-3.288,12.309,12.309,0,0,0-5.54-1.184,13.74,13.74,0,0,0-4.964.871A10.431,10.431,0,0,0,97.2,95.12a8.547,8.547,0,0,0-2.137,3.8l-1.479-.46a9.994,9.994,0,0,1,2.466-4.307,12.161,12.161,0,0,1,4.356-2.86A15.039,15.039,0,0,1,105.98,90.271Zm8.926,16.718a13.456,13.456,0,0,1-2.1.707q-1.167.3-2.63,0.526t-3.14.427a31.027,31.027,0,0,0-7.725,1.743,8.817,8.817,0,0,0-4.027,2.86,6.914,6.914,0,0,0-1.2,4.077,8.5,8.5,0,0,0,1.315,4.767,8.8,8.8,0,0,0,3.551,3.106,11.143,11.143,0,0,0,5,1.1,11.708,11.708,0,0,0,6.345-1.792,12.656,12.656,0,0,0,4.553-5.1,16.758,16.758,0,0,0,1.694-7.742v-5.622A7.932,7.932,0,0,1,114.906,106.988ZM11.94,56.9a17.18,17.18,0,0,0,9.3,2.679,16.816,16.816,0,0,0,6.789-1.3,16.6,16.6,0,0,0,5.112-3.419,19.214,19.214,0,0,0,5.293-9.715h1.545a20.507,20.507,0,0,1-1.825,5.392,20,20,0,0,1-3.682,5.178,17.917,17.917,0,0,1-13.233,5.375,18.313,18.313,0,0,1-10.6-3.14,20.732,20.732,0,0,1-7.151-8.794A31.565,31.565,0,0,1,.927,36.011,31.653,31.653,0,0,1,3.491,22.827a20.853,20.853,0,0,1,7.151-8.811,18.245,18.245,0,0,1,10.6-3.156,18.456,18.456,0,0,1,7.611,1.479A18,18,0,0,1,34.477,16.2a20.02,20.02,0,0,1,3.682,5.178,20.459,20.459,0,0,1,1.825,5.425H38.438a19.008,19.008,0,0,0-1.808-5.079,18.094,18.094,0,0,0-3.468-4.652A17.358,17.358,0,0,0,11.94,15.1a19.432,19.432,0,0,0-6.887,8.005,28.872,28.872,0,0,0-2.614,12.9A28.929,28.929,0,0,0,5.053,48.964,19.089,19.089,0,0,0,11.94,56.9ZM472.7,103.766a22.431,22.431,0,0,1,4.422-7.035,20.5,20.5,0,0,1,6.723-4.784,20.905,20.905,0,0,1,8.63-1.742,19.765,19.765,0,0,1,7.3,1.282,11.9,11.9,0,0,1,5.162,3.731,9.421,9.421,0,0,1,1.907,5.967,8.038,8.038,0,0,1-2.17,5.869,13.821,13.821,0,0,1-6.312,3.37,50.748,50.748,0,0,1-10.06,1.545q-2.928.2-6.234,0.293c0,0.109-.011.225-0.013,0.331a11.241,11.241,0,0,0,.411,3.6,4.441,4.441,0,0,0,1.825,2.5,6.877,6.877,0,0,0,3.846.9,8.969,8.969,0,0,0,4.488-1.052,5.643,5.643,0,0,0,2.58-2.893L505.5,116.44a15.881,15.881,0,0,1-6.51,8.285,20.8,20.8,0,0,1-11.737,3.156,19.856,19.856,0,0,1-8.843-1.825,12.6,12.6,0,0,1-5.638-5.309,16.032,16.032,0,0,1-1.759-8.417A24.286,24.286,0,0,1,472.7,103.766Zm13.726,1.775a41.831,41.831,0,0,0,6.164-.624,6.319,6.319,0,0,0,2.959-1.2,2.507,2.507,0,0,0,.805-1.907,2.767,2.767,0,0,0-1.331-2.449,6.791,6.791,0,0,0-3.732-.871,7.417,7.417,0,0,0-4.783,1.463,9.206,9.206,0,0,0-2.762,3.716,19.657,19.657,0,0,0-.686,1.981C484.282,105.62,485.428,105.587,486.427,105.541Z"/>
  </g>
  <g id="youtube_icon" data-name="youtube icon">
    <path id="Forma_2" data-name="Forma 2" class="cls-3" d="M314.214,171.26a6.365,6.365,0,0,0-4.49-4.5c-3.96-1.063-19.842-1.063-19.842-1.063s-15.882,0-19.841,1.063a6.365,6.365,0,0,0-4.49,4.5c-1.062,3.965-1.062,12.239-1.062,12.239s0,8.275,1.062,12.24a6.365,6.365,0,0,0,4.49,4.5c3.96,1.063,19.841,1.063,19.841,1.063s15.882,0,19.841-1.063a6.365,6.365,0,0,0,4.49-4.5c1.062-3.965,1.062-12.24,1.062-12.24S315.275,175.225,314.214,171.26Z"/>
    <path id="Forma_2_copiar" data-name="Forma 2 copiar" class="cls-4" d="M284.9,191.21l13.328-7.711-13.328-7.71V191.21Z"/>
    <path id="Forma_2_copiar_4" data-name="Forma 2 copiar 4" class="cls-5" d="M279.634,184.187H255.3a0.688,0.688,0,0,1,0-1.375h24.331A0.688,0.688,0,0,1,279.634,184.187Zm0-5.711H261.006a0.687,0.687,0,0,1,0-1.374h18.628A0.687,0.687,0,0,1,279.634,178.476Zm0,11.422H261.006a0.687,0.687,0,0,1,0-1.374h18.628A0.687,0.687,0,0,1,279.634,189.9Zm10.4,12.278c-0.659,0-16.187-.013-20.231-1.1a7.121,7.121,0,0,1-5.024-5.03,0.687,0.687,0,1,1,1.327-.356,5.744,5.744,0,0,0,4.053,4.058c3.87,1.039,19.716,1.051,19.876,1.051s16.006-.013,19.876-1.051a5.741,5.741,0,0,0,4.053-4.057c1.036-3.876,1.049-12.11,1.049-12.194s-0.013-8.318-1.05-12.192a5.741,5.741,0,0,0-4.052-4.058c-3.87-1.039-19.717-1.051-19.877-1.051s-16,.012-19.875,1.051a5.742,5.742,0,0,0-4.053,4.058,0.687,0.687,0,1,1-1.327-.356,7.121,7.121,0,0,1,5.024-5.03c4.043-1.085,19.572-1.1,20.231-1.1s16.189,0.012,20.232,1.1a7.121,7.121,0,0,1,5.023,5.031c1.083,4.048,1.1,12.2,1.1,12.547s-0.013,8.5-1.1,12.549a7.118,7.118,0,0,1-5.024,5.03C306.22,202.163,290.69,202.176,290.032,202.176ZM284.9,191.9a0.686,0.686,0,0,1-.686-0.687V175.79a0.687,0.687,0,0,1,1.03-.595l13.334,7.709a0.688,0.688,0,0,1,0,1.191L285.243,191.8A0.693,0.693,0,0,1,284.9,191.9Zm0.687-14.916v13.038l11.275-6.519Z"/>
  </g>
  <g id="aluno_icon" data-name="aluno icon">
    <path id="Forma_5" data-name="Forma 5" class="cls-1" d="M186,187h4v4h3l4,5,5-5h2v-4h5v-4l-2-2h-5l-3,1h-3l-4-2-4,1-2,2v4Z"/>
    <rect id="Retângulo_1" data-name="Retângulo 1" class="cls-6" x="220" y="166" width="7" height="35"/>
    <path id="Forma_3" data-name="Forma 3" class="cls-5" d="M225.091,202.012H176.734a2.154,2.154,0,0,1-2.152-2.151V167.187a2.154,2.154,0,0,1,2.152-2.151h8.213a0.585,0.585,0,1,1,0,1.169h-8.213a0.983,0.983,0,0,0-.982.982v32.675a0.983,0.983,0,0,0,.982.981h43.172V166.205h-9.259a0.585,0.585,0,1,1,0-1.169H225.09a2.155,2.155,0,0,1,2.153,2.151v32.674A2.154,2.154,0,0,1,225.091,202.012Zm0.981-34.825a0.983,0.983,0,0,0-.982-0.982h-4.013v34.638h4.013a0.983,0.983,0,0,0,.982-0.981V167.187Zm-2.715,17.66a1.322,1.322,0,1,1,1.322-1.322A1.322,1.322,0,0,1,223.357,184.847Zm-15.039,7.571h-6.759l-3.744,3.742a0.583,0.583,0,0,1-.827,0l-3.744-3.742h-6.758a1.624,1.624,0,0,1-1.664-1.578v-6.957a3.975,3.975,0,0,1,3.433-3.829l3.238-.545a1.911,1.911,0,0,0,1.676-1.814l0.014-.6a8.342,8.342,0,0,1-2.1-3.243H189.5a1.371,1.371,0,0,1-1.37-1.369v-3.3a1.371,1.371,0,0,1,1.37-1.369h0.844l-0.022-.294a0.584,0.584,0,0,1-.185-0.327c-0.506-2.672-.1-4.827,1.212-6.407a7.854,7.854,0,0,1,6.142-2.486h0c2.59,0,4.534.725,5.779,2.156,1.377,1.582,1.85,4,1.405,7.17a0.589,0.589,0,0,1-.065.189h0.7a1.37,1.37,0,0,1,1.369,1.368v3.3a1.37,1.37,0,0,1-1.369,1.368h-0.523a3.446,3.446,0,0,1-2.722,2.788c-0.11.123-.219,0.248-0.335,0.363-0.033.033-.071,0.06-0.1,0.093l0.014,0.582a1.913,1.913,0,0,0,1.675,1.827l3.238,0.545a3.977,3.977,0,0,1,3.433,3.83v6.956A1.624,1.624,0,0,1,208.318,192.418Zm-17.682-20.632-0.209-2.8H189.5a0.2,0.2,0,0,0-.2.2v3.3a0.2,0.2,0,0,0,.2.2h1.27A8.145,8.145,0,0,1,190.636,171.786Zm-4.644,19.055a0.457,0.457,0,0,0,.494.409h3.246c0-.416,0-1.124,0-2.347a1.147,1.147,0,0,0-.346-0.811,1.46,1.46,0,0,0-1.03-.412h-2.364v3.161Zm11.5-31.369h0a6.7,6.7,0,0,0-5.241,2.063,6.12,6.12,0,0,0-1.038,5c4.93,0.319,8.667-1.488,10.647-5.139,0.069-.158.145-0.321,0.228-0.487A6.536,6.536,0,0,0,197.488,159.472Zm7.818,13.215a0.2,0.2,0,0,0,.2-0.2v-3.3a0.2,0.2,0,0,0-.2-0.2h-0.944l-0.194,2.791a8.345,8.345,0,0,1-.133.91h1.271Zm-1.679-6.262a7.876,7.876,0,0,0-.734-4.479C201.857,164.345,202.53,165.467,203.627,166.425Zm-1.888,8.756A7.135,7.135,0,0,0,203,171.687l0.28-4.037a4.676,4.676,0,0,1-2.075-3.352c-2.286,2.425-5.611,3.614-9.7,3.428l0.295,3.967a7.167,7.167,0,0,0,4.7,6.123,2.659,2.659,0,0,0,1.8,0,7.093,7.093,0,0,0,1.993-1.106L200,177c0.026,0,1.444-1.467,1.47-1.467C201.562,175.417,201.655,175.3,201.739,175.181ZM200.493,178a8.3,8.3,0,0,1-1.793.914,3.83,3.83,0,0,1-2.6,0,8.3,8.3,0,0,1-1.792-.912,2.934,2.934,0,0,1-1.182,2.04c2.874,2.507,5.682,2.507,8.548,0A2.954,2.954,0,0,1,200.493,178Zm8.317,5.881a2.808,2.808,0,0,0-2.456-2.675l-3.238-.545c-0.105-.018-0.2-0.051-0.3-0.078a7.1,7.1,0,0,1-10.821,0c-0.1.027-.2,0.06-0.3,0.078l-3.238.545a2.811,2.811,0,0,0-2.457,2.676v2.626h2.364a2.635,2.635,0,0,1,1.858.755,2.309,2.309,0,0,1,.689,1.638c0,1.216,0,1.929,0,2.347h2.506a0.582,0.582,0,0,1,.484.163l3.509,3.508,3.51-3.508a0.583,0.583,0,0,1,.507-0.163h2.457c0-.48,0-1.259,0-2.346a2.305,2.305,0,0,1,.689-1.638,2.639,2.639,0,0,1,1.858-.755h2.389v-2.627Zm0,3.8h-2.388a1.464,1.464,0,0,0-1.031.411,1.144,1.144,0,0,0-.346.811c0,1.209,0,1.923,0,2.348h3.272a0.457,0.457,0,0,0,.493-0.409V187.68Zm-7.968-17.6a0.585,0.585,0,0,1-.27-0.066,1.838,1.838,0,0,0-1.832,0,0.585,0.585,0,1,1-.541-1.037,3,3,0,0,1,2.914,0A0.584,0.584,0,0,1,200.843,170.077Zm-2.151,3.535a0.585,0.585,0,0,1,.813.841,2.735,2.735,0,0,1-4.208,0,0.585,0.585,0,0,1,.816-0.838A1.593,1.593,0,0,0,198.692,173.612Zm-2.36-3.535a0.585,0.585,0,0,1-.27-0.066,1.838,1.838,0,0,0-1.832,0,0.585,0.585,0,1,1-.541-1.037,3,3,0,0,1,2.914,0A0.585,0.585,0,0,1,196.332,170.077Z"/>
  </g>
  <g id="prof_icon" data-name="prof icon">
    <path id="Retângulo_1_copiar" data-name="Retângulo 1 copiar" class="cls-7" d="M367,200v-4h37v4H367Z"/>
    <path id="Retângulo_1_copiar_4" data-name="Retângulo 1 copiar 4" class="cls-1" d="M399,176H387a1,1,0,0,1,0-2h12A1,1,0,0,1,399,176Zm0-4H387a1,1,0,0,1,0-2h12A1,1,0,0,1,399,172Zm-12,6h12a1,1,0,0,1,0,2H387A1,1,0,0,1,387,178Z"/>
    <path id="Forma_4" data-name="Forma 4" class="cls-5" d="M401.162,201.286H370.391a4.465,4.465,0,0,1-4.465-4.454,0.7,0.7,0,0,1,1.392,0,3.072,3.072,0,0,0,3.073,3.066h30.771a3.073,3.073,0,0,0,3.074-3.066V169.074a3.074,3.074,0,0,0-3.074-3.066H370.391a3.073,3.073,0,0,0-3.073,3.066v15.112a0.7,0.7,0,0,1-1.392,0V169.074a4.464,4.464,0,0,1,4.465-4.453h30.771a4.465,4.465,0,0,1,4.466,4.453v27.758A4.465,4.465,0,0,1,401.162,201.286Zm-16.43-20.32a0.7,0.7,0,0,0-.952-0.249L378.121,184a2.359,2.359,0,0,0-2.784-.4l-1.729.937-6.07,3.033a16.985,16.985,0,0,0-4.954-2.967V172.537a7.938,7.938,0,0,0-15.875,0v11.787l-0.448.075A3.774,3.774,0,0,0,343,188.037v13.269a0.7,0.7,0,0,0,.7.694h18.945a0.695,0.695,0,0,0,.7-0.7l-0.1-7.8,4,0.931a0.69,0.69,0,0,0,.531-0.09l8.518-5.4s0-.006.009-0.009a0.119,0.119,0,0,0,.016-0.008l1.631-1.138a2.317,2.317,0,0,0,.9-2.591l5.637-3.277A0.694,0.694,0,0,0,384.732,180.966ZM348.1,172.537a6.546,6.546,0,0,1,13.092,0v11.626c-0.389-.1-0.779-0.193-1.169-0.257h-0.009a1.577,1.577,0,0,1-1.387-1.5l-0.012-.679a8.275,8.275,0,0,0,2.162-5.44v-3.74a0.7,0.7,0,0,0-.692-0.694,4.726,4.726,0,0,1-3.3-1.182,0.7,0.7,0,0,0-.744-0.087,15.138,15.138,0,0,1-6.829,1.269,0.7,0.7,0,0,0-.694.694v3.74a8.279,8.279,0,0,0,2.094,5.361l-0.013.77a1.575,1.575,0,0,1-1.389,1.486l-1.106.186V172.537Zm9.356,8.391a0.671,0.671,0,0,0-.07.071,3.961,3.961,0,0,1-2.74,1.224c-2.669,0-4.74-3.191-4.74-5.936v-3.054a16.116,16.116,0,0,0,6.343-1.216,5.886,5.886,0,0,0,3.136,1.194v3.077A6.887,6.887,0,0,1,357.457,180.928Zm-5.5,1.861a4.824,4.824,0,0,0,5.322.041,2.9,2.9,0,0,0,1.561,2.121l-4.225,6.5-4.224-6.5A2.886,2.886,0,0,0,351.954,182.789Zm15.317,10.218-4.581-1.066a0.694,0.694,0,0,0-.854.684l0.1,7.988H350.019v-5.131a0.7,0.7,0,0,0-1.392,0v5.131h-4.235V188.037a2.392,2.392,0,0,1,2.1-2.269l2.5-.42,5.041,7.763a0.7,0.7,0,0,0,1.167,0l5.031-7.747a14.79,14.79,0,0,1,6.743,3.558,0.7,0.7,0,0,0,.774.1l5.928-2.963,0.057,0.091,1.233,1.979Zm9.875-6.362-1.027.718-1.155-1.855-0.056-.089,1.093-.592a0.966,0.966,0,0,1,1.251.292l0.131,0.186A0.96,0.96,0,0,1,377.146,186.645Z"/>
  </g>
</svg>
