<svg version="1.2" xmlns="http://www.w3.org/2000/svg" viewBox="0 0 615 100" width="194" height="32"><style>.a{fill:#5f2ebe}.b{fill:#fff}.c{fill:#bab0d3}</style><path fill-rule="evenodd" class="a" d="m14.2 0.2h71.6c1.8 0 3.6 0.3 5.3 1 1.8 0.8 3.3 1.8 4.6 3.1 1.3 1.3 2.4 2.9 3.1 4.6 0.7 1.7 1 3.5 1 5.4v71.5c0 1.9-0.3 3.7-1 5.4-0.7 1.7-1.8 3.3-3.1 4.6-1.3 1.3-2.8 2.3-4.6 3-1.7 0.7-3.5 1.1-5.3 1.1h-71.6c-1.8 0-3.6-0.4-5.4-1.1-1.7-0.7-3.2-1.7-4.5-3-1.3-1.3-2.4-2.9-3.1-4.6-0.7-1.7-1-3.5-1-5.4v-71.5c0-1.9 0.3-3.7 1-5.4 0.7-1.7 1.8-3.3 3.1-4.6 1.3-1.3 2.8-2.3 4.5-3.1 1.8-0.7 3.6-1 5.4-1z"/><path fill-rule="evenodd" class="b" d="m82.8 55.5q-0.6 0.5-1.3 1-0.7 0.5-1.5 0.9-0.7 0.4-1.5 0.7-0.8 0.3-1.7 0.5-1.1 0.3-2.3 0.5-1.2 0.2-2.4 0.4-1.2 0.2-2.4 0.3-1.2 0.1-2.4 0.1-2.7 0.2-5.8 0.3 0 0.4 0 0.7 0 0.4 0 0.8 0 0.3 0.1 0.7 0 0.3 0.1 0.7 0.1 0.4 0.2 0.8 0.2 0.3 0.4 0.7 0.2 0.3 0.5 0.6 0.2 0.3 0.6 0.5 0.4 0.3 0.8 0.5 0.5 0.2 1 0.3 0.5 0.1 1 0.2 0.5 0 1 0 0.5 0 1.1-0.1 0.5 0 1.1-0.2 0.5-0.1 1.1-0.3 0.5-0.2 1-0.5 0.4-0.2 0.8-0.5 0.3-0.3 0.6-0.6 0.3-0.4 0.6-0.8 0.2-0.4 0.4-0.8l9.8 0.4q-0.4 1.2-1 2.4-0.7 1.1-1.4 2.2-0.8 1-1.8 1.9-0.9 0.9-2 1.6-1.3 0.8-2.6 1.4-1.4 0.6-2.8 1-1.4 0.4-2.9 0.6-1.4 0.1-2.9 0.1-1.1 0-2.2-0.1-1.1-0.1-2.2-0.3-1.1-0.2-2.1-0.6-1-0.3-2-0.8-1-0.5-1.9-1.1-0.9-0.7-1.7-1.5-0.7-0.8-1.3-1.8-0.6-0.9-1-2-0.3 0.6-0.7 1.2-0.5 0.7-1.1 1.4-0.6 0.7-1.2 1.4-0.7 0.6-1.4 1.2-0.7 0.5-1.5 1-0.8 0.5-1.7 0.8-0.9 0.4-1.8 0.6-0.9 0.3-1.9 0.4-0.9 0.1-1.9 0.1-0.5 0-1.1-0.1-0.6 0-1.1-0.1-0.6-0.1-1.1-0.3-0.6-0.1-1.1-0.3-0.4-0.2-0.9-0.5-0.4-0.2-0.8-0.5-0.3-0.3-0.7-0.6-0.3-0.3-0.6-0.7-0.3-0.3-0.6-0.7-0.3-0.4-0.5-0.8-0.2-0.4-0.4-0.9-0.1-0.4-0.3-0.8h-0.2l-1 5.6h-10.6l7.7-46.4h10.8l-2.9 17.6h0.1q0.5-0.8 1.1-1.6 0.6-0.7 1.4-1.3 0.7-0.7 1.5-1.1 0.9-0.5 1.8-0.8 0.5-0.2 1-0.4 0.5-0.1 1-0.2 0.6-0.1 1.1-0.1 0.5-0.1 1.1 0 0.8-0.1 1.6 0 0.8 0.1 1.6 0.3 0.8 0.2 1.5 0.6 0.8 0.3 1.5 0.7 0.7 0.4 1.3 0.9 0.6 0.6 1.1 1.2 0.6 0.6 1 1.3 0.5 0.6 0.8 1.4 0.1 0.2 0.2 0.5 0.2 0.3 0.3 0.6 0.1 0.2 0.2 0.5 0 0.3 0.1 0.6 0.3-0.4 0.6-0.8 0.3-0.4 0.6-0.8 0.3-0.4 0.7-0.8 0.3-0.3 0.7-0.7 0.6-0.6 1.4-1.2 0.7-0.6 1.5-1.2 0.8-0.5 1.6-0.9 0.8-0.5 1.7-0.8 0.9-0.4 1.9-0.7 1-0.2 2-0.4 1-0.2 2-0.3 1-0.1 2-0.1 0.8 0 1.7 0.1 0.9 0 1.8 0.2 0.8 0.1 1.7 0.4 0.8 0.2 1.7 0.5 0.7 0.3 1.4 0.6 0.6 0.4 1.3 0.8 0.6 0.5 1.1 1 0.6 0.5 1.1 1.1 0.4 0.6 0.8 1.3 0.3 0.7 0.6 1.5 0.2 0.7 0.3 1.5 0.1 0.7 0.1 1.5 0 0.8-0.1 1.5-0.1 0.8-0.4 1.5-0.2 0.8-0.6 1.4-0.5 0.7-1 1.3zm-39.6-6.1q-0.3-0.4-0.7-0.7-0.4-0.3-0.9-0.5-0.4-0.2-0.9-0.3-0.5 0-1 0-0.5 0-1 0-0.5 0.1-1 0.2-0.5 0.2-1 0.4-0.4 0.2-0.9 0.5-0.4 0.2-0.8 0.6-0.4 0.3-0.7 0.6-0.4 0.4-0.7 0.8-0.3 0.4-0.6 0.8-0.3 0.5-0.6 0.9-0.2 0.5-0.5 1-0.2 0.5-0.4 1-0.2 0.5-0.3 1-0.1 0.5-0.3 1-0.1 0.5-0.2 1.1 0 0.5-0.1 1 0 0.5 0 1.1 0 0.5 0 1.1 0.1 0.6 0.3 1.2 0.1 0.5 0.4 1 0.3 0.6 0.6 1 0.3 0.4 0.8 0.7 0.4 0.4 0.9 0.6 0.4 0.2 0.9 0.3 0.6 0 1.1 0 0.5 0 1 0 0.5-0.1 1-0.3 0.5-0.1 1-0.3 0.5-0.3 0.9-0.5 0.4-0.3 0.8-0.7 0.4-0.3 0.7-0.7 0.4-0.4 0.7-0.8 0.3-0.4 0.5-0.9 0.3-0.4 0.6-0.9 0.2-0.5 0.4-1 0.2-0.5 0.4-1 0.1-0.5 0.3-1.1 0.1-0.5 0.2-1 0.1-0.5 0.2-1 0-0.5 0.1-1 0-0.5 0-1 0-0.6 0-1.1-0.1-0.6-0.2-1.1-0.2-0.6-0.4-1.1-0.3-0.5-0.6-0.9zm30.5-1.4q-0.4-0.2-0.8-0.4-0.5-0.2-0.9-0.3-0.5-0.1-0.9-0.1-0.5-0.1-1 0-0.5-0.1-1.1 0-0.6 0.1-1.1 0.2-0.6 0.2-1.1 0.4-0.6 0.2-1.1 0.5-0.4 0.3-0.7 0.7-0.4 0.3-0.7 0.7-0.4 0.4-0.6 0.8-0.3 0.4-0.5 0.9-0.2 0.3-0.3 0.6-0.1 0.3-0.2 0.6-0.1 0.3-0.2 0.6-0.1 0.3-0.2 0.6 1.8-0.1 3.3-0.1 0.7-0.1 1.4-0.1 0.8-0.1 1.5-0.1 0.7-0.1 1.5-0.2 0.7-0.1 1.4-0.3 0.4 0 0.8-0.1 0.3-0.1 0.7-0.3 0.3-0.1 0.7-0.3 0.3-0.2 0.6-0.4 0.2-0.2 0.3-0.4 0.2-0.2 0.3-0.4 0.1-0.2 0.1-0.5 0.1-0.2 0.1-0.4 0-0.4-0.1-0.7-0.1-0.3-0.3-0.6-0.1-0.3-0.4-0.5-0.2-0.3-0.5-0.4z"/><path fill-rule="evenodd" class="c" d="m611 75.7q-0.8 1.6-1.7 3.1-0.9 1.5-2 2.9-1.2 1.3-2.4 2.5-1.3 1.2-2.7 2.3c-1.9 1.3-4 2.2-6.2 2.9-2.2 0.7-4.4 1-6.7 1-2.3 0-4.6-0.3-6.7-1-2.2-0.7-4.3-1.6-6.2-2.9q-1.4-1.1-2.7-2.3-1.3-1.2-2.4-2.5-1.2-1.4-2.1-2.9-0.9-1.5-1.7-3.1-0.8-1.8-1.4-3.7-0.6-1.9-1-3.8-0.4-2-0.6-4-0.2-1.9-0.2-3.9 0-2 0.2-4 0.2-2 0.6-4 0.4-1.9 1-3.8 0.6-1.9 1.4-3.7 0.8-1.6 1.7-3.1 1-1.5 2.1-2.9 1.1-1.3 2.4-2.5 1.3-1.2 2.7-2.3c1.9-1.2 4-2.2 6.2-2.9 2.1-0.6 4.4-1 6.7-1 2.3 0 4.5 0.4 6.7 1 2.2 0.7 4.2 1.7 6.1 2.9q1.5 1.1 2.7 2.3 1.3 1.2 2.5 2.5 1.1 1.4 2 2.9 0.9 1.5 1.7 3.1 0.8 1.8 1.4 3.7 0.6 1.9 1 3.9 0.4 1.9 0.6 3.9 0.2 2 0.2 4 0 2-0.2 3.9-0.2 2-0.6 4-0.4 1.9-1 3.8-0.6 1.9-1.4 3.7zm-2.2-29.7q-0.6-1.5-1.5-2.8-0.8-1.4-1.8-2.6-1-1.3-2.2-2.4-1.1-1.1-2.4-2c-1.7-1.2-3.6-2.1-5.5-2.7-2-0.6-4-0.9-6.1-0.9-2.1 0-4.1 0.3-6.1 0.9-1.9 0.6-3.8 1.5-5.5 2.7q-1.3 0.9-2.4 2-1.2 1.1-2.2 2.4-1 1.2-1.9 2.6-0.8 1.4-1.5 2.8-0.7 1.7-1.3 3.4-0.6 1.8-0.9 3.6-0.4 1.8-0.6 3.6-0.1 1.8-0.1 3.7 0 1.8 0.1 3.6 0.2 1.9 0.6 3.7 0.3 1.8 0.9 3.5 0.6 1.7 1.3 3.4 0.7 1.5 1.5 2.9 0.9 1.3 1.9 2.6 1 1.2 2.2 2.3 1.1 1.1 2.4 2.1c1.7 1.1 3.6 2 5.6 2.6 1.9 0.6 4 0.9 6 0.9 2.1 0 4.1-0.3 6.1-0.9 1.9-0.6 3.8-1.5 5.5-2.6q1.3-1 2.4-2.1 1.2-1.1 2.2-2.3 1-1.3 1.8-2.6 0.9-1.4 1.5-2.9 0.7-1.7 1.3-3.4 0.6-1.8 0.9-3.6 0.4-1.7 0.5-3.6 0.2-1.8 0.2-3.6 0-1.9-0.2-3.7-0.1-1.8-0.5-3.6-0.3-1.8-0.9-3.6-0.6-1.7-1.3-3.4zm-51.9 28.3h-0.2q-0.4 1.1-0.8 2.2-0.4 1.1-1 2.2-0.6 1-1.2 2-0.7 1-1.4 1.9-0.8 0.9-1.7 1.7-0.8 0.9-1.7 1.6-1 0.7-2 1.3-1 0.6-2 1.2-1.1 0.5-2.3 0.9-1.1 0.4-2.3 0.6-1.2 0.3-2.5 0.4-1.2 0.1-2.4 0.1-1.7 0.1-3.3-0.2-1.7-0.2-3.3-0.7-1.5-0.5-3-1.2-1.5-0.7-2.9-1.7-1.4-1-2.7-2.2-1.2-1.2-2.3-2.5-1.1-1.4-2-2.9-0.9-1.4-1.6-3-0.8-1.9-1.4-3.8-0.6-1.9-1-3.9-0.4-2-0.5-4-0.2-2-0.2-4 0-2 0.2-4 0.2-2.1 0.5-4 0.4-2 1-3.9 0.7-1.9 1.5-3.8 0.7-1.6 1.5-3.1 0.9-1.4 2-2.8 1.1-1.3 2.4-2.5 1.2-1.2 2.6-2.2 1.4-1 2.9-1.7 1.5-0.8 3.1-1.3 1.6-0.4 3.2-0.7 1.6-0.2 3.3-0.2 1.2 0 2.5 0.1 1.2 0.2 2.4 0.4 1.2 0.3 2.4 0.7 1.1 0.4 2.2 0.9 1.1 0.5 2.1 1.1 1 0.7 2 1.4 0.9 0.7 1.7 1.5 0.9 0.9 1.7 1.8 0.7 0.9 1.4 1.9 0.6 1 1.2 2 0.5 1.1 0.9 2.2 0.5 1.1 0.8 2.3h0.2v-37.3h2.5v80.2h-2.5zm-2.7-28.4q-0.6-1.5-1.3-2.8-0.8-1.4-1.8-2.6-0.9-1.2-2-2.3-1.1-1.1-2.4-2c-1.6-1.2-3.4-2-5.3-2.6-2-0.6-3.9-0.9-5.9-0.9-2 0-4 0.3-5.9 0.9-2 0.6-3.8 1.4-5.4 2.6q-1.3 0.9-2.4 2-1.2 1.1-2.1 2.3-1 1.2-1.8 2.6-0.8 1.3-1.4 2.8-0.7 1.7-1.3 3.5-0.5 1.8-0.9 3.6-0.3 1.8-0.5 3.6-0.1 1.9-0.1 3.7 0 1.9 0.1 3.7 0.2 1.9 0.5 3.7 0.4 1.8 0.9 3.6 0.6 1.7 1.3 3.4 0.6 1.5 1.4 2.8 0.8 1.4 1.8 2.6 0.9 1.3 2.1 2.4 1.1 1.1 2.4 2c1.6 1.1 3.4 2 5.3 2.6 1.9 0.6 3.9 0.9 5.9 0.9 2 0 4-0.3 6-0.9 1.9-0.6 3.7-1.5 5.3-2.6q1.3-0.9 2.4-2 1.1-1.1 2-2.4 1-1.2 1.8-2.6 0.7-1.3 1.3-2.8 0.7-1.7 1.2-3.4 0.5-1.8 0.9-3.6 0.3-1.8 0.5-3.7 0.1-1.8 0.1-3.7 0-1.8-0.1-3.6-0.2-1.9-0.5-3.7-0.4-1.8-0.9-3.6-0.5-1.8-1.2-3.5zm-50.5 32.5q-0.4 1.3-1.1 2.5-0.7 1.3-1.6 2.3-0.9 1.1-2 2-1.1 0.9-2.3 1.6-1.4 0.9-2.9 1.6-1.5 0.6-3.1 1-1.6 0.5-3.2 0.7-1.7 0.2-3.3 0.2-1.5 0-2.9-0.1-1.4-0.2-2.7-0.5-1.4-0.3-2.7-0.9-1.4-0.5-2.6-1.1-1.2-0.7-2.2-1.4-1.1-0.8-2-1.7-1-1-1.8-2-0.8-1-1.4-2.2-0.7-1.2-1.3-2.5-0.5-1.3-0.8-2.7-0.4-1.4-0.5-2.8-0.2-1.4-0.1-2.8v-38.5h2.4v38.5q0 8.2 5.2 13.2 5.2 5 13.4 5 1.3 0 2.6-0.1 1.3-0.1 2.5-0.4 1.3-0.3 2.5-0.8 1.2-0.4 2.4-1 1.1-0.6 2.1-1.3 0.9-0.7 1.8-1.5 0.9-0.8 1.7-1.7 0.8-1 1.4-2 0.6-1 1.1-2.2 0.5-1.1 0.8-2.3 0.4-1.2 0.5-2.4 0.2-1.3 0.1-2.5v-38.5h2.5v58.3h-2.5c0 0 0-11 0-11zm-52.5 7q2.4 2.2 6.8 1.7 0.8 0 1.6-0.1l1.6-0.1 0.2 2.4q-0.8 0.1-1.6 0.1l-1.6 0.1q-5.6 0.7-8.7-2.4-3.1-3.1-3.1-8.8v-44.8h-8.8v-2.4h8.8v-15h2.5v15h12.5v2.4h-12.5v44.8q0 4.8 2.3 7.1zm-13.8-38.9q-1.2-6.8-5.3-10.3-4.1-3.4-11.1-3.4-7.4 0-12 3.6-1.1 0.9-2 1.9-0.9 1.1-1.5 2.4-0.5 1.3-0.8 2.6-0.3 1.4-0.3 2.8 0 1 0.2 2.1 0.2 1 0.6 2 0.4 0.9 1 1.8 0.6 0.9 1.4 1.6 3.1 2.8 9.3 4.3l9.8 2.3q6.7 1.7 10.3 4.9 0.9 0.8 1.6 1.8 0.7 1.1 1.2 2.2 0.4 1.1 0.6 2.4 0.3 1.2 0.2 2.4 0 1.2-0.1 2.3-0.2 1.1-0.5 2.2-0.3 1.1-0.8 2.1-0.5 1.1-1.1 2-0.7 1-1.4 1.8-0.8 0.9-1.7 1.6-0.9 0.8-1.9 1.4-1 0.6-2 1-1.3 0.6-2.6 1-1.3 0.4-2.6 0.6-1.3 0.3-2.7 0.4-1.3 0.1-2.7 0.1-1.3 0-2.6-0.1-1.3-0.1-2.6-0.4-1.3-0.2-2.5-0.6-1.3-0.4-2.5-0.9-1-0.5-1.9-1.1-1-0.6-1.9-1.3-0.8-0.8-1.6-1.6-0.8-0.8-1.4-1.8-0.7-0.9-1.2-2-0.5-1-0.9-2.2-0.4-1.1-0.7-2.2-0.2-1.2-0.4-2.3l2.5-0.3q0.1 1.5 0.5 3 0.4 1.4 1.1 2.8 0.7 1.3 1.6 2.5 1 1.2 2.1 2.2 4.6 3.8 12.4 3.8 8 0 12.8-3.9 1.2-0.8 2.1-2 0.9-1.1 1.5-2.4 0.6-1.4 1-2.8 0.3-1.4 0.2-2.9 0.1-1-0.1-2-0.2-1-0.6-2-0.4-0.9-1-1.7-0.6-0.9-1.3-1.5-3.1-2.6-9-4l-9.6-2.4q-7.2-1.7-10.9-5.2-0.9-0.8-1.6-1.9-0.7-1-1.2-2.2-0.5-1.2-0.7-2.4-0.2-1.3-0.1-2.5-0.1-1.1 0.1-2.2 0.1-1.1 0.4-2.2 0.3-1 0.8-2 0.4-1 1-1.9 0.7-0.9 1.4-1.7 0.8-0.8 1.6-1.5 0.9-0.7 1.8-1.3 0.9-0.6 1.9-1 1.2-0.5 2.4-0.9 1.3-0.4 2.5-0.7 1.3-0.2 2.5-0.3 1.3-0.1 2.6-0.1 1.2 0 2.4 0.1 1.1 0.1 2.3 0.3 1.1 0.2 2.3 0.6 1.1 0.4 2.2 0.8 0.9 0.5 1.8 1 0.9 0.6 1.7 1.3 0.8 0.7 1.6 1.4 0.7 0.8 1.3 1.7 0.6 1 1.2 2 0.5 1 0.9 2.1 0.5 1.1 0.7 2.3 0.3 1.1 0.5 2.3zm-82.9 27.9q0.6 1.5 1.5 2.9 0.8 1.4 1.8 2.6 1 1.3 2.2 2.4 1.2 1.1 2.5 2.1 1.3 0.9 2.8 1.6 1.4 0.7 3 1.2 1.5 0.5 3.1 0.7 1.7 0.2 3.3 0.2 2.2 0 4.5-0.4 2.2-0.5 4.3-1.4 2.1-0.9 3.9-2.2 1.9-1.3 3.4-3 0.6-0.7 1.2-1.4 0.6-0.8 1.1-1.6 0.5-0.8 0.9-1.7 0.4-0.9 0.7-1.8l2.4 0.6q-0.4 1.1-0.8 2.1-0.5 1-1.1 1.9-0.5 1-1.2 1.9-0.6 0.8-1.4 1.7-0.8 0.8-1.7 1.6-0.9 0.8-1.8 1.5-1 0.8-2.1 1.4-1 0.6-2.1 1.1-1.2 0.5-2.4 0.9-1.3 0.5-2.6 0.7-1.3 0.3-2.6 0.4-1.3 0.2-2.6 0.1-1.8 0.1-3.5-0.2-1.8-0.2-3.5-0.7-1.7-0.5-3.3-1.3-1.6-0.7-3-1.7-1.5-1-2.8-2.2-1.3-1.2-2.4-2.6-1.2-1.4-2.1-2.9-1-1.5-1.7-3.1-0.8-1.8-1.5-3.7-0.6-1.9-1-3.8-0.4-2-0.6-4-0.2-1.9-0.1-3.9-0.1-2 0.1-4 0.2-2 0.6-3.9 0.4-2 1-3.9 0.7-1.9 1.5-3.7 0.7-1.6 1.6-3.1 1-1.5 2.1-2.9 1.1-1.3 2.4-2.5 1.3-1.2 2.8-2.2 1.4-1 2.9-1.8 1.5-0.7 3.2-1.2 1.6-0.5 3.3-0.8 1.7-0.2 3.4-0.2 1.3 0 2.6 0.1 1.3 0.2 2.5 0.4 1.3 0.3 2.5 0.7 1.2 0.5 2.3 1 1.1 0.6 2.2 1.2 1.1 0.7 2 1.4 1 0.8 1.9 1.7 0.9 0.8 1.7 1.8 0.8 1 1.6 2.1 0.7 1.1 1.4 2.2 0.6 1.2 1.1 2.4 0.6 1.2 1 2.4 0.4 1.4 0.8 2.8 0.3 1.4 0.5 2.8 0.3 1.5 0.4 2.9 0.1 1.4 0.1 2.9v1.3h-47.1q0 1.8 0.2 3.6 0.2 1.8 0.5 3.6 0.4 1.8 0.9 3.5 0.6 1.7 1.3 3.4zm41.7-16.5q0-1.7-0.2-3.3-0.2-1.6-0.5-3.2-0.4-1.5-0.9-3.1-0.6-1.5-1.3-3-0.6-1.4-1.5-2.6-0.8-1.3-1.8-2.5-1-1.2-2.1-2.2-1.2-1-2.4-1.9c-1.7-1.1-3.6-2-5.5-2.5-1.9-0.6-3.9-0.9-6-0.9-2 0-4 0.3-5.9 0.9-1.9 0.6-3.8 1.5-5.4 2.7q-1.3 0.9-2.5 2-1.2 1-2.2 2.3-1 1.2-1.9 2.6-0.8 1.3-1.5 2.8-0.7 1.3-1.2 2.8-0.5 1.5-0.8 3-0.4 1.5-0.6 3-0.2 1.5-0.3 3.1c0 0 44.5 0 44.5 0zm-53.7 31.6h-18.6l5.8-35.6q0.1-0.6 0.2-1.2 0.1-0.6 0-1.3 0-0.6-0.1-1.2-0.1-0.6-0.2-1.2-0.1-0.5-0.3-0.9-0.2-0.4-0.5-0.8-0.3-0.3-0.6-0.6-0.4-0.3-0.8-0.6-0.4-0.2-0.9-0.4-0.4-0.1-0.9-0.3-0.5-0.1-1-0.1-0.5-0.1-1 0-0.7-0.1-1.3 0-0.7 0.1-1.4 0.3-0.7 0.1-1.3 0.4-0.7 0.2-1.3 0.6-0.6 0.3-1.1 0.7-0.6 0.4-1.1 0.8-0.5 0.5-0.9 1-0.4 0.5-0.8 1.1-0.4 0.6-0.7 1.2-0.4 0.6-0.6 1.3-0.3 0.7-0.5 1.3-0.2 0.7-0.3 1.4l-5.6 34.1h-17.9l5.9-35.8q0.7-4.2-0.9-6.3-0.5-0.6-1-1-0.6-0.4-1.3-0.7-0.7-0.3-1.4-0.4-0.7-0.1-1.4 0-0.7-0.1-1.3 0-0.7 0.1-1.4 0.3-0.6 0.1-1.2 0.4-0.7 0.2-1.3 0.6-0.6 0.3-1.1 0.7-0.6 0.4-1.1 0.9-0.5 0.4-1 1-0.4 0.5-0.8 1.1-0.4 0.6-0.8 1.2-0.3 0.7-0.6 1.4-0.3 0.7-0.5 1.4-0.2 0.7-0.3 1.5l-5.6 33.7h-18.6l9.6-58.4h17.6l-1.3 10.3q0.4-0.7 0.8-1.4 0.4-0.7 0.9-1.3 0.5-0.7 1-1.3 0.5-0.6 1.1-1.2 0.7-0.8 1.5-1.4 0.9-0.7 1.7-1.3 0.9-0.6 1.8-1.1 1-0.5 1.9-0.9 0.9-0.3 1.8-0.6 1-0.3 1.9-0.5 0.9-0.1 1.9-0.2 1-0.1 1.9-0.1 1-0.1 2.1 0 1 0.2 2 0.4 1 0.2 2 0.6 0.9 0.4 1.8 0.9 0.9 0.4 1.6 1 0.8 0.6 1.4 1.3 0.7 0.8 1.3 1.6 0.5 0.8 0.9 1.6 0.3 0.6 0.6 1.2 0.2 0.6 0.4 1.3 0.2 0.6 0.3 1.2 0.2 0.7 0.3 1.3 0.4-0.8 0.9-1.6 0.4-0.8 1-1.5 0.5-0.7 1.1-1.4 0.6-0.7 1.2-1.4 0.8-0.8 1.7-1.5 0.9-0.7 1.8-1.4 1-0.6 2-1.1 1-0.5 2-0.9 1-0.4 2.1-0.7 1-0.3 2.1-0.5 1.1-0.2 2.1-0.3 1.1-0.1 2.2-0.1 1.3-0.1 2.6 0.1 1.3 0.1 2.6 0.5 1.2 0.3 2.4 0.8 1.2 0.5 2.4 1.2 1 0.6 1.9 1.4 0.9 0.8 1.7 1.7 0.7 0.9 1.3 2 0.6 1 1 2.2 0.5 1.3 0.8 2.7 0.3 1.3 0.4 2.7 0.1 1.4 0 2.8-0.1 1.4-0.4 2.8zm-93.4-9.4q-1.1 1.2-2.4 2.4-1.3 1.1-2.6 2.1-1.4 1-2.9 1.8-1.4 0.8-3 1.5-1.7 0.7-3.4 1.3-1.8 0.5-3.6 0.9-1.9 0.4-3.7 0.5-1.9 0.2-3.7 0.2-1.8 0-3.7-0.2-1.8-0.1-3.6-0.5-1.8-0.4-3.5-1-1.7-0.6-3.4-1.4-1.4-0.8-2.7-1.7-1.3-0.9-2.5-2-1.1-1.1-2.1-2.4-1-1.2-1.7-2.6-0.6-1.1-1.1-2.2-0.5-1.1-0.8-2.2-0.4-1.1-0.6-2.3-0.3-1.2-0.4-2.3-0.4 1.1-0.9 2.3-0.5 1.1-1 2.2-0.6 1.1-1.2 2.1-0.6 1.1-1.3 2.1-0.9 1.3-1.9 2.5-1 1.2-2.1 2.3-1.2 1.1-2.4 2.1-1.2 0.9-2.6 1.7-1.4 0.9-2.9 1.5-1.5 0.6-3.1 1-1.6 0.4-3.2 0.6-1.7 0.2-3.3 0.2-1 0-2-0.1-1 0-1.9-0.2-1-0.2-1.9-0.5-1-0.2-1.9-0.6-0.7-0.3-1.4-0.7-0.8-0.4-1.4-0.9-0.7-0.5-1.3-1.1-0.6-0.5-1.1-1.2-0.6-0.6-1-1.2-0.4-0.7-0.8-1.4-0.4-0.7-0.7-1.5-0.3-0.7-0.5-1.5h-0.4l-1.6 9.8h-18.4l13.2-80.2h18.7l-5 30.4h0.2q0.8-1.4 1.9-2.7 1.1-1.3 2.3-2.4 1.3-1.1 2.8-1.9 1.4-0.8 3-1.4 0.8-0.3 1.7-0.5 0.9-0.2 1.8-0.4 0.9-0.1 1.9-0.2 0.9-0.1 1.8-0.1 1.4 0 2.8 0.2 1.4 0.1 2.8 0.5 1.3 0.4 2.6 0.9 1.3 0.6 2.5 1.3 1.2 0.7 2.3 1.6 1.1 0.9 2 2 0.9 1 1.7 2.2 0.7 1.1 1.3 2.4 0.5 1.2 1 2.3 0.4 1.2 0.7 2.4 0.3 1.3 0.5 2.5 0.2 1.2 0.3 2.5 0.6-1.4 1.3-2.8 0.7-1.4 1.5-2.7 0.8-1.2 1.7-2.5 0.9-1.2 2-2.3 1.1-1.2 2.4-2.3 1.2-1.2 2.6-2.1 1.4-1 2.8-1.8 1.5-0.8 3-1.5 1.7-0.7 3.5-1.2 1.7-0.6 3.5-0.9 1.8-0.4 3.6-0.5 1.8-0.2 3.7-0.2 1.8 0 3.6 0.1 1.8 0.2 3.6 0.6 1.8 0.4 3.6 1 1.7 0.6 3.3 1.4 1.5 0.7 2.8 1.6 1.3 1 2.4 2.1 1.2 1.1 2.1 2.3 1 1.3 1.8 2.7 0.8 1.5 1.4 3.1 0.6 1.6 1 3.3 0.4 1.7 0.6 3.4 0.2 1.7 0.1 3.4 0 1.7-0.1 3.5-0.1 1.7-0.4 3.4-0.3 1.7-0.8 3.4-0.4 1.7-1 3.3-0.6 1.6-1.3 3.1-0.7 1.5-1.6 2.9-0.8 1.4-1.8 2.8-1 1.3-2.1 2.6zm-69.6-32.6q-0.5-0.7-1.2-1.2-0.7-0.5-1.5-0.9-0.8-0.3-1.7-0.4-0.8-0.2-1.7-0.1-0.9 0-1.7 0.1-0.9 0.1-1.7 0.3-0.9 0.3-1.7 0.6-0.8 0.4-1.5 0.8-0.8 0.5-1.4 1.1-0.7 0.5-1.3 1.1-0.7 0.7-1.2 1.3-0.6 0.7-1 1.5-0.6 0.7-1 1.5-0.5 0.9-0.8 1.7-0.4 0.8-0.7 1.7-0.4 0.9-0.6 1.8-0.3 0.8-0.5 1.7-0.2 0.9-0.3 1.8-0.1 0.9-0.2 1.8-0.1 0.9-0.1 1.9 0 1 0.1 2 0.1 1 0.4 1.9 0.3 1 0.7 1.9 0.5 0.9 1.1 1.7 0.6 0.7 1.3 1.2 0.7 0.6 1.5 0.9 0.9 0.4 1.8 0.5 0.8 0.2 1.7 0.1 0.9 0.1 1.8-0.1 0.9-0.1 1.8-0.3 0.8-0.3 1.7-0.7 0.8-0.4 1.5-0.9 0.7-0.5 1.4-1.1 0.7-0.6 1.3-1.2 0.6-0.7 1.1-1.4 0.5-0.7 1-1.5 0.4-0.8 0.9-1.6 0.4-0.9 0.7-1.7 0.4-0.9 0.7-1.8 0.2-0.9 0.5-1.8 0.2-0.9 0.4-1.7 0.1-0.9 0.2-1.8 0.2-0.9 0.2-1.7 0.1-0.9 0.1-1.8 0-4.6-2.1-7.2zm59 1.8q-0.3-0.6-0.6-1-0.3-0.5-0.7-1-0.4-0.4-0.8-0.8-0.4-0.3-0.9-0.6-0.6-0.3-1.1-0.5-0.6-0.3-1.1-0.4-0.6-0.2-1.2-0.2-0.6-0.1-1.2-0.1-0.9 0-1.8 0.1-0.8 0.1-1.7 0.4-0.8 0.3-1.6 0.6-0.8 0.4-1.5 0.9-0.7 0.6-1.3 1.1-0.7 0.6-1.3 1.3-0.6 0.7-1.1 1.4-0.5 0.7-0.9 1.5-0.5 0.8-0.9 1.6-0.4 0.9-0.7 1.7-0.4 0.9-0.6 1.8-0.3 0.9-0.5 1.8-0.2 0.9-0.4 1.8-0.2 0.9-0.3 1.8-0.1 0.9-0.1 1.8-0.1 0.9-0.1 1.8 0 4.8 2.4 7.4 0.6 0.7 1.3 1.2 0.7 0.5 1.5 0.8 0.8 0.4 1.7 0.5 0.9 0.2 1.8 0.2 0.8 0 1.7-0.1 0.9-0.2 1.7-0.4 0.9-0.3 1.7-0.7 0.7-0.4 1.5-0.9 0.7-0.5 1.3-1.1 0.7-0.6 1.2-1.3 0.6-0.6 1.1-1.4 0.5-0.7 1-1.5 0.4-0.8 0.8-1.6 0.4-0.9 0.8-1.7 0.3-0.9 0.6-1.8 0.3-0.9 0.5-1.8 0.2-0.9 0.3-1.8 0.2-0.9 0.3-1.8 0.1-0.9 0.2-1.8 0.1-0.9 0.1-1.8 0-0.7-0.1-1.4 0-0.7-0.2-1.4-0.1-0.6-0.3-1.3-0.2-0.7-0.5-1.3z"/></svg>
