<svg id="Agrupar_1" data-name="Agrupar 1" xmlns="http://www.w3.org/2000/svg" width="651" height="100" viewBox="0 0 651 100">
  <defs>
    <style>
      .cls-1 {
        fill: #5f2ebe;
      }

      .cls-1, .cls-2, .cls-3, .cls-4 {
        fill-rule: evenodd;
      }

      .cls-2 {
        fill: #fff;
      }

      .cls-3 {
        fill: #c8ff20;
      }

      .cls-4 {
        fill: #262f3c;
      }
    </style>
  </defs>
  <path id="Ret창ngulo_1" data-name="Ret창ngulo 1" class="cls-1" d="M14.233,0.178H85.761A14.078,14.078,0,0,1,99.839,14.256V85.832A14.078,14.078,0,0,1,85.761,99.909H14.233A14.078,14.078,0,0,1,.155,85.832V14.256A14.078,14.078,0,0,1,14.233.178Z"/>
  <path id="be" class="cls-2" d="M82.815,55.455a12.775,12.775,0,0,1-5.984,3.134,49.245,49.245,0,0,1-9.5,1.356q-2.748.161-5.853,0.242a12.455,12.455,0,0,0,.244,2.922,4.244,4.244,0,0,0,1.636,2.6,6.327,6.327,0,0,0,3.8.951,8.3,8.3,0,0,0,4.332-1.029,5.408,5.408,0,0,0,2.368-2.744L83.672,63.3a15.783,15.783,0,0,1-6.186,8.122,19.339,19.339,0,0,1-11.2,3.071,18.93,18.93,0,0,1-8.523-1.777,11.621,11.621,0,0,1-5.853-6.4c-0.233.4-.473,0.792-0.73,1.176a16.391,16.391,0,0,1-5.189,4.989,13.744,13.744,0,0,1-7.261,1.886,11.071,11.071,0,0,1-4.425-.811,8.085,8.085,0,0,1-3.054-2.229,8.827,8.827,0,0,1-1.714-3.258H29.283l-0.935,5.674H17.69l7.666-46.456H36.171L33.272,44.9h0.156a10.736,10.736,0,0,1,5.75-4.848,12.107,12.107,0,0,1,4.192-.7A11.657,11.657,0,0,1,49.587,41a11.123,11.123,0,0,1,4.207,4.77A13.616,13.616,0,0,1,54.627,48a19.727,19.727,0,0,1,2.524-3.082,18.96,18.96,0,0,1,6.264-4.131,20.557,20.557,0,0,1,7.853-1.465,19.21,19.21,0,0,1,6.9,1.185,11.051,11.051,0,0,1,4.908,3.508A9.135,9.135,0,0,1,84.888,49.8,7.715,7.715,0,0,1,82.815,55.455Zm-39.6-6.064a4.256,4.256,0,0,0-3.553-1.5,6.963,6.963,0,0,0-3.833,1.076,9.568,9.568,0,0,0-2.852,2.853A14.18,14.18,0,0,0,31.2,55.7a14.951,14.951,0,0,0-.608,4.162A6.67,6.67,0,0,0,31.9,64.232a4.5,4.5,0,0,0,3.677,1.59,6.639,6.639,0,0,0,3.911-1.169,9.546,9.546,0,0,0,2.758-3.024,14.922,14.922,0,0,0,1.621-3.991,16.913,16.913,0,0,0,.53-4.069A6.578,6.578,0,0,0,43.214,49.391Zm30.5-1.419a6.7,6.7,0,0,0-3.568-.8,7.532,7.532,0,0,0-4.41,1.169,7.656,7.656,0,0,0-2.556,3.04,14.518,14.518,0,0,0-.878,2.393c1.206-.03,2.3-0.068,3.277-0.117a38.781,38.781,0,0,0,5.828-.623,6.072,6.072,0,0,0,2.8-1.154,2.271,2.271,0,0,0,.764-1.715A2.473,2.473,0,0,0,73.715,47.972Z"/>
  <path id="Ret창ngulo_3_copiar" data-name="Ret창ngulo 3 copiar" class="cls-3" d="M344.1,5.835h235.3v89.94H344.1V5.835Z"/>
  <path id="Forma_1" data-name="Forma 1" class="cls-3" d="M578.106,5.84c0.107,0.013.211-.1,0.224,0.219a0.24,0.24,0,0,0,.149.183,6.413,6.413,0,0,1,1.072.225,2.872,2.872,0,0,1,1.456.425c0.1,0.078.22,0.126,0.272-.027,0.145-.433.32-0.28,0.514-0.167a5.233,5.233,0,0,0,1.665.506,0.165,0.165,0,0,0,.212-0.115,0.621,0.621,0,0,1,.063,0,4.471,4.471,0,0,0,.884-0.234c0.077-.055.183,0.022,0.237,0.146a1.306,1.306,0,0,0,1.31.776,4.238,4.238,0,0,0,1.282-.047,0.883,0.883,0,0,0,.706-0.357,0.8,0.8,0,0,1,1.154-.223,4.85,4.85,0,0,0,.878.347,3.94,3.94,0,0,1,.5.054,1.579,1.579,0,0,0,1.183.183,0.254,0.254,0,0,0,.194-0.246,3.6,3.6,0,0,1,.172-0.556c0.1-.2.31-0.27,0.325-0.071a5.09,5.09,0,0,0,.441.965,0.593,0.593,0,0,0,.254-0.07,1.7,1.7,0,0,0,.617-0.5c0.223-.251.3-0.172,0.285,0.282,0,0.176.044,0.213,0.109,0.207a1.974,1.974,0,0,0,.807.045,1.37,1.37,0,0,1,.928.071c0.087,0,.174-0.006.261,0a8.513,8.513,0,0,1,2.4.166,4.178,4.178,0,0,0,1.783,1.038,0.657,0.657,0,0,0,.491,0A0.636,0.636,0,0,0,601.1,8.87c0.091-.127.014-0.526,0.182-0.474a1.213,1.213,0,0,1,.785.228c0.2,0.23.319,0.221,0.52-.009a0.724,0.724,0,0,1,.665-0.358c0.184,0.113.292,0.42,0.485,0.548a0.448,0.448,0,0,1-.043.555,1.3,1.3,0,0,0,.436-0.352c0.143-.187.3-0.24,0.461-0.083s0.263,0.075.4-.053c0.655-.628.944-0.591,1.46,0.3,0.211,0.366.376,0.337,0.6,0.1a2.092,2.092,0,0,1,1.088-.553c0.207-.055.367,0.047,0.431,0.442a0.621,0.621,0,0,0,.042.158,0.749,0.749,0,0,0,1.063.03c0.106-.262.178-0.246,0.273-0.032a0.509,0.509,0,0,0,.369.331c0.145,0.032.326,0.164,0.234-.351a0.541,0.541,0,0,1,.178-0.5,0.3,0.3,0,0,1,.087-0.055,0.975,0.975,0,0,1,.757.469c0.135,0.163.256,0.217,0.373-.03,0.08-.169.185-0.239,0.293-0.152a1,1,0,0,0,1.228-.162,0.418,0.418,0,0,1,.319.108,0.6,0.6,0,0,1,.133.148c0.255,0.4.265,0.392,0.449-.158A1.551,1.551,0,0,1,615.09,8.7a0.145,0.145,0,0,1,.1-0.021,0.608,0.608,0,0,0,.212.138,8.616,8.616,0,0,1,1.219.267,0.386,0.386,0,0,1,.089.063c0.464,0.162.924,0.352,1.388,0.523,0.1,0.035.157,0.006,0.221-.143,0.135-.312.344-0.335,0.5-0.137a0.281,0.281,0,0,0,.444.094,0.393,0.393,0,0,1,.5.108,0.409,0.409,0,0,0,.4.18c0-.222-0.084-0.166-0.137-0.172-0.118-.015-0.273.027-0.279-0.262-0.006-.319.161-0.233,0.271-0.257H620.2a0.481,0.481,0,0,1,.187.025,0.529,0.529,0,0,0,.252.161,1.95,1.95,0,0,0,.274-0.078,1.3,1.3,0,0,1,.485.055,0.3,0.3,0,0,1,.146.282,0.2,0.2,0,0,1-.187.24c0.5-.166,1.028.252,1.521-0.206a0.8,0.8,0,0,1,.294,0c0.116,0.033.222,0.2,0.35,0.084a0.476,0.476,0,0,1,.516-0.034,3.165,3.165,0,0,1,.373.056,1.875,1.875,0,0,1,.212.117,0.769,0.769,0,0,1,.081.048,0.325,0.325,0,0,0,.287.018,0.146,0.146,0,0,1,.086.031,0.485,0.485,0,0,0,.683.147,4.931,4.931,0,0,1,1.632.14,0.476,0.476,0,0,1,.233.167,2.153,2.153,0,0,0,1.166.06,1.147,1.147,0,0,1,.663.215,2.816,2.816,0,0,1,1.1.483c0.16,0.153.3-.02,0.443-0.034a4.953,4.953,0,0,1,1.508.34,6.733,6.733,0,0,1,1.593,1.321,0.8,0.8,0,0,0,.363.353,0.408,0.408,0,0,1,.088.071,0.327,0.327,0,0,0,.081.1,1.464,1.464,0,0,1,.737,1.22c0.139,0.471-.117,1.537-0.412,1.555-0.319.018-.6,0.294-0.918,0.311a1.034,1.034,0,0,1-.454,0,6.453,6.453,0,0,0-1.714-.7,0.858,0.858,0,0,1-.519-0.309c-0.209-.235-0.428.11-0.66,0.051a2.581,2.581,0,0,1-.676-0.031c-0.109-.055-0.252,0-0.216.27a0.467,0.467,0,0,1-.25.6,1.029,1.029,0,0,1-.234.138,6.938,6.938,0,0,1-.7-0.06c0.412-.117.7,0.465,1.057,0.561a1.148,1.148,0,0,0,.9-0.242,1.228,1.228,0,0,1,1.211.046,0.379,0.379,0,0,1,.121.192c0.091,0.492.276,0.571,0.535,0.445a0.442,0.442,0,0,1,.437.185,0.526,0.526,0,0,0,.7.1,0.541,0.541,0,0,1,.7.058,4.33,4.33,0,0,0,1.691.548,19.679,19.679,0,0,0,2.656.466,6.692,6.692,0,0,0,1.2.107,2.945,2.945,0,0,1,.71.15,8.145,8.145,0,0,1,1.062.1,0.387,0.387,0,0,1,.106.031,0.678,0.678,0,0,0,.417.078c0.335,0.058.661,0.216,1,.284a8.945,8.945,0,0,0,1,.466,6.762,6.762,0,0,1,1.454.491,0.325,0.325,0,0,0,.32-0.037,2.073,2.073,0,0,1,1.765.571c0.152,0.156.291,0.118,0.427-.053a0.43,0.43,0,0,1,.466-0.12,2.292,2.292,0,0,1,1.152.5,0.381,0.381,0,0,1,.23.2,0.8,0.8,0,0,0,.818.694,0.38,0.38,0,0,1,.186.1,0.188,0.188,0,0,1,0,.3,3.366,3.366,0,0,1-.528.451c-0.238.1-.466,0.173-0.561-0.433-0.071-.461-0.239-0.336-0.435-0.158-0.418.381-.817,0.955-1.333,0.746a0.681,0.681,0,0,0-.541.031,0.612,0.612,0,0,0-.279.276,1.2,1.2,0,0,1-.729.411,0.506,0.506,0,0,0-.278.664,0.421,0.421,0,0,1-.2.537,1.579,1.579,0,0,0-.749.659c-0.117.191-.234,0.2-0.4,0.039a0.74,0.74,0,0,0-.807-0.149,0.538,0.538,0,0,0,.58.344,1.481,1.481,0,0,1,.749.868c0.055,0.446-.171.269-0.277,0.359-0.212.15-.258,0.3-0.007,0.475a0.494,0.494,0,0,1,.272.5,0.3,0.3,0,0,1-.261.348c-0.077.014-.07,0.032-0.041,0.162,0.084,0.377-.048.526-0.234,0.581a1.01,1.01,0,0,1-.195.021c-0.2.019-.309,0.165-0.231,0.558,0.075,0.377-.029.545-0.226,0.6a2.613,2.613,0,0,0-.351.123,0.292,0.292,0,0,0-.159.4c0.046,0.22.128,0.363,0.274,0.31a0.943,0.943,0,0,0,.3-0.328c0.128-.162.264-0.248,0.354,0.07,0.083,0.289.178,0.247,0.319,0.142,0.224-.168.334,0,0.282,0.427a0.565,0.565,0,0,0,.1.618,2.218,2.218,0,0,0,.985.391,0.457,0.457,0,0,1,.427.426,0.79,0.79,0,0,1-.24.734,0.837,0.837,0,0,0,.474.035c0.105,0.033.283,0.059,0.237,0.279a1.783,1.783,0,0,0,.341,1.31,3.341,3.341,0,0,1,.031,1.278c-0.052.12-.122,0.184-0.2,0.136a3.143,3.143,0,0,0-.736-0.06,0.391,0.391,0,0,0-.013.331c0.058,0.408-.058.583-0.264,0.632a2,2,0,0,0-.591.079c0.052,0.2.143,0.121,0.209,0.155a0.591,0.591,0,0,1,.216.577,0.409,0.409,0,0,1-.248.46,3.221,3.221,0,0,1-1.133.216,0.326,0.326,0,0,0-.3.16c-0.171.2-.354,0.313-0.547,0.078-0.027-.033-0.063-0.1-0.085-0.063-0.277.51-.647,0.191-0.962,0.353a1.885,1.885,0,0,1-.27.178,0.459,0.459,0,0,0-.068.6,0.6,0.6,0,0,1,.06.117,1.418,1.418,0,0,1,.043.141,1.658,1.658,0,0,0,.418.788,0.768,0.768,0,0,1,.038,1.012,2.431,2.431,0,0,0-.375.253,1.452,1.452,0,0,1-.157.159,0.547,0.547,0,0,0-.02.82,1.132,1.132,0,0,0,.851.686,0.316,0.316,0,0,1,.319.245c0.26,0.891.833,1.431,0.888,2.557,0.012,0.248.007,0.523-.128,0.472-0.269-.1-0.388.244-0.56,0.445a4.666,4.666,0,0,0-.668.582,7.864,7.864,0,0,1-1.556.529,0.776,0.776,0,0,0-.435.269c-0.193.078-.394,0.054-0.587,0.132a1.424,1.424,0,0,0-1.526.721,1.1,1.1,0,0,1,.638-0.094,0.273,0.273,0,0,1,.09.032,1.256,1.256,0,0,1,.123.1,0.6,0.6,0,0,0,.154.089c0.35,0.154.677,0.529,1.063,0.092,0.294-.332.54,0.1,0.784,0.361,0.108,0.3.4,0.023,0.469,0.5a6.383,6.383,0,0,0,.1.964,0.432,0.432,0,0,1-.13.5,1.132,1.132,0,0,1-.962-0.043,0.748,0.748,0,0,0-.607.069c-0.411.1-.789,0.458-1.211,0.535a2.2,2.2,0,0,0-.483.568c-0.13.067-.235-0.028-0.24-0.254-0.009-.4-0.131-0.342-0.263-0.255a0.921,0.921,0,0,1-.45.126,0.426,0.426,0,0,1,.25,0,0.323,0.323,0,0,1,.208.367c-0.132.471,0.05,0.963-.065,1.411-0.055.212,0,.3,0.1,0.339,0.2,0.075.395,0.325,0.626,0.083,0.165-.173.288,0.083,0.388,0.283a0.458,0.458,0,0,1-.094.556,2.929,2.929,0,0,0,.694-0.054c0.16-.079.282,0.289,0.188,0.552a0.688,0.688,0,0,0,0,.76,0.673,0.673,0,0,1-.052.578c-0.076.18-.181,0.224-0.289,0.1-0.235-.266-0.378-0.157-0.469.3a1.418,1.418,0,0,1-.232.486c-0.117.193-.228,0.349-0.393,0.088-0.139-.219-0.241-0.072-0.209.213a2.955,2.955,0,0,1-.073,1.13,0.452,0.452,0,0,0,.129.512,0.483,0.483,0,0,0,.4.308c0.167,0.053.425-.14,0.451,0.327a0.4,0.4,0,0,1-.4.5c-0.565.083-.807,0.86-1.093,1.548a1.084,1.084,0,0,1-.552.56c-0.091.045-.186,0.068-0.276,0.123a0.4,0.4,0,0,1-.092.035,1.322,1.322,0,0,0-.588.113c0.129-.024.3-0.084,0.345,0.358a0.915,0.915,0,0,1-.368.845,0.988,0.988,0,0,1-.292-0.02c-0.319,0-.446.24-0.415,0.811a1.261,1.261,0,0,1-.085.6c-0.137.155-.268,0.066-0.4-0.018a0.678,0.678,0,0,0-.648-0.129,0.836,0.836,0,0,1,.453.037,0.44,0.44,0,0,1,.3.381,0.836,0.836,0,0,1-.137.661,0.443,0.443,0,0,0-.1.21c0.14,0.139.259,0,.379-0.092,0.077-.061.148-0.071,0.2,0.063a0.36,0.36,0,0,1,.011.271,6.772,6.772,0,0,1-.613,1.58c-0.262.306-.463,0.762-0.732,1.06a0.555,0.555,0,0,1-.169.153,0.5,0.5,0,0,0-.364.55,0.634,0.634,0,0,1-.438.663c-0.12.019-.228,0.146-0.345,0.168-0.263.051-.4,0.254-0.435,0.76a0.693,0.693,0,0,1-.6.79,0.417,0.417,0,0,0-.427.2,0.324,0.324,0,0,1-.4.156,0.533,0.533,0,0,0-.659.341,0.542,0.542,0,0,1-.452.279,0.611,0.611,0,0,0-.464.373,0.851,0.851,0,0,0-.08.728,2.227,2.227,0,0,1,.1.85c0.134-.122.251-0.28,0.4-0.074a1.153,1.153,0,0,1,.136.787,2.132,2.132,0,0,1-.142.582,1.933,1.933,0,0,1-.9,1,5.5,5.5,0,0,0-.593.252,0.935,0.935,0,0,0-.414.97,4.191,4.191,0,0,1-.2,1.027,0.251,0.251,0,0,1-.313.224,1.175,1.175,0,0,0-.882,1.175,1.4,1.4,0,0,1-.325.759c0.038,0.208.148,0.139,0.22,0.206a0.714,0.714,0,0,1,.093.925,4.83,4.83,0,0,1-.739,1.029,1.75,1.75,0,0,0-.951.713,1.075,1.075,0,0,0-.053,1.144,4.139,4.139,0,0,1,.215,1.133,0.253,0.253,0,0,1-.148.308,0.538,0.538,0,0,0-.311.135,0.684,0.684,0,0,1-.116.12,0.583,0.583,0,0,0-.041.529,4.633,4.633,0,0,1-.056,1.034,1.665,1.665,0,0,0,.114,1.128,5.586,5.586,0,0,1,.481,1.78c0.025,0.207.179,0.22,0.208,0.425a0.476,0.476,0,0,1-.151.582,5.972,5.972,0,0,1-1.492.606,0.647,0.647,0,0,0-.36.246c-0.268.308-.559,0.264-0.8-0.1-0.093-.139-0.186-0.274-0.319-0.2a0.071,0.071,0,0,0,.029.085,0.48,0.48,0,0,1,.305.555c-0.052.317-.262,0.171-0.4,0.117a0.637,0.637,0,0,0-.479.107c-0.032.024-.062,0.048-0.093,0.074a2.94,2.94,0,0,1-1.686.056,0.139,0.139,0,0,0-.153.043l-0.012-.012a5.493,5.493,0,0,0-.629.258,2.592,2.592,0,0,1-.424.015,0.534,0.534,0,0,0-.739.242,0.337,0.337,0,0,1-.362.167c-0.151-.023-0.26-0.364-0.438-0.18a0.843,0.843,0,0,1-.377.2,0.412,0.412,0,0,1-.131-0.513,0.24,0.24,0,0,0-.2-0.183,2.8,2.8,0,0,0-.726-0.056,0.583,0.583,0,0,1,.119.564c-0.089.216-.226,0.34-0.369,0.254a0.411,0.411,0,0,0-.466.106,1.774,1.774,0,0,1-1.476-.019,0.5,0.5,0,0,0-.632.078,0.334,0.334,0,0,1-.283.1,3.888,3.888,0,0,1-1.485-.144,0.788,0.788,0,0,0-.667.093,3.182,3.182,0,0,1-1.572.112,2.612,2.612,0,0,0-1.553.09,1.151,1.151,0,0,1-.9-0.133,1.486,1.486,0,0,0-.864-0.252,6.737,6.737,0,0,0-1.492.051,3.112,3.112,0,0,1-1.29-.248,9.964,9.964,0,0,0-2.41-.145,8.345,8.345,0,0,1-1.053-.174,1.065,1.065,0,0,1-.769-0.058L597.82,97a9.234,9.234,0,0,0-1.867-.211,3.935,3.935,0,0,1-1.611-.264,4.16,4.16,0,0,0-2.163-.176,2.753,2.753,0,0,1-1.021-.245c-0.052,0-.1-0.095-0.156-0.054-0.684.519-1.36,0.151-2.039-.047-0.043-.012.011,0-0.032,0a5.081,5.081,0,0,0-1.465-.123,1.108,1.108,0,0,0-.645.132,0.325,0.325,0,0,1-.4-0.078,0.883,0.883,0,0,0-1.13,0,0.5,0.5,0,0,1-.373.168,12.2,12.2,0,0,1-1.491-.264,0.063,0.063,0,0,0-.031-0.015c-0.87.254-1.629-.843-2.5-0.648a1.272,1.272,0,0,1-1.249-.134,0.211,0.211,0,0,0-.258.007,1.033,1.033,0,0,1-1.086-.127,1.42,1.42,0,0,0-.9-0.155"/>
  <path id="bomestudo" class="cls-4" d="M610.954,76.7a26.873,26.873,0,0,1-8.8,10.77,22.884,22.884,0,0,1-25.728,0,26.884,26.884,0,0,1-8.881-10.77,35.582,35.582,0,0,1-3.229-15.428,35.668,35.668,0,0,1,3.229-15.508,26.722,26.722,0,0,1,8.881-10.716,22.97,22.97,0,0,1,25.7,0,26.587,26.587,0,0,1,8.827,10.743,35.987,35.987,0,0,1,3.2,15.481A35.851,35.851,0,0,1,610.954,76.7ZM608.8,47a24.1,24.1,0,0,0-7.939-9.827,20.381,20.381,0,0,0-23.117.027,24.632,24.632,0,0,0-8.02,9.827,33.012,33.012,0,0,0-2.933,14.243,33.235,33.235,0,0,0,2.933,14.243,24.348,24.348,0,0,0,8.02,9.854,20.445,20.445,0,0,0,23.117,0,24.052,24.052,0,0,0,7.939-9.854,33.782,33.782,0,0,0,2.879-14.243A33.739,33.739,0,0,0,608.8,47ZM556.88,75.271h-0.216a22.527,22.527,0,0,1-4.413,8.347,21.916,21.916,0,0,1-7.374,5.735,21.558,21.558,0,0,1-9.473,2.073A21.283,21.283,0,0,1,522.89,87.6a25.491,25.491,0,0,1-8.558-10.635,37.577,37.577,0,0,1-3.095-15.7,37.178,37.178,0,0,1,3.122-15.643,25.892,25.892,0,0,1,8.585-10.662,21.1,21.1,0,0,1,12.46-3.85,21.664,21.664,0,0,1,9.527,2.1,22.068,22.068,0,0,1,7.427,5.762,21.29,21.29,0,0,1,4.306,8.4h0.216V10.114h2.475V90.349H556.88V75.271Zm-2.665-28.459a22.756,22.756,0,0,0-7.481-9.72,19.913,19.913,0,0,0-22.552,0,23.171,23.171,0,0,0-7.7,9.72,35.23,35.23,0,0,0-2.772,14.458,35.086,35.086,0,0,0,2.772,14.4,23.442,23.442,0,0,0,7.67,9.747,19.831,19.831,0,0,0,22.579,0,22.943,22.943,0,0,0,7.481-9.747,36.325,36.325,0,0,0,2.665-14.4A36.475,36.475,0,0,0,554.215,46.812ZM503.747,79.353a16.525,16.525,0,0,1-7,8.411,23.893,23.893,0,0,1-12.594,3.446A22.138,22.138,0,0,1,473.283,88.6a19.015,19.015,0,0,1-7.427-7.27,21.184,21.184,0,0,1-2.692-10.8V31.977h2.476V70.533q0,8.186,5.167,13.193t13.349,5.008a21.187,21.187,0,0,0,10.038-2.342,17.883,17.883,0,0,0,7-6.462,17.461,17.461,0,0,0,2.556-9.4V31.977h2.476V90.349h-2.476v-11Zm-52.513,6.931q2.342,2.235,6.755,1.75,0.807-.053,1.587-0.108l1.588-.108,0.216,2.423q-0.755.054-1.561,0.108l-1.615.108q-5.6.646-8.693-2.423t-3.094-8.777v-44.8H437.59V31.977h8.827V17.007h2.476v14.97H461.38v2.477H448.893v44.8Q448.893,84.05,451.234,86.284ZM437.42,47.378q-1.185-6.785-5.3-10.231T421,33.7q-7.426,0-12,3.635A11.723,11.723,0,0,0,404.426,47a9.519,9.519,0,0,0,3.148,7.485q3.15,2.8,9.339,4.308l9.742,2.369q6.728,1.616,10.334,4.846a11.26,11.26,0,0,1,3.606,8.831,15.051,15.051,0,0,1-2.5,8.616,16.537,16.537,0,0,1-7.024,5.789,25.1,25.1,0,0,1-10.549,2.073A23.759,23.759,0,0,1,410.346,89.3a16.8,16.8,0,0,1-6.862-5.735,19.137,19.137,0,0,1-3.149-8.777l2.476-.269a15.314,15.314,0,0,0,5.3,10.528q4.546,3.8,12.406,3.8,7.965,0,12.783-3.877a12.379,12.379,0,0,0,4.817-10.124,9.021,9.021,0,0,0-3.041-7.27q-3.04-2.585-8.961-3.985l-9.635-2.369q-7.158-1.723-10.845-5.169A11.805,11.805,0,0,1,401.95,47a14.484,14.484,0,0,1,2.4-8.293,15.73,15.73,0,0,1,6.7-5.52A23.759,23.759,0,0,1,421,31.223a21.422,21.422,0,0,1,9.177,1.831,16.137,16.137,0,0,1,6.4,5.358,20.176,20.176,0,0,1,3.31,8.7Zm-82.9,27.894a24.26,24.26,0,0,0,8.02,9.989,20.383,20.383,0,0,0,12.164,3.689A21.335,21.335,0,0,0,390.827,82a18.312,18.312,0,0,0,3.9-6.462l2.368,0.592a20.405,20.405,0,0,1-4.44,7.512,24.257,24.257,0,0,1-7.7,5.627,23.677,23.677,0,0,1-10.253,2.154,22.9,22.9,0,0,1-13.3-3.958,26.544,26.544,0,0,1-8.988-10.77,35.582,35.582,0,0,1-3.23-15.428,35.717,35.717,0,0,1,3.23-15.481,26.687,26.687,0,0,1,8.881-10.743,21.984,21.984,0,0,1,12.863-3.931,22.276,22.276,0,0,1,9.9,2.181,23.806,23.806,0,0,1,7.777,6.085,27.786,27.786,0,0,1,5.087,9.127,35.088,35.088,0,0,1,1.776,11.362v1.346H351.673A33.905,33.905,0,0,0,354.523,75.271Zm41.7-16.532a29.242,29.242,0,0,0-2.863-12.52,23.457,23.457,0,0,0-7.858-9.235,20.438,20.438,0,0,0-22.794.161,24.443,24.443,0,0,0-8.073,9.693,30.929,30.929,0,0,0-2.9,11.9h44.488ZM342.512,90.349H323.889l5.867-35.54a10.892,10.892,0,0,0-.135-4.954,4.792,4.792,0,0,0-2.153-2.827,7.466,7.466,0,0,0-3.8-.889,10.8,10.8,0,0,0-5.3,1.319,11.283,11.283,0,0,0-3.956,3.635,13.059,13.059,0,0,0-2.045,5.223l-5.652,34.033H288.85l5.92-35.756q0.7-4.2-.942-6.327a6.022,6.022,0,0,0-5.086-2.127,10.642,10.642,0,0,0-5.167,1.319,11.739,11.739,0,0,0-4.064,3.689,13.533,13.533,0,0,0-2.179,5.493l-5.6,33.709H253.111l9.634-58.372h17.6l-1.322,10.345a23.642,23.642,0,0,1,3.824-5.229,20.045,20.045,0,0,1,6.917-4.685,20.376,20.376,0,0,1,7.481-1.454,15.835,15.835,0,0,1,7.912,1.885,12.837,12.837,0,0,1,5.194,5.573,17.826,17.826,0,0,1,1.585,5,22.767,22.767,0,0,1,4.2-5.911,21.658,21.658,0,0,1,7.535-4.954,23.447,23.447,0,0,1,8.451-1.588,18.411,18.411,0,0,1,9.984,2.585,14.746,14.746,0,0,1,5.974,7.3,20.535,20.535,0,0,1,.781,11.066ZM249.066,80.9a31.836,31.836,0,0,1-10.846,7.835,35.027,35.027,0,0,1-14.451,2.854,30.188,30.188,0,0,1-14.156-3.1,21.639,21.639,0,0,1-9.069-8.7,24.586,24.586,0,0,1-2.878-8.995,40.031,40.031,0,0,1-4.4,8.752,28.308,28.308,0,0,1-8.962,8.616,23.736,23.736,0,0,1-12.54,3.258,19.117,19.117,0,0,1-7.643-1.4,13.962,13.962,0,0,1-5.275-3.85,15.236,15.236,0,0,1-2.96-5.627h-0.431l-1.615,9.8H135.436l13.24-80.235h18.677l-5.006,30.425h0.27a18.538,18.538,0,0,1,9.93-8.373,20.915,20.915,0,0,1,7.239-1.212,20.131,20.131,0,0,1,10.738,2.854,19.214,19.214,0,0,1,7.266,8.239,27.2,27.2,0,0,1,2.469,9.668,34.489,34.489,0,0,1,6.5-10.287,31.873,31.873,0,0,1,10.873-7.7,35.149,35.149,0,0,1,14.209-2.773,30.37,30.37,0,0,1,14.183,3.069,21.475,21.475,0,0,1,9.042,8.7,26.639,26.639,0,0,1,3.149,13.22,39.225,39.225,0,0,1-2.342,13.57A34.739,34.739,0,0,1,249.066,80.9ZM179.517,48.293a7.35,7.35,0,0,0-6.136-2.585,12.025,12.025,0,0,0-6.62,1.858,16.527,16.527,0,0,0-4.925,4.927,24.514,24.514,0,0,0-3.068,6.7,25.847,25.847,0,0,0-1.049,7.189,11.52,11.52,0,0,0,2.26,7.539,7.766,7.766,0,0,0,6.351,2.746,11.465,11.465,0,0,0,6.755-2.019,16.5,16.5,0,0,0,4.764-5.223,25.772,25.772,0,0,0,2.8-6.893,29.2,29.2,0,0,0,.915-7.027Q181.562,50.878,179.517,48.293Zm58.945,1.8a7.748,7.748,0,0,0-3.014-3.392,8.756,8.756,0,0,0-4.575-1.158,10.921,10.921,0,0,0-6.566,2.019,16.3,16.3,0,0,0-4.629,5.223,26.056,26.056,0,0,0-2.718,6.947,31.135,31.135,0,0,0-.888,7.189q0,4.793,2.4,7.431a8.067,8.067,0,0,0,6.27,2.639,10.793,10.793,0,0,0,6.594-2.046,16.669,16.669,0,0,0,4.6-5.277,26.493,26.493,0,0,0,2.718-6.973,30.918,30.918,0,0,0,.888-7.135A12.52,12.52,0,0,0,238.462,50.1Z"/>
</svg>
