<svg version="1.2" xmlns="http://www.w3.org/2000/svg" viewBox="0 0 194 24" width="194" height="24"><style>.a{fill:#5f2ebe}</style><path fill-rule="evenodd" class="a" d="m37.5 11.7q0 0 0 0 0 0 0 0zm0 0q2 0.5 3.1 1.9c0.7 0.9 1.1 2.1 1 3.3q0 2.9-1.8 4.5-1.9 1.5-5.4 1.5h-11.4v-21.9h11.1q3.3 0 5.2 1.4 1.9 1.5 1.9 4.3 0 1.9-1 3.2c-0.7 0.9-1.6 1.5-2.7 1.8zm-7.7-2.2h2.6q1 0 1.4-0.3 0.4-0.4 0.4-1.2 0-0.8-0.4-1.2-0.4-0.4-1.4-0.4h-2.6zm3.1 7.9q0.9 0 1.4-0.3 0.4-0.4 0.4-1.2 0-1.6-1.8-1.6h-3.1v3.1zm13.3 4.7c-1.3-0.7-2.4-1.8-3.2-3.1q-1.2-2.1-1.2-4.8 0-2.7 1.2-4.8c0.8-1.3 1.9-2.4 3.2-3.1 1.5-0.7 3.1-1.1 4.7-1.1 1.6 0 3.2 0.4 4.7 1.1 1.4 0.7 2.5 1.8 3.3 3.1q1.1 2.1 1.1 4.8 0 2.7-1.1 4.8c-0.8 1.3-1.9 2.4-3.3 3.1-1.4 0.7-3.1 1.1-4.7 1.1-1.6 0-3.2-0.4-4.7-1.1zm4.7-4.9q0.5 0 0.9-0.2 0.4-0.2 0.7-0.6 0.7-0.7 0.7-2.2 0-1.5-0.7-2.3-0.3-0.3-0.7-0.5-0.4-0.2-0.9-0.2-0.4 0-0.9 0.2-0.4 0.2-0.7 0.5-0.6 0.8-0.6 2.3 0 1.5 0.6 2.2 0.3 0.4 0.7 0.6 0.5 0.2 0.9 0.2zm38.2-9.9q1.8 2.1 1.8 5.5v10.1h-6.7v-9.2q0-1.1-0.7-1.8c-0.5-0.4-1.1-0.6-1.7-0.6q-1.2 0-1.8 0.6-0.7 0.7-0.7 1.8v9.2h-6.7v-9.2q0-1.1-0.7-1.8c-0.5-0.4-1.1-0.6-1.7-0.6q-1.2 0-1.8 0.6-0.7 0.7-0.7 1.8v9.2h-6.7v-17.4h6.7v2.3c0.6-0.7 1.2-1.4 2.1-1.8 0.9-0.5 1.9-0.7 2.9-0.7 1.2 0 2.3 0.3 3.3 0.9 1 0.5 1.8 1.3 2.3 2.3 0.7-1 1.5-1.7 2.4-2.3 1-0.6 2.2-0.9 3.3-0.9q3.3 0 5.1 2zm18-0.8h-7.7v2.7h6.8v5.2h-6.8v3.1h7.7v5.4h-14.5v-21.9h14.5zm4.7 15.9c-1.2-0.5-2.2-1.3-3-2.3-0.7-0.9-1.2-2-1.3-3.2h6.6q0 0.4 0.2 0.7 0.1 0.3 0.4 0.5c0.4 0.2 0.9 0.3 1.4 0.3q0.4 0 0.8-0.2 0.1-0.1 0.2-0.3 0.1-0.1 0.1-0.3 0-0.6-0.6-0.8-1.1-0.4-2.2-0.6-1.6-0.3-3.1-0.8c-0.8-0.3-1.5-0.8-2.1-1.5q-0.9-1-0.9-2.9c0-1 0.3-2 0.8-2.9 0.7-0.9 1.5-1.7 2.5-2.1q1.7-0.7 4-0.7 3.5 0 5.5 1.7c1.3 1.1 2.2 2.8 2.4 4.5h-6c-0.1-0.4-0.4-0.8-0.7-1.1-0.4-0.3-0.8-0.4-1.3-0.4q-0.4 0-0.8 0.2-0.1 0.1-0.2 0.3-0.1 0.2-0.1 0.3 0 0.6 0.7 0.8 1 0.4 2 0.6 1.6 0.3 3.2 0.8c0.8 0.3 1.6 0.9 2.2 1.6q0.9 1.1 0.9 3.1c0.1 1-0.3 2-0.8 2.8-0.7 0.9-1.6 1.6-2.6 2-1.2 0.5-2.6 0.7-3.9 0.7-1.5 0-2.9-0.3-4.3-0.8zm23.9-5.3v5.9h-2.6q-7.1 0-7.1-7.2v-4.6h-2.2v-5.7h2.2v-4.2h6.8v4.2h2.8v5.7h-2.8v4.7q0 0.6 0.3 0.9 0.3 0.3 0.9 0.3zm19.7-11.6v17.5h-6.8v-2.7c-0.6 0.8-1.3 1.5-2.2 2-0.9 0.5-2 0.8-3.1 0.8q-3 0-4.6-2-1.7-2.1-1.7-5.5v-10.1h6.7v9.2q0 1.3 0.7 2 0.3 0.4 0.8 0.6 0.5 0.2 1 0.1 1.1 0 1.7-0.7 0.7-0.7 0.7-2v-9.2zm1.8 3.9c0.6-1.2 1.5-2.3 2.6-3.1 1.1-0.7 2.3-1.1 3.6-1 1-0.1 2 0.2 2.9 0.6 0.8 0.5 1.4 1.2 1.9 2v-7.9h6.8v23h-6.8v-2.4c-0.5 0.8-1.1 1.4-1.9 1.9-0.9 0.5-1.9 0.7-2.9 0.7-1.3 0-2.5-0.4-3.6-1.1-1.1-0.8-2-1.8-2.6-3.1q-0.9-2-0.9-4.8 0-2.7 0.9-4.8zm10.3 2.6q-0.4-0.3-0.8-0.5-0.5-0.2-1-0.2-0.5 0-1 0.2-0.5 0.2-0.8 0.5-0.7 0.8-0.7 2.2 0 1.4 0.7 2.2 0.3 0.3 0.8 0.6 0.5 0.2 1 0.2 0.5 0 1-0.2 0.4-0.3 0.8-0.6 0.7-0.8 0.7-2.2 0-1.4-0.7-2.2zm12.8 10.1c-1.4-0.7-2.5-1.8-3.3-3.1q-1.1-2.1-1.1-4.8 0-2.7 1.1-4.7c0.8-1.4 1.9-2.5 3.3-3.2 1.5-0.7 3.1-1 4.7-1 1.6 0 3.2 0.3 4.7 1 1.3 0.7 2.5 1.8 3.2 3.2q1.2 2 1.2 4.7 0 2.7-1.2 4.8c-0.7 1.3-1.9 2.4-3.2 3.1-1.5 0.7-3.1 1.1-4.7 1.1-1.6 0-3.2-0.4-4.7-1.1zm5.6-5.1q0.4-0.2 0.7-0.5 0.6-0.8 0.6-2.3 0-1.5-0.6-2.2-0.3-0.4-0.7-0.6-0.5-0.2-0.9-0.2-0.5 0-0.9 0.2-0.4 0.2-0.7 0.6-0.6 0.7-0.6 2.2 0 1.5 0.6 2.3 0.3 0.3 0.7 0.5 0.4 0.2 0.9 0.2 0.4 0 0.9-0.2zm-165-11.7l-4.6 7.6v7.2c0 0 0 0.2-0.4 0.5-0.3 0.4-0.5 0.4-0.5 0.4h-7.9v1.1h8.3q0.2 0 0.3 0.1 0.1 0.1 0.1 0.3 0 0.2-0.1 0.3-0.1 0.2-0.3 0.2h-8.3v1l-1.9-1-1.9 1v-3h-2.3v1.1h2v0.9h-2c0 0-1.3-0.1-1.3-2v-18.9c0 0 0-0.3 0.4-0.7 0.4-0.4 0.6-0.4 0.6-0.4h14.2c0 0 0.3 0 0.6 0.4 0.5 0.5 0.4 0.6 0.4 0.6v2.4l-8.1 8.1-3.6-3.5-2.7 2.8 6.3 6.4 8.1-8.2z"/></svg>